<?xml version="1.0" encoding="UTF-8"?>
<svg width="64px" height="64px" viewBox="0 0 64 64" version="1.1" xmlns="http://www.w3.org/2000/svg" xmlns:xlink="http://www.w3.org/1999/xlink">
    <!-- Generator: Sketch 53 (72520) - https://sketchapp.com -->
    <title>02. Icon / Filled / Category / Music / b. Selected</title>
    <desc>Created with Sketch.</desc>
    <g id="02.-Icon-/-Filled-/-Category-/-Music-/-b.-Selected" stroke="none" stroke-width="1" fill="none" fill-rule="evenodd">
        <path d="M50.7773183,43.2478366 L50.7773183,44.844495 C50.7773183,45.0333816 50.5884317,45.2222682 50.3995452,45.2222682 L47.3773597,45.2222682 C47.1884731,45.2222682 46.9995865,45.0333816 46.9995865,44.844495 L46.9995865,48.2444536 C46.9995865,48.6222268 46.6218133,49 46.2440401,49 L40.1996692,49 C39.821896,49 39.4441228,48.6222268 39.4441228,48.2444536 L39.4441228,34.644619 C39.4441228,34.2668458 39.821896,33.8890727 40.1996692,33.8890727 L46.2440401,33.8890727 C46.6218133,33.8890727 46.9995865,34.2668458 46.9995865,34.644619 L46.9995865,38.0445777 C46.9995865,38.0411185 46.9996499,38.0376594 46.9997754,38.0342014 L46.9997754,33.888506 C46.9997754,24.7936166 38.8530967,17.5063719 29.4975438,18.9645764 C22.0724119,20.1224512 16.7779207,26.8335918 16.7779207,34.3475004 L16.7779207,34.6299571 C16.787507,34.2571339 17.1603926,33.8890727 17.5332782,33.8890727 L23.5776491,33.8890727 C23.9554223,33.8890727 24.3331955,34.2668458 24.3331955,34.644619 L24.3331955,48.2444536 C24.3331955,48.6222268 23.9554223,49 23.5776491,49 L17.5332782,49 C17.155505,49 16.7777318,48.6222268 16.7777318,48.2444536 L16.7777318,44.844495 C16.7777318,45.0333816 16.5888452,45.2222682 16.3999587,45.2222682 L13.3777732,45.2222682 C13.1888866,45.2222682 13,45.0333816 13,44.844495 L13,38.0445777 C13,38.0411185 13.0000633,38.0376594 13.0001889,38.0342014 L13.0001889,33.888506 C13.0001889,22.8801954 22.5465172,13.9911924 33.7682696,15.0924013 C43.5355953,16.0500563 50.7775072,24.6632849 50.7775072,34.4778322 L50.7775072,43.2478366 Z" id="Combined-Shape" fill="#FFFFFF"></path>
    </g>
</svg>