<?xml version="1.0" encoding="UTF-8"?>
<svg width="80px" height="80px" viewBox="0 0 80 80" version="1.1" xmlns="http://www.w3.org/2000/svg" xmlns:xlink="http://www.w3.org/1999/xlink">
    <!-- Generator: sketchtool 52.4 (67378) - http://www.bohemiancoding.com/sketch -->
    <title>92C14E06-028E-45FD-9905-09B6A19229C6</title>
    <desc>Created with sketchtool.</desc>
    <g id="Assets" stroke="none" stroke-width="1" fill="none" fill-rule="evenodd">
        <g id="02.-Icons" transform="translate(-120.000000, -4337.000000)">
            <g id="05.-Profile-/-Avatar-5" transform="translate(120.000000, 4337.000000)">
                <circle id="Bg---oval" stroke="#719E19" cx="40" cy="40" r="39.5"></circle>
                <g id="avatar_5" fill-rule="evenodd">
                    <path d="M29.119403,74.3562189 C29.9532338,72.9900498 31.1940299,72.0925373 32.6945274,71.6069652 C34.2338308,71.1094527 35.9164179,71.4766169 37.3044776,72.2099502 C38.0726368,72.6159204 38.761194,73.3114428 39.2756219,74.1004975 C40.8559932,74.7029321 42.4879383,75.1602098 44.1512438,75.4666667 C44.6552294,75.4949336 45.16056,75.488617 45.6636816,75.4477612 C46.2238887,75.3373477 46.7760444,75.1894192 47.3164179,75.0049751 C47.9680438,74.6742726 48.5942985,74.2957926 49.1900498,73.8726368 C50.0995025,73.1144279 50.960199,72.2995025 51.8258706,71.4915423 C52.9940299,70.3970149 54.2139303,69.3830846 55.4477612,68.3741294 C58.6577114,65.7572139 61.9950249,63.2995025 65.280597,60.7800995 C66.9402985,59.4865672 68.5800995,58.1731343 70.1711443,56.8 C71.7621891,55.4268657 73.3552239,54.0288557 74.7084577,52.4218905 C75.4260117,51.4324654 76.0565583,50.3827751 76.5930348,49.2845771 C76.8547865,48.5656925 77.0613551,47.8278998 77.2109453,47.0776119 C77.2603392,46.3719207 77.2580113,45.6635603 77.2039801,44.958209 C76.9739253,43.7760767 76.6375671,42.6171396 76.199005,41.4955224 C74.0497512,36.759204 70.8487562,32.5333333 68.0179104,28.2 C67.1353234,26.8487562 67.0676617,25.1154229 67.4149254,23.5900498 C67.7621891,22.0646766 68.8865672,20.8378109 70.1641791,20.0149254 C71.2228856,19.3323383 72.7233831,19.0965174 74.0228856,19.2646766 C72.38716,16.6151301 70.4483922,14.1651233 68.2457711,11.9641791 C58.2280337,1.73447677 43.4877013,-2.32616282 29.6446012,1.33039998 C15.801501,4.98696278 4.98920128,15.7971601 1.32994655,29.6395489 C-2.32930817,43.4819378 1.72846486,58.2230595 11.9562189,68.2427861 C16.5056629,72.8117163 22.1018788,76.2007332 28.2587065,78.1154229 C28.140153,76.8028185 28.4415386,75.4864777 29.119403,74.3562189 Z" id="Path" fill="#D12149"></path>
                    <path d="M68.2427861,11.9562189 C60.7951244,4.46760018 50.6610483,0.269790983 40.0995025,0.298507463 C39.6258706,0.298507463 39.1542289,0.309452736 38.6835821,0.326368159 C30.8696517,6.21691542 25.7940299,15.5701493 25.7940299,26.0527363 L25.7940299,57.9273632 L66.5283582,57.9273632 L66.5283582,69.8577114 C67.1127695,69.3376451 67.6845771,68.7993367 68.2437811,68.2427861 C75.7080548,60.7786331 79.9014503,50.6549967 79.9014503,40.099005 C79.9014503,29.5430132 75.7080548,19.4193769 68.2437811,11.9552239 L68.2427861,11.9562189 Z" id="Path" fill="#00B49C"></path>
                    <path d="M48.8487562,14.4686567 L27.960199,14.4686567 C26.5248602,18.1619745 25.7899413,22.0903149 25.7930348,26.0527363 L25.7930348,77.2636816 C30.3592882,79.0143554 35.209158,79.9082318 40.0995025,79.9004975 C50.2577114,79.9004975 59.8328358,76.119403 67.2218905,69.2248756 L67.2218905,32.7950249 C67.2218905,32.6437811 67.2218905,32.492869 67.2218905,32.3422886 C67.0368159,22.3880597 58.8059701,14.4686567 48.8487562,14.4686567 Z" id="Path" fill="#FFFFFF"></path>
                    <path d="M19.6716418,45.3174129 L30.9761194,51.840796 C31.9000009,52.3741995 33.0383127,52.3740172 33.9620233,51.8403178 C34.8857339,51.3066183 35.4544156,50.3205377 35.4537313,49.2537313 L35.4537313,36.2059701 C35.4544156,35.1391638 34.8857339,34.1530832 33.9620233,33.6193837 C33.0383127,33.0856843 31.9000009,33.085502 30.9761194,33.6189055 L19.6716418,40.1472637 C18.7481305,40.6805157 18.1792358,41.665928 18.1792358,42.7323383 C18.1792358,43.7987486 18.7481305,44.7841609 19.6716418,45.3174129 Z" id="Path" fill="#FFD400"></path>
                    <circle id="Oval" fill="#232531" cx="49.2" cy="32.1681592" r="5.12537313"></circle>
                    <path d="M46.4425328,42.8011497 L46.4425328,42.8011497 C47.0918108,42.8011497 47.6181547,43.3274935 47.6181547,43.9767715 L47.6181547,50.4086123 C47.6181547,51.0578904 47.0918108,51.5842342 46.4425328,51.5842342 L46.4425328,51.5842342 C45.7932548,51.5842342 45.2669109,51.0578904 45.2669109,50.4086123 L45.2669109,43.9767715 C45.2669109,43.3274935 45.7932548,42.8011497 46.4425328,42.8011497 Z" id="Rectangle" fill="#D12149" transform="translate(46.442533, 47.192692) rotate(36.880000) translate(-46.442533, -47.192692) "></path>
                    <path d="M51.6244721,42.8016816 L51.6244721,42.8016816 C52.2737501,42.8016816 52.800094,43.3280254 52.800094,43.9773035 L52.800094,50.4091443 C52.800094,51.0584223 52.2737501,51.5847661 51.6244721,51.5847661 L51.6244721,51.5847661 C50.975194,51.5847661 50.4488502,51.0584223 50.4488502,50.4091443 L50.4488502,43.9773035 C50.4488502,43.3280254 50.975194,42.8016816 51.6244721,42.8016816 Z" id="Rectangle" fill="#D12149" transform="translate(51.624472, 47.193224) rotate(36.880000) translate(-51.624472, -47.193224) "></path>
                    <path d="M56.8064114,42.8022135 L56.8064114,42.8022135 C57.4556894,42.8022135 57.9820332,43.3285573 57.9820332,43.9778354 L57.9820332,50.4096762 C57.9820332,51.0589542 57.4556894,51.5852981 56.8064114,51.5852981 L56.8064114,51.5852981 C56.1571333,51.5852981 55.6307895,51.0589542 55.6307895,50.4096762 L55.6307895,43.9778354 C55.6307895,43.3285573 56.1571333,42.8022135 56.8064114,42.8022135 Z" id="Rectangle" fill="#D12149" transform="translate(56.806411, 47.193756) rotate(36.880000) translate(-56.806411, -47.193756) "></path>
                </g>
            </g>
        </g>
    </g>
</svg>