<svg xmlns="http://www.w3.org/2000/svg" width="53.5" height="32.5" viewBox="0 0 53.5 32.5">
  <metadata><?xpacket begin="﻿" id="W5M0MpCehiHzreSzNTczkc9d"?>
<x:xmpmeta xmlns:x="adobe:ns:meta/" x:xmptk="Adobe XMP Core 5.6-c140 79.160451, 2017/05/06-01:08:21        ">
   <rdf:RDF xmlns:rdf="http://www.w3.org/1999/02/22-rdf-syntax-ns#">
      <rdf:Description rdf:about=""/>
   </rdf:RDF>
</x:xmpmeta>
                                                                                                    
                                                                                                    
                                                                                                    
                                                                                                    
                                                                                                    
                                                                                                    
                                                                                                    
                                                                                                    
                                                                                                    
                                                                                                    
                                                                                                    
                                                                                                    
                                                                                                    
                                                                                                    
                                                                                                    
                                                                                                    
                                                                                                    
                                                                                                    
                                                                                                    
                                                                                                    
                           
<?xpacket end="w"?></metadata>
<defs>
    <style>
      .cls-1 {
        fill: #171923;
        stroke: #666a7d;
        stroke-linejoin: round;
        stroke-opacity: 0.48;
        stroke-width: 1px;
      }

      .cls-1, .cls-2 {
        fill-rule: evenodd;
      }

      .cls-2 {
        fill: #fff;
      }
    </style>
  </defs>
  <path id="Rounded_Rectangle_3" data-name="Rounded Rectangle 3" class="cls-1" d="M2767.01,2881.5h40.48a6,6,0,0,1,6,6V2907a6,6,0,0,1-6,6h-40.48a6,6,0,0,1-6-6v-19.5A6,6,0,0,1,2767.01,2881.5Z" transform="translate(-2760.5 -2881)"/>
  <path class="cls-2" d="M2793.66,2898.67a0.851,0.851,0,0,0-.86.85v3.72h-11.49v-3.72a0.86,0.86,0,0,0-1.72,0v4.57a0.858,0.858,0,0,0,.86.85h13.21a0.858,0.858,0,0,0,.86-0.85v-4.57a0.858,0.858,0,0,0-.86-0.85h0Zm-7.21,1.91a0.857,0.857,0,0,0,1.21,0l3.47-3.41a0.851,0.851,0,0,0,0-1.2,0.875,0.875,0,0,0-1.22,0l-2,1.97v-7.28a0.855,0.855,0,0,0-1.71,0v7.28l-2-1.97a0.875,0.875,0,0,0-1.22,0,0.851,0.851,0,0,0,0,1.2Z" transform="translate(-2760.5 -2881)"/>
</svg>
