<svg xmlns="http://www.w3.org/2000/svg" width="21.219" height="20" viewBox="0 0 21.219 20">
  <metadata><?xpacket begin="﻿" id="W5M0MpCehiHzreSzNTczkc9d"?>
<x:xmpmeta xmlns:x="adobe:ns:meta/" x:xmptk="Adobe XMP Core 5.6-c140 79.160451, 2017/05/06-01:08:21        ">
   <rdf:RDF xmlns:rdf="http://www.w3.org/1999/02/22-rdf-syntax-ns#">
      <rdf:Description rdf:about=""/>
   </rdf:RDF>
</x:xmpmeta>
                                                                                                    
                                                                                                    
                                                                                                    
                                                                                                    
                                                                                                    
                                                                                                    
                                                                                                    
                                                                                                    
                                                                                                    
                                                                                                    
                                                                                                    
                                                                                                    
                                                                                                    
                                                                                                    
                                                                                                    
                                                                                                    
                                                                                                    
                                                                                                    
                                                                                                    
                                                                                                    
                           
<?xpacket end="w"?></metadata>
<defs>
    <style>
      .cls-1 {
        fill: #b0b3be;
        fill-rule: evenodd;
      }
    </style>
  </defs>
  <path class="cls-1" d="M904.551,201.636l-3.764,3.9a1.455,1.455,0,0,1-2.107,0l-3.765-3.9a1.582,1.582,0,0,1,0-2.181,1.454,1.454,0,0,1,2.106,0l1.223,1.266V187.542a1.49,1.49,0,1,1,2.979,0v13.179l1.222-1.266a1.454,1.454,0,0,1,2.106,0A1.58,1.58,0,0,1,904.551,201.636Zm-20.764-6.271a1.2,1.2,0,0,1,1.177-1.22h11.867v2.439H884.964A1.2,1.2,0,0,1,883.787,195.365Zm0-4.894a1.2,1.2,0,0,1,1.177-1.219h11.867v2.439H884.964A1.2,1.2,0,0,1,883.787,190.471Zm1.177,8.568h8.493a3.06,3.06,0,0,0-.391,1.507,3.112,3.112,0,0,0,.142.931h-8.244A1.22,1.22,0,0,1,884.964,199.039Z" transform="translate(-883.781 -186)"/>
</svg>
