<?xml version="1.0" encoding="UTF-8"?>
<svg width="282px" height="282px" viewBox="0 0 282 282" version="1.1" xmlns="http://www.w3.org/2000/svg" xmlns:xlink="http://www.w3.org/1999/xlink">
    <!-- Generator: sketchtool 52.4 (67378) - http://www.bohemiancoding.com/sketch -->
    <title>C6B9BD84-C3A0-41B6-805D-DF0125749569</title>
    <desc>Created with sketchtool.</desc>
    <g id="Assets" stroke="none" stroke-width="1" fill="none" fill-rule="evenodd">
        <g id="01.-Illustrations" transform="translate(-120.000000, -600.000000)">
            <g id="01.1-Home-Logged-Out" transform="translate(120.000000, 218.000000)">
                <g id="01.1-Home-Logged-Out_Try-For-Free_Desktop" transform="translate(0.000000, 382.000000)">
                    <rect id="Rectangle-Copy" fill="#393D52" fill-rule="nonzero" opacity="0.4" x="0" y="0" width="282" height="282" rx="8"></rect>
                    <g id="Download" transform="translate(23.000000, 17.000000)">
                        <g id="Characters_and_Main_Confetti" transform="translate(0.714442, 0.386051)">
                            <ellipse id="Oval" fill="#848584" cx="199.795843" cy="14.4960509" rx="1" ry="1"></ellipse>
                            <ellipse id="Oval" fill="#848584" cx="149.87074" cy="30.043576" rx="1" ry="1"></ellipse>
                            <ellipse id="Oval" fill="#848584" cx="26.550376" cy="45.5278084" rx="1" ry="1"></ellipse>
                            <ellipse id="Oval" fill="#848584" cx="47.5108785" cy="45.1215107" rx="1" ry="1"></ellipse>
                            <ellipse id="Oval" fill="#848584" cx="220.100505" cy="45.1215107" rx="1" ry="1"></ellipse>
                            <ellipse id="Oval" fill="#848584" cx="67.8155404" cy="55.3299972" rx="1" ry="1"></ellipse>
                            <ellipse id="Oval" fill="#848584" cx="209.948174" cy="55.3299972" rx="1" ry="1"></ellipse>
                            <ellipse id="Oval" fill="#848584" cx="88.1202024" cy="65.5384838" rx="1" ry="1"></ellipse>
                            <ellipse id="Oval" fill="#848584" cx="67.8155404" cy="75.7469704" rx="1" ry="1"></ellipse>
                            <ellipse id="Oval" fill="#848584" cx="229.846743" cy="87.0089728" rx="1" ry="1"></ellipse>
                            <ellipse id="Oval" fill="#848584" cx="214.061899" cy="101.515232" rx="1" ry="1"></ellipse>
                            <ellipse id="Oval" fill="#848584" cx="220.100505" cy="136.99789" rx="1" ry="1"></ellipse>
                            <ellipse id="Oval" fill="#848584" cx="29.5128261" cy="155.099578" rx="1" ry="1"></ellipse>
                            <ellipse id="Oval" fill="#848584" cx="98.2725333" cy="147.206376" rx="1" ry="1"></ellipse>
                            <ellipse id="Oval" fill="#848584" cx="108.424864" cy="147.206376" rx="1" ry="1"></ellipse>
                            <ellipse id="Oval" fill="#848584" cx="138.881857" cy="147.206376" rx="1" ry="1"></ellipse>
                            <ellipse id="Oval" fill="#848584" cx="199.795843" cy="147.206376" rx="1" ry="1"></ellipse>
                            <ellipse id="Oval" fill="#848584" cx="233.521887" cy="150.324048" rx="1" ry="1"></ellipse>
                            <ellipse id="Oval" fill="#848584" cx="47.5108785" cy="167.62335" rx="1" ry="1"></ellipse>
                            <ellipse id="Oval" fill="#848584" cx="67.8155404" cy="167.62335" rx="1" ry="1"></ellipse>
                            <ellipse id="Oval" fill="#848584" cx="128.729526" cy="167.62335" rx="1" ry="1"></ellipse>
                            <ellipse id="Oval" fill="#848584" cx="189.643512" cy="167.62335" rx="1" ry="1"></ellipse>
                            <ellipse id="Oval" fill="#848584" cx="138.881857" cy="177.831836" rx="1" ry="1"></ellipse>
                            <ellipse id="Oval" fill="#848584" cx="179.491181" cy="177.831836" rx="1" ry="1"></ellipse>
                            <ellipse id="Oval" fill="#848584" cx="17.0538856" cy="188.040323" rx="1" ry="1"></ellipse>
                            <ellipse id="Oval" fill="#848584" cx="57.6632094" cy="188.040323" rx="1" ry="1"></ellipse>
                            <ellipse id="Oval" fill="#848584" cx="77.9678714" cy="188.040323" rx="1" ry="1"></ellipse>
                            <ellipse id="Oval" fill="#848584" cx="169.33885" cy="188.040323" rx="1" ry="1"></ellipse>
                            <ellipse id="Oval" fill="#848584" cx="214.898451" cy="177.831836" rx="1" ry="1"></ellipse>
                            <ellipse id="Oval" fill="#848584" cx="98.2725333" cy="198.248809" rx="1" ry="1"></ellipse>
                            <ellipse id="Oval" fill="#848584" cx="138.881857" cy="198.248809" rx="1" ry="1"></ellipse>
                            <ellipse id="Oval" fill="#848584" cx="170.175402" cy="201.693153" rx="1" ry="1"></ellipse>
                            <ellipse id="Oval" fill="#848584" cx="48.741341" cy="226.850947" rx="1" ry="1"></ellipse>
                            <ellipse id="Oval" fill="#848584" cx="67.8155404" cy="218.665782" rx="1" ry="1"></ellipse>
                            <ellipse id="Oval" fill="#848584" cx="140.975268" cy="246.724829" rx="1" ry="1"></ellipse>
                            <ellipse id="Oval" fill="#848584" cx="200.632395" cy="223.355561" rx="1" ry="1"></ellipse>
                            <ellipse id="Oval" fill="#5E8516" cx="32.3676616" cy="22.4300867" rx="2.09341065" ry="2.10498993"></ellipse>
                            <ellipse id="Oval" fill="#5E8516" cx="146.940778" cy="2.18053273" rx="2.09341065" ry="2.10498993"></ellipse>
                            <ellipse id="Oval" fill="#5E8516" cx="116.532516" cy="24.7167877" rx="2.09341065" ry="2.10498993"></ellipse>
                            <ellipse id="Oval" fill="#5E8516" cx="88.1202024" cy="55.3299972" rx="2.09341065" ry="2.10498993"></ellipse>
                            <ellipse id="Oval" fill="#FFFFFF" cx="220.102535" cy="69.0461198" rx="2.09341065" ry="2.10498993"></ellipse>
                            <ellipse id="Oval" fill="#5E8516" cx="209.948174" cy="126.789403" rx="2.09341065" ry="2.10498993"></ellipse>
                            <ellipse id="Oval" fill="#FFD400" cx="57.6632094" cy="136.99789" rx="2.09341065" ry="2.10498993"></ellipse>
                            <ellipse id="Oval" fill="#5E8516" cx="2.12386764" cy="157.414863" rx="2.09341065" ry="2.10498993"></ellipse>
                            <ellipse id="Oval" fill="#FFD400" cx="138.881857" cy="167.62335" rx="2.09341065" ry="2.10498993"></ellipse>
                            <ellipse id="Oval" fill="#5E8516" cx="47.5108785" cy="198.248809" rx="2.09341065" ry="2.10498993"></ellipse>
                            <ellipse id="Oval" fill="#5E8516" cx="87.2836503" cy="202.534332" rx="2.09341065" ry="2.10498993"></ellipse>
                            <ellipse id="Oval" fill="#5E8516" cx="121.750814" cy="209.510812" rx="2.09341065" ry="2.10498993"></ellipse>
                            <ellipse id="Oval" fill="#5E8516" cx="189.643512" cy="208.457296" rx="2.09341065" ry="2.10498993"></ellipse>
                            <ellipse id="Oval" fill="#FFFFFF" cx="79.2978267" cy="231.724478" rx="2.09341065" ry="2.10498993"></ellipse>
                            <ellipse id="Oval" fill="#5E8516" cx="219.052784" cy="218.665782" rx="2.09341065" ry="2.10498993"></ellipse>
                            <ellipse id="Oval" fill="#000007" cx="33.0214717" cy="7.36440221" rx="1.04569009" ry="1.05147412"></ellipse>
                            <ellipse id="Oval" fill="#000007" cx="4.21727829" cy="30.043576" rx="1.04569009" ry="1.05147412"></ellipse>
                            <ellipse id="Oval" fill="#000007" cx="159.186519" cy="24.7045375" rx="1.04569009" ry="1.05147412"></ellipse>
                            <ellipse id="Oval" fill="#000007" cx="189.643512" cy="24.7045375" rx="1.04569009" ry="1.05147412"></ellipse>
                            <ellipse id="Oval" fill="#000007" cx="128.729526" cy="34.9130241" rx="1.04569009" ry="1.05147412"></ellipse>
                            <ellipse id="Oval" fill="#000007" cx="57.6632094" cy="45.1215107" rx="1.04569009" ry="1.05147412"></ellipse>
                            <ellipse id="Oval" fill="#000007" cx="220.100505" cy="55.3299972" rx="1.04569009" ry="1.05147412"></ellipse>
                            <ellipse id="Oval" fill="#000007" cx="77.9678714" cy="65.5384838" rx="1.04569009" ry="1.05147412"></ellipse>
                            <ellipse id="Oval" fill="#000007" cx="209.948174" cy="85.9554569" rx="1.04569009" ry="1.05147412"></ellipse>
                            <ellipse id="Oval" fill="#000007" cx="18.4021151" cy="100.041127" rx="1.04569009" ry="1.05147412"></ellipse>
                            <ellipse id="Oval" fill="#000007" cx="159.186519" cy="147.206376" rx="1.04569009" ry="1.05147412"></ellipse>
                            <ellipse id="Oval" fill="#000007" cx="128.729526" cy="157.414863" rx="1.04569009" ry="1.05147412"></ellipse>
                            <ellipse id="Oval" fill="#000007" cx="10.4812665" cy="166.78217" rx="1.04569009" ry="1.05147412"></ellipse>
                            <ellipse id="Oval" fill="#000007" cx="199.795843" cy="167.62335" rx="1.04569009" ry="1.05147412"></ellipse>
                            <ellipse id="Oval" fill="#000007" cx="118.577195" cy="177.831836" rx="1.04569009" ry="1.05147412"></ellipse>
                            <ellipse id="Oval" fill="#000007" cx="37.3585475" cy="188.040323" rx="1.04569009" ry="1.05147412"></ellipse>
                            <ellipse id="Oval" fill="#000007" cx="159.186519" cy="188.040323" rx="1.04569009" ry="1.05147412"></ellipse>
                            <ellipse id="Oval" fill="#000007" cx="227.619321" cy="200.353799" rx="1.04569009" ry="1.05147412"></ellipse>
                            <ellipse id="Oval" fill="#000007" cx="67.8155404" cy="208.457296" rx="1.04569009" ry="1.05147412"></ellipse>
                            <ellipse id="Oval" fill="#000007" cx="145.637218" cy="219.719298" rx="1.04569009" ry="1.05147412"></ellipse>
                            <ellipse id="Oval" fill="#000007" cx="11.5269566" cy="224.19674" rx="1.04569009" ry="1.05147412"></ellipse>
                            <ellipse id="Oval" fill="#000007" cx="109.261416" cy="226.850947" rx="1.04569009" ry="1.05147412"></ellipse>
                            <ellipse id="Oval" fill="#000007" cx="160.232209" cy="225.797431" rx="1.04569009" ry="1.05147412"></ellipse>
                            <ellipse id="Oval" fill="#000007" cx="179.491181" cy="218.665782" rx="1.04569009" ry="1.05147412"></ellipse>
                            <path d="M25.7117934,209.043263 C25.0389561,209.043263 24.4935137,208.494804 24.4935137,207.818245 C24.4935137,205.112009 22.3117441,202.918171 19.6203948,202.918171 C18.9475575,202.918171 18.4021151,202.369712 18.4021151,201.693153 C18.4021151,201.016594 18.9475575,200.468134 19.6203948,200.468134 C22.3117441,200.468134 24.4935137,198.274297 24.4935137,195.568061 C24.4935137,194.891502 25.0389561,194.343042 25.7117934,194.343042 C26.3846307,194.343042 26.9300731,194.891502 26.9300731,195.568061 C26.9300731,198.274297 29.1118428,200.468134 31.803192,200.468134 C32.4760293,200.468134 33.0214717,201.016594 33.0214717,201.693153 C33.0214717,202.369712 32.4760293,202.918171 31.803192,202.918171 C29.1118428,202.918171 26.9300731,205.112009 26.9300731,207.818245 C26.9300731,208.494804 26.3846307,209.043263 25.7117934,209.043263 Z" id="Path" fill="#FFD400"></path>
                            <path d="M108.40659,171.310655 C108.070171,171.310655 107.79745,171.036425 107.79745,170.698146 C107.79745,169.345028 106.706565,168.248109 105.360891,168.248109 C105.024472,168.248109 104.751751,167.973879 104.751751,167.6356 C104.751751,167.29732 105.024472,167.023091 105.360891,167.023091 C106.706565,167.023091 107.79745,165.926172 107.79745,164.573054 C107.79745,164.234774 108.070171,163.960545 108.40659,163.960545 C108.743009,163.960545 109.01573,164.234774 109.01573,164.573054 C109.01573,165.926172 110.106615,167.023091 111.452289,167.023091 C111.788708,167.023091 112.061429,167.29732 112.061429,167.6356 C112.061429,167.973879 111.788708,168.248109 111.452289,168.248109 C110.106615,168.248109 109.01573,169.345028 109.01573,170.698146 C109.01573,171.036425 108.743009,171.310655 108.40659,171.310655 Z" id="Path" fill="#FFFFFF"></path>
                            <path d="M88.2643655,44.5702524 C87.4432533,44.5700761 86.7030709,44.0726346 86.3888685,43.3098198 C86.0746662,42.5470051 86.2482995,41.6689888 86.8288259,41.0850751 C87.5988546,40.3115165 87.8999721,39.1836411 87.6187502,38.1263087 C87.3375284,37.0689763 86.5166915,36.2428208 85.4654408,35.959047 C84.4141902,35.6752732 83.2922358,35.9769931 82.5222071,36.7505517 C80.7268032,38.5558864 78.1099451,39.2609499 75.6573778,38.6001515 C73.2048105,37.9393532 71.2891374,36.0130839 70.6319739,33.5469507 C69.9748105,31.0808175 70.6759955,28.4494847 72.4713994,26.64415 C73.263149,25.8752228 73.5806814,24.7365578 73.3019529,23.6658016 C73.0232244,22.5950454 72.1916116,21.7588326 71.1267455,21.4785624 C70.0618794,21.1982921 68.9294779,21.517581 68.1647806,22.31371 C65.3893267,25.1045157 60.8894268,25.1045157 58.1139729,22.31371 C55.338519,19.5229042 55.338519,14.998114 58.1139729,12.2073082 C58.6293808,11.6916025 59.3792496,11.4915585 60.081111,11.6825308 C60.7829725,11.8735032 61.3301971,12.4264787 61.5166507,13.1331568 C61.7031042,13.8398349 61.50046,14.5928544 60.9850521,15.1085601 C60.1933026,15.8774872 59.8757701,17.0161523 60.1544986,18.0869085 C60.4332271,19.1576647 61.26484,19.9938775 62.3297061,20.2741477 C63.3945722,20.554418 64.5269736,20.2351291 65.2916709,19.4390001 C67.0870748,17.6336653 69.7039329,16.9286019 72.1565002,17.5894002 C74.6090675,18.2501986 76.5247406,20.1764679 77.1819041,22.6426011 C77.8390675,25.1087343 77.1378825,27.7400671 75.3424786,29.5454018 C74.1882432,30.7470802 74.2047504,32.6572082 75.3795796,33.8385357 C76.5544087,35.0198632 78.4540293,35.0364617 79.6490974,33.8758418 C82.4245513,31.0850362 86.9244511,31.0850363 89.6999049,33.875842 C92.4753587,36.6666477 92.4753588,41.1914378 89.6999051,43.9822436 C89.3175513,44.3614218 88.8013816,44.5728491 88.2643655,44.5702524 Z" id="Path" fill="#D12149"></path>
                            <path d="M204.00906,37.5856059 C204.583965,37.5856476 205.102279,37.2374366 205.322292,36.7033583 C205.542304,36.1692801 205.420681,35.5545243 205.014141,35.1457776 C204.47552,34.6041771 204.265164,33.8147773 204.462314,33.0749374 C204.659463,32.3350974 205.234164,31.7572166 205.969935,31.5589771 C206.705705,31.3607376 207.490762,31.5722566 208.029383,32.1138571 C209.286166,33.3775914 211.117967,33.8711359 212.834764,33.408577 C214.551561,32.9460181 215.892532,31.5976296 216.352547,29.8713364 C216.812561,28.1450432 216.321732,26.3031102 215.064949,25.0393759 C214.479715,24.5093922 214.232729,23.6981504 214.422607,22.9295629 C214.612484,22.1609753 215.208292,21.5602534 215.972137,21.3672532 C216.735982,21.1742531 217.543424,21.4204164 218.072069,22.0074554 C220.014887,23.9610194 223.164817,23.9610194 225.107635,22.0074554 C227.050452,20.0538913 227.050452,16.8865382 225.107635,14.9329742 C224.552544,14.3748131 223.652564,14.3748132 223.097473,14.9329743 C222.542382,15.4911354 222.542382,16.3960933 223.097473,16.9542545 C223.636094,17.4958549 223.84645,18.2852548 223.649301,19.0250947 C223.452152,19.7649347 222.87745,20.3428155 222.14168,20.541055 C221.405909,20.7392945 220.620852,20.5277754 220.082231,19.986175 C218.825448,18.7224405 216.993647,18.228896 215.27685,18.6914549 C213.560053,19.1540137 212.219082,20.5024023 211.759067,22.2286956 C211.299053,23.9549889 211.789883,25.7969219 213.046665,27.0606562 C213.879302,27.8978979 213.879302,29.255335 213.046665,30.0925767 C212.214029,30.9298185 210.864059,30.9298185 210.031423,30.0925767 C208.066785,28.2944919 205.043789,28.3659107 203.165301,30.25479 C201.286812,32.1436694 201.215786,35.1833858 203.00398,37.1588911 C203.269216,37.429907 203.630921,37.5834718 204.00906,37.5856059 Z" id="Path" fill="#FFD400"></path>
                            <rect id="Rectangle" fill="#00B49C" x="173.399783" y="151.289771" width="12.1827972" height="12.2501839" rx="6.09139858"></rect>
                            <path d="M198.34609,178.997645 L190.849609,192.052258 C190.160545,193.252353 190.160459,194.73091 190.849381,195.931087 C191.538304,197.131263 192.811599,197.870768 194.189726,197.871095 L207.071003,197.871095 C208.449131,197.870768 209.722425,197.131263 210.411348,195.931087 C211.100271,194.73091 211.100184,193.252353 210.41112,192.052258 L202.914639,178.997645 C202.442679,178.178089 201.572198,177.673484 200.630365,177.673484 C199.688531,177.673484 198.818051,178.178089 198.34609,178.997645 Z" id="Path" fill="#D12149"></path>
                            <g id="Group" transform="translate(9.137098, 33.483836)">
                                <g>
                                    <path d="M186.599843,19.804464 L186.599843,95.3472646 C186.599843,99.8576578 182.963561,103.514054 178.477978,103.514054 L103.350729,103.514054 C98.8651472,103.514054 95.2288645,99.8576578 95.2288645,95.3472646 L95.2288645,19.804464 C95.2288645,15.2940708 98.8651472,11.6376747 103.350729,11.6376747 L178.477978,11.6376747 C182.963561,11.6376747 186.599843,15.2940708 186.599843,19.804464 Z" id="Path" fill="#FFFFFF"></path>
                                    <path d="M186.599843,84.5548526 L186.599843,89.2711734 L177.905387,98.0137213 C177.490384,98.4539391 176.870437,98.6329331 176.286389,98.4811656 C175.702341,98.3293981 175.246258,97.870793 175.095326,97.2835144 C174.944393,96.6962358 175.122402,96.0728591 175.560199,95.6555609 L186.599843,84.5548526 Z" id="Path" fill="#848584"></path>
                                    <path d="M97.2514344,11.8509186 L176.439616,11.8509186 C180.925198,11.8509186 184.561481,15.5073147 184.561481,20.0177079 L184.561481,95.5605085 C184.561481,100.070902 180.925198,103.727298 176.439616,103.727298 L97.2514344,103.727298 C92.7658524,103.727298 89.1295697,100.070902 89.1295697,95.5605085 L89.1295697,20.0177079 C89.1295697,15.5073147 92.7658524,11.8509186 97.2514344,11.8509186 Z" id="Rectangle" fill="#BEE70C"></path>
                                    <path d="M156.498182,27.9283776 C155.791703,27.9283776 155.218988,27.3524952 155.218988,26.6421083 C155.215632,23.8019598 152.926739,21.5004061 150.102213,21.497031 C149.395734,21.497031 148.82302,20.9211486 148.82302,20.2107617 C148.82302,19.5003748 149.395734,18.9244924 150.102213,18.9244924 C152.926739,18.9211173 155.215632,16.6195637 155.218988,13.7794152 C155.218988,13.0690283 155.791703,12.4931459 156.498182,12.4931459 C157.204661,12.4931459 157.777376,13.0690283 157.777376,13.7794152 C157.780732,16.6195637 160.069625,18.9211173 162.89415,18.9244924 C163.60063,18.9244924 164.173344,19.5003748 164.173344,20.2107617 C164.173344,20.9211486 163.60063,21.497031 162.89415,21.497031 C160.069625,21.5004061 157.780732,23.8019598 157.777376,26.6421083 C157.777376,26.9832481 157.642604,27.3104157 157.402708,27.551638 C157.162813,27.7928603 156.837445,27.9283776 156.498182,27.9283776 Z" id="Path" fill="#5E8516"></path>
                                    <path d="M111.19239,70.6733525 C110.139125,70.6746164 109.16483,71.2351016 108.629941,72.147458 L107.411662,72.147458 C107.383332,71.6267071 106.969196,71.2111609 106.451251,71.1837769 L105.503023,71.1368178 L89.1374659,70.2343876 L89.1374659,77.1312412 L105.505054,76.2226858 L106.453282,76.1757268 C106.972696,76.1481542 107.387368,75.730307 107.413692,75.2079623 L108.629941,75.2079623 C109.36589,76.4565187 110.885339,76.9960414 112.23781,76.489036 C113.59028,75.9820307 114.387651,74.5739934 114.131133,73.145711 C113.874615,71.7174286 112.637822,70.6787774 111.19442,70.6794776 L111.19239,70.6733525 Z" id="Path" fill="#5E8516"></path>
                                    <g transform="translate(0.000000, 24.908707)">
                                        <g transform="translate(14.619357, 65.946823)" id="Path">
                                            <path d="M6.17667816,9.56331022 L4.17463849,10.745453 C3.09447746,11.3830662 1.73624104,11.2907202 0.751272492,10.5126995 L0.270052004,10.1329438 C0.00554181483,9.92425924 -0.0408060922,9.53954555 0.166498228,9.2733892 L7.16145427,0.320546478 C7.36899085,0.0545732038 7.75158828,0.00796893258 8.01628053,0.216419915 L11.2467522,2.76854156 C11.5112624,2.97722609 11.5576103,3.36193978 11.350306,3.62809613 L7.88226977,8.06470439 C7.41191277,8.66706605 6.8333829,9.17538716 6.17667816,9.56331022 Z" fill="#00B49C"></path>
                                            <path d="M5.96144875,9.68989546 L4.17463849,10.745453 C3.09447746,11.3830662 1.73624104,11.2907202 0.751272492,10.5126995 L0.270052004,10.1329438 C0.00554181483,9.92425924 -0.0408060922,9.53954555 0.166498228,9.2733892 L2.17665976,6.70085059 L5.96144875,9.68989546 Z" fill="#00B49C"></path>
                                            <path d="M0.867009065,10.5984508 C0.828430207,10.569867 0.787820883,10.5433249 0.751272492,10.5126995 L0.270052004,10.1329438 C0.00554181483,9.92425924 -0.0408060922,9.53954555 0.166498228,9.2733892 L7.16145427,0.320546478 C7.36899085,0.0545732038 7.75158828,0.00796893258 8.01628053,0.216419915 L8.61120713,0.686010298 L0.867009065,10.5984508 Z" fill="#232531"></path>
                                            <path d="M8.68227345,4.36719056 C9.33262968,3.51825747 10.5396753,3.35018966 11.3949763,3.98947655 L11.4132505,4.00376843 L14.2234157,6.22513511 L14.5888996,6.51505613 L12.6498044,11.5621319 L11.0437056,10.2942379 L7.45587186,7.45832029 C7.05696079,7.12173841 7.00003768,6.52573671 7.32795249,6.11896685 L8.68227345,4.36719056 Z" fill="#FFFFFF"></path>
                                        </g>
                                        <g transform="translate(3.654839, 65.946823)" id="Path">
                                            <path d="M6.2822624,9.56331022 L4.28022274,10.745453 C3.2000617,11.3830662 1.84182529,11.2907202 0.856856734,10.5126995 L0.375636246,10.1329438 C0.111126057,9.92425924 0.0647781499,9.53954555 0.27208247,9.2733892 L7.26703851,0.320546478 C7.47457509,0.0545732038 7.85717252,0.00796893258 8.12186478,0.216419915 L11.3523365,2.76854156 C11.6168467,2.97722609 11.6631946,3.36193978 11.4558903,3.62809613 L7.98785401,8.06470439 C7.51749701,8.66706605 6.93896714,9.17538716 6.2822624,9.56331022 Z" fill="#00B49C"></path>
                                            <path d="M6.06703299,9.68989546 L4.28022274,10.745453 C3.2000617,11.3830662 1.84182529,11.2907202 0.856856734,10.5126995 L0.375636246,10.1329438 C0.111126057,9.92425924 0.0647781499,9.53954555 0.27208247,9.2733892 L2.282244,6.70085059 L6.06703299,9.68989546 Z" fill="#00B49C"></path>
                                            <path d="M0.972593307,10.5984508 C0.934014449,10.569867 0.893405125,10.5433249 0.856856734,10.5126995 L0.375636246,10.1329438 C0.111126057,9.92425924 0.0647781499,9.53954555 0.27208247,9.2733892 L7.26703851,0.320546478 C7.47457509,0.0545732038 7.85717252,0.00796893258 8.12186478,0.216419915 L8.71679137,0.686010298 L0.972593307,10.5984508 Z" fill="#FFD400"></path>
                                            <path d="M8.78988815,4.36719056 C9.44024439,3.51825747 10.64729,3.35018966 11.502591,3.98947655 L11.5208652,4.00376843 L14.3310304,6.22513511 L14.6965143,6.51505613 L12.7574191,11.5621319 L11.1513203,10.2942379 L7.56348657,7.45832029 C7.1645755,7.12173841 7.10765239,6.52573671 7.4355672,6.11896685 L8.78988815,4.36719056 Z" fill="#FFFFFF"></path>
                                        </g>
                                        <g transform="translate(11.573657, 0.000000)">
                                            <path d="M26.3960605,74.7873726 L26.3960605,59.7727306 L26.0468203,59.7727306 C26.318945,59.2530361 26.5347367,58.7054392 26.6904781,58.1393727 L7.07820515,58.1393727 C7.23487748,58.7054256 7.45133919,59.2529955 7.7238934,59.7727306 L7.24470338,59.7727306 L7.24470338,71.2552363 L7.17566753,71.2001105 L6.70053844,70.8223965 C5.81472836,70.1880343 4.58913998,70.3680734 3.92083022,71.2307359 L1.3035593,74.5811612 C0.638775417,75.4382853 0.75838859,76.668858 1.57564177,77.3803282 L2.04874039,77.7539588 L4.07920658,79.3526078 L5.09443968,80.1692868 L5.6040867,80.5776262 C5.77464586,80.7103365 5.94520502,80.8328384 6.11576418,80.9594236 L6.37160292,81.1493015 C6.4568825,81.2105524 6.54216208,81.2615948 6.62541119,81.3187623 L7.13505821,81.651559 C7.46805466,81.8557287 7.79902065,82.0456066 8.12592571,82.2354844 L9.07212296,82.7438671 C9.23049932,82.816007 9.39090615,82.8840636 9.55334344,82.9480368 C9.729994,82.9949958 9.89649223,83.0623719 10.0792342,83.0929973 C10.838957,83.2383528 11.6235388,83.1763107 12.3513259,82.9133279 C13.0890103,82.6389814 13.743677,82.1776172 14.2518422,81.5739745 C14.3655483,81.4208472 14.4812849,81.2656782 14.5787473,81.1064258 L14.7147885,80.8614221 L14.7817939,80.7389203 L14.8325555,80.6123351 C14.9052431,80.4475562 14.9636661,80.2767824 15.0071756,80.1019107 L15.074181,79.8466986 C15.0944857,79.762989 15.1066685,79.6731543 15.1229122,79.5853613 L15.1330645,79.5261521 L15.945251,80.1692868 L16.454898,80.5776262 C16.6254572,80.7103365 16.7960164,80.8328384 16.9665755,80.9594236 L17.2224143,81.1493015 C17.3076938,81.2105524 17.3929734,81.2615948 17.4762225,81.3187623 L17.9858695,81.651559 C18.318866,81.8557287 18.649832,82.0456066 18.976737,82.2354844 L19.9229343,82.7438671 C20.0813107,82.816007 20.2417175,82.8840636 20.4041548,82.9480368 C20.5808053,82.9949958 20.7473036,83.0623719 20.9300455,83.0929973 C21.6897683,83.2383528 22.4743501,83.1763107 23.2021372,82.9133279 C23.9398216,82.6389814 24.5944883,82.1776172 25.1026536,81.5739745 C25.2163597,81.4208472 25.3320962,81.2656782 25.4295586,81.1064258 L25.583874,80.8512137 L25.6508794,80.7287118 L25.7016411,80.6021266 C25.774338,80.4373514 25.8327613,80.2665768 25.8762612,80.0917023 L25.9432666,79.8364901 C25.9635712,79.7527805 25.975754,79.6629458 25.9919978,79.5751528 L26.0853992,79.0443115 C26.1158562,78.8646422 26.1503741,78.6951813 26.1747397,78.4991784 L26.2539279,77.9275031 C26.2661107,77.8315433 26.2823544,77.739667 26.2925067,77.6396238 L26.3189028,77.3354109 L26.3737254,76.7229017 L26.3940301,76.0838504 C26.3960605,75.6632608 26.3960605,75.2181708 26.3960605,74.7873726 Z M18.0305398,71.1960271 L17.5574412,70.8223965 C16.9662547,70.3924655 16.1911213,70.3145234 15.526975,70.6182267 L15.526975,64.3236739 L18.0914538,64.3236739 L18.0914538,71.2552363 L18.0305398,71.1960271 Z" id="Shape" fill="#D12149" fill-rule="nonzero"></path>
                                            <path d="M26.0447899,59.7727306 C26.3169146,59.2530361 26.5327062,58.7054392 26.6884477,58.1393727 L7.07820515,58.1393727 C7.23487748,58.7054256 7.45133919,59.2529955 7.7238934,59.7727306 L7.24470338,59.7727306 L7.24470338,62.1901002 C7.45217977,62.2239339 7.66193567,62.2416809 7.87211743,62.2431843 L26.1178867,62.2431843 C26.2112881,62.2431843 26.3026591,62.2431843 26.3960605,62.2288925 L26.3960605,59.7788557 L26.0447899,59.7727306 Z" id="Path" fill="#232531"></path>
                                            <g>
                                                <g transform="translate(0.000000, 4.695904)">
                                                    <path d="M1.05584242,7.16227418 L1.141122,7.1438989 L1.05178149,7.1438989 C0.691249862,7.10378038 0.379390147,6.87330409 0.233676892,6.53928824 C0.0879636366,6.20527239 0.130534153,5.81846193 0.345352538,5.52456463 C0.560170923,5.23066733 0.91460115,5.07433319 1.27513277,5.11445177 L1.36244282,5.12874365 L1.28122417,5.0919931 C0.949243486,4.92964568 0.731066124,4.59889129 0.711445142,4.22821461 C0.69182416,3.85753793 0.873852192,3.50536452 1.18681873,3.30849947 C1.49978526,3.11163443 1.89436093,3.10110735 2.21726908,3.28100758 L2.29645727,3.32796662 C2.27311717,3.30721193 2.25139512,3.28468716 2.23148235,3.26059061 C1.97936084,2.98916732 1.89373277,2.60147253 2.0078928,2.24825317 C2.12205283,1.89503381 2.41798668,1.63202735 2.78062674,1.56149829 C3.14326679,1.49096923 3.51538901,1.62404695 3.75230153,1.90898699 C3.77271623,1.93087383 3.79170662,1.95406114 3.80915458,1.9784047 C3.79571159,1.95134952 3.78417717,1.92337734 3.77463665,1.89469511 C3.60305889,1.37199652 3.87449849,0.806633239 4.38825752,0.616625488 C4.90201655,0.426617737 5.4730804,0.680390997 5.67921394,1.19030953 C5.68989291,1.21827347 5.69871104,1.24692041 5.70561001,1.27606082 C5.70348013,1.24615422 5.70348013,1.21613274 5.70561001,1.18622614 C5.71402047,0.622426994 6.17537384,0.172233225 6.7360716,0.180690212 C7.29676936,0.1891472 7.74448667,0.653052454 7.7360762,1.2168516 C7.73792351,1.24676769 7.73792351,1.27677019 7.7360762,1.30668628 C7.7360762,1.27810252 7.75638086,1.24951876 7.76856366,1.22297669 C7.89638354,0.872855553 8.20391837,0.620694194 8.57071319,0.565258941 C8.93750802,0.509823687 9.3051736,0.659939151 9.52970303,0.956808247 C9.75423246,1.25367734 9.79988341,1.65004216 9.64877535,1.99065488 C9.63659256,2.01923864 9.62440976,2.04578071 9.61222696,2.07232277 C9.62959008,2.04791358 9.64858497,2.02472076 9.66908002,2.00290507 C10.0525973,1.59133169 10.6953103,1.57030741 11.1046196,1.95594603 C11.513929,2.34158464 11.5348376,2.98785265 11.1513203,3.39942603 L11.0863454,3.46271865 L11.1655336,3.419843 C11.4951819,3.23631728 11.8988001,3.25147124 12.2139196,3.45920494 C12.5290391,3.66693863 12.7038189,4.03307742 12.6679049,4.4102392 C12.6319909,4.78740099 12.3912912,5.11353819 12.042695,5.25737059 C12.0156692,5.27062301 11.9878683,5.28221394 11.9594459,5.29207944 L12.0487864,5.29207944 C12.6094841,5.24810316 13.0994732,5.6695028 13.1432076,6.23330191 C13.186942,6.79710102 12.7678605,7.28980037 12.2071628,7.33377675 L12.1178222,7.33377675 L12.2031018,7.35623542 C12.7210758,7.53293135 13.0067272,8.09048575 12.8491048,8.61714915 C12.6914823,9.14381255 12.1472538,9.4502411 11.6183276,9.31013975 L11.533048,9.28155599 L11.6061448,9.33464012 C11.8974359,9.55659357 12.047603,9.91885139 11.999323,10.2831292 C11.9510429,10.647407 11.7117678,10.9574769 11.372836,11.0949762 C11.0339043,11.2324756 10.6476314,11.1761807 10.361469,10.947581 L10.2924331,10.8883718 L10.3431948,10.9659563 C10.6313934,11.4496959 10.4750333,12.0767679 9.99395461,12.3665606 C9.51287593,12.6563534 8.88925345,12.4991284 8.6010548,12.0153887 C8.58481107,11.9908883 8.57059781,11.9623046 8.55638454,11.9357625 C8.56450576,11.9638705 8.57061281,11.9925277 8.57465874,12.0215138 C8.6655015,12.5410194 8.34778236,13.044571 7.84166044,13.1832396 C7.81094293,13.1913381 7.77974687,13.1974754 7.748259,13.2016148 C7.1973896,13.2966977 6.67370122,12.9261716 6.57668,12.3726857 C6.57067924,12.3423521 6.56661004,12.3116642 6.56449721,12.2808093 C6.56449721,12.3114348 6.56449721,12.3420603 6.54825348,12.3726857 C6.43611392,12.9252089 5.89976222,13.2817075 5.35027842,13.1689477 C4.80079462,13.0561879 4.44625705,12.5168694 4.55839661,11.9643463 C4.55839661,11.9357625 4.57260987,11.905137 4.58073173,11.8765533 C4.56651847,11.9030953 4.55027474,11.9296374 4.53403101,11.9561795 C4.23237561,12.4314621 3.60466232,12.5708622 3.13199411,12.2675383 C2.65932591,11.9642144 2.52069263,11.333029 2.82234801,10.8577463 C2.83800906,10.8323903 2.85495182,10.8078578 2.87310966,10.7842452 L2.80204335,10.8414127 C2.35050606,11.1633934 1.72568265,11.062307 1.3973727,10.6141596 C1.06906274,10.1660123 1.15829519,9.53601004 1.59797689,9.1978464 C1.62397532,9.1785426 1.65109643,9.16081637 1.67919554,9.14476227 L1.58985503,9.17334603 C1.04880714,9.32029979 0.491678451,8.99861294 0.345179253,8.45466858 L0.345179253,8.4424184 L0.345179253,8.42812651 C0.270521024,8.16545596 0.303679715,7.88365525 0.437238479,7.64575678 C0.570797244,7.40785832 0.79361138,7.23371336 1.05584242,7.16227418 Z" id="Path" fill="#15171B"></path>
                                                    <g transform="translate(8.527958, 3.266716)">
                                                        <rect id="Rectangle" fill="#8C522A" transform="translate(8.562476, 14.288819) rotate(-180.000000) translate(-8.562476, -14.288819) " x="5.76246306" y="10.5657836" width="5.60002576" height="7.44607011"></rect>
                                                        <path d="M2.96041971,13.2322403 C3.7056008,11.9275957 3.23656311,10.4310316 2.1319895,9.55718513 C2.1319895,9.55718513 2.11777624,9.52860137 2.06295365,9.47347554 L2.01422246,9.39997444 C1.89239449,9.19580471 1.78884072,8.99163497 1.67310414,8.78746524 L1.59797689,8.66088001 C1.59797689,8.63229625 1.58173317,8.59554569 1.56548944,8.54246156 C1.48020986,8.26479073 1.37462561,7.99324499 1.2913765,7.71557415 C1.23655391,7.53386309 1.18985319,7.35011033 1.1472134,7.16839927 C1.1654876,7.2235251 1.1472134,7.10306496 1.13300014,6.96422954 C1.15127433,6.93564578 1.1654876,6.73760114 1.11472594,6.78456018 L1.11472594,6.7702683 C1.22601923,6.57239742 1.35014605,6.38210814 1.48630125,6.20063474 C1.81608141,5.71375271 1.94627759,5.11768111 1.8497547,4.53665143 L12.1665534,1.72727593 C14.270259,3.42210233 15.3149578,6.11670793 14.9071218,8.79606087 C14.4992858,11.4754138 12.7008751,13.7324566 10.1893336,14.7169831 C7.67779202,15.7015096 4.83468256,15.2639468 2.73097703,13.5691204 C2.81643205,13.4632808 2.89316692,13.3506146 2.96041971,13.2322403 Z" id="Path" fill="#8C522A"></path>
                                                        <path d="M3.07818675,6.54772329 L4.40002024,11.4477968 C4.53379654,11.9414392 4.46600949,12.4683585 4.21171503,12.9115225 C3.95742058,13.3546865 3.53767236,13.6774046 3.04569929,13.8079989 C0.869502222,12.1505249 -0.246226354,9.44005745 0.128397101,6.72092343 C0.503020555,4.00178941 2.30952456,1.6983931 4.85187395,0.698219284 C7.39422333,-0.301954529 10.2756065,0.157201959 12.3858438,1.8987785 L4.50763495,4.04256068 C3.98761461,4.18402354 3.54481692,4.52748516 3.27671985,4.99733552 C3.00862278,5.46718588 2.93720437,6.02490763 3.07818675,6.54772329 Z" id="Path" fill="#15171B"></path>
                                                    </g>
                                                </g>
                                                <g transform="translate(18.477242, 0.000000)">
                                                    <g transform="translate(18.477242, 0.000000)" fill="#8C522A">
                                                        <polygon id="Rectangle" transform="translate(2.350853, 7.369200) rotate(-54.727579) translate(-2.350853, -7.369200) " points="0.451217598 5.84485408 4.25845062 5.83496228 4.25048931 8.89354632 0.443256294 8.90343812"></polygon>
                                                        <ellipse id="Oval" transform="translate(4.246348, 4.215703) rotate(-54.680000) translate(-4.246348, -4.215703) " cx="4.24634802" cy="4.21570318" rx="2.99578703" ry="2.99031403"></ellipse>
                                                    </g>
                                                    <path d="M0.690358506,28.4265517 C0.617495045,28.5151625 0.549703337,28.6078692 0.487311887,28.7042225 C-0.538073541,30.3559557 0.22944268,32.728408 2.20711675,33.9330094 C4.09138938,35.0804433 6.36754198,34.6659787 7.35434855,33.0775382 L21.1168484,10.9251223 L21.7259883,9.9614412 C22.0171666,9.50204777 21.8983107,8.89369836 21.4559363,8.57921212 L19.0640471,6.87439486 C18.6220956,6.56053115 18.0130078,6.65033421 17.6792692,7.07856459 L16.9767278,7.97691141 L0.690358506,28.4265517 Z" id="Path" fill="#00B49C"></path>
                                                    <path d="M4.51981775,23.6142711 L0.690358506,28.4265517 C0.617491584,28.5151598 0.549699729,28.6078667 0.487311887,28.7042225 C-0.538073541,30.3559557 0.22944268,32.728408 2.20711675,33.9330094 C4.09138938,35.0804433 6.36754198,34.6659787 7.35434855,33.0775382 L9.26095631,30.0149922 C8.87940866,27.2047021 7.08664113,24.7895531 4.51575682,23.6224379 L4.51981775,23.6142711 Z" id="Path" fill="#232531"></path>
                                                </g>
                                                <path d="M7.87008697,60.201487 L26.1158562,60.201487 C27.2372517,60.201487 28.1463224,59.287388 28.1463224,58.1597897 L24.7716876,48.0390961 C23.3717961,43.8335248 23.3717961,39.2839728 24.7716876,35.0784016 L25.4539242,33.0264958 C26.0756796,31.1581742 25.7657247,29.1031736 24.6210054,27.5042443 C23.4762861,25.9053149 21.636561,24.95767 19.6772479,24.957708 L11.8010695,24.957708 C10.4221952,24.9600884 9.12848849,25.6287163 8.32399181,26.7547699 C7.51949513,27.8808236 7.30226192,29.3270577 7.74013713,30.6417933 L9.21628605,35.0784016 C10.6161775,39.2839728 10.6161775,43.8335248 9.21628605,48.0390961 L5.84774264,58.1597897 C5.84774264,59.287388 6.75681332,60.201487 7.87820883,60.201487 L7.87008697,60.201487 Z" id="Path" fill="#00B49C"></path>
                                            </g>
                                        </g>
                                        <g>
                                            <g fill="#8C522A">
                                                <polygon id="Rectangle" transform="translate(6.644685, 7.511818) rotate(-35.320000) translate(-6.644685, -7.511818) " points="5.12699865 5.62049584 8.17222626 5.6125647 8.16237194 9.40313929 5.11714432 9.41107043"></polygon>
                                                <ellipse id="Oval" transform="translate(4.328374, 4.221575) rotate(-35.320000) translate(-4.328374, -4.221575) " cx="4.32837357" cy="4.22157541" rx="2.99031403" ry="2.99578703"></ellipse>
                                            </g>
                                            <path d="M19.7381619,33.1449142 C19.8005497,33.2412701 19.8683416,33.333977 19.9412085,33.422585 C21.1594882,34.9436495 23.632596,35.0008171 25.4234672,33.5246699 C27.1249979,32.1179405 27.4904818,29.8189893 26.3270247,28.3591757 L10.0995388,7.97486971 L9.39699755,7.07652289 C9.06325894,6.64829252 8.4541711,6.55848945 8.0122196,6.87235316 L5.60611716,8.57512872 C5.1637427,8.88961497 5.04488687,9.49796437 5.33606516,9.9573578 L5.94520502,10.9210389 L19.7381619,33.1449142 Z" id="Path" fill="#00B49C"></path>
                                        </g>
                                    </g>
                                    <rect id="Rectangle" fill="#15171B" opacity="0.5" transform="translate(45.878384, 144.348000) rotate(180.000000) translate(-45.878384, -144.348000) " x="2.62133186" y="139.739889" width="86.5141036" height="9.21622168" rx="4.60811084"></rect>
                                    <g transform="translate(42.842837, 42.058965)">
                                        <g transform="translate(28.832620, 90.447191)" id="Path">
                                            <path d="M8.49344009,6.89889523 L10.6558866,7.7584498 C11.8244875,8.21961316 12.5919728,9.35451096 12.5888904,10.616826 L12.5888904,11.2293352 C12.5888904,11.5676147 12.3161692,11.8418444 11.9797505,11.8418444 L0.655840581,11.8418444 C0.319421926,11.8418444 0.0467007225,11.5676147 0.0467007225,11.2293352 L0.0467007225,7.08877308 C0.0467007225,6.75049359 0.319421926,6.47626388 0.655840581,6.47626388 L6.26804914,6.47626388 C7.02959773,6.47602341 7.78443835,6.61937769 8.49344009,6.89889523 Z" fill="#D12149"></path>
                                            <path d="M8.73100463,6.99077161 L10.6599475,7.7523247 C11.8285485,8.21348806 12.5960338,9.34838586 12.5929513,10.6107009 L12.5929513,11.2232101 C12.5929513,11.5614896 12.3202301,11.8357193 11.9838115,11.8357193 L8.73100463,11.8357193 L8.73100463,6.99077161 Z" fill="#FFFFFF"></path>
                                            <path d="M12.5888904,10.4596153 C12.5888904,10.5086161 12.5888904,10.5555751 12.5888904,10.6045759 L12.5888904,11.217085 C12.5888904,11.5553645 12.3161692,11.8295942 11.9797505,11.8295942 L0.655840581,11.8295942 C0.319421926,11.8295942 0.0467007225,11.5553645 0.0467007225,11.217085 L0.0467007225,10.4555319 L12.5888904,10.4596153 Z" fill="#FFFFFF"></path>
                                            <path d="M2.88123153,8.12799701 C1.81564472,8.13841179 0.938399523,7.28810977 0.909648855,6.21696832 L0.909648855,0.0265420651 L6.05485019,0.0265420651 L6.05485019,7.19902473 C6.03828579,7.72259493 5.60720956,8.13606368 5.08631782,8.12799701 L2.88123153,8.12799701 Z" fill="#15171B"></path>
                                        </g>
                                        <g transform="translate(0.000000, 71.255236)" id="Path">
                                            <path d="M5.00509917,8.57512872 L4.1563643,10.7495364 C3.69773774,11.9246012 2.56908287,12.6963317 1.31371163,12.6932322 L0.704571769,12.6932322 C0.368153115,12.6932322 0.0954319111,12.4190025 0.0954319111,12.080723 L0.0954319111,0.6839686 C0.0954319111,0.345689113 0.368153115,0.071459406 0.704571769,0.071459406 L4.81220488,0.071459406 C5.14862353,0.071459406 5.42134474,0.345689113 5.42134474,0.6839686 L5.42134474,6.32926168 C5.42389517,7.09750789 5.28269103,7.85937962 5.00509917,8.57512872 Z" fill="#D12149"></path>
                                            <path d="M4.91372819,8.79971543 L4.1563643,10.7393279 C3.69773774,11.9143927 2.56908287,12.6861232 1.31371163,12.6830237 L0.704571769,12.6830237 C0.368153115,12.6830237 0.0954319111,12.408794 0.0954319111,12.0705145 L0.0954319111,8.80379882 L4.91372819,8.79971543 Z" fill="#FFFFFF"></path>
                                            <path d="M1.46599659,12.6768986 L1.32183349,12.6768986 L0.712693634,12.6768986 C0.37627498,12.6768986 0.103553776,12.4026689 0.103553776,12.0643894 L0.103553776,0.6839686 C0.103553776,0.345689113 0.37627498,0.071459406 0.712693634,0.071459406 L1.47005752,0.071459406 L1.46599659,12.6768986 Z" fill="#FFFFFF"></path>
                                            <path d="M3.78478899,2.92166886 C3.77443149,1.85018797 4.62005611,0.968090461 5.68530534,0.939180765 L11.7462469,0.939180765 L11.7462469,6.11284176 L4.7086511,6.11284176 C4.187961,6.09618573 3.77676669,5.66272509 3.78478899,5.13895214 L3.78478899,2.92166886 Z" fill="#15171B"></path>
                                        </g>
                                        <g transform="translate(6.700538, 0.000000)">
                                            <g transform="translate(18.680289, 0.000000)">
                                                <polygon id="Rectangle" fill="#FFCAA6" transform="translate(7.171454, 14.883616) rotate(-172.519114) translate(-7.171454, -14.883616) " points="4.37274274 11.1645202 9.96488642 11.1685127 9.97016589 18.6027121 4.3780222 18.5987195"></polygon>
                                                <ellipse id="Oval" fill="#FFCAA6" transform="translate(7.559242, 7.795823) rotate(-0.060000) translate(-7.559242, -7.795823) " cx="7.55924164" cy="7.79582288" rx="7.54521242" ry="7.58694718"></ellipse>
                                                <path d="M3.12691794,9.64293642 L0.243655943,9.64293642 C-0.704761099,5.8249581 1.40822461,1.91176452 5.10917286,0.632127902 C8.81012112,-0.64750871 12.8696393,1.13148535 14.4569193,4.72857098 L5.77058492,4.72857098 C5.40996757,4.72857058 5.06414976,4.87275724 4.80934529,5.12935409 C4.55454082,5.38595094 4.411664,5.73389655 4.41220304,6.09650818 L4.41220304,8.33216674 C4.41544794,8.677614 4.28166241,9.01012178 4.04044801,9.25611897 C3.79923361,9.50211616 3.47047651,9.64132229 3.12691794,9.64293642 Z" id="Path" fill="#D12149"></path>
                                            </g>
                                            <g transform="translate(0.000000, 16.129409)">
                                                <path d="M30.2844033,35.6031178 C30.2732534,32.1813326 27.5167824,29.4105267 24.1138165,29.4004413 L17.4498265,29.4004413 C14.0460711,29.4105325 11.2892754,32.1825769 11.2792397,35.6051595 C11.279839,35.9010279 11.3015531,36.1964717 11.3442146,36.4892144 L10.9523347,36.4892144 L10.9523347,53.8089327 C10.9523347,54.3727319 10.4977993,54.8297814 9.93710155,54.8297814 L1.97970454,54.8297814 C0.893344572,54.8778917 0.0375257543,55.7780513 0.0385788577,56.8714787 L0.0385788577,61.1304593 C0.0375257543,62.2238867 0.893344572,63.1240463 1.97970454,63.1721566 L13.1574209,63.1721566 C13.8098604,63.1661227 14.4613939,63.1218106 15.1086989,63.0394463 C16.3947308,62.895672 17.5583993,62.2062386 18.3066832,61.1447512 C18.6747579,60.6239794 18.928113,60.0302438 19.0498338,59.4031834 C19.1127783,59.0989705 19.1391743,58.7906742 19.1716618,58.4640026 C19.189936,58.3067919 19.1980579,58.1414144 19.2102407,57.9780786 C19.2224235,57.8147429 19.2346063,57.6534488 19.2346063,57.4839879 C19.2549109,56.8183946 19.2346063,56.1405511 19.2346063,55.4708743 L19.2346063,41.8057942 L21.7990851,41.8057942 L21.7990851,77.523247 C21.8469307,78.615616 22.7421387,79.4761686 23.8295513,79.4751097 L28.0651037,79.4751097 C29.1525163,79.4761686 30.0477243,78.615616 30.0955699,77.523247 L30.0955699,37.0833483 C30.2152049,36.5991185 30.2758867,36.1020663 30.2762814,35.6031178 L30.2844033,35.6031178 Z" id="Path" fill="#00B49C"></path>
                                                <g transform="translate(29.441760, 2.654207)">
                                                    <g transform="translate(31.472226, 1.020849)" fill="#FFCAA6">
                                                        <rect id="Rectangle" x="0.0446702563" y="1.63948294" width="3.75433199" height="3.05642088"></rect>
                                                        <ellipse id="Oval" cx="5.92083942" cy="3.16667253" rx="2.98478531" ry="3.00129505"></ellipse>
                                                    </g>
                                                    <path d="M3.91879975,0.10616826 C3.79908538,0.0998219665 3.67912162,0.0998219665 3.55940724,0.10616826 C1.50457545,0.22050331 -0.0690358506,2.22136668 0.107614708,4.54073483 C0.276143402,6.74985132 2.03249666,8.37708408 4.0061098,8.26887412 L31.715882,6.73760114 L32.6641097,6.6906421 C33.2048907,6.66341987 33.6292583,6.21424622 33.6285811,5.66979344 L33.6285811,2.71545743 C33.6292583,2.17100465 33.2048907,1.72183101 32.6641097,1.69460877 L31.715882,1.64764973 L3.91879975,0.10616826 Z" id="Path" fill="#5E8516"></path>
                                                    <path d="M3.91879975,0.10616826 C3.79908538,0.0998219665 3.67912162,0.0998219665 3.55940724,0.10616826 C1.50457545,0.22050331 -0.0690358506,2.22136668 0.107614708,4.54073483 C0.276143402,6.74985132 2.03249666,8.37708408 4.0061098,8.26887412 L8.36958165,8.02591214 L8.54420174,6.64368306 C8.83705459,4.33430615 8.13354857,2.00925759 6.61119793,0.255212164 L3.91879975,0.10616826 Z" id="Path" fill="#232531"></path>
                                                </g>
                                                <path d="M24.1138165,29.4004413 L17.4498265,29.4004413 C15.659308,29.3982902 13.95639,30.1793086 12.7841841,31.54027 C11.6119782,32.9012313 11.0864021,34.7075521 11.3442146,36.4892144 L10.9523347,36.4892144 L10.9523347,39.304715 C10.9949744,39.304715 11.0355838,39.3210486 11.0782236,39.3271737 L29.7828781,41.7241263 C29.8884624,41.7384182 29.9960771,41.746585 30.1036918,41.7506684 L30.1036918,37.0833483 C30.2233268,36.5991185 30.2840086,36.1020663 30.2844033,35.6031178 C30.2732534,32.1813326 27.5167824,29.4105267 24.1138165,29.4004413 Z" id="Path" fill="#232531"></path>
                                                <path d="M13.5801969,1.35774975 L32.4367716,1.37082371 C33.5582661,1.37160129 34.4680475,2.28625036 34.468825,3.41374959 L34.4917235,36.6169976 C34.492501,37.7444968 33.5839804,38.6578852 32.4624858,38.6571076 L17.6672023,38.6468495 C14.3027186,38.6445168 11.5733746,35.9005696 11.5710419,32.5180719 L11.5509593,3.39785978 C11.5501817,2.27036055 12.4587024,1.35697218 13.5801969,1.35774975 Z" id="Path" fill="#5E8516" transform="translate(23.021341, 20.007429) rotate(-172.740000) translate(-23.021341, -20.007429) "></path>
                                            </g>
                                        </g>
                                        <g transform="translate(3.248746, 16.333579)">
                                            <g transform="translate(3.045699, 21.437822)" fill="#FFCAA6">
                                                <polygon id="Rectangle" transform="translate(2.993830, 2.374595) rotate(-14.660000) translate(-2.993830, -2.374595) " points="1.47603402 0.486707956 4.5167188 0.482591407 4.51162605 4.26248257 1.47094127 4.26659912"></polygon>
                                                <ellipse id="Oval" transform="translate(3.789479, 6.814471) rotate(-14.452428) translate(-3.789479, -6.814471) " cx="3.78947936" cy="6.81447104" rx="2.99088797" ry="3.00536553"></ellipse>
                                            </g>
                                            <path d="M20.7330903,7.96261953 C20.8498388,7.92093864 20.9643736,7.87323578 21.0762391,7.81970072 C22.9848773,6.89889523 23.7158451,4.42639978 22.6620332,2.354077 C21.6589829,0.381797398 19.368617,-0.424673041 17.5351061,0.461423593 L8.61526806,4.76736323 L6.38175525,5.84333771 L5.26702931,6.38234581 L4.69646831,6.65593325 L3.68123521,7.11735684 C3.34609747,7.26196015 3.01874178,7.42415808 2.70052004,7.6032808 C2.5493037,7.69053171 2.40289588,7.78595055 2.26193934,7.88911842 C2.12140214,7.98480696 1.98585827,8.08770863 1.8558461,8.19741472 C1.33707099,8.64168226 0.913002884,9.18685294 0.609139858,9.80014711 C0.300884685,10.4114464 0.121175926,11.0800466 0.0812186478,11.7642599 C0.0642987144,12.0996431 0.0778916683,12.4358794 0.121827972,12.768775 C0.142132634,12.9382359 0.176650559,13.1138219 0.207107552,13.2853244 L0.337057388,13.8059572 L0.607109392,14.724721 L0.741120161,15.1820612 L0.791881816,15.3515221 L0.834521606,15.4821907 L1.16751806,16.5316232 L1.82741957,18.6284463 L3.16143586,22.826176 L3.44570113,23.7347313 C3.60864228,24.2500231 4.14290611,24.5481797 4.66398085,24.4146165 L7.50663352,23.669397 C8.03014515,23.5318148 8.35434642,23.0055536 8.24369275,22.4729623 L8.04064613,21.5399067 L7.1594238,17.2237585 L6.71881264,15.0656845 L6.49952229,13.9856266 L6.47109576,13.8508746 L6.4568825,13.7834986 C6.45558669,13.7733317 6.45558669,13.76304 6.4568825,13.7528731 L6.4568825,13.6773303 L6.4568825,13.5323698 C6.4568825,13.4997026 6.4568825,13.4670355 6.4568825,13.4384517 C6.45845829,13.2826847 6.5339002,13.137035 6.65992912,13.0464458 C6.85138766,12.929027 7.0558162,12.8344697 7.26906897,12.7646916 L7.85384324,12.5605219 L9.02542223,12.1521824 L11.3706107,11.3069197 L20.7330903,7.96261953 Z" id="Path" fill="#5E8516"></path>
                                        </g>
                                    </g>
                                    <g transform="translate(115.797487, 31.033799)" fill="#232531">
                                        <path d="M31.3361848,22.8016756 C32.3405945,22.8015059 33.2480375,23.4044716 33.6417177,24.3336253 C34.0353979,25.2627791 33.8392238,26.3385319 33.1432997,27.0667813 L20.8427355,39.9294744 C20.3703385,40.4234755 19.7181918,40.702656 19.0366358,40.702656 C18.3550798,40.702656 17.7029331,40.4234755 17.2305361,39.9294744 L4.92794145,27.0667813 C4.23201737,26.3385319 4.0358432,25.2627791 4.4295234,24.3336253 C4.8232036,23.4044716 5.73064667,22.8015059 6.73505637,22.8016756 L11.262996,22.8016756 L11.262996,2.42553641 C11.262996,1.12203279 12.3138817,0.0653343141 13.6102149,0.0653343141 L24.4589958,0.0653343141 C25.755329,0.0653343141 26.8062147,1.12203279 26.8062147,2.42553641 L26.8062147,22.8016756 L31.3361848,22.8016756 Z" id="Path"></path>
                                        <rect id="Rectangle" fill-rule="nonzero" x="0" y="48.144357" width="38.3036167" height="5.1847769" rx="2.59238845"></rect>
                                    </g>
                                    <path d="M165.348984,22.1973332 C164.339728,22.1973332 163.521564,21.3746441 163.521564,20.3598056 C163.521564,16.3004518 160.24891,13.0096953 156.211886,13.0096953 C155.20263,13.0096953 154.384467,12.1870062 154.384467,11.1721677 C154.384467,10.1573292 155.20263,9.33464012 156.211886,9.33464012 C160.24891,9.33464012 163.521564,6.04388364 163.521564,1.98452979 C163.521564,0.969691328 164.339728,0.147002207 165.348984,0.147002207 C166.35824,0.147002207 167.176404,0.969691328 167.176404,1.98452979 C167.176404,6.04388364 170.449058,9.33464012 174.486082,9.33464012 C175.495338,9.33464012 176.313501,10.1573292 176.313501,11.1721677 C176.313501,12.1870062 175.495338,13.0096953 174.486082,13.0096953 C170.449058,13.0096953 167.176404,16.3004518 167.176404,20.3598056 C167.176404,21.3746441 166.35824,22.1973332 165.348984,22.1973332 Z" id="Path" fill="#00B49C"></path>
                                </g>
                                <path d="M172.938867,87.7929845 C171.952775,87.7937648 171.063435,87.1968235 170.685969,86.2807976 C170.308503,85.3647717 170.51734,84.3102856 171.215001,83.6095467 L188.443507,66.285745 C189.06011,65.6657311 189.958829,65.423588 190.801125,65.6505289 C191.643421,65.8774698 192.301328,66.5390168 192.527021,67.3859716 C192.752713,68.2329264 192.511902,69.1366165 191.895299,69.7566305 L174.660702,87.0702237 C174.204863,87.5313241 173.585448,87.7913306 172.938867,87.7929845 Z" id="Path" fill="#D12149"></path>
                                <path d="M184.569377,91.3128707 L184.569377,86.5965499 L175.560199,95.6555609 C174.941779,96.3115554 174.955491,97.3434823 175.591121,97.9826281 C176.226751,98.6217738 177.253001,98.635562 177.905387,98.0137213 L184.569377,91.3128707 Z" id="Path" fill="#5E8516"></path>
                            </g>
                            <g id="Group" transform="translate(35.533158, 128.831101)" fill="#232531">
                                <path d="M2.582753,0.289921019 C2.01383331,-0.0497234131 1.3160184,-0.0893402279 0.712693634,0.183752758 L0.712693634,5.18386948 C0.716157455,6.49375733 0.585519146,7.80052471 0.322844125,9.08351135 L1.1350306,9.72052091 L1.64467762,10.1288604 C1.81523678,10.2615707 1.98579594,10.3840725 2.1563551,10.5106578 L2.41219384,10.7005356 C2.47107736,10.7434113 2.52996088,10.7801618 2.58681393,10.8189541 L2.582753,0.289921019 Z" id="Path"></path>
                                <path d="M0.233503612,9.47960063 L0.25583874,9.39793274 C0.25583874,9.39793274 0.25583874,9.37547407 0.25583874,9.36526558 L0.233503612,9.47960063 Z" id="Path"></path>
                            </g>
                        </g>
                    </g>
                </g>
            </g>
        </g>
    </g>
</svg>