<?xml version="1.0" encoding="UTF-8"?>
<svg width="282px" height="282px" viewBox="0 0 282 282" version="1.1" xmlns="http://www.w3.org/2000/svg" xmlns:xlink="http://www.w3.org/1999/xlink">
    <!-- Generator: sketchtool 52.4 (67378) - http://www.bohemiancoding.com/sketch -->
    <title>F0E9EC18-A437-49CB-BB67-7F83E8289D08</title>
    <desc>Created with sketchtool.</desc>
    <g id="Assets" stroke="none" stroke-width="1" fill="none" fill-rule="evenodd">
        <g id="01.-Illustrations" transform="translate(-120.000000, -952.000000)">
            <g id="01.1-Home-Logged-Out" transform="translate(120.000000, 218.000000)">
                <g id="01.1-Home-Logged-Out_Access-Premium-Content_Desktop" transform="translate(0.000000, 734.000000)">
                    <rect id="Rectangle-Copy-2" fill="#393D52" fill-rule="nonzero" opacity="0.4" x="0" y="0" width="282" height="282" rx="8"></rect>
                    <g id="Onboarding" transform="translate(23.000000, 13.000000)">
                        <g id="Characters_and_Main_Confetti" transform="translate(0.531385, 0.103007)">
                            <ellipse id="Oval" fill="#848584" cx="68.3919874" cy="0.823040135" rx="1" ry="1"></ellipse>
                            <ellipse id="Oval" fill="#848584" cx="162.973109" cy="6.87331737" rx="1" ry="1"></ellipse>
                            <ellipse id="Oval" fill="#848584" cx="206.608015" cy="24.4907711" rx="1" ry="1"></ellipse>
                            <ellipse id="Oval" fill="#848584" cx="58.0540785" cy="39.2975029" rx="1" ry="1"></ellipse>
                            <ellipse id="Oval" fill="#848584" cx="167.859792" cy="35.5718479" rx="1" ry="1"></ellipse>
                            <ellipse id="Oval" fill="#848584" cx="228.336956" cy="40.0186618" rx="1" ry="1"></ellipse>
                            <ellipse id="Oval" fill="#848584" cx="176.95148" cy="49.2958424" rx="1" ry="1"></ellipse>
                            <ellipse id="Oval" fill="#848584" cx="22.6464322" cy="63.2955153" rx="1" ry="1"></ellipse>
                            <ellipse id="Oval" fill="#848584" cx="38.2378448" cy="69.2725447" rx="1" ry="1"></ellipse>
                            <ellipse id="Oval" fill="#848584" cx="58.0540785" cy="69.2725447" rx="1" ry="1"></ellipse>
                            <ellipse id="Oval" fill="#848584" cx="176.95148" cy="69.2725447" rx="1" ry="1"></ellipse>
                            <ellipse id="Oval" fill="#848584" cx="167.043364" cy="79.2608958" rx="1" ry="1"></ellipse>
                            <ellipse id="Oval" fill="#848584" cx="196.767714" cy="99.2375981" rx="1" ry="1"></ellipse>
                            <ellipse id="Oval" fill="#848584" cx="38.2378448" cy="109.225949" rx="1" ry="1"></ellipse>
                            <ellipse id="Oval" fill="#848584" cx="0.816428826" cy="119.67554" rx="1" ry="1"></ellipse>
                            <ellipse id="Oval" fill="#848584" cx="77.8703121" cy="119.2143" rx="1" ry="1"></ellipse>
                            <ellipse id="Oval" fill="#848584" cx="206.675831" cy="119.2143" rx="1" ry="1"></ellipse>
                            <ellipse id="Oval" fill="#848584" cx="215.882453" cy="85.3857527" rx="1" ry="1"></ellipse>
                            <ellipse id="Oval" fill="#848584" cx="167.043364" cy="139.191003" rx="1" ry="1"></ellipse>
                            <ellipse id="Oval" fill="#848584" cx="67.9621953" cy="149.179354" rx="1" ry="1"></ellipse>
                            <ellipse id="Oval" fill="#848584" cx="28.329728" cy="159.167705" rx="1" ry="1"></ellipse>
                            <ellipse id="Oval" fill="#848584" cx="97.6865457" cy="159.167705" rx="1" ry="1"></ellipse>
                            <ellipse id="Oval" fill="#848584" cx="167.043364" cy="159.167705" rx="1" ry="1"></ellipse>
                            <ellipse id="Oval" fill="#848584" cx="206.675831" cy="159.167705" rx="1" ry="1"></ellipse>
                            <ellipse id="Oval" fill="#848584" cx="67.9621953" cy="169.156056" rx="1" ry="1"></ellipse>
                            <ellipse id="Oval" fill="#848584" cx="147.22713" cy="169.156056" rx="1" ry="1"></ellipse>
                            <ellipse id="Oval" fill="#848584" cx="216.583948" cy="169.156056" rx="1" ry="1"></ellipse>
                            <ellipse id="Oval" fill="#848584" cx="157.135247" cy="189.132758" rx="1" ry="1"></ellipse>
                            <ellipse id="Oval" fill="#848584" cx="186.859597" cy="189.132758" rx="1" ry="1"></ellipse>
                            <ellipse id="Oval" fill="#848584" cx="38.2378448" cy="199.12111" rx="1" ry="1"></ellipse>
                            <ellipse id="Oval" fill="#848584" cx="107.594663" cy="199.12111" rx="1" ry="1"></ellipse>
                            <ellipse id="Oval" fill="#848584" cx="234.1768" cy="203.314219" rx="1" ry="1"></ellipse>
                            <ellipse id="Oval" fill="#848584" cx="156.487256" cy="232.791841" rx="1" ry="1"></ellipse>
                            <ellipse id="Oval" fill="#FFD400" cx="140.65959" cy="14.0449535" rx="2.2471609" ry="2.26535804"></ellipse>
                            <ellipse id="Oval" fill="#FFFFFF" cx="23.2171397" cy="20.5673468" rx="2.2471609" ry="2.26535804"></ellipse>
                            <ellipse id="Oval" fill="#5E8516" cx="38.2378448" cy="59.2841935" rx="2.2471609" ry="2.26535804"></ellipse>
                            <ellipse id="Oval" fill="#5E8516" cx="186.859597" cy="69.2725447" rx="2.2471609" ry="2.26535804"></ellipse>
                            <ellipse id="Oval" fill="#5E8516" cx="28.329728" cy="99.2375981" rx="2.2471609" ry="2.26535804"></ellipse>
                            <ellipse id="Oval" fill="#5E8516" cx="87.7784289" cy="140.798017" rx="2.2471609" ry="2.26535804"></ellipse>
                            <ellipse id="Oval" fill="#5E8516" cx="157.135247" cy="129.202652" rx="2.2471609" ry="2.26535804"></ellipse>
                            <ellipse id="Oval" fill="#FFFFFF" cx="147.22713" cy="159.167705" rx="2.2471609" ry="2.26535804"></ellipse>
                            <ellipse id="Oval" fill="#5E8516" cx="231.572727" cy="135.612065" rx="2.2471609" ry="2.26535804"></ellipse>
                            <ellipse id="Oval" fill="#5E8516" cx="147.22713" cy="199.12111" rx="2.2471609" ry="2.26535804"></ellipse>
                            <ellipse id="Oval" fill="#5E8516" cx="196.767714" cy="199.12111" rx="2.2471609" ry="2.26535804"></ellipse>
                            <ellipse id="Oval" fill="#5E8516" cx="85.6382757" cy="251.565724" rx="2.2471609" ry="2.26535804"></ellipse>
                            <ellipse id="Oval" fill="#15171B" cx="81.4372342" cy="12.5826589" rx="1.02053603" ry="1.02880017"></ellipse>
                            <ellipse id="Oval" fill="#15171B" cx="179.339336" cy="20.323631" rx="1.02053603" ry="1.02880017"></ellipse>
                            <ellipse id="Oval" fill="#15171B" cx="58.0540785" cy="29.3191401" rx="1.02053603" ry="1.02880017"></ellipse>
                            <ellipse id="Oval" fill="#15171B" cx="67.9621953" cy="29.3191401" rx="1.02053603" ry="1.02880017"></ellipse>
                            <ellipse id="Oval" fill="#15171B" cx="12.6075282" cy="40.3362914" rx="1.02053603" ry="1.02880017"></ellipse>
                            <ellipse id="Oval" fill="#15171B" cx="19.4421472" cy="48.2670422" rx="1.02053603" ry="1.02880017"></ellipse>
                            <ellipse id="Oval" fill="#15171B" cx="48.1459616" cy="69.2725447" rx="1.02053603" ry="1.02880017"></ellipse>
                            <ellipse id="Oval" fill="#15171B" cx="196.767714" cy="69.2725447" rx="1.02053603" ry="1.02880017"></ellipse>
                            <ellipse id="Oval" fill="#15171B" cx="18.4216112" cy="89.249247" rx="1.02053603" ry="1.02880017"></ellipse>
                            <ellipse id="Oval" fill="#15171B" cx="167.043364" cy="89.249247" rx="1.02053603" ry="1.02880017"></ellipse>
                            <ellipse id="Oval" fill="#15171B" cx="13.6300459" cy="98.414558" rx="1.02053603" ry="1.02880017"></ellipse>
                            <ellipse id="Oval" fill="#15171B" cx="48.1459616" cy="99.2375981" rx="1.02053603" ry="1.02880017"></ellipse>
                            <ellipse id="Oval" fill="#15171B" cx="186.859597" cy="99.2375981" rx="1.02053603" ry="1.02880017"></ellipse>
                            <ellipse id="Oval" fill="#15171B" cx="210.466676" cy="100.913643" rx="1.02053603" ry="1.02880017"></ellipse>
                            <ellipse id="Oval" fill="#15171B" cx="216.583948" cy="129.202652" rx="1.02053603" ry="1.02880017"></ellipse>
                            <ellipse id="Oval" fill="#15171B" cx="77.8703121" cy="139.191003" rx="1.02053603" ry="1.02880017"></ellipse>
                            <ellipse id="Oval" fill="#15171B" cx="87.7784289" cy="149.179354" rx="1.02053603" ry="1.02880017"></ellipse>
                            <ellipse id="Oval" fill="#15171B" cx="18.4216112" cy="159.167705" rx="1.02053603" ry="1.02880017"></ellipse>
                            <ellipse id="Oval" fill="#15171B" cx="137.319013" cy="159.167705" rx="1.02053603" ry="1.02880017"></ellipse>
                            <ellipse id="Oval" fill="#15171B" cx="167.043364" cy="169.156056" rx="1.02053603" ry="1.02880017"></ellipse>
                            <ellipse id="Oval" fill="#15171B" cx="127.410896" cy="179.144407" rx="1.02053603" ry="1.02880017"></ellipse>
                            <ellipse id="Oval" fill="#15171B" cx="157.135247" cy="179.144407" rx="1.02053603" ry="1.02880017"></ellipse>
                            <ellipse id="Oval" fill="#15171B" cx="77.8703121" cy="189.132758" rx="1.02053603" ry="1.02880017"></ellipse>
                            <ellipse id="Oval" fill="#15171B" cx="107.594663" cy="189.132758" rx="1.02053603" ry="1.02880017"></ellipse>
                            <ellipse id="Oval" fill="#15171B" cx="137.319013" cy="189.132758" rx="1.02053603" ry="1.02880017"></ellipse>
                            <ellipse id="Oval" fill="#15171B" cx="27.3191001" cy="233.429098" rx="1.02053603" ry="1.02880017"></ellipse>
                            <ellipse id="Oval" fill="#15171B" cx="113.830831" cy="231.761043" rx="1.02053603" ry="1.02880017"></ellipse>
                            <path d="M11.8148789,78.7035458 C11.4865528,78.7035458 11.2203919,78.4352296 11.2203919,78.1042447 C11.2203919,76.7803054 10.1557483,75.7070405 8.84244381,75.7070405 C8.5141177,75.7070405 8.2479568,75.4387242 8.2479568,75.1077394 C8.2479568,74.7767546 8.5141177,74.5084383 8.84244381,74.5084383 C10.1557483,74.5084383 11.2203919,73.4351734 11.2203919,72.1112341 C11.2203919,71.7802492 11.4865528,71.511933 11.8148789,71.511933 C12.143205,71.511933 12.4093659,71.7802492 12.4093659,72.1112341 C12.4093659,73.4351734 13.4740095,74.5084383 14.7873139,74.5084383 C15.11564,74.5084383 15.3818009,74.7767546 15.3818009,75.1077394 C15.3818009,75.4387242 15.11564,75.7070405 14.7873139,75.7070405 C13.4740095,75.7070405 12.4093659,76.7803054 12.4093659,78.1042447 C12.4093659,78.4352296 12.143205,78.7035458 11.8148789,78.7035458 Z" id="Path" fill="#00B49C"></path>
                            <path d="M36.900249,34.1574974 L32.5030268,41.8205604 C32.0995338,42.52509 32.099483,43.3930942 32.5028935,44.0976718 C32.906304,44.8022494 33.6519032,45.2363845 34.458889,45.2365765 L42.0148189,45.2365765 C42.8218048,45.2363845 43.567404,44.8022494 43.9708145,44.0976718 C44.374225,43.3930942 44.3741742,42.52509 43.9706812,41.8205604 L39.5774222,34.1574974 C39.3013156,33.6753936 38.7910492,33.3784053 38.2388356,33.3784053 C37.686622,33.3784053 37.1763556,33.6753936 36.900249,34.1574974 Z" id="Path" fill="#FFD400"></path>
                            <path d="M204.216636,49.6953764 C203.736066,49.6949503 203.303004,49.4029254 203.119155,48.9553171 C202.935306,48.5077088 203.036825,47.9925412 203.376428,47.6497621 C203.82811,47.1954928 204.005079,46.5328097 203.840671,45.9113392 C203.676264,45.2898686 203.195458,44.8040267 202.579368,44.6368255 C201.963278,44.4696243 201.305504,44.6464655 200.853821,45.1007349 C199.228607,46.7391097 196.593614,46.7391096 194.9684,45.1007347 C193.343186,43.4623598 193.343186,40.8060293 194.9684,39.1676543 C195.41902,38.713385 195.595008,38.051273 195.430069,37.4307296 C195.265131,36.8101862 194.784325,36.3254865 194.168766,36.1592124 C193.553207,35.9929383 192.896414,36.1703507 192.445793,36.6246201 C191.394464,37.6844629 189.862118,38.0983786 188.425976,37.7104492 C186.989833,37.3225198 185.868078,36.1916811 185.483265,34.7439089 C185.098452,33.2961368 185.509043,31.7513823 186.560372,30.6915395 C186.860904,30.3885744 187.298938,30.270253 187.709471,30.3811459 C188.120005,30.4920389 188.440668,30.8152989 188.550671,31.229157 C188.660673,31.6430151 188.543302,32.0845964 188.24277,32.3875615 C187.79215,32.8418308 187.616163,33.5039428 187.781101,34.1244862 C187.94604,34.7450297 188.426846,35.2297293 189.042404,35.3960034 C189.657963,35.5622775 190.314757,35.3848651 190.765377,34.9305957 C191.816706,33.8707529 193.349052,33.4568371 194.785194,33.8447665 C196.221337,34.2326958 197.343092,35.3635346 197.727905,36.8113068 C198.112718,38.259079 197.702128,39.8038336 196.650798,40.8636763 C196.200178,41.3179456 196.024191,41.9800576 196.189129,42.600601 C196.354068,43.2211444 196.834874,43.705844 197.450432,43.8721181 C198.065991,44.0383922 198.722784,43.8609798 199.173405,43.4067105 C200.224734,42.3468677 201.75708,41.9329519 203.193222,42.3208812 C204.629365,42.7088106 205.75112,43.8396494 206.135933,45.2874216 C206.520746,46.7351938 206.110155,48.2799484 205.058826,49.3397911 C204.836231,49.5665927 204.533123,49.6945692 204.216636,49.6953764 Z" id="Path" fill="#FFFFFF"></path>
                            <path d="M203.405272,83.1299391 C202.603911,83.1297666 201.881534,82.6430519 201.57489,81.8966865 C201.268245,81.1503211 201.437702,80.2912382 202.004264,79.719916 L214.161523,67.4702022 C214.93309,66.687423 216.188038,66.6833983 216.964529,67.4612127 C217.741021,68.239027 217.745013,69.5041381 216.973447,70.2869172 L204.816187,82.5426241 C204.44255,82.9204752 203.934505,83.1319564 203.405272,83.1299391 Z" id="Path" fill="#00B49C"></path>
                            <rect id="Rectangle" fill="#FFFFFF" x="53.10002" y="84.2850364" width="9.90811682" height="9.98835115" rx="4.95405841"></rect>
                            <path d="M130.549788,224.759209 C129.893135,224.759209 129.360814,224.222577 129.360814,223.560607 C129.360814,220.912728 127.231526,218.766199 124.604918,218.766199 C123.948265,218.766199 123.415944,218.229566 123.415944,217.567596 C123.415944,216.905627 123.948265,216.368994 124.604918,216.368994 C127.231526,216.368994 129.360814,214.222465 129.360814,211.574586 C129.360814,210.912616 129.893135,210.375984 130.549788,210.375984 C131.20644,210.375984 131.738762,210.912616 131.738762,211.574586 C131.738762,214.222465 133.868049,216.368994 136.494658,216.368994 C137.15131,216.368994 137.683632,216.905627 137.683632,217.567596 C137.683632,218.229566 137.15131,218.766199 136.494658,218.766199 C133.868049,218.766199 131.738762,220.912728 131.738762,223.560607 C131.738762,224.222577 131.20644,224.759209 130.549788,224.759209 Z" id="Path" fill="#FFD400"></path>
                            <path d="M77.8703121,182.784162 C77.541986,182.784162 77.2758251,182.515846 77.2758251,182.184861 C77.2758251,180.860922 76.2111815,179.787657 74.8978771,179.787657 C74.5695509,179.787657 74.30339,179.519341 74.30339,179.188356 C74.30339,178.857371 74.5695509,178.589055 74.8978771,178.589055 C76.2111815,178.589055 77.2758251,177.51579 77.2758251,176.191851 C77.2758251,175.860866 77.541986,175.59255 77.8703121,175.59255 C78.1986382,175.59255 78.4647991,175.860866 78.4647991,176.191851 C78.4647991,177.51579 79.5294427,178.589055 80.8427471,178.589055 C81.1710733,178.589055 81.4372342,178.857371 81.4372342,179.188356 C81.4372342,179.519341 81.1710733,179.787657 80.8427471,179.787657 C79.5294427,179.787657 78.4647991,180.860922 78.4647991,182.184861 C78.4647991,182.515846 78.1986382,182.784162 77.8703121,182.784162 Z" id="Path" fill="#D12149"></path>
                            <g id="Group" transform="translate(72.135494, 19.131022)">
                                <g>
                                    <path d="M43.7700969,102.947938 L43.7938764,102.947938 L43.7700969,102.947938 C43.667119,102.912596 43.5917592,102.823035 43.5739674,102.714848 C43.5561757,102.606662 43.5988342,102.497377 43.6849894,102.430425 C43.7711446,102.363474 43.8868394,102.349702 43.9860938,102.394583 L44.0098733,102.404571 L43.9900571,102.38859 C43.9000852,102.320707 43.8561402,102.207221 43.8766968,102.095842 C43.8972534,101.984463 43.978747,101.894505 44.0869172,101.863786 C44.1950875,101.833068 44.3111772,101.866916 44.3863817,101.9511 L44.406198,101.971077 L44.3923266,101.947105 C44.3456008,101.852183 44.3526579,101.739342 44.4108396,101.651087 C44.4690212,101.562833 44.5694881,101.512573 44.6743955,101.519241 C44.7793028,101.525909 44.8727127,101.58849 44.9194384,101.683412 L44.9293465,101.707384 C44.9287521,101.698738 44.9287521,101.690061 44.9293465,101.681415 C44.920143,101.57436 44.9682928,101.470487 45.0556585,101.408925 C45.1430242,101.347362 45.2563328,101.337463 45.352902,101.382955 C45.4494713,101.428447 45.51463,101.52242 45.5238336,101.629475 C45.5243923,101.638123 45.5243923,101.646798 45.5238336,101.655445 C45.5232194,101.646799 45.5232194,101.638121 45.5238336,101.629475 C45.5528601,101.527773 45.6335034,101.449407 45.7353858,101.423898 C45.8372682,101.398388 45.9449114,101.42961 46.0177672,101.505802 C46.0906229,101.581995 46.1176228,101.691582 46.0885962,101.793284 L46.0885962,101.817256 L46.1044492,101.795282 C46.1681661,101.711065 46.271611,101.667514 46.3758173,101.681033 C46.4800235,101.694552 46.5691596,101.763088 46.6096488,101.860823 C46.6501381,101.958559 46.6358293,102.070646 46.5721123,102.154863 L46.5562593,102.174839 L46.5780572,102.160856 C46.7153509,102.088698 46.8846175,102.13571 46.9658808,102.26857 C47.0471442,102.401429 47.0127996,102.575005 46.8871904,102.666266 L46.863411,102.68025 L46.8891721,102.68025 C47.0489574,102.650461 47.2024435,102.756893 47.2319928,102.917973 C47.2615422,103.079052 47.1559651,103.233781 46.9961797,103.26357 L46.9704186,103.26357 L46.9961797,103.26357 C47.1452433,103.303931 47.2383179,103.453222 47.2097481,103.60613 C47.1811783,103.759038 47.0406054,103.863962 46.8871904,103.846889 L46.8614293,103.846889 L46.8832272,103.860873 C47.0211242,103.947481 47.0632663,104.130383 46.9773543,104.269396 C46.8914423,104.40841 46.7100093,104.450894 46.5721123,104.364286 L46.5503145,104.350302 L46.5661674,104.370279 C46.6295304,104.454852 46.6433233,104.567079 46.6023505,104.664683 C46.5613776,104.762288 46.4718639,104.830443 46.3675281,104.843475 C46.2631923,104.856507 46.1598856,104.812435 46.0965227,104.727862 L46.0826513,104.705887 L46.0826513,104.731857 C46.111324,104.833916 46.0838081,104.943643 46.0104688,105.019705 C45.9371295,105.095766 45.8291086,105.126608 45.7270966,105.10061 C45.6250847,105.074613 45.5445797,104.995727 45.5159071,104.893668 L45.5159071,104.867699 C45.516528,104.876344 45.516528,104.885023 45.5159071,104.893668 C45.5025194,105.046735 45.3750518,105.163948 45.2226268,105.163354 L45.1810127,105.163354 C45.1034684,105.156261 45.0319047,105.118374 44.9820947,105.058043 C44.9322847,104.997712 44.9083174,104.91989 44.9154752,104.841729 C44.9149481,104.833081 44.9149481,104.824408 44.9154752,104.815759 L44.9035854,104.839731 C44.8560754,104.936973 44.7595879,105.000209 44.6521465,105.004519 C44.5447051,105.008828 44.4435388,104.953521 44.3885148,104.860392 C44.3334908,104.767262 44.3334327,104.651245 44.3883634,104.55806 L44.4022347,104.534088 L44.3824185,104.554064 C44.260691,104.651347 44.0850081,104.636911 43.980516,104.521039 C43.8760239,104.405167 43.8784621,104.227491 43.9860938,104.114577 L44.0059101,104.098596 L43.9821306,104.108584 C43.8305534,104.168161 43.6597668,104.092586 43.6006681,103.939781 C43.5415694,103.786976 43.6165381,103.614807 43.7681153,103.555229 L43.7938764,103.555229 L43.7661336,103.555229 C43.603065,103.555229 43.4708718,103.421966 43.4708718,103.257576 C43.4675975,103.17588 43.4978038,103.096423 43.5544002,103.037857 C43.6109965,102.979291 43.6889988,102.946773 43.7700969,102.947938 Z" id="Path" fill="#15171B"></path>
                                    <ellipse id="Oval" fill="#8C522A" cx="45.3514323" cy="104.474158" rx="1.83894648" ry="1.85383797"></ellipse>
                                    <path d="M43.6135486,104.745841 C43.5921131,104.106179 43.9183949,103.505639 44.4646136,103.179407 C45.0108323,102.853175 45.6900507,102.853175 46.2362694,103.179407 C46.7824881,103.505639 47.1087699,104.106179 47.0873344,104.745841 L47.1665993,104.745841 C47.1806742,104.655966 47.1879611,104.565144 47.1883972,104.474158 C47.1883973,103.811845 46.8378961,103.199843 46.268924,102.868687 C45.699952,102.53753 44.9989494,102.53753 44.4299774,102.868687 C43.8610053,103.199843 43.5105041,103.811845 43.5105042,104.474158 C43.5109403,104.565144 43.5182272,104.655966 43.5323021,104.745841 L43.6135486,104.745841 Z" id="Path" fill="#15171B"></path>
                                    <g transform="translate(30.913324, 111.869533)" fill="#FFD400">
                                        <path d="M1.01657279,1.03079784 L27.9825035,1.03079784 L27.9825035,14.1315192 C27.9825035,16.1174282 26.3855381,17.7273256 24.4155815,17.7273256 L4.58349484,17.7273256 C2.61353819,17.7273256 1.01657279,16.1174282 1.01657279,14.1315192 L1.01657279,1.03079784 Z" id="Path"></path>
                                        <path d="M24.4155815,18.7261607 L4.58349484,18.7261607 C2.066328,18.7261607 0.0257611037,16.6690697 0.0257611037,14.1315192 L0.0257611037,1.03079784 C0.0257611037,0.479156437 0.469362604,0.0319627237 1.01657279,0.0319627237 L27.9825035,0.0319627237 C28.5297137,0.0319627237 28.9733152,0.479156437 28.9733152,1.03079784 L28.9733152,14.1315192 C28.9733152,16.6690697 26.9327483,18.7261607 24.4155815,18.7261607 Z M2.00738447,2.02963295 L2.00738447,14.1315192 C2.00738447,15.5657868 3.16074837,16.7284905 4.58349484,16.7284905 L24.4155815,16.7284905 C25.8383279,16.7284905 26.9916918,15.5657868 26.9916918,14.1315192 L26.9916918,2.02963295 L2.00738447,2.02963295 Z" id="Shape" fill-rule="nonzero"></path>
                                    </g>
                                    <g transform="translate(30.913324, 113.667436)" fill="#D12149">
                                        <path d="M1.01657279,7.68503737 C1.45803245,7.81619149 1.91573712,7.88345259 2.37596641,7.8848044 L26.6231099,7.8848044 C27.0833392,7.88345259 27.5410439,7.81619149 27.9825035,7.68503737 L27.9825035,1.03079784 L1.01657279,1.03079784 L1.01657279,7.68503737 Z" id="Path"></path>
                                        <path d="M26.6231099,8.87964417 L2.37794804,8.87964417 C1.82403146,8.87945533 1.2729395,8.80009039 0.741127138,8.64391908 C0.318380821,8.5196196 0.0277427271,8.12896409 0.0277427271,7.68503737 L0.0277427271,1.03079784 C0.0277427271,0.479156437 0.471344227,0.0319627237 1.01855441,0.0319627237 L27.9825035,0.0319627237 C28.5297137,0.0319627237 28.9733152,0.479156437 28.9733152,1.03079784 L28.9733152,7.68503737 C28.9733152,8.12896409 28.6826771,8.5196196 28.2599308,8.64391908 C27.7281184,8.80009039 27.1770265,8.87945533 26.6231099,8.87964417 Z M2.00738447,6.86399491 C2.13024512,6.87598093 2.25310577,6.88197394 2.37596641,6.88197394 L26.6231099,6.88197394 C26.7459706,6.88197394 26.8688312,6.87598093 26.9916918,6.86399491 L26.9916918,2.02963295 L2.00738447,2.02963295 L2.00738447,6.86399491 Z" id="Shape" fill-rule="nonzero"></path>
                                    </g>
                                    <g transform="translate(29.129863, 113.667436)" id="Path">
                                        <path d="M31.5078115,1.16663941 C31.5034552,2.88704152 30.1210799,4.28061104 28.4144974,4.28500264 L4.16140907,4.28500264 C2.45482658,4.28061104 1.07245132,2.88704152 1.06809499,1.16663941" fill="#15171B"></path>
                                        <path d="M28.4065709,5.28383776 L4.16140907,5.28383776 C1.90671428,5.28163528 0.0794680945,3.43959235 0.0772833112,1.16663941 C0.0772833112,0.614998013 0.520884811,0.167804299 1.06809499,0.167804299 C1.61530518,0.167804299 2.05890668,0.614998013 2.05890668,1.16663941 C2.05999913,2.33676599 3.00068187,3.28506623 4.16140907,3.28616753 L28.4065709,3.28616753 C28.9654009,3.28775918 29.5019124,3.06521902 29.8978092,2.66761529 C30.293706,2.27001156 30.5164758,1.72999669 30.5169998,1.16663941 C30.5169998,0.614998013 30.9606013,0.167804299 31.5078115,0.167804299 C32.0550217,0.167804299 32.4986232,0.614998013 32.4986232,1.16663941 C32.4975726,2.25964809 32.0658565,3.3074692 31.2984478,4.07959377 C30.531039,4.85171835 29.4907997,5.2848979 28.4065709,5.28383776 Z" fill="#FFD400"></path>
                                    </g>
                                    <g transform="translate(29.129863, 110.670931)" id="Path">
                                        <path d="M1.06611337,4.16314476 C1.07156261,2.44274532 2.45482365,1.05006834 4.16140907,1.0467792 L28.4065709,1.0467792 C30.1154769,1.04677041 31.5023517,2.44040915 31.5078115,4.16314476" fill="#15171B"></path>
                                        <path d="M31.5078115,5.16197987 C30.9606013,5.16197987 30.5169998,4.71478616 30.5169998,4.16314476 C30.5159074,2.99301818 29.5752246,2.04471794 28.4144974,2.04361664 L4.16140907,2.04361664 C3.00068187,2.04471794 2.05999913,2.99301818 2.05890668,4.16314476 C2.05890668,4.71478616 1.61530518,5.16197987 1.06809499,5.16197987 C0.520884811,5.16197987 0.0772833112,4.71478616 0.0772833112,4.16314476 C0.0805598936,1.890972 1.90748687,0.050144472 4.16140907,0.0479440855 L28.4065709,0.0479440855 C30.6635877,0.0457358696 32.4953421,1.88785238 32.4986232,4.16314476 C32.4986232,4.4280523 32.3942344,4.68210992 32.2084212,4.86942784 C32.0226079,5.05674576 31.7705911,5.16197987 31.5078115,5.16197987 Z" fill="#D12149"></path>
                                    </g>
                                    <g transform="translate(29.129863, 99.084443)" fill="#D12149" id="Path">
                                        <path d="M1.06611337,16.1291894 C0.518903188,16.1291894 0.0753016879,15.6819957 0.0753016879,15.1303543 L0.0753016879,1.12269067 C0.0753016879,0.571049268 0.518903188,0.123855554 1.06611337,0.123855554 C1.61332355,0.123855554 2.05692505,0.571049268 2.05692505,1.12269067 L2.05692505,15.1303543 C2.05692505,15.6819957 1.61332355,16.1291894 1.06611337,16.1291894 Z"></path>
                                        <path d="M31.5078115,16.1291894 C30.9606013,16.1291894 30.5169998,15.6819957 30.5169998,15.1303543 L30.5169998,1.12269067 C30.5169998,0.571049268 30.9606013,0.123855554 31.5078115,0.123855554 C32.0550217,0.123855554 32.4986232,0.571049268 32.4986232,1.12269067 L32.4986232,15.1303543 C32.4986232,15.6819957 32.0550217,16.1291894 31.5078115,16.1291894 Z"></path>
                                    </g>
                                    <g fill="#BEE70C">
                                        <path d="M89.6783654,45.8625131 C89.6783654,21.1932835 69.8403339,1.19860214 45.3672853,1.19860214 C20.8942368,1.19860214 1.05620525,21.1932835 1.05620525,45.8625131 C1.05620525,55.9447548 6.39271697,66.5024419 9.95963903,72.5573804 C13.3739761,78.3506241 23.2166993,93.2812114 26.4725065,98.2014731 C27.1356468,99.2020122 28.2512874,99.8018388 29.4449416,99.7996093 L61.3173718,99.7996093 C62.4977562,99.7996789 63.6017332,99.2110595 64.2660273,98.2274429 C67.5654302,93.3411415 77.6102791,78.3985682 81.0186713,72.5553827 C84.5479425,66.5044396 89.6783654,55.7969272 89.6783654,45.8625131 Z" id="Path"></path>
                                        <path d="M61.3173718,100.798444 L29.4389967,100.798444 C27.9160531,100.798496 26.493716,100.031725 25.6481512,98.7548278 C22.6400469,94.2081304 12.5575473,78.9199601 9.10754098,73.0667863 C1.63285765,60.3815804 0.065393571,51.2722041 0.065393571,45.8625131 C0.065393571,20.640365 20.3477414,0.193774012 45.3672853,0.193774012 C70.3868293,0.193774012 90.669177,20.640365 90.669177,45.8625131 C90.669177,56.4062166 85.1582825,67.4373516 81.8727509,73.062791 C78.4267079,78.9699018 68.1519908,94.2480838 65.0844378,98.7907859 C64.235476,100.046971 62.8251804,100.798588 61.3173718,100.798444 Z M45.3672853,2.19743725 C21.4444832,2.19743703 2.05029988,21.7459882 2.04701694,45.8625131 C2.04701694,55.2096121 6.81282113,65.2598911 10.8117371,72.0459768 C14.2359823,77.8571995 24.286776,93.1094117 27.2968618,97.6461208 C27.7747867,98.3675265 28.5784672,98.8007264 29.4389967,98.8007742 L61.3173718,98.8007742 C62.1692599,98.8005589 62.9659567,98.3758027 63.4456353,97.6660975 C66.5032801,93.1373791 76.7482729,77.9051436 80.16261,72.0499722 C87.8552719,58.8653487 88.6835904,49.3424547 88.6835904,45.8625131 C88.6803078,21.7475484 69.2885398,2.19964323 45.3672853,2.19743725 Z" id="Shape" fill-rule="nonzero"></path>
                                    </g>
                                    <g fill="#BEE70C">
                                        <path d="M89.6783654,45.8625131 C89.6783654,21.1932835 69.8403339,1.19860214 45.3672853,1.19860214 C20.8942368,1.19860214 1.05620525,21.1932835 1.05620525,45.8625131 C1.05620525,55.9447548 6.39271697,66.5024419 9.95963903,72.5573804 C13.3739761,78.3506241 23.2166993,93.2812114 26.4725065,98.2014731 C27.1356468,99.2020122 28.2512874,99.8018388 29.4449416,99.7996093 L61.3173718,99.7996093 C62.4977562,99.7996789 63.6017332,99.2110595 64.2660273,98.2274429 C67.5654302,93.3411415 77.6102791,78.3985682 81.0186713,72.5553827 C84.5479425,66.5044396 89.6783654,55.7969272 89.6783654,45.8625131 Z" id="Path"></path>
                                        <path d="M61.3173718,100.798444 L29.4389967,100.798444 C27.9160531,100.798496 26.493716,100.031725 25.6481512,98.7548278 C22.6400469,94.2081304 12.5575473,78.9199601 9.10754098,73.0667863 C1.63285765,60.3815804 0.065393571,51.2722041 0.065393571,45.8625131 C0.065393571,20.640365 20.3477414,0.193774012 45.3672853,0.193774012 C70.3868293,0.193774012 90.669177,20.640365 90.669177,45.8625131 C90.669177,56.4062166 85.1582825,67.4373516 81.8727509,73.062791 C78.4267079,78.9699018 68.1519908,94.2480838 65.0844378,98.7907859 C64.235476,100.046971 62.8251804,100.798588 61.3173718,100.798444 Z M45.3672853,2.19743725 C21.4444832,2.19743703 2.05029988,21.7459882 2.04701694,45.8625131 C2.04701694,55.2096121 6.81282113,65.2598911 10.8117371,72.0459768 C14.2359823,77.8571995 24.286776,93.1094117 27.2968618,97.6461208 C27.7747867,98.3675265 28.5784672,98.8007264 29.4389967,98.8007742 L61.3173718,98.8007742 C62.1692599,98.8005589 62.9659567,98.3758027 63.4456353,97.6660975 C66.5032801,93.1373791 76.7482729,77.9051436 80.16261,72.0499722 C87.8552719,58.8653487 88.6835904,49.3424547 88.6835904,45.8625131 C88.6803078,21.7475484 69.2885398,2.19964323 45.3672853,2.19743725 Z" id="Shape" fill-rule="nonzero"></path>
                                    </g>
                                    <g transform="translate(0.594487, 15.382061)" fill="#5E8516" id="Path">
                                        <path d="M10.6472623,0.445480461 C9.76213724,1.46429228 8.92655272,2.5163986 8.14050878,3.60179942 C7.81735448,5.10488891 8.27335722,6.6705617 9.35128066,7.75895117 C10.1036947,8.5174581 10.1036947,9.74724081 9.35128066,10.5057477 C8.59886666,11.2642547 7.37896253,11.2642547 6.62654853,10.5057477 C6.0659801,9.94090871 5.3662463,9.53683786 4.59934783,9.33511298 C4.18320692,10.1341811 3.79150604,10.9459011 3.42424517,11.770273 C3.94371811,11.7624259 4.44417575,11.9671129 4.81138153,12.3376113 C5.9401642,13.5137089 7.6103532,13.9847632 9.18066281,13.5699083 C10.7509724,13.1550533 11.9773233,11.9187716 12.3888458,10.3357459 C12.8003683,8.75272021 12.3330979,7.06900628 11.1664477,5.93108291 C10.6797211,5.44041497 10.4896327,4.72525083 10.667787,4.05498592 C10.8459412,3.38472101 11.3652723,2.86118451 12.0301531,2.68158759 C12.6950339,2.50199066 13.4044533,2.69361835 13.8911798,3.18428635 C14.2120053,3.52767233 14.6927223,3.66794351 15.1458913,3.55040579 C15.5990603,3.43286808 15.9529317,3.07613102 16.0695253,2.61929235 C16.1861188,2.16245369 16.0469744,1.67784389 15.7063468,1.35442042 C14.3745047,0.0146538487 12.356234,-0.347958589 10.6472623,0.445480461 Z"></path>
                                        <path d="M2.08863103,21.4889387 C3.83397154,19.7212966 3.83397154,16.864036 2.08863103,15.0963939 C1.21966611,17.5517886 0.562629734,20.0782359 0.124842272,22.6475874 C0.867718334,22.4388354 1.54428773,22.0396548 2.08863103,21.4889387 Z"></path>
                                    </g>
                                    <rect id="Rectangle" fill="#5E8516" x="67.1651423" y="42.1408535" width="15.8529869" height="15.9813618" rx="7.92649346"></rect>
                                    <path d="M55.7846793,100.798444 L34.9498913,100.798444 L24.9922339,72.699215 C21.8751403,64.8703454 20.2363378,55.5931648 20.2363378,45.8625131 C20.2264297,33.7606269 22.7886687,22.3739066 27.4217041,13.7979083 C32.1637288,5.02414063 38.5386112,0.193774012 45.3672853,0.193774012 C52.1959594,0.193774012 58.5708418,5.0261383 63.3128665,13.7979083 C67.9518468,22.3878903 70.5061593,33.7746106 70.5061593,45.8625131 C70.5061593,55.5911671 68.8594303,64.8683477 65.7502632,72.6972173 L55.7846793,100.798444 Z M36.3449541,98.8007742 L54.3876349,98.8007742 L63.4000579,73.3664369 L63.3386276,73.3664369 L63.8855557,71.9940374 C66.9214026,64.3909045 68.5245359,55.3554421 68.5245359,45.8605155 C68.5245359,34.0922401 66.0554332,23.0451238 61.5730012,14.7527946 C57.1936136,6.65423953 51.4389793,2.19743725 45.3672853,2.19743725 C39.2955913,2.19743725 33.5409571,6.65823488 29.1615694,14.7607853 C24.6791374,23.0531144 22.2100347,34.1022285 22.2100347,45.8685061 C22.2100347,55.3634327 23.8151496,64.3988952 26.849015,72.0020281 L27.395943,73.3744275 L27.3345127,73.3744275 L36.3449541,98.8007742 Z" id="Shape" fill="#232531" fill-rule="nonzero"></path>
                                    <path d="M68.5245359,45.6547554 C68.5245359,45.7246739 68.5245359,45.7925947 68.5245359,45.8545224 C68.5262526,48.5536916 68.393979,51.2512563 68.1282113,53.9370962 C68.5777054,54.7677479 69.1694199,55.5116897 69.8760031,56.1345335 C70.3012963,52.7246654 70.5137481,49.2912378 70.5121042,45.8545224 C70.5121042,45.1087256 70.5021961,44.3662581 70.4823798,43.6271201 C69.715888,44.1808828 69.0529903,44.867411 68.5245359,45.6547554 Z" id="Path" fill="#232531"></path>
                                    <g transform="translate(21.599695, 92.691899)" fill="#5E8516">
                                        <path d="M1.98162336,1.12868368 C3.17059738,2.92658689 4.16140907,4.4488116 4.87083023,5.50757682 C5.53397054,6.50811592 6.64961107,7.10794248 7.84326528,7.10571301 L39.7176771,7.10571301 C40.8980615,7.10578254 42.0020386,6.51716319 42.6663327,5.53354654 C43.3816987,4.47278364 44.4161061,2.93657524 45.6387677,1.12668601 L1.98162336,1.12868368 Z" id="Path"></path>
                                        <path d="M39.7176771,8.10654579 L7.83930203,8.10654579 C6.31635845,8.10659778 4.8940213,7.33982639 4.04845653,6.06292915 C3.34696186,5.00216625 2.34029719,3.47794387 1.15726804,1.68203833 L0.136732012,0.131846235 L47.4975304,0.131846235 L46.4532149,1.69002901 C45.2364982,3.50391358 44.2020908,5.04012199 43.4807799,6.10088488 C42.6321616,7.35514287 41.2237127,8.10581887 39.7176771,8.10654579 Z M3.83047796,2.12751879 L5.69716717,4.95422217 C6.175092,5.67562787 6.97877257,6.10882772 7.83930203,6.10887556 L39.7176771,6.10887556 C40.5695653,6.1086603 41.366262,5.68390402 41.8459406,4.97419887 C42.3453097,4.23306322 43.001227,3.26219548 43.764152,2.12751879 L3.83047796,2.12751879 Z" id="Shape" fill-rule="nonzero"></path>
                                    </g>
                                    <rect id="Rectangle" fill="#8C522A" x="44.6241765" y="105.73269" width="1.46838291" height="1.74196844"></rect>
                                    <path d="M49.1838919,115.171682 L41.6953372,115.171682 L42.7059651,112.914314 C42.9424754,112.385402 42.9366795,111.778474 42.6901121,111.25425 L42.1352576,109.420389 C41.9591083,108.833573 42.0896255,108.196755 42.4820417,107.728362 C42.7751848,107.396045 43.1942239,107.204426 43.6353465,107.200978 L47.2240664,107.200978 C47.665189,107.204426 48.0842281,107.396045 48.3773712,107.728362 C48.7697874,108.196755 48.9003046,108.833573 48.7241553,109.420389 L48.1693007,111.25425 C47.9227334,111.778474 47.9169375,112.385402 48.1534478,112.914314 L49.1838919,115.171682 Z" id="Path" fill="#00B49C"></path>
                                </g>
                                <g transform="translate(35.867383, 104.677920)" id="Path">
                                    <g transform="translate(11.097091, 0.000000)">
                                        <path d="M1.04629714,4.34293508 C0.619324593,4.34375207 0.25169299,4.03934412 0.16953715,3.61695638 C0.0873813104,3.19456865 0.313758459,2.77274522 0.709421165,2.61095499 L6.80687626,0.107874192 C7.26324953,-0.0791321716 7.78359403,0.142228725 7.96909826,0.602297615 C8.1546025,1.0623665 7.93501981,1.58692469 7.47864658,1.77393116 L1.38713636,4.27701196 C1.27890244,4.32127713 1.16309651,4.34367563 1.04629714,4.34293508 Z" fill="#00B49C"></path>
                                        <path d="M7.13384411,1.84185195 C7.07595466,1.84114948 7.01824908,1.8351316 6.96144288,1.82387292 C6.90377142,1.81205758 6.84736443,1.79466396 6.79300489,1.77193349 C6.73952633,1.74990455 6.68840286,1.72246253 6.64041989,1.69002901 C6.59199709,1.65725103 6.54686602,1.61978329 6.50566951,1.57815948 C6.46443549,1.5365786 6.42727334,1.49108771 6.3946986,1.44231791 C6.36252561,1.39394638 6.33530403,1.34240893 6.31345204,1.2884973 C6.29092726,1.23368921 6.27367405,1.17682771 6.26192983,1.11869533 C6.23810994,1.00272869 6.23810994,0.883072009 6.26192983,0.767105368 C6.27365026,0.708966897 6.29090416,0.652103125 6.31345204,0.597303399 C6.33526668,0.543374119 6.36249023,0.491832934 6.3946986,0.443482791 C6.45916137,0.345023211 6.54275122,0.260756468 6.64041989,0.195771682 C6.68840286,0.163338162 6.73952633,0.135896142 6.79300489,0.113867203 C6.84736443,0.0911367388 6.90377142,0.0737431145 6.96144288,0.0619277771 C7.07588761,0.0386820015 7.19378224,0.0386820015 7.30822697,0.0619277771 C7.36582616,0.0740285253 7.42220694,0.0914140649 7.47666495,0.113867203 C7.53014352,0.135896142 7.58126699,0.163338162 7.62924995,0.195771682 C7.72691863,0.260756468 7.81050847,0.345023211 7.87497125,0.443482791 C7.90717961,0.491832934 7.93440317,0.543374119 7.95621781,0.597303399 C7.97876568,0.652103125 7.99601959,0.708966897 8.00774002,0.767105368 C8.02923564,0.883300338 8.02923564,1.00250036 8.00774002,1.11869533 C7.9959958,1.17682771 7.97874259,1.23368921 7.95621781,1.2884973 C7.93436582,1.34240893 7.90714424,1.39394638 7.87497125,1.44231791 C7.84239651,1.49108771 7.80523436,1.5365786 7.76400034,1.57815948 C7.72280383,1.61978329 7.67767275,1.65725103 7.62924995,1.69002901 C7.58126699,1.72246253 7.53014352,1.74990455 7.47666495,1.77193349 C7.36810574,1.81787586 7.25158105,1.84164113 7.13384411,1.84185195 Z" fill="#8C522A"></path>
                                    </g>
                                    <g>
                                        <path d="M7.00107535,4.34293508 C6.88627044,4.34294728 6.77254813,4.32056133 6.666181,4.27701196 L0.568725906,1.77393116 C0.112352614,1.58692473 -0.107230129,1.0623665 0.0782741229,0.602297574 C0.263778375,0.142228645 0.784122934,-0.0791322427 1.24049623,0.107874192 L7.33200645,2.61095499 C7.72766915,2.77274522 7.9540463,3.19456865 7.87189046,3.61695638 C7.78973462,4.03934412 7.42210302,4.34375207 6.99513048,4.34293508 L7.00107535,4.34293508 Z" fill="#00B49C"></path>
                                        <path d="M0.903620254,1.84185195 C0.606521915,1.84143096 0.329235158,1.69154775 0.164474739,1.44231791 C0.132278222,1.3939606 0.105055329,1.34242067 0.0832281813,1.2884973 C0.0606570073,1.23370602 0.0434024033,1.17683994 0.0317059738,1.11869533 C0.00777344981,1.00274035 0.00777344981,0.883060349 0.0317059738,0.767105368 C0.0433903248,0.708957668 0.0606452817,0.652090429 0.0832281813,0.597303399 C0.105004936,0.543356229 0.132230505,0.491811233 0.164474739,0.443482791 C0.363808204,0.139759628 0.725827488,-0.0119082604 1.07998473,0.0599301069 C1.13758669,0.0720200099 1.19396844,0.089405849 1.24842272,0.111869533 C1.30192469,0.133848154 1.3530531,0.161292833 1.40100772,0.193774012 C1.44938576,0.226612536 1.49451123,0.26407562 1.53575811,0.305643545 C1.57703823,0.347182222 1.61420421,0.392677801 1.64672902,0.441485121 C1.67828477,0.490226985 1.70547424,0.541703637 1.72797557,0.595305728 C1.74972398,0.650391834 1.76695577,0.707182717 1.77949778,0.765107698 C1.80099341,0.881302668 1.80099341,1.00050269 1.77949778,1.11669766 C1.76694717,1.17462037 1.74971559,1.23141055 1.72797557,1.28649963 C1.70539052,1.34006145 1.67820489,1.39153082 1.64672902,1.44032024 C1.61420421,1.48912756 1.57703823,1.53462313 1.53575811,1.57616181 C1.49459594,1.6178237 1.449461,1.65529464 1.40100772,1.68803134 C1.3530531,1.72051252 1.30192469,1.7479572 1.24842272,1.76993582 C1.13987909,1.81592921 1.02334413,1.83969656 0.905601878,1.83985428 L0.903620254,1.84185195 Z" fill="#8C522A"></path>
                                    </g>
                                </g>
                            </g>
                            <rect id="Rectangle" fill="#15171B" opacity="0.5" transform="translate(117.502779, 169.813290) rotate(-180.000000) translate(-117.502779, -169.813290) " x="100.849217" y="165.304548" width="33.3071255" height="9.01748342" rx="4.50874171"></rect>
                            <g id="Group" transform="translate(15.064741, 99.637132)">
                                <g transform="translate(1.585299, 0.000000)">
                                    <g transform="translate(0.000000, 58.132204)" id="Path">
                                        <path d="M4.9104627,27.3101497 L4.09403387,29.4416638 C3.65390524,30.5915668 2.5602097,31.3524942 1.33759577,31.3594273 L0.743108762,31.3594273 C0.414782652,31.3594273 0.148621752,31.091111 0.148621752,30.7601262 L0.0891730514,19.6191193 C0.0891730514,19.2881345 0.355333952,19.0198183 0.683660061,19.0198183 L4.69248413,18.9978439 C5.02081024,18.9978439 5.28697114,19.2661601 5.28697114,19.597145 L5.31669549,25.1187055 C5.31843963,25.868371 5.18064499,26.6117115 4.9104627,27.3101497 Z" fill="#D12149"></path>
                                        <path d="M4.82327127,27.5398818 L4.09403387,29.4416638 C3.65390524,30.5915668 2.5602097,31.3524942 1.33759577,31.3594273 L0.743108762,31.3594273 C0.414782652,31.3594273 0.148621752,31.091111 0.148621752,30.7601262 L0.132768765,27.5638538 L4.82327127,27.5398818 Z" fill="#FFFFFF"></path>
                                        <path d="M1.47829103,31.3534343 L1.33759577,31.3534343 L0.743108762,31.3534343 C0.414782652,31.3534343 0.148621752,31.085118 0.148621752,30.7541332 L0.0891730514,19.6131263 C0.0891730514,19.2821415 0.355333952,19.0138252 0.683660061,19.0138252 L1.42280558,19.0138252 L1.47829103,31.3534343 Z" fill="#FFFFFF"></path>
                                        <path d="M3.6897827,21.7965799 C3.67410879,20.7481122 4.49504685,19.8805249 5.53467406,19.8468537 L5.54854542,19.8468537 L9.67824851,19.8248794 L11.5568275,19.814891 L11.5825886,24.8769874 L9.70400962,24.8869757 L4.60925595,24.9149431 L4.59934783,24.9149431 C4.09118514,24.9007994 3.68814426,24.4784916 3.69374595,23.9660497 L3.6897827,21.7965799 Z" fill="#15171B"></path>
                                        <path d="M30.2375909,0.896953933 L28.9752968,13.1426724 L28.3372141,19.263534 L28.2401146,20.208432 C28.2084086,20.53605 28.1727394,20.8636679 28.1291437,21.1892881 C28.063627,21.8299406 27.9198616,22.4599817 27.701113,23.0651005 C26.9430229,25.0229031 25.1698492,26.3949094 23.0978019,26.6269465 C22.3256733,26.6965473 21.5504514,26.7252201 20.7753394,26.7128463 L17.010255,26.732823 L9.70400962,26.7727764 L8.47540313,26.7727764 C7.41586713,26.7311029 6.576619,25.8560061 6.57106308,24.7870922 L6.54926522,20.6199521 C6.54799485,19.5537925 7.37746326,18.674523 8.43378904,18.6222819 L9.66239553,18.6222819 L19.37235,18.5703425 C19.8779317,18.5680089 20.3006778,18.182304 20.3532536,17.6753862 L22.1941817,0.051939426 L30.2375909,0.896953933 Z" fill="#00B49C"></path>
                                    </g>
                                    <g transform="translate(27.742727, 9.389050)">
                                        <polygon id="Rectangle" fill="#FFCAA6" transform="translate(7.535321, 15.427570) rotate(-174.070000) translate(-7.535321, -15.427570) " points="4.7994193 11.7828567 10.2652089 11.7874046 10.2712228 19.0722832 4.80543314 19.0677353"></polygon>
                                        <ellipse id="Oval" fill="#FFCAA6" transform="translate(8.270723, 8.338818) rotate(-84.070000) translate(-8.270723, -8.338818) " cx="8.27072254" cy="8.33881842" rx="7.42270869" ry="7.3643515"></ellipse>
                                        <path d="M9.65050579,1.05476988 C9.80309078,1.08473493 9.95567578,1.11669766 10.1042975,1.15465339 L10.1300586,1.15465339 C10.2885885,1.19660447 10.4431551,1.24454855 10.5957401,1.29449031 L10.7047294,1.33244604 C10.8454247,1.3823878 10.9861199,1.43432722 11.1228519,1.49225966 L11.1565395,1.50624335 C11.3051613,1.5701688 11.4498198,1.64008726 11.5944783,1.70601038 L11.6836514,1.75195679 C11.8164201,1.82187525 11.9472073,1.89578905 12.079976,1.97369819 L12.1077188,1.98967955 C12.2464324,2.07557937 12.3831644,2.16547453 12.5159332,2.2613627 L12.5793451,2.30730912 C12.7041874,2.39920195 12.827048,2.49309245 12.9479271,2.59297596 L12.9657617,2.60695965 C13.0978699,2.71350206 13.2220516,2.8247057 13.3383069,2.94057058 L13.3739761,2.97453097 C13.4908919,3.08839817 13.605826,3.20426305 13.7148153,3.32612093 C13.8297495,3.45929895 13.9407204,3.59247696 14.047728,3.72565498 L14.0596178,3.74163634 C14.5997402,4.43373173 15.0137151,5.21698113 15.2822794,6.05493847 L13.1579791,5.83319707 C12.8069637,5.79639442 12.4558794,5.90220084 12.1824947,6.12717925 C11.90911,6.35215765 11.7359913,6.67773727 11.701486,7.03179921 L11.4775625,9.20726209 C11.301198,10.9232608 8.8717278,14.0276404 6.09745509,13.7359805 L2.89118849,13.4003719 C1.88347618,12.3170337 1.22146304,10.9537535 0.990811682,9.48693592 L0.990811682,9.38905008 C0.949376464,9.09909155 0.924894171,8.80692723 0.917491618,8.51407052 C0.917491618,8.50008683 0.917491618,8.48810081 0.917491618,8.47411711 C0.917491618,8.34826389 0.917491618,8.22241066 0.917491618,8.09655744 C0.917491618,8.06859006 0.917491618,8.04062267 0.917491618,8.01265529 C0.917491618,7.86682536 0.933344605,7.72299311 0.949197592,7.57516551 C1.07411144,6.34609456 1.50265174,5.16819616 2.19563869,4.14916107 C2.32774691,3.9520576 2.47108434,3.76227893 2.62565096,3.57982505 C2.85287443,3.30669512 3.09922703,3.05033638 3.36281485,2.81271968 C3.45000628,2.73414465 3.53983987,2.65690141 3.63231563,2.58098994 C3.81462498,2.43183056 4.00420028,2.29132775 4.20104153,2.15948152 C4.29880162,2.09422429 4.39854333,2.02763528 4.50026666,1.9597145 C4.70239224,1.83719072 4.91112324,1.7246553 5.12645964,1.62210823 C6.34320323,1.04090381 7.69520745,0.808676609 9.03422092,0.950891029 C9.20067728,0.968870061 9.36515202,0.992842104 9.52764514,1.02080949 L9.65050579,1.05476988 Z" id="Path" fill="#D12149"></path>
                                    </g>
                                    <g transform="translate(3.170597, 0.000000)">
                                        <g transform="translate(43.793876, 92.891666)" id="Path">
                                            <path d="M9.49593916,5.39370962 L11.7609347,5.31380281 C12.9816316,5.26963228 14.1048673,5.98278719 14.5926745,7.11170602 L14.8304693,7.66506067 C14.9602835,7.96846999 14.8219986,8.32055623 14.521336,8.45214274 L4.37938764,12.884973 C4.07841554,13.0158384 3.72915753,12.8764337 3.59862803,12.5733364 L2.01332934,8.86366281 C1.88351511,8.56025349 2.02180001,8.20816725 2.32246258,8.07658074 L7.34984106,5.87914349 C8.0290289,5.58417382 8.75684904,5.41954549 9.49593916,5.39370962 Z" fill="#D12149"></path>
                                            <path d="M9.73967884,5.39370962 L11.7609347,5.32379116 C12.9816316,5.27962063 14.1048673,5.99277554 14.5926745,7.12169437 L14.8304693,7.67504902 C14.9602835,7.97845834 14.8219986,8.33054458 14.521336,8.46213109 L11.6083497,9.73264936 L9.73967884,5.39370962 Z" fill="#FFFFFF"></path>
                                            <path d="M14.5312441,6.9918458 C14.5510604,7.03379688 14.5728582,7.07574795 14.5926745,7.1196967 L14.8304693,7.67305135 C14.9602835,7.97646067 14.8219986,8.32854691 14.521336,8.46013342 L4.37938764,12.884973 C4.07841554,13.0158384 3.72915753,12.8764337 3.59862803,12.5733364 L3.30534777,11.8901332 L14.5312441,6.9918458 Z" fill="#FFFFFF"></path>
                                            <path d="M4.94415029,8.68786783 C3.99387991,9.11385383 2.8802851,8.69342967 2.44135999,7.74296981 L2.44135999,7.72299311 L0.792649346,3.90344763 L0.0495405841,2.17546288 L4.65879653,0.163808959 L5.40190529,1.89179371 L7.42514275,6.60429778 C7.61211515,7.08087064 7.38545537,7.62054616 6.91586554,7.81688361 L4.94415029,8.68786783 Z" fill="#15171B"></path>
                                        </g>
                                        <g transform="translate(0.000000, 24.970878)">
                                            <path d="M18.4290973,38.9345928 C18.6554791,39.3424658 18.9160195,39.7300921 19.2078753,40.0932415 C20.5397873,41.7600159 22.4778252,42.8203254 24.5899643,43.0378074 L26.1277041,43.1996187 L27.0709568,34.0582797 L19.0235843,33.2132652 L18.4290973,38.9345928 Z" id="Path" fill="#232531"></path>
                                            <path d="M51.3993468,70.2001295 L50.9118675,69.0634552 L37.508167,37.8478602 C37.694872,37.3559594 37.8167902,36.8415026 37.8708041,36.3176448 C38.204495,32.9839857 35.8037445,30.0049453 32.4986232,29.6514192 L26.0365494,28.9662183 C22.7268106,28.6275676 19.7685407,31.0506815 19.419909,34.3858977 C19.0861265,37.7181546 21.4846018,40.6965691 24.7881267,41.0521232 L29.732277,41.5695198 C30.0888862,41.6074415 30.3973411,41.836645 30.5387977,42.1688209 L43.4787982,72.3076716 L43.9662776,73.444346 C44.430499,74.4091942 45.5675725,74.8324365 46.542388,74.4032277 L50.3371967,72.7471591 C51.310471,72.3216353 51.7786763,71.1988819 51.3993468,70.2001295 Z" id="Path" fill="#00B49C"></path>
                                            <g>
                                                <g transform="translate(0.000000, 13.384391)" fill="#FFCAA6">
                                                    <polygon id="Rectangle" transform="translate(4.723640, 2.200083) rotate(-75.390000) translate(-4.723640, -2.200083) " points="2.88466783 0.719685763 6.56848572 0.712459352 6.56262234 3.68047792 2.87880445 3.68770433"></polygon>
                                                    <ellipse id="Oval" transform="translate(3.738208, 6.002806) rotate(-75.390000) translate(-3.738208, -6.002806) " cx="3.73820758" cy="6.00280588" rx="2.93508018" ry="2.91449298"></ellipse>
                                                </g>
                                                <path d="M22.4438662,9.74064004 C22.5535925,9.768077 22.6647308,9.78941762 22.776779,9.80456549 C24.6910271,10.0542743 26.5002493,8.40619633 26.7558787,6.1468313 C26.9996183,3.99334279 25.6739123,2.11952811 23.8349658,1.87980769 L15.5973575,0.799068092 L13.5384508,0.529382611 L12.5099883,0.395538705 L12.2523773,0.361578312 L11.7886774,0.287664513 L10.859296,0.141834586 C10.2711334,0.0342338623 9.67138184,0.00601881028 9.07583501,0.0579324367 C8.22240239,0.14156388 7.40409678,0.442664103 6.69788697,0.932911997 C6.46395615,1.09974314 6.24332353,1.28475856 6.03800639,1.48626665 C5.63984532,1.88616073 5.31334332,2.35250716 5.07295581,2.86465911 C5.00954387,3.01448438 4.9362238,3.15232362 4.87479348,3.31013957 C4.81336315,3.46795552 4.7578777,3.62177613 4.71230036,3.78558509 C4.61916406,4.11520067 4.54188075,4.45480461 4.46856069,4.7844202 L4.24265562,5.78325531 L4.12772147,6.36457735 L3.66600322,8.69186317 L2.74058511,13.3464348 L2.54242278,14.2593701 C2.43443088,14.7804766 2.75083349,15.2953895 3.26175206,15.4300049 L6.03602477,16.1571568 C6.54513868,16.2876565 7.06679453,15.9949166 7.22499879,15.489935 L7.50242606,14.598974 L8.95099274,10.0822416 L9.67428527,7.82287662 L9.85461299,7.25753594 L9.92595143,7.11769903 C9.9847062,7.04413711 10.0511428,6.97716255 10.1241138,6.91793201 C10.3285309,6.7299391 10.6234706,6.68064523 10.8771306,6.79207878 L10.9663037,6.84002287 L10.9881016,6.85200889 L10.9980097,6.85200889 L11.0257524,6.85200889 L11.2794002,6.91593433 L12.2920097,7.16963845 L14.3172288,7.67704669 L22.4438662,9.74064004 Z" id="Path" fill="#5E8516"></path>
                                                <path d="M23.8329842,1.87781002 L19.4575598,1.30447866 C19.0288298,1.87993679 18.7637083,2.56226528 18.6906716,3.27817685 L18.0961846,8.64991209 L22.4418846,9.74064004 C22.5516117,9.76807307 22.6627498,9.78941365 22.7747973,9.80456549 C24.6890455,10.0542743 26.4982676,8.40619633 26.753897,6.1468313 C26.9976367,3.99534046 25.6719307,2.11753044 23.8329842,1.87781002 Z" id="Path" fill="#232531"></path>
                                            </g>
                                            <path d="M19.0949227,36.0080059 L37.3971961,37.9257693 C37.9204925,37.9816633 38.4443532,37.8254359 38.853264,37.491536 C39.2621749,37.1576361 39.5225524,36.6734865 39.5769818,36.1458451 L42.4978947,9.80256782 C42.66085,8.22159326 42.19412,6.64011511 41.2003848,5.40605717 C40.2066496,4.17199923 38.7673152,3.38645448 37.1990338,3.22224208 L22.8382093,1.7179964 C22.3149129,1.66210237 21.7910522,1.81832983 21.3821414,2.15222974 C20.9732306,2.48612964 20.7128531,2.97027916 20.6584236,3.49792057 L17.3273147,33.814564 C17.2730111,34.3417639 17.4287661,34.8691083 17.7602891,35.2804985 C18.0918121,35.6918886 18.5719234,35.9535968 19.0949227,36.0080059 Z" id="Path" fill="#5E8516"></path>
                                        </g>
                                        <g transform="translate(34.876571, 0.000000)">
                                            <g transform="translate(19.816234, 0.000000)" fill="#FFCAA6">
                                                <polygon id="Path" points="2.13420836 5.05410568 4.55773374 6.78009276 2.55431252 9.63676119 2.43343349 9.80856083 0.0118897402 8.08257375 0.132768765 7.91077411"></polygon>
                                                <ellipse id="Oval" transform="translate(4.542854, 4.208464) rotate(-54.750000) translate(-4.542854, -4.208464) " cx="4.54285427" cy="4.20846427" rx="2.92873942" ry="2.92086534"></ellipse>
                                            </g>
                                            <path d="M0.990811682,30.6142963 C0.915509994,30.7121821 0.838226683,30.8140633 0.770851489,30.9279305 C-0.390379803,32.7777731 0.237794804,35.2728632 2.18374895,36.4295143 C4.0128565,37.5174407 6.36802939,36.9505887 7.51233418,35.14701 L23.1671588,10.2080949 L23.6625646,9.4210128 C23.9454531,8.9719413 23.8295667,8.37815512 23.3990087,8.07058773 L21.0626747,6.40652843 C20.6313544,6.09943286 20.0369181,6.18729942 19.7112076,6.60629545 L19.1405001,7.34143809 L0.990811682,30.6142963 Z" id="Path" fill="#5E8516"></path>
                                        </g>
                                    </g>
                                </g>
                                <g transform="translate(136.732012, 0.000000)">
                                    <g transform="translate(21.401532, 9.189283)">
                                        <g transform="translate(0.000000, 6.592312)" fill="#D12149">
                                            <path d="M3.41433706,0.69518924 L0.901638631,0.9528887 C0.640160876,0.979615502 0.399929269,1.10997545 0.233806482,1.31528301 C0.0676836954,1.52059056 -0.0107182183,1.78402287 0.0158529869,2.04761199 L0.150603376,3.38605104 C0.177115488,3.6496462 0.306428286,3.89182316 0.510086647,4.05929118 C0.713745007,4.22675921 0.975061223,4.30579601 1.23653298,4.27900963 L3.74923141,4.02131017 C4.01070916,3.99458337 4.25094077,3.86422342 4.41706355,3.65891586 C4.58318634,3.45360831 4.66158826,3.190176 4.63501705,2.92658689 L4.50026666,1.58814783 C4.47375455,1.32455267 4.34444175,1.08237571 4.14078339,0.914907687 C3.93712503,0.747439665 3.67580881,0.668402865 3.41433706,0.69518924 Z" id="Path"></path>
                                            <path d="M9.64456092,1.05876522 L9.7793113,2.39720428 L7.26661288,2.65490374 L7.13186249,1.31646468 L9.64456092,1.05876522 Z M9.54349812,0.0599301069 L7.0307997,0.317629567 C6.76782092,0.343810126 6.52611264,0.474808955 6.35940346,0.681506726 C6.19269427,0.888204497 6.11479889,1.15347277 6.14303243,1.41834586 L6.27778282,2.75678492 C6.30429493,3.02038008 6.43360773,3.26255704 6.63726609,3.43002506 C6.84092445,3.59749308 7.10224067,3.67652988 7.36371242,3.64974351 L9.8803741,3.39603939 C10.1418519,3.36931259 10.3820835,3.23895264 10.5482062,3.03364508 C10.714329,2.82833753 10.7927309,2.56490522 10.7661597,2.3013161 L10.6314094,0.962877051 C10.6048972,0.699281892 10.4755844,0.457104928 10.2719261,0.289636905 C10.0682677,0.122168883 9.8069515,0.0431320835 9.54547975,0.069918458 L9.54349812,0.0599301069 Z" id="Shape" fill-rule="nonzero"></path>
                                            <polygon id="Rectangle" transform="translate(5.286093, 2.179508) rotate(-5.830000) translate(-5.286093, -2.179508) " points="4.07067127 1.68112659 6.5023263 1.67913693 6.50151551 2.67788926 4.06986049 2.67987892"></polygon>
                                        </g>
                                        <g fill="#CC804B">
                                            <polygon id="Rectangle" transform="translate(9.873128, 15.619166) rotate(-5.830000) translate(-9.873128, -15.619166) " points="7.1431975 11.9789528 12.6089714 11.9744805 12.6030575 19.25938 7.13728366 19.2638523"></polygon>
                                            <ellipse id="Oval" transform="translate(8.059877, 8.253075) rotate(-5.767889) translate(-8.059877, -8.253075) " cx="8.05987653" cy="8.2530749" rx="7.32777311" ry="7.38590879"></ellipse>
                                        </g>
                                        <path d="M8.08898657,8.98951603 L0.511258828,9.76860742 L0.410196036,8.76977231 L7.98792378,7.99068092 C8.25982112,7.96277008 8.50277782,8.16210614 8.53088858,8.43616138 C8.54587159,8.5687673 8.50758088,8.70190204 8.42455927,8.80586262 C8.34153767,8.9098232 8.22069311,8.97595944 8.08898657,8.98951603 Z" id="Path" fill="#D12149"></path>
                                    </g>
                                    <g transform="translate(36.263708, 58.132204)" id="Path">
                                        <path d="M25.3845953,27.3101497 L26.2010241,29.4416638 C26.6411528,30.5915668 27.7348483,31.3524942 28.9574622,31.3594273 L29.5519492,31.3594273 C29.8802753,31.3594273 30.1464362,31.091111 30.1464362,30.7601262 L30.2058849,19.6191193 C30.2058849,19.2881345 29.939724,19.0198183 29.6113979,19.0198183 L25.6025739,18.9978439 C25.2742478,18.9978439 25.0080869,19.2661601 25.0080869,19.597145 L24.9783625,25.1187055 C24.9766184,25.868371 25.114413,26.6117115 25.3845953,27.3101497 Z" fill="#D12149"></path>
                                        <path d="M25.4717867,27.5398818 L26.2010241,29.4416638 C26.6411528,30.5915668 27.7348483,31.3524942 28.9574622,31.3594273 L29.5519492,31.3594273 C29.8802753,31.3594273 30.1464362,31.091111 30.1464362,30.7601262 L30.1622892,27.5638538 L25.4717867,27.5398818 Z" fill="#D12149"></path>
                                        <path d="M28.816767,31.3534343 L28.9574622,31.3534343 L29.5519492,31.3534343 C29.8802753,31.3534343 30.1464362,31.085118 30.1464362,30.7541332 L30.2058849,19.6131263 C30.2058849,19.2821415 29.939724,19.0138252 29.6113979,19.0138252 L28.8722524,19.0138252 L28.816767,31.3534343 Z" fill="#D12149"></path>
                                        <path d="M26.6052753,21.7965799 C26.6209492,20.7481122 25.8000111,19.8805249 24.7603839,19.8468537 L24.7385861,19.8468537 L20.8228983,19.826877 L18.7263408,19.814891 L18.7005797,24.8769874 L20.7971372,24.8889734 L25.6778756,24.9149431 L25.6877837,24.9149431 C26.1959464,24.9007994 26.5989872,24.4784916 26.5933856,23.9660497 L26.6052753,21.7965799 Z" fill="#CC804B"></path>
                                        <path d="M0.0574670776,0.896953933 L1.31183467,13.0827423 L1.94000927,19.1716412 L2.03314557,20.0825788 C2.06881479,20.4081991 2.09655752,20.735817 2.14015323,21.0574419 C2.20194458,21.6963879 2.3348899,22.3262908 2.53647791,22.9352519 C2.96890547,24.1478261 3.80048285,25.1743874 4.89262809,25.8438598 C5.55537357,26.2578193 6.29885964,26.5228721 7.07241379,26.6209535 C7.86231546,26.7028996 8.65643586,26.7362559 9.45036183,26.720837 L13.3066009,26.7408137 L20.7872291,26.7807671 L21.8018203,26.7807671 C22.8613563,26.7390936 23.7006044,25.8639968 23.7061603,24.7950829 L23.7279582,20.6279428 C23.7292285,19.5617832 22.8997601,18.6825137 21.8434343,18.6302726 L20.8288432,18.6302726 L10.9028918,18.5763355 C10.3973101,18.5740019 9.97456393,18.188297 9.92198819,17.6813792 L8.10682118,0.069918458 L0.0574670776,0.896953933 Z" fill="#5E8516"></path>
                                        <path d="M8.10682118,0.051939426 L0.0554854542,0.894956263 L0.990811682,10.0382929 L2.52855141,9.87648162 C4.64636853,9.66312177 6.59082843,8.60242303 7.92649346,6.9319157 C8.21835705,6.56877205 8.4788979,6.1811451 8.70527144,5.77326696 L8.10682118,0.051939426 Z" fill="#232531"></path>
                                    </g>
                                    <g>
                                        <g transform="translate(4.557734, 92.891666)" id="Path">
                                            <path d="M5.54854542,5.39370962 L3.28354992,5.31380281 C2.06285298,5.26963228 0.939617235,5.98278719 0.451810127,7.11170602 L0.214015323,7.66506067 C0.0842010966,7.96846999 0.222485992,8.32055623 0.523148568,8.45214274 L10.6650969,12.8769823 C10.966069,13.0078477 11.315327,12.868443 11.4458566,12.5653457 L13.0311552,8.85567213 C13.1609695,8.55226281 13.0226846,8.20017657 12.722022,8.06859006 L7.69464352,5.8711528 C7.01492928,5.5789285 6.28712897,5.41701451 5.54854542,5.39370962 Z" fill="#D12149"></path>
                                            <path d="M5.29687925,5.39370962 L3.27562342,5.32379116 C2.05492649,5.27962063 0.931690742,5.99277554 0.443883634,7.12169437 L0.20608883,7.67504902 C0.0762746031,7.97845834 0.214559498,8.33054458 0.515222075,8.46213109 L3.42820842,9.73264936 L5.29687925,5.39370962 Z" fill="#D12149"></path>
                                            <path d="M0.505313958,6.9918458 C0.485497724,7.03379688 0.463699867,7.07574795 0.443883634,7.1196967 L0.20608883,7.67305135 C0.0762746031,7.97646067 0.214559498,8.32854691 0.515222075,8.46013342 L10.6571705,12.884973 C10.9581426,13.0158384 11.3074006,12.8764337 11.4379301,12.5733364 L11.7312103,11.8901332 L0.505313958,6.9918458 Z" fill="#D12149"></path>
                                            <path d="M10.0924078,8.68786783 C11.0426782,9.11385383 12.156273,8.69342967 12.5951981,7.74296981 L12.5951981,7.72299311 L14.1507724,4.10121698 L14.979091,2.17146754 L10.3698351,0.159813618 L9.5415165,2.08956306 L7.60348885,6.60429778 C7.41651644,7.08087064 7.64317622,7.62054616 8.11276605,7.81688361 L10.0924078,8.68786783 Z" fill="#CC804B"></path>
                                        </g>
                                        <g transform="translate(11.691578, 24.970878)">
                                            <path d="M32.2727181,34.3858977 C31.9240454,31.0524026 28.9683133,28.6299162 25.6600409,28.9662183 L19.1920223,29.6434285 C15.8884974,29.9989827 13.4900221,32.9773971 13.8238046,36.3096541 C13.8778185,36.8335119 13.9997367,37.3479687 14.1864417,37.8398695 L0.701494671,69.2612245 L0.305169998,70.2001295 C-0.0726530077,71.1988508 0.396303642,72.3204315 1.36930174,72.7451614 L5.16411049,74.40123 C6.13892594,74.8304389 7.27599946,74.4071965 7.74022086,73.4423483 L8.13654554,72.5034433 L21.1617559,42.1668232 C21.3032125,41.8346473 21.6116674,41.6054439 21.9682766,41.5675221 L26.9124269,41.0501255 C30.211906,40.6905028 32.6055255,37.7146148 32.2727181,34.3858977 Z" id="Path" fill="#5E8516"></path>
                                            <g transform="translate(24.770292, 0.000000)">
                                                <g transform="translate(19.618071, 13.384391)" fill="#CC804B">
                                                    <polygon id="Rectangle" transform="translate(2.586109, 2.236555) rotate(-14.610000) translate(-2.586109, -2.236555) " points="1.1056903 0.41054562 4.07370886 0.40468224 4.06653337 4.06254369 1.09851481 4.06840707"></polygon>
                                                    <ellipse id="Oval" transform="translate(3.565544, 6.029914) rotate(-14.610000) translate(-3.565544, -6.029914) " cx="3.56554357" cy="6.02991364" rx="2.91449298" ry="2.93508018"></ellipse>
                                                </g>
                                                <path d="M3.01603076,1.89179371 C2.90397743,1.90690964 2.79283739,1.9282506 2.68311804,1.95571915 C0.808502333,2.42517166 -0.289317011,4.62660425 0.305169998,6.8240415 C0.858042917,8.9175999 2.77229109,10.1761321 4.5716051,9.72266101 L12.5734002,7.71500243 L14.5748398,7.2135872 L15.5656515,6.96188075 C15.7580537,6.91294564 15.9473191,6.85223714 16.1323958,6.78009276 C16.454588,6.66252826 16.8128418,6.80905889 16.962696,7.1196967 L17.0360161,7.26352895 C17.0500689,7.29804258 17.0619816,7.33340284 17.0716853,7.36940548 L17.1192442,7.5152354 L17.2123805,7.80689526 L17.9594526,10.1381764 L19.4535966,14.8027364 L19.6735568,15.507914 C19.831761,16.0128956 20.3534169,16.3056355 20.8625308,16.1751358 L23.6368035,15.4479839 C24.1477221,15.3133685 24.4641247,14.7984556 24.3561328,14.2773491 L24.2055294,13.5541925 L23.2503869,8.74779794 L22.7728157,6.35059366 L22.6440102,5.70934152 L22.4101786,4.66855533 C22.3348769,4.31896304 22.2516488,3.96937075 22.1466227,3.63575982 C22.087174,3.4759462 22.0356518,3.30414656 21.9682766,3.15432129 C21.9009014,3.00449603 21.8355079,2.84668008 21.7701143,2.70284782 C20.9602769,1.15910298 19.4093841,0.153918714 17.6800437,0.051939426 C17.3877969,0.0308758662 17.0944312,0.0308758662 16.8021845,0.051939426 L16.3444295,0.103878852 L15.8827113,0.17579498 L14.9533299,0.321624907 L14.7194984,0.357582971 L14.5728582,0.377559673 L14.3152472,0.411520067 L13.2887663,0.545363973 L11.2338229,0.815049454 L3.01603076,1.89179371 Z" id="Path" fill="#15171B"></path>
                                                <path d="M8.23958995,3.29016287 C8.16571198,2.57167874 7.89999766,1.88682537 7.47072008,1.308474 L3.01603076,1.89179371 C2.90397354,1.90688548 2.79283219,1.92822669 2.68311804,1.95571915 C0.808502333,2.42517166 -0.289317011,4.62660425 0.305169998,6.8240415 C0.858042917,8.9175999 2.77229109,10.1761321 4.5716051,9.72266101 L8.83407696,8.65390743 L8.23958995,3.29016287 Z" id="Path" fill="#848584"></path>
                                            </g>
                                            <path d="M32.6036492,36.0080059 L14.3013758,37.9257693 C13.7780794,37.9816633 13.2542187,37.8254359 12.8453079,37.491536 C12.4363971,37.1576361 12.1760196,36.6734865 12.1215901,36.1458451 L9.20265891,9.80057015 C9.03970355,8.21959559 9.50643357,6.63811744 10.5001688,5.4040595 C11.493904,4.17000156 12.9332384,3.38445681 14.5015198,3.22024441 L28.8623443,1.71599873 C29.3856407,1.6601047 29.9095014,1.81633216 30.3184122,2.15023207 C30.727323,2.48413197 30.9877005,2.96828149 31.04213,3.4959229 L34.3732389,33.8125663 C34.4280806,34.3404026 34.2723156,34.8685433 33.9403195,35.2804339 C33.6083234,35.6923245 33.1273877,35.9541059 32.6036492,36.0080059 Z" id="Path" fill="#15171B"></path>
                                        </g>
                                        <g>
                                            <g fill="#CC804B">
                                                <polygon id="Path" points="4.13762959 6.78009276 6.56115496 5.05410568 8.45162365 7.75295816 8.68149196 8.07857841 6.25994821 9.80456549 6.0300799 9.47894524"></polygon>
                                                <ellipse id="Oval" transform="translate(4.156622, 4.219893) rotate(-35.250000) translate(-4.156622, -4.219893) " cx="4.15662201" cy="4.21989311" rx="2.92086534" ry="2.92873942"></ellipse>
                                            </g>
                                            <path d="M21.0468218,35.2229215 C21.114197,35.328798 21.187517,35.4366722 21.2667819,35.5365557 C22.608341,37.2565498 25.1527454,37.4942725 26.8846842,36.0299803 C28.5112082,34.6542206 28.766863,32.227898 27.4633182,30.5383848 L9.24823624,7.19161283 L8.79642612,6.61029079 C8.47071559,6.19129476 7.87627934,6.1034282 7.44495898,6.41052377 L5.10862503,8.07458307 C4.67806701,8.38215046 4.56218064,8.97593664 4.84506913,9.42500814 L5.2413938,10.0482813 L21.0468218,35.2229215 Z" id="Path" fill="#15171B"></path>
                                        </g>
                                    </g>
                                </g>
                                <rect id="Rectangle" fill="#15171B" opacity="0.5" transform="translate(33.683634, 115.103761) rotate(-180.000000) translate(-33.683634, -115.103761) " x="0.186272596" y="110.595019" width="66.9947227" height="9.01748342" rx="4.50874171"></rect>
                                <rect id="Rectangle" fill="#15171B" opacity="0.5" transform="translate(171.192442, 115.103761) rotate(-180.000000) translate(-171.192442, -115.103761) " x="137.695081" y="110.595019" width="66.9947227" height="9.01748342" rx="4.50874171"></rect>
                            </g>
                            <rect id="Rectangle" fill="#D12149" x="147.22713" y="49.285854" width="19.8162336" height="19.9767023" rx="9.90811682"></rect>
                            <path d="M64.7836714,55.5785152 C63.2968973,55.578745 61.8710573,54.9829485 60.8204247,53.9224466 C60.1983841,53.2899464 60.2003419,52.2695948 60.8248049,51.6395252 C61.449268,51.0094556 62.4614212,51.0065912 63.0893834,51.6331165 C64.0341822,52.5524127 65.5354279,52.5390106 66.4639287,51.6029909 C67.3924296,50.6669712 67.405724,49.1535687 66.4938124,48.2011191 C65.0458343,46.7764343 64.46967,44.6768674 64.9854348,42.7045282 C65.5011996,40.7321889 67.0292066,39.1918083 68.9857025,38.671867 C70.9421983,38.1519256 73.0248998,38.7327556 74.4381404,40.1924591 C75.0425702,40.8237581 75.9379149,41.0770667 76.7799167,40.8549885 C77.6219185,40.6329102 78.2794824,39.9700214 78.4997768,39.1212012 C78.7200711,38.272381 78.4687972,37.369786 77.8425694,36.7604617 C75.694018,34.5412727 75.7153845,30.9928534 77.8905018,28.8001223 C80.0656191,26.6073912 83.5855347,26.5858517 85.7868974,28.7518017 C86.1957723,29.159741 86.3568272,29.7570696 86.2090586,30.3175346 C86.0612901,30.8779995 85.6272959,31.3158902 85.0714623,31.4653446 C84.5156286,31.614799 83.9229578,31.4529614 83.5179387,31.0411318 C82.5731399,30.1218356 81.0718942,30.1352377 80.1433934,31.0712574 C79.2148925,32.0072772 79.2015981,33.5206796 80.1135097,34.4731293 C81.5614878,35.8978141 82.1376521,37.9973809 81.6218873,39.9697202 C81.1061225,41.9420595 79.5781155,43.48244 77.6216196,44.0023814 C75.6651238,44.5223227 73.5824223,43.9414927 72.1691817,42.4817892 C71.5647519,41.8504902 70.6694073,41.5971816 69.8274054,41.8192599 C68.9854036,42.0413381 68.3278397,42.7042269 68.1075453,43.5530471 C67.887251,44.4018673 68.1385249,45.3044624 68.7647527,45.9137867 C70.3699778,47.5319103 70.8510037,49.9651272 69.9837569,52.0799855 C69.1165101,54.1948437 67.0715646,55.5753833 64.801506,55.5785152 L64.7836714,55.5785152 Z" id="Path" fill="#00B49C"></path>
                        </g>
                    </g>
                </g>
            </g>
        </g>
    </g>
</svg>