<?xml version="1.0" encoding="UTF-8"?>
<svg width="282px" height="282px" viewBox="0 0 282 282" version="1.1" xmlns="http://www.w3.org/2000/svg" xmlns:xlink="http://www.w3.org/1999/xlink">
    <!-- Generator: sketchtool 52.4 (67378) - http://www.bohemiancoding.com/sketch -->
    <title>AF8A9B65-B7D5-48A9-8022-5002086B883C</title>
    <desc>Created with sketchtool.</desc>
    <g id="Assets" stroke="none" stroke-width="1" fill="none" fill-rule="evenodd">
        <g id="01.-Illustrations" transform="translate(-120.000000, -248.000000)">
            <g id="01.1-Home-Logged-Out" transform="translate(120.000000, 218.000000)">
                <g id="01.1-Home-Logged-Out_Explore-Weyak_Desktop" transform="translate(0.000000, 30.000000)">
                    <rect id="Rectangle" fill="#393D52" fill-rule="nonzero" opacity="0.4" x="0" y="0" width="282" height="282" rx="8"></rect>
                    <g id="Weyak-illustrations-Final_Generic-Profile_Generic-Profile" transform="translate(23.000000, 20.000000)">
                        <g id="Characters_and_Main_Confetti" transform="translate(0.588939, 0.282914)">
                            <g id="Group" transform="translate(8.812628, 52.829600)">
                                <g>
                                    <rect id="Rectangle" fill="#232531" x="72.8670233" y="9.16095894" width="69.9703507" height="66.7815914"></rect>
                                    <g transform="translate(40.806299, 42.876197)">
                                        <g transform="translate(19.924202, 0.000000)" fill="#8C522A">
                                            <polygon id="Rectangle" transform="translate(2.412828, 6.992444) rotate(-50.810000) translate(-2.412828, -6.992444) " points="0.631466277 5.55821454 4.19296426 5.55973832 4.19419066 8.42667414 0.63269267 8.42515036"></polygon>
                                            <ellipse id="Oval" transform="translate(4.802981, 4.061906) rotate(-50.810000) translate(-4.802981, -4.061906) " cx="4.80298054" cy="4.06190584" rx="2.81473254" ry="2.81522782"></ellipse>
                                        </g>
                                        <path d="M3.01161984,20.3030279 C2.91975891,20.3089938 2.82760719,20.3089938 2.73574627,20.3030279 C1.15905216,20.1958374 -0.0478947175,18.3200038 0.0862104916,16.145568 C0.214568335,14.0744946 1.56328358,12.5489442 3.07867244,12.6503923 L8.32793348,13.0064179 L10.952564,13.1844307 L12.2648793,13.27248 L12.4296371,13.2839647 L12.512016,13.2839647 L12.5541634,13.2839647 L12.611637,13.3069341 C12.6518686,13.322247 12.6940159,13.3375599 12.7380791,13.3509588 C12.8281046,13.3760784 12.9239901,13.3700065 13.0101211,13.3337317 C13.0520674,13.3131707 13.092412,13.2894969 13.1308158,13.2629094 L13.1940368,13.2207989 L13.218942,13.2074001 C13.2346215,13.1937507 13.2493439,13.1790412 13.2630052,13.1633754 L13.3185631,13.1040378 L15.1155729,11.1899218 L18.7095925,7.35020525 L19.5525395,6.41420255 C19.8966479,6.0283259 20.4852266,5.98511076 20.8820968,6.31658263 L23.0258644,8.06225638 C23.4218769,8.38449361 23.495203,8.96048517 23.192538,9.37151169 L22.4453804,10.3859931 L19.3877817,14.6812693 L17.8551507,16.8327357 C17.8149191,16.8939874 17.6635718,17.0815707 17.5582034,17.2308718 C17.4528351,17.3801728 17.3244772,17.5428727 17.2037825,17.6979161 C16.9649981,18.0001529 16.6946187,18.2760713 16.3972355,18.5209859 C15.7953651,19.0085668 15.086238,19.3464201 14.3281837,19.5067556 C13.943412,19.5850351 13.5521777,19.6273284 13.1595526,19.6330873 L12.5599107,19.6560567 L12.2208161,19.6790261 L10.9046693,19.7689895 L8.27045982,19.9470023 L3.01161984,20.3030279 Z" id="Path" fill="#00B49C"></path>
                                        <path d="M2.96180933,20.3030279 C3.05366848,20.3090481 3.14582375,20.3090481 3.23768291,20.3030279 L8.50418605,19.9450882 L9.28391205,19.891493 C10.0270364,17.5886038 9.6233184,15.069526 8.19765985,13.1136084 C8.16317566,13.0657555 8.12677567,13.0198167 8.09037569,12.9738779 L3.30090393,12.6484782 C1.78551507,12.5451159 0.436799824,14.0725805 0.308441981,16.1436539 C0.178168349,18.3200038 1.38511523,20.1958374 2.96180933,20.3030279 Z" id="Path" fill="#232531"></path>
                                    </g>
                                    <rect id="Rectangle" fill-opacity="0.5" fill="#15171B" x="145.942867" y="117.469296" width="70.5163505" height="8.6403194" rx="4.3201597"></rect>
                                    <g transform="translate(151.538886, 110.253079)" id="Path">
                                        <path d="M3.89479843,6.33572379 L1.85448346,7.13582426 C0.751883248,7.56817049 0.0277442831,8.63215092 0.0306526192,9.81558659 L0.0306526192,10.3898214 C0.0306526192,10.7069625 0.287970965,10.9640562 0.60538923,10.9640562 L11.2897428,10.9640562 C11.6071611,10.9640562 11.8644794,10.7069625 11.8644794,10.3898214 L11.8644794,6.50799423 C11.8644794,6.19085312 11.6071611,5.93375944 11.2897428,5.93375944 L5.99450285,5.93375944 C5.27559947,5.93536299 4.56337845,6.07170955 3.89479843,6.33572379 Z" fill="#FFD400"></path>
                                        <path d="M3.67448273,6.42185901 L1.85448346,7.13582426 C0.751883248,7.56817049 0.0277442831,8.63215092 0.0306526192,9.81558659 L0.0306526192,10.3898214 C0.0306526192,10.7069625 0.287970965,10.9640562 0.60538923,10.9640562 L3.67065115,10.9640562 L3.67448273,6.42185901 Z" fill="#FFD400"></path>
                                        <path d="M0.0363999853,9.67202789 C0.0363999853,9.71796668 0.0363999853,9.76199134 0.0363999853,9.80793013 L0.0363999853,10.3821649 C0.0363999853,10.699306 0.293718331,10.9563997 0.611136596,10.9563997 L11.2954902,10.9563997 C11.6129084,10.9563997 11.8702268,10.699306 11.8702268,10.3821649 L11.8702268,9.66819966 L0.0363999853,9.67202789 Z" fill="#D12149"></path>
                                        <path d="M9.19578577,7.4880216 C10.2011899,7.49778558 11.0288897,6.70061714 11.0560166,5.69640907 L11.0560166,0 L6.19374487,0 L6.19374487,6.60944237 C6.20937374,7.10029577 6.61610348,7.48792773 7.10757608,7.48036513 L9.19578577,7.4880216 Z" fill="#D12149"></path>
                                    </g>
                                    <rect id="Rectangle" fill-opacity="0.5" fill="#15171B" x="96.6189716" y="117.469296" width="41.77952" height="8.6403194" rx="4.3201597"></rect>
                                    <g transform="translate(105.176800, 78.095931)" id="Path">
                                        <path d="M3.9848405,38.4928718 L1.94452553,39.2929722 C0.841925317,39.7253185 0.117786352,40.7892989 0.120694688,41.9727345 L0.120694688,42.5469693 C0.120694688,42.8641104 0.378013033,43.1212041 0.695431299,43.1212041 L11.3797849,43.1212041 C11.6972032,43.1212041 11.9545215,42.8641104 11.9545215,42.5469693 L11.9545215,38.6651422 C11.9545215,38.3480011 11.6972032,38.0909074 11.3797849,38.0909074 L6.08454492,38.0909074 C5.36564154,38.092511 4.65342051,38.2288575 3.9848405,38.4928718 Z" fill="#D12149"></path>
                                        <path d="M3.76644059,38.579007 L1.94644132,39.2929722 C0.843841106,39.7253185 0.119702141,40.7892989 0.122610477,41.9727345 L0.122610477,42.5469693 C0.122610477,42.8641104 0.379928822,43.1212041 0.697347087,43.1212041 L3.76260901,43.1212041 L3.76644059,38.579007 Z" fill="#FFFFFF"></path>
                                        <path d="M0.126442054,41.8291759 C0.126442054,41.8751146 0.126442054,41.9191393 0.126442054,41.9650781 L0.126442054,42.5393129 C0.126442054,42.856454 0.3837604,43.1135477 0.701178665,43.1135477 L11.3797849,43.1135477 C11.6972032,43.1135477 11.9545215,42.856454 11.9545215,42.5393129 L11.9545215,41.8253476 L0.126442054,41.8291759 Z" fill="#FFFFFF"></path>
                                        <path d="M9.28008047,39.6451696 C10.2854846,39.6549335 11.1131844,38.8577651 11.1403113,37.853557 L11.1403113,32.1896879 L6.28570273,32.1896879 L6.28570273,38.7742468 C6.3013316,39.2651002 6.70806133,39.6527322 7.19953394,39.6451696 L9.28008047,39.6451696 Z" fill="#15171B"></path>
                                        <path d="M4.4771982,0.130159885 L4.4771982,35.0283219 C4.52234161,36.052431 5.36698966,36.8592095 6.3929869,36.8582167 L10.3893221,36.8582167 C11.4153194,36.8592095 12.2599674,36.052431 12.3051108,35.0283219 L12.3051108,0.130159885 L4.4771982,0.130159885 Z" fill="#00B49C"></path>
                                    </g>
                                    <g transform="translate(109.583114, 78.095931)">
                                        <path d="M7.54820748,42.5431411 L7.54820748,38.6651422 C7.54820748,38.3480011 7.29088914,38.0909074 6.97347087,38.0909074 L6.50410264,38.0909074 C5.26154802,38.9877246 4.52767072,40.4278325 4.53275607,41.9593357 L4.53275607,42.5335705 C4.53332786,42.7270098 4.55647362,42.9197228 4.60172446,43.1078053 L6.97347087,43.1078053 C7.28718565,43.1078488 7.54297891,42.8565384 7.54820748,42.5431411 Z" id="Path" fill="#15171B"></path>
                                        <path d="M10.3107748,38.4928718 L8.27045982,39.2929722 C7.16785961,39.7253185 6.44372064,40.7892989 6.44662898,41.9727345 L6.44662898,42.5469693 C6.44662898,42.8641104 6.70394733,43.1212041 7.02136559,43.1212041 L17.7057192,43.1212041 C18.0231374,43.1212041 18.2804558,42.8641104 18.2804558,42.5469693 L18.2804558,38.6651422 C18.2804558,38.3480011 18.0231374,38.0909074 17.7057192,38.0909074 L12.4104792,38.0909074 C11.6915758,38.092511 10.9793548,38.2288575 10.3107748,38.4928718 Z" id="Path" fill="#D12149"></path>
                                        <path d="M10.0923749,38.579007 L8.27237561,39.2929722 C7.1697754,39.7253185 6.44563643,40.7892989 6.44854477,41.9727345 L6.44854477,42.5469693 C6.44854477,42.8641104 6.70586311,43.1212041 7.02328138,43.1212041 L10.0885433,43.1212041 L10.0923749,38.579007 Z" id="Path" fill="#FFFFFF"></path>
                                        <path d="M6.45237635,41.8291759 C6.45237635,41.8751146 6.45237635,41.9191393 6.45237635,41.9650781 L6.45237635,42.5393129 C6.45237635,42.856454 6.70969469,43.1135477 7.02711296,43.1135477 L17.7114665,43.1135477 C18.0288848,43.1135477 18.2862032,42.856454 18.2862032,42.5393129 L18.2862032,41.8253476 L6.45237635,41.8291759 Z" id="Path" fill="#FFFFFF"></path>
                                        <path d="M15.6060148,39.6451696 C16.6114189,39.6549335 17.4391187,38.8577651 17.4662456,37.853557 L17.4662456,32.1896879 L12.611637,32.1896879 L12.611637,38.7742468 C12.6272659,39.2651002 13.0339956,39.6527322 13.5254682,39.6451696 L15.6060148,39.6451696 Z" id="Path" fill="#15171B"></path>
                                        <path d="M10.8031325,0.130159885 L10.8031325,35.0283219 C10.8482759,36.052431 11.692924,36.8592095 12.7189212,36.8582167 L16.7152564,36.8582167 C17.7412537,36.8592095 18.5859017,36.052431 18.6310451,35.0283219 L18.6310451,0.130159885 L10.8031325,0.130159885 Z" id="Path" fill="#00B49C"></path>
                                        <path d="M0.070884182,0.130159885 L0.070884182,35.0283219 C0.1160276,36.052431 0.96067565,36.8592095 1.98667288,36.8582167 L5.98300811,36.8582167 C7.00900535,36.8592095 7.8536534,36.052431 7.89879682,35.0283219 L7.89879682,0.130159885 L0.070884182,0.130159885 Z" id="Path" fill="#00B49C"></path>
                                        <path d="M10.8031325,0.130159885 L10.8031325,35.0283219 C10.8482759,36.052431 11.692924,36.8592095 12.7189212,36.8582167 L16.7152564,36.8582167 C17.7412537,36.8592095 18.5859017,36.052431 18.6310451,35.0283219 L18.6310451,0.130159885 L10.8031325,0.130159885 Z" id="Path" fill="#00B49C"></path>
                                        <g fill="#232531" id="Rectangle">
                                            <rect x="0.070884182" y="0.130159885" width="7.82599685" height="11.4846957"></rect>
                                            <rect x="10.8031325" y="0.130159885" width="7.82599685" height="11.4846957"></rect>
                                        </g>
                                    </g>
                                    <g transform="translate(83.719966, 19.332571)">
                                        <g transform="translate(28.928409, 6.507994)">
                                            <rect id="Rectangle" fill="#FFCAA6" x="4.51742976" y="10.4453307" width="5.28374524" height="6.98078087"></rect>
                                            <ellipse id="Oval" fill="#FFCAA6" cx="7.15930238" cy="7.11285487" rx="7.11907081" ry="7.11285487"></ellipse>
                                            <path d="M11.3414691,8.83938746 L14.0618891,8.83938746 C14.9388188,5.26532243 12.9416975,1.6132205 9.4576767,0.419742053 C5.97365585,-0.773736397 2.15383508,0.885726775 0.651368158,4.24550918 L8.84711222,4.24550918 C9.18703029,4.24550918 9.5130262,4.3804232 9.75338457,4.62057171 C9.99374294,4.86072021 10.1287749,5.18643148 10.1287749,5.52605275 L10.1287749,7.62200971 C10.1287674,8.29211272 10.670788,8.83622659 11.3414691,8.83938746 Z" id="Path" fill="#D12149"></path>
                                        </g>
                                        <g>
                                            <rect id="Rectangle" fill="#00B49C" x="26.1351895" y="48.6740545" width="17.9298665" height="11.6339967" rx="5.81699837"></rect>
                                            <g>
                                                <g fill="#FFCAA6">
                                                    <polygon id="Rectangle" transform="translate(6.663548, 6.646556) rotate(-45.150000) translate(-6.663548, -6.646556) " points="5.22944334 4.89087245 8.09612041 4.89212449 8.09765347 8.40224013 5.23097639 8.40098809"></polygon>
                                                    <ellipse id="Oval" transform="translate(4.001013, 3.998932) rotate(-45.150000) translate(-4.001013, -3.998932) " cx="4.0010129" cy="3.99893237" rx="2.81497376" ry="2.81498663"></ellipse>
                                                </g>
                                                <path d="M23.0852539,28.3671984 C23.1588892,28.4485902 23.2369139,28.5259077 23.3189801,28.5988064 C24.725169,29.8448959 27.0681786,29.5290668 28.4916096,27.8733565 C29.8441564,26.298039 29.7847669,24.0834069 28.4322201,22.8851703 L9.34521729,5.96055707 L8.81262803,5.48777043 C8.43322426,5.1465465 7.85265533,5.16254241 7.49264961,5.52413863 L5.54237671,7.48227925 C5.18267969,7.84404 5.17004152,8.42404653 5.51363988,8.80110514 L5.99067127,9.32557291 L23.0852539,28.3671984 Z" id="Path" fill="#5E8516"></path>
                                                <path d="M28.4303043,22.8870844 L26.8976734,21.5338044 C24.3914835,22.4198206 22.5285248,24.5466428 21.9817596,27.1459924 L23.0795065,28.3691125 C23.1531335,28.4505122 23.2311587,28.5278302 23.3132327,28.6007205 C24.7194216,29.84681 27.0624312,29.5309809 28.4858622,27.8752706 C29.8422406,26.298039 29.7809354,24.085321 28.4303043,22.8870844 Z" id="Path" fill="#15171B"></path>
                                            </g>
                                            <path d="M29.4226829,23.0153302 L43.4500877,23.0153302 C44.5081486,23.0153302 45.3658764,23.8723091 45.3658764,24.9294461 L45.3658764,56.0606279 C45.3658764,57.117765 44.5081486,57.9747439 43.4500877,57.9747439 L25.6600739,57.9747439 C24.602013,57.9747439 23.7442852,57.117765 23.7442852,56.0606279 L23.7442852,28.6887699 C23.7442852,25.5554156 26.2865904,23.0153302 29.4226829,23.0153302 Z" id="Path" fill="#5E8516"></path>
                                            <path d="M23.7442852,49.3229398 L23.7442852,56.0606279 C23.7442852,57.117765 24.602013,57.9747439 25.6600739,57.9747439 L43.4500877,57.9747439 C44.5081486,57.9747439 45.3658764,57.117765 45.3658764,56.0606279 L45.3658764,49.3229398 L23.7442852,49.3229398 Z M41.4289307,52.033328 L40.5093521,52.033328 L40.5093521,50.6743057 L41.4289307,50.6743057 L41.4289307,52.033328 Z" id="Shape" fill="#15171B" fill-rule="nonzero"></path>
                                        </g>
                                    </g>
                                    <g transform="translate(146.940993, 38.090907)">
                                        <rect id="Rectangle" fill="#FFD400" x="23.9243693" y="6.90613035" width="12.439216" height="17.3840011"></rect>
                                        <g>
                                            <g transform="translate(22.031570, 0.000000)">
                                                <rect id="Rectangle" fill="#FFB380" x="4.57107184" y="10.5697483" width="5.28374524" height="6.98078087"></rect>
                                                <ellipse id="Oval" fill="#FFB380" cx="7.21294446" cy="7.23727241" rx="7.11907081" ry="7.11285487"></ellipse>
                                                <path d="M10.9602272,1.19058012 L10.9602272,13.2820506 C13.0555374,11.9857383 14.3305076,9.69864901 14.3305076,7.23631535 C14.3305076,4.77398169 13.0555374,2.48689241 10.9602272,1.19058012 Z" id="Path" fill="#FFD400"></path>
                                                <path d="M7.21294446,0.124417537 C4.39197836,0.124602133 1.83721448,1.78900393 0.699262876,4.3680126 L8.89500694,4.3680126 C9.60284967,4.3680126 10.1766696,4.94133148 10.1766696,5.64855617 L10.1766696,6.53670597 L12.3625845,6.53670597 L12.3625845,8.95997676 L14.1155312,8.95997676 C14.650626,6.83639255 14.1754738,4.58492125 12.8277636,2.85799209 C11.4800534,1.13106294 9.41045396,0.121739813 7.21869183,0.122503421 L7.21294446,0.124417537 Z" id="Path" fill="#FFD400"></path>
                                            </g>
                                            <g transform="translate(51.343137, 71.013702)" id="Path">
                                                <path d="M9.529133,3.23677007 L11.5866901,2.48260839 C12.6964618,2.0757705 13.9423721,2.3894445 14.7266677,3.27313827 L15.1098255,3.70572848 C15.3194946,3.94317799 15.2972113,4.30539294 15.060015,4.51539953 L7.06542873,11.5976285 C6.82777171,11.8071146 6.46524022,11.7848508 6.25505011,11.5478615 L3.68406167,8.64988998 C3.47439258,8.41244047 3.49667584,8.05022552 3.73387218,7.84021893 L7.697639,4.33164439 C8.23436446,3.85563809 8.8555715,3.48427807 9.529133,3.23677007 Z" fill="#FFD400"></path>
                                                <path d="M9.7494487,3.1563772 L11.5847743,2.4845225 C12.694546,2.07768462 13.9404563,2.39135862 14.724752,3.27505239 L15.1079097,3.70764259 C15.3175788,3.9450921 15.2952955,4.30730706 15.0580992,4.51731364 L12.7591528,6.5520189 L9.7494487,3.1563772 Z" fill="#FFD400"></path>
                                                <path d="M14.6308783,3.17743248 C14.6615309,3.20997245 14.6940993,3.2405983 14.724752,3.27505239 L15.1079097,3.70764259 C15.3175788,3.9450921 15.2952955,4.30730706 15.0580992,4.51731364 L7.06351294,11.5995427 C6.82585592,11.8090287 6.46332443,11.7867649 6.25313432,11.5497756 L5.77993451,11.0157373 L14.6308783,3.17743248 Z" fill="#D12149"></path>
                                                <path d="M6.32210271,7.6086109 C5.57625759,8.28305027 4.42690587,8.23534441 3.73961955,7.50142041 L3.72429324,7.48610748 L1.21269425,4.65512999 L0.0766315481,3.37458642 L3.71663008,0.156957508 L4.85269278,1.43750108 L7.98309152,4.96521677 C8.29747365,5.34285513 8.25057153,5.90263308 7.87772314,6.22279095 L6.32210271,7.6086109 Z" fill="#D12149"></path>
                                            </g>
                                            <path d="M58.2035765,71.9860726 L57.5522084,71.2529662 L38.6682791,49.9584263 C38.8724308,49.3599878 38.9766367,48.7320648 38.9767211,48.0998197 C38.9672522,44.8911071 36.366156,42.292282 33.1546393,42.2828213 L25.5278844,42.2828213 C22.3163677,42.292282 19.7152715,44.8911071 19.7058026,48.0998197 C19.7048403,48.6011486 19.7692417,49.1004671 19.8973815,49.5851737 L17.1118247,51.5490566 L12.7438264,54.6269551 L12.1690898,55.0327477 C11.9353636,55.1973616 11.6997216,55.3600615 11.469827,55.5304178 C11.0022474,55.8543148 10.5813242,56.2407365 10.2188169,56.6788874 C9.49719055,57.5648235 9.07232337,58.6548547 9.0042069,59.7950682 C8.98313322,60.1625784 8.98121743,60.535831 8.98121743,60.9090836 L8.98121743,75.0333452 C9.02636085,76.0574544 9.8710089,76.8642328 10.8970061,76.8632401 L14.8933414,76.8632401 C15.9193386,76.8642328 16.7639866,76.0574544 16.8091301,75.0333452 L16.8091301,64.3047253 C16.8090887,62.4448438 17.713603,60.7009266 19.2345186,59.6285401 L25.8439896,54.9695818 C26.8098087,54.2886454 27.9628226,53.9229183 29.1448935,53.9225604 C30.7836219,53.9230062 32.3436906,54.624668 33.4305128,55.8500752 L51.6937265,76.4383063 L52.3450947,77.1714128 C53.0581997,77.9078151 54.2252555,77.9525329 54.9927147,77.2728609 L57.9832608,74.6237244 C58.7513123,73.9450699 58.8484155,72.782536 58.2035765,71.9860726 Z" id="Path" fill="#15171B"></path>
                                            <g transform="translate(0.000000, 4.785290)" fill="#FFB380">
                                                <polygon id="Rectangle" transform="translate(7.062440, 7.804128) rotate(-38.927544) translate(-7.062440, -7.804128) " points="5.62441046 6.01805989 8.49894487 6.01928716 8.50046974 9.59019666 5.62593533 9.58896939"></polygon>
                                                <ellipse id="Oval" transform="translate(4.054780, 4.051970) rotate(-39.190000) translate(-4.054780, -4.051970) " cx="4.0547803" cy="4.05197002" rx="2.81522782" ry="2.81473254"></ellipse>
                                            </g>
                                            <path d="M25.5432108,25.0883178 C25.6350713,25.0942945 25.7272238,25.0942945 25.8190843,25.0883178 C27.3957784,24.9811273 28.6027253,23.1052936 28.4686201,20.9308579 C28.3402623,18.8597845 26.991547,17.334234 25.4761582,17.4356822 L20.2249813,17.8012783 L17.6003508,17.9792911 L16.2880355,18.0692546 L16.1232777,18.0807393 L16.0408988,18.0807393 L15.9987514,18.0807393 L15.9412778,18.1037087 C15.9010462,18.1190216 15.8588989,18.1343345 15.8148357,18.1477333 C15.7248102,18.172853 15.6289247,18.166781 15.5427937,18.1305063 C15.5008406,18.109958 15.4604951,18.0862837 15.422099,18.059684 L15.358878,18.0175734 L15.3263096,17.9926899 C15.3106218,17.9790495 15.2958989,17.9643393 15.2822465,17.9486653 L15.2266886,17.8893277 L13.4296788,15.9752117 L9.83565919,12.1354951 L8.99271216,11.1994924 C8.65106193,10.8208384 8.07230201,10.7762278 7.67656533,11.0980443 L5.53279777,12.843718 C5.13678523,13.1659553 5.06345913,13.7419468 5.36612415,14.1529733 L6.11328175,15.1674548 L9.16321736,19.4723016 L10.6958483,21.6237679 C10.7360799,21.6850196 10.8874272,21.872603 10.9927956,22.021904 C11.0981639,22.171205 11.2265218,22.3339049 11.3472165,22.4889483 C11.5859899,22.7911948 11.8563704,23.0671143 12.1537635,23.3120182 C12.755634,23.799599 13.464761,24.1374523 14.2228153,24.2977879 C14.6075871,24.3760673 14.9988213,24.4183606 15.3914464,24.4241195 L15.9910883,24.4470889 L16.3301829,24.4700583 L17.6463297,24.5600218 L20.2805392,24.7380345 L25.5432108,25.0883178 Z" id="Path" fill="#D12149"></path>
                                            <path d="M19.4969816,24.6786969 L20.2747918,24.7322922 L25.541295,25.0902319 C25.6331555,25.0962086 25.725308,25.0962086 25.8171685,25.0902319 C27.3938626,24.9830414 28.6008095,23.1072077 28.4667043,20.932772 C28.3383465,18.8616986 26.9896312,17.3361482 25.4742424,17.4375963 L20.6847706,17.762996 C20.6483706,17.8108489 20.6119706,17.8548736 20.5774864,17.9027265 C19.1544163,19.8591582 18.7528722,22.3772872 19.4969816,24.6786969 Z" id="Path" fill="#232531"></path>
                                            <path d="M37.9479426,49.6751371 L20.7326653,49.6751371 C19.6746044,49.6751371 18.8168766,48.8181582 18.8168766,47.7610212 L21.9951701,38.2727484 C23.3159979,34.3299744 23.3159979,30.0647143 21.9951701,26.1219404 L21.3514651,24.1982538 C20.7648255,22.4466798 21.0572746,20.5200918 22.137342,19.0210762 C23.2174093,17.5220606 24.9532297,16.633632 26.8018839,16.6336676 L31.8806398,16.6336676 C33.729294,16.633632 35.4651144,17.5220606 36.5451818,19.0210762 C37.6252491,20.5200918 37.9176982,22.4466798 37.3310586,24.1982538 L36.6873536,26.1219404 C35.3665258,30.0647143 35.3665258,34.3299744 36.6873536,38.2727484 L39.8656471,47.7610212 C39.8656471,48.8181582 39.0079193,49.6751371 37.9498584,49.6751371 L37.9479426,49.6751371 Z" id="Path" fill="#D12149"></path>
                                        </g>
                                        <path d="M33.98226,8.29769264 C34.1406319,8.30662518 34.3047511,8.31109145 34.4746177,8.31109145 L34.4746177,3.60428033 L31.9706818,1.75141609 L30.5338403,0.951315627 C30.4763667,0.696738206 30.4093141,0.445989016 30.3422615,0.206724523 C29.7679614,0.119122978 29.1851752,0.101127653 28.6065569,0.153129276 C25.0978903,0.451305379 22.3449352,3.28594906 22.1522648,6.79893985 L24.2481376,6.79893985 L24.997211,5.50308336 L25.7462844,6.79893985 L30.1525984,6.79893985 C31.6296715,6.79893985 31.8959661,7.84404716 31.8959661,8.7130558 L31.8959661,16.9150426 C31.8959661,18.5007482 33.1825578,19.7862166 34.7696491,19.7862166 L36.3616696,19.7862166 L36.3616696,10.9965961 L33.98226,8.29769264 Z" id="Path" fill="#FFD400"></path>
                                    </g>
                                    <path d="M64.7536581,2.04427583 L64.7536581,87.7966704 L150.899013,87.7966704 L150.899013,2.04427583 L64.7536581,2.04427583 Z M135.572703,72.4837428 L80.0799677,72.4837428 L80.0799677,17.3572034 L135.572703,17.3572034 L135.572703,72.4837428 Z" id="Shape" fill="#FFFFFF" fill-rule="nonzero"></path>
                                    <path d="M64.7536581,0.130159885 L64.7536581,85.8825544 L150.899013,85.8825544 L150.899013,0.130159885 L64.7536581,0.130159885 Z M135.572703,70.5696268 L80.0799677,70.5696268 L80.0799677,15.4430875 L135.572703,15.4430875 L135.572703,70.5696268 Z" id="Shape" fill="#BEE70C" fill-rule="nonzero"></path>
                                    <path d="M145.243605,83.2027921 C145.245321,84.1649798 144.942202,85.1030251 144.377668,85.8825544 L136.906092,85.8825544 C135.743799,84.2688948 135.752298,82.0913491 136.927154,80.4867963 C138.102009,78.8822434 140.176585,78.2148401 142.067761,78.8330322 C143.958937,79.4512243 145.237508,81.2147117 145.235941,83.2027921 L145.243605,83.2027921 Z" id="Path" fill="#5E8516"></path>
                                    <path d="M144.377668,85.8825544 C144.234036,86.0872954 144.073163,86.2794051 143.896805,86.4567892 C142.941845,87.4086089 141.616729,87.8934441 140.272389,87.7828955 C138.928048,87.6723468 137.700105,86.9775666 136.913755,85.8825544 L144.377668,85.8825544 Z" id="Path" fill="#848584"></path>
                                    <g transform="translate(116.863111, 42.301962)">
                                        <g transform="translate(0.000000, 24.500684)" fill="#FFCAA6">
                                            <polygon id="Path" points="6.52709211 4.43309254 4.95614537 2.03661937 7.60568114 0.300516204 7.97159679 0.0612517104 9.54254352 2.45772488 9.17662788 2.69698937"></polygon>
                                            <ellipse id="Oval" transform="translate(4.066831, 4.330417) rotate(-33.230000) translate(-4.066831, -4.330417) " cx="4.06683123" cy="4.33041749" rx="2.81547119" ry="2.81448911"></ellipse>
                                        </g>
                                        <path d="M13.3108999,1.72270435 C13.2227736,1.61934209 13.119321,1.51406572 13.0254474,1.41453169 C11.3203954,-0.264148001 8.6976807,-0.329227943 7.24168129,1.29968473 C5.85465027,2.85203277 6.12669227,5.3882364 7.76469161,7.00183614 L14.2132364,13.3528729 L15.8263305,14.9415891 L16.6328775,15.7359472 L16.7344143,15.8354813 L16.7478248,15.8469659 L16.7861406,15.8699353 L16.8685195,15.9216165 L17.0466879,16.0402917 C17.1132313,16.0808947 17.1685524,16.1374835 17.2076141,16.2049056 C17.2847486,16.3384431 17.2741768,16.5051804 17.1807931,16.6279253 C17.1041615,16.7121464 17.0141195,16.8021098 16.9164142,16.8978156 L16.8397827,16.9724661 L16.8206248,16.9916073 L16.7401617,17.0509449 L16.5485828,17.1830189 L15.8186673,17.7074867 L12.9009211,19.8130142 L7.06542873,24.0240693 L6.49069212,24.4413466 C6.0780643,24.7415941 5.97358036,25.3123865 6.25313432,25.7391172 L7.76852318,28.0494551 C8.04848543,28.4757679 8.61381075,28.6079268 9.0540174,28.3499713 L9.665154,27.9920317 L15.8780568,24.3092726 L18.9663081,22.4832059 L19.7326236,22.0257322 L19.9242025,21.9108853 L20.1981603,21.7424431 L20.8725179,21.3251658 C21.3227282,21.0457049 21.7844333,20.7700722 22.21357,20.4638136 C22.5950224,20.1664917 22.9420184,19.8275029 23.2480959,19.4531604 C23.4328799,19.2218071 23.5957815,18.9738234 23.7347062,18.7123975 C23.8739397,18.4408855 23.9893202,18.1578098 24.0795482,17.8663583 C24.2592897,17.2747713 24.3243138,16.6543336 24.2711271,16.0383775 C24.2615481,15.8852483 24.2347271,15.7359472 24.2136534,15.5866462 C24.1925797,15.4373451 24.1504324,15.2918723 24.1102008,15.1483136 C24.0719387,15.0061651 24.0258904,14.8662239 23.972264,14.7291222 C23.9238116,14.5899161 23.8655536,14.4543127 23.7979272,14.3233297 L23.5891063,13.915623 L23.3266432,13.5060021 C23.1274968,13.2302364 22.91324,12.9656845 22.684854,12.7135581 L21.9932543,11.9325988 C21.7748544,11.6856779 21.4798229,11.358364 21.4051072,11.2626582 L20.6694443,10.3955637 L19.1981186,8.66137467 L13.3108999,1.72270435 Z" id="Path" fill="#5E8516"></path>
                                    </g>
                                    <g transform="translate(147.707309, 65.654177)" fill="#FFB380">
                                        <rect id="Rectangle" x="4.94465064" y="1.38773406" width="3.56336698" height="2.86543158"></rect>
                                        <ellipse id="Oval" cx="2.94265145" cy="2.81949279" rx="2.81620939" ry="2.81375045"></ellipse>
                                    </g>
                                    <rect id="Rectangle" fill-opacity="0.5" fill="#15171B" transform="translate(35.327144, 121.789456) rotate(180.000000) translate(-35.327144, -121.789456) " x="0.0689683932" y="117.469296" width="70.5163505" height="8.6403194" rx="4.3201597"></rect>
                                    <g transform="translate(53.067347, 110.253079)" id="Path">
                                        <path d="M8.02907045,6.33572379 L10.0693854,7.13582426 C11.1719856,7.56817049 11.8961246,8.63215092 11.8932163,9.81558659 L11.8932163,10.3898214 C11.8932163,10.7069625 11.6358979,10.9640562 11.3184796,10.9640562 L0.63412606,10.9640562 C0.316707795,10.9640562 0.0593894497,10.7069625 0.0593894497,10.3898214 L0.0593894497,6.50799423 C0.0593894497,6.19085312 0.316707795,5.93375944 0.63412606,5.93375944 L5.92936603,5.93375944 C6.64826941,5.93536299 7.36049043,6.07170955 8.02907045,6.33572379 Z" fill="#00B49C"></path>
                                        <path d="M8.24747036,6.42185901 L10.0674696,7.13582426 C11.1700698,7.56817049 11.8942088,8.63215092 11.8913005,9.81558659 L11.8913005,10.3898214 C11.8913005,10.7069625 11.6339821,10.9640562 11.3165639,10.9640562 L8.25130194,10.9640562 L8.24747036,6.42185901 Z" fill="#00B49C"></path>
                                        <path d="M11.8778899,9.67202789 C11.8778899,9.71796668 11.8778899,9.76199134 11.8778899,9.80793013 L11.8778899,10.3821649 C11.8778899,10.699306 11.6205716,10.9563997 11.3031533,10.9563997 L0.63412606,10.9563997 C0.316707795,10.9563997 0.0593894497,10.699306 0.0593894497,10.3821649 L0.0593894497,9.66819966 L11.8778899,9.67202789 Z" fill="#FFD400"></path>
                                        <path d="M2.73383048,7.4880216 C1.72842631,7.49778558 0.900726524,6.70061714 0.873599648,5.69640907 L0.873599648,0 L5.72820822,0 L5.72820822,6.60944237 C5.71257934,7.10029577 5.30584961,7.48792773 4.81437701,7.48036513 L2.73383048,7.4880216 Z" fill="#FFFFFF"></path>
                                    </g>
                                    <g transform="translate(2.873683, 32.922794)">
                                        <g transform="translate(23.755780, 0.000000)">
                                            <path d="M1.01536801,5.33846938 L1.09774693,5.33846938 L1.0172838,5.30975764 C0.698674476,5.1846135 0.471089268,4.89914791 0.420257323,4.56089299 C0.369425377,4.22263807 0.503069276,3.8829828 0.770846655,3.66987202 C1.03862403,3.45676124 1.39985314,3.40257155 1.71846247,3.5277157 L1.79509401,3.56216978 C1.77246705,3.54544429 1.75072545,3.52755507 1.7299572,3.50857454 C1.45194495,3.28420215 1.32206578,2.92385777 1.39307439,2.57390714 C1.46408299,2.22395651 1.72416949,1.94260208 2.06769119,1.84412523 C2.41121289,1.74564837 2.78103656,1.84642738 3.02694615,2.10552754 C3.04801982,2.1246687 3.0690935,2.14572398 3.08825139,2.16677926 C3.07227634,2.14236429 3.05818644,2.11676866 3.04610404,2.09021462 C2.89449938,1.78248312 2.91872717,1.41731799 3.10966103,1.1322734 C3.30059489,0.847228807 3.62922744,0.685609807 3.97176595,0.708296713 C4.31430447,0.73098362 4.61870922,0.934529752 4.77031387,1.24226125 C4.78343652,1.26701926 4.79495493,1.29259339 4.80479806,1.31882589 C4.79899447,1.29105625 4.79515341,1.26291307 4.79330333,1.23460479 C4.76318773,0.892680906 4.91793341,0.560677758 5.19924915,0.363657718 C5.4805649,0.166637677 5.84571216,0.134532774 6.1571435,0.279436616 C6.46857484,0.424340457 6.67897644,0.724238702 6.70909203,1.06616258 C6.71096166,1.09420521 6.71096166,1.12234106 6.70909203,1.15038369 C6.71412632,1.12247737 6.72116916,1.0949703 6.73016571,1.0680767 C6.8199241,0.734009502 7.08311239,0.474327441 7.41857059,0.388842829 C7.7540288,0.303358217 8.10954974,0.405374976 8.34848415,0.655681586 C8.58741856,0.905988196 8.67258119,1.26562958 8.57123865,1.5963727 C8.56335559,1.6237456 8.55375771,1.6505962 8.54250182,1.67676557 L8.59231233,1.6078574 C8.90973059,1.18500258 9.51014006,1.09930469 9.93336442,1.4164458 C10.3565888,1.73358692 10.4423616,2.33347215 10.1249433,2.75632697 C10.1077012,2.77929636 10.0885433,2.80035163 10.0713012,2.82140691 C10.0931832,2.80391885 10.1162254,2.78793132 10.1402696,2.77355401 C10.5904745,2.495527 11.1810201,2.63478608 11.4592901,3.08459788 C11.7375601,3.53440968 11.5981793,4.12443963 11.1479745,4.40246668 L11.0732587,4.44457724 L11.1556376,4.42543608 C11.4970163,4.35169634 11.8515068,4.46944441 12.0807458,4.7327213 C12.3099848,4.99599818 12.3776326,5.36306844 12.2572851,5.69065855 C12.1369377,6.01824866 11.8476728,6.25442805 11.5023954,6.30701205 L11.4181007,6.31849675 L11.5023954,6.33189556 C11.8388003,6.39515148 12.1158751,6.63291554 12.2292484,6.95562431 C12.3426218,7.27833309 12.2750695,7.63695944 12.052038,7.8964123 C11.8290064,8.15586516 11.4843794,8.27672746 11.1479745,8.21347154 L11.0655955,8.19241627 C11.0905008,8.20581508 11.115406,8.21921389 11.1383955,8.23452682 C11.5754759,8.51861126 11.7048474,9.09980877 11.4294778,9.54220411 C11.1541081,9.98459946 10.5751588,10.1256711 10.1268591,9.85961126 L10.0559749,9.81175836 C10.0751328,9.83281363 10.0923749,9.85386891 10.109617,9.8768383 C10.3149506,10.1503774 10.3586278,10.5125865 10.2241957,10.8270249 C10.0897637,11.1414633 9.7976459,11.3603604 9.45788026,11.4012597 C9.11811462,11.442159 8.78231963,11.298847 8.57698602,11.0253079 C8.55974392,11.0023385 8.54441761,10.9793691 8.5290913,10.9544856 C8.5290913,10.9812832 8.54824919,11.0099949 8.55591234,11.0367926 C8.68541103,11.540078 8.38929067,12.0546541 7.88880662,12.1960395 C7.38832257,12.337425 6.86636197,12.0539547 6.71292361,11.5574321 C6.71292361,11.5306345 6.6975973,11.5019227 6.69184993,11.4751251 C6.69382041,11.5025255 6.69382041,11.5300318 6.69184993,11.5574321 C6.64711341,12.0521007 6.23106941,12.4303702 5.73395558,12.4283549 C5.70397173,12.4302563 5.67389737,12.4302563 5.64391351,12.4283549 C5.11852374,12.378843 4.73217689,11.914091 4.77989281,11.3889899 C4.78188631,11.3600631 4.7857257,11.3312928 4.79138754,11.3028547 C4.77989281,11.3296523 4.76839808,11.3564499 4.75498756,11.3813334 C4.60851196,11.6981438 4.30105455,11.9101823 3.95263205,11.9346793 C3.60420955,11.9591762 3.27006106,11.7922478 3.08062226,11.499055 C2.89118345,11.2058622 2.87648806,10.832888 3.04227246,10.5257236 C3.05568298,10.5008401 3.0690935,10.4759566 3.08441981,10.4510731 C3.06526192,10.4721284 3.04418825,10.4912695 3.02311457,10.5123248 C2.63163204,10.8680514 2.02564736,10.8393426 1.66960989,10.4482019 C1.31357242,10.0570612 1.34230628,9.45160562 1.73378877,9.09587899 C1.754566,9.07690878 1.77630705,9.05902002 1.79892559,9.04228375 L1.72037825,9.07673783 C1.23021774,9.25675676 0.686061729,9.01132968 0.496984247,8.52495856 C0.307906765,8.03858743 0.543592545,7.4905249 1.02686274,7.29278177 L1.11307324,7.26407003 L1.02494696,7.26407003 C0.495916513,7.26407003 0.0670526045,6.83558058 0.0670526045,6.30701205 L0.0670526045,6.28212855 C0.0743089058,5.76250437 0.495264617,5.34361556 1.01536801,5.33846938 Z" id="Path" fill="#15171B"></path>
                                            <g transform="translate(6.513682, 5.168113)">
                                                <rect id="Rectangle" fill="#8C522A" transform="translate(7.195702, 14.096507) rotate(-180.000000) translate(-7.195702, -14.096507) " x="4.55382974" y="10.6061165" width="5.28374524" height="6.98078087"></rect>
                                                <path d="M1.71463089,11.1899218 C2.7127568,10.1926674 2.65336735,8.72262638 1.86406241,7.6564638 C1.86406241,7.6564638 1.86406241,7.62775206 1.82191506,7.56267212 L1.7970098,7.48419336 C1.73570456,7.27364061 1.69164142,7.05925962 1.63608355,6.84679275 C1.62075724,6.78936927 1.60926251,6.74917284 1.59968357,6.71471875 C1.59010462,6.68026467 1.59968357,6.65155293 1.59968357,6.5998718 C1.59010462,6.32806733 1.559452,6.05626287 1.55178885,5.78254428 C1.55178885,5.6045315 1.55178885,5.42843283 1.55178885,5.25042005 C1.55178885,5.3040153 1.56903095,5.19108246 1.58818883,5.05900846 C1.6111783,5.03795318 1.67439932,4.86759686 1.61500988,4.89056625 L1.61500988,4.87716744 C1.76513356,4.72515494 1.92512996,4.58320219 2.09395705,4.4522337 C2.51390119,4.09291142 2.77881206,3.58549463 2.83345149,3.0357879 L12.9181632,3.0357879 C14.4402762,5.08632141 14.7454095,7.79473042 13.7176369,10.1320363 C12.6898643,12.4693422 10.4869286,14.0768148 7.94576894,14.3437432 C5.40460929,14.6106717 2.91524339,13.4960877 1.42343101,11.423444 C1.52653202,11.3534282 1.62390477,11.275342 1.71463089,11.1899218 Z" id="Path" fill="#8C522A"></path>
                                                <path d="M3.45991439,5.16811306 L3.45991439,9.93426178 C3.45991439,10.9279706 2.65365025,11.7335308 1.65907302,11.7335308 C0.00657543752,9.70578973 -0.398723468,6.93548651 0.603724462,4.52000154 C1.60617239,2.10451657 3.85461081,0.433615761 6.45838186,0.16918112 C9.06215291,-0.0952535215 11.6011086,1.08944754 13.0695105,3.25399711 L5.3757031,3.25399711 C4.31764221,3.25399711 3.45991439,4.11097602 3.45991439,5.16811306 Z" id="Path" fill="#15171B"></path>
                                            </g>
                                        </g>
                                        <g transform="translate(0.000000, 21.629510)" id="Path">
                                            <g transform="translate(0.000000, 54.552305)">
                                                <path d="M5.84315554,3.23677007 L3.78559847,2.48835073 C2.67582675,2.08151285 1.4299164,2.39518685 0.645620792,3.27888062 L0.262463052,3.71147083 C0.0527939607,3.94892034 0.0750772202,4.31113529 0.312273558,4.52114187 L8.30685981,11.6033709 C8.54451683,11.8128569 8.90704832,11.7905931 9.11723843,11.5536039 L11.6863111,8.65180409 C11.8959802,8.41435458 11.8736969,8.05213963 11.6365006,7.84213305 L7.67273375,4.33355851 C7.13673601,3.8570731 6.51618549,3.48506788 5.84315554,3.23677007 Z" fill="#00B49C"></path>
                                                <path d="M5.62092405,3.1563772 L3.78559847,2.48835073 C2.67582675,2.08151285 1.4299164,2.39518685 0.645620792,3.27888062 L0.262463052,3.71147083 C0.0527939607,3.94892034 0.0750772202,4.31113529 0.312273558,4.52114187 L2.61122,6.55584713 L5.62092405,3.1563772 Z" fill="#00B49C"></path>
                                                <path d="M0.739494439,3.17743248 C0.70884182,3.20997245 0.676273412,3.2405983 0.645620792,3.27505239 L0.262463052,3.70764259 C0.0527939607,3.9450921 0.0750772202,4.30730706 0.312273558,4.51731364 L8.30685981,11.5995427 C8.54451683,11.8090287 8.90704832,11.7867649 9.11723843,11.5497756 L9.59043824,11.0157373 L0.739494439,3.17743248 Z" fill="#FFD400"></path>
                                                <path d="M9.04060688,7.6086109 C9.78645201,8.28305027 10.9358037,8.23534441 11.6230901,7.50142041 L11.6384164,7.48610748 L14.1500153,4.65512999 L15.286078,3.37458642 L11.6460795,0.156957508 L10.5100168,1.43750108 L7.37961808,4.96521677 C7.06523595,5.34285513 7.11213807,5.90263308 7.48498646,6.22279095 L9.04060688,7.6086109 Z" fill="#FFFFFF"></path>
                                            </g>
                                            <path d="M57.7073873,43.333671 C57.6399705,42.1945561 57.2164833,41.1052965 56.4966088,40.2194043 C56.134084,39.7812701 55.7131633,39.3948506 55.2455988,39.0709348 C55.0157041,38.9024926 54.7800621,38.7397927 54.5463359,38.5732646 L53.9715993,38.167472 L49.6036011,35.0895736 L46.8180443,33.1256906 C46.9461627,32.6409799 47.0105637,32.1416642 47.0096232,31.6403367 C46.9970082,28.4346109 44.3979919,25.8395734 41.1894571,25.8290806 L33.5588707,25.8290806 C30.347354,25.8385413 27.7462577,28.4373664 27.7367888,31.646079 C27.7368384,32.2783269 27.8410453,32.9062556 28.0452308,33.5046856 L9.16130157,54.7896549 L8.50993341,55.5227614 C7.8646192,56.3187311 7.96087415,57.4812181 8.72833332,58.1604131 L11.7188795,60.8095496 C12.4863387,61.4892216 13.6533945,61.4445038 14.3664995,60.7081015 L15.0178676,59.9749951 L33.2810813,39.3867639 C34.3679035,38.1613567 35.9279722,37.4596949 37.5667006,37.4592491 C38.7487716,37.459607 39.9017854,37.8253341 40.8676046,38.5062706 L47.4770756,43.1652288 C48.9979911,44.2376153 49.9025055,45.9815325 49.9024641,47.8414141 L49.9024641,58.5719481 C49.9476075,59.5960572 50.7922556,60.4028357 51.8182528,60.4018429 L55.814588,60.4018429 C56.8405853,60.4028357 57.6852333,59.5960572 57.7303767,58.5719481 L57.7303767,44.4457724 C57.7303767,44.0744339 57.7284609,43.7011813 57.7073873,43.333671 Z" fill="#D12149"></path>
                                            <path d="M28.7655674,35.1278559 L45.9789288,35.1278559 C46.8668393,35.1302456 47.7275968,34.8221333 48.4119805,34.2569332 L46.8122969,33.1295189 C46.9404153,32.6448081 47.0048163,32.1454924 47.0038758,31.6441649 C46.9933806,28.4391748 44.397236,25.8427331 41.1894571,25.8290806 L33.5588707,25.8290806 C30.347354,25.8385413 27.7462577,28.4373664 27.7367888,31.646079 C27.7368384,32.2783269 27.8410453,32.9062556 28.0452308,33.5046856 L26.9896312,34.6952657 C27.5377392,34.9812219 28.1472366,35.1296859 28.7655674,35.1278559 Z" fill="#232531"></path>
                                            <path d="M28.7655674,33.21374 L45.9789288,33.21374 C46.4870276,33.21374 46.9743159,33.0120748 47.333596,32.6531084 C47.6928761,32.294142 47.8947175,31.8072791 47.8947175,31.299624 L44.7164241,21.8113512 C43.3955963,17.8685773 43.3955963,13.6033172 44.7164241,9.6605432 L45.3601291,7.73685667 C45.9467687,5.98528259 45.6543196,4.05869462 44.5742522,2.55967903 C43.4941848,1.06066343 41.7583644,0.172234836 39.9097102,0.172270435 L32.4745343,0.172270435 C31.1735366,0.174502083 29.9528964,0.801348823 29.1938364,1.85703776 C28.4347764,2.9127267 28.2298122,4.26858867 28.6429569,5.50116924 L30.0357353,9.6605432 C31.3565631,13.6033172 31.3565631,17.8685773 30.0357353,21.8113512 L26.8574418,31.299624 C26.8574418,32.3567611 27.7151696,33.21374 28.7732305,33.21374 L28.7655674,33.21374 Z" fill="#00B49C"></path>
                                            <path d="M44.0631401,12.1565504 C43.5956877,11.9192 43.1320668,11.6799355 42.6646144,11.4464134 C40.6128047,10.416619 38.5226792,9.46530337 36.4191432,8.5446136 C34.2064073,7.57415681 31.9840924,6.63049765 29.8000932,5.59496092 C29.3517987,5.38249405 28.9169147,5.15854248 28.4839464,4.92502034 C28.5186559,5.11966815 28.5673145,5.31157355 28.6295464,5.49925512 L30.0223247,9.65862908 C30.2139036,10.2328639 30.3767456,10.8185833 30.5127666,11.4062169 L34.8443649,14.5472812 L38.6989318,17.3380623 L38.7544896,17.3763446 C40.2067598,18.3472789 41.913424,18.8686187 43.6608245,18.8750974 L43.8945507,18.8750974 L43.9865086,18.8750974 C43.6153714,16.6485849 43.6413149,14.3740342 44.0631401,12.1565504 Z" fill="#232531"></path>
                                        </g>
                                    </g>
                                    <g transform="translate(60.155765, 65.654177)" fill="#8C522A">
                                        <rect id="Rectangle" x="0.159010462" y="1.38773406" width="3.56336698" height="2.86543158"></rect>
                                        <ellipse id="Oval" cx="5.72437664" cy="2.81949279" rx="2.81620939" ry="2.81375045"></ellipse>
                                    </g>
                                </g>
                                <path d="M72.9915495,4.41777961 C73.9219485,4.41704806 74.7610596,4.97668781 75.117207,5.83547316 C75.4733543,6.69425851 75.2763119,7.68285201 74.6180541,8.33980319 L58.362587,24.581077 C57.4632352,25.4796435 56.005098,25.4796435 55.1057462,24.581077 C54.2063945,23.6825105 54.2063945,22.2256464 55.1057462,21.3270799 L71.3612133,5.08580608 C71.7942849,4.65561961 72.3808707,4.41526746 72.9915495,4.41777961 Z" id="Path" fill="#FFD400"></path>
                                <path d="M75.8652326,15.8871624 L64.7536581,26.9890349 L64.7536581,21.7941242 L73.2578442,13.2973635 C73.9797631,12.6150185 75.1136294,12.6290612 75.8183981,13.3290755 C76.5231668,14.0290899 76.5439061,15.1618637 75.8652326,15.8871624 Z" id="Path" fill="#5E8516"></path>
                                <rect id="Rectangle" fill="#D12149" x="129.888558" y="72.3746382" width="11.4947322" height="11.4846957" rx="5.74234785"></rect>
                                <path d="M31.4457557,62.1800566 C31.3461347,62.1073202 31.2426821,62.0250132 31.1488085,61.9407921 C30.3675154,61.2497708 29.901211,60.2709137 29.8571258,59.2293169 C29.8130406,58.1877202 30.1949685,57.1730246 30.9150823,56.4185676 C32.3519238,54.9159866 34.7562386,54.8872749 36.3176064,56.2750089 L43.1148247,62.3121306 L44.8141293,63.8223681 L45.6647395,64.5765298 L46.0900446,64.959353 L46.3026971,65.1507646 L46.3256866,65.1718199 L46.3256866,65.1813904 C46.3302242,65.1888066 46.3353494,65.1958476 46.3410129,65.2024457 C46.4372761,65.3182724 46.5682371,65.4001354 46.7145917,65.4359679 L46.729918,65.4359679 L46.8008022,65.4359679 L46.9425705,65.4359679 L47.2261073,65.4493667 L47.8008439,65.4780784 L48.9369066,65.5335878 L59.6749023,66.0618838 L60.9335754,66.1250496 C61.443814,66.1505708 61.844214,66.5716765 61.8435751,67.0821076 L61.8435751,69.8652322 C61.844214,70.3756632 61.443814,70.796769 60.9335754,70.8222901 L59.6749023,70.885456 L48.9407382,71.3965249 L47.7912649,71.4520343 L47.2165283,71.480746 L46.9310758,71.4941448 L46.7893075,71.4941448 L46.7088443,71.4941448 L46.5804865,71.4941448 C45.1938972,71.5016313 43.8370181,71.0928558 42.6856881,70.3207918 L38.8311212,67.5280966 L31.4457557,62.1800566 Z" id="Path" fill="#00B49C"></path>
                                <path d="M182.191506,58.3499106 C181.643517,58.9852381 181.039534,59.5701161 180.386833,60.0974985 C179.459591,61.1215505 178.585991,62.2413083 177.693234,63.2806733 C175.585866,65.73457 172.945909,68.0487361 169.905553,69.2737703 C169.979361,70.6593661 169.902277,72.048873 169.675658,73.4178314 L169.769532,73.4178314 L170.005174,73.4178314 C171.751983,73.413053 173.458598,72.8937255 174.911508,71.9248209 L174.940245,71.9056798 L178.81397,69.0995858 L183.135989,65.9642639 C183.27201,65.3766303 183.432937,64.7928249 183.626431,64.2185901 L184.270136,62.2949036 C184.829946,60.6413409 184.599756,58.8225931 183.645589,57.3603127 C183.131121,57.6442383 182.644314,57.9755424 182.191506,58.3499106 Z" id="Path" fill="#232531"></path>
                                <path d="M185.084346,62.1781425 C185.183967,62.1054061 185.28742,62.0230991 185.381294,61.938878 C186.162587,61.2478567 186.628891,60.2689996 186.672976,59.2274028 C186.717062,58.185806 186.335134,57.1711104 185.61502,56.4166535 C184.178178,54.9140725 181.773864,54.8853607 180.212496,56.2730948 L173.415277,62.3102165 L171.715973,63.820454 L170.865363,64.5746157 L170.440058,64.9574389 L170.227405,65.1488505 L170.204416,65.1699057 L170.204416,65.1794763 C170.199878,65.1868925 170.194753,65.1939335 170.189089,65.2005316 C170.092826,65.3163583 169.961865,65.3982213 169.81551,65.4340537 L169.800184,65.4340537 L169.7293,65.4340537 L169.587532,65.4340537 L169.303995,65.4474526 L168.729258,65.4761643 L167.593196,65.5316737 L156.8552,66.0599697 L155.596527,66.1231355 C155.086288,66.1486567 154.685888,66.5697624 154.686527,67.0801935 L154.686527,69.8422628 C154.685888,70.3526939 155.086288,70.7737996 155.596527,70.7993208 L156.8552,70.8624866 L167.59128,71.3965249 L168.740753,71.4520343 L169.31549,71.480746 L169.600942,71.4941448 L169.742711,71.4941448 L169.823174,71.4941448 L169.930458,71.4941448 C171.317047,71.5016313 172.673926,71.0928558 173.825256,70.3207918 L177.679823,67.5280966 L185.084346,62.1781425 Z" id="Path" fill="#D12149"></path>
                            </g>
                            <ellipse id="Oval" fill="#FFD400" cx="144.385331" cy="2.29502502" rx="2.19166227" ry="2.18974865"></ellipse>
                            <ellipse id="Oval" fill="#848584" cx="159.809346" cy="17.8433889" rx="1" ry="1"></ellipse>
                            <ellipse id="Oval" fill="#15171B" cx="164.560502" cy="20.8638639" rx="1" ry="1"></ellipse>
                            <ellipse id="Oval" fill="#848584" cx="214.646882" cy="15.1368289" rx="1" ry="1"></ellipse>
                            <ellipse id="Oval" fill="#848584" cx="8.50227026" cy="7.9091271" rx="1" ry="1"></ellipse>
                            <ellipse id="Oval" fill="#15171B" cx="120.27513" cy="26.7937951" rx="1" ry="1"></ellipse>
                            <ellipse id="Oval" fill="#848584" cx="145.402615" cy="30.4344436" rx="1" ry="1"></ellipse>
                            <ellipse id="Oval" fill="#5E8516" cx="154.981559" cy="30.4344436" rx="2.19166227" ry="2.18974865"></ellipse>
                            <ellipse id="Oval" fill="#15171B" cx="202.876276" cy="30.4344436" rx="1" ry="1"></ellipse>
                            <ellipse id="Oval" fill="#15171B" cx="40.0342365" cy="40.0050234" rx="1" ry="1"></ellipse>
                            <ellipse id="Oval" fill="#5E8516" cx="91.084258" cy="28.9835437" rx="2.19166227" ry="2.18974865"></ellipse>
                            <ellipse id="Oval" fill="#848584" cx="109.90305" cy="8.64988998" rx="1" ry="1"></ellipse>
                            <ellipse id="Oval" fill="#15171B" cx="116.665785" cy="40.0050234" rx="1" ry="1"></ellipse>
                            <ellipse id="Oval" fill="#848584" cx="135.823672" cy="40.0050234" rx="1" ry="1"></ellipse>
                            <ellipse id="Oval" fill="#848584" cx="154.981559" cy="40.0050234" rx="1" ry="1"></ellipse>
                            <ellipse id="Oval" fill="#848584" cx="202.876276" cy="40.0050234" rx="1" ry="1"></ellipse>
                            <ellipse id="Oval" fill="#848584" cx="212.45522" cy="40.0050234" rx="1" ry="1"></ellipse>
                            <ellipse id="Oval" fill="#15171B" cx="183.718389" cy="59.1461829" rx="1" ry="1"></ellipse>
                            <ellipse id="Oval" fill="#15171B" cx="20.8763495" cy="78.2873423" rx="1" ry="1"></ellipse>
                            <ellipse id="Oval" fill="#5E8516" cx="40.0342365" cy="78.2873423" rx="2.19166227" ry="2.18974865"></ellipse>
                            <ellipse id="Oval" fill="#5E8516" cx="211.003052" cy="72.9201612" rx="2.19166227" ry="2.18974865"></ellipse>
                            <ellipse id="Oval" fill="#15171B" cx="193.385459" cy="79.8205492" rx="1" ry="1"></ellipse>
                            <ellipse id="Oval" fill="#848584" cx="1.89471503" cy="87.1171592" rx="1" ry="1"></ellipse>
                            <ellipse id="Oval" fill="#848584" cx="228.442476" cy="79.2731121" rx="1" ry="1"></ellipse>
                            <ellipse id="Oval" fill="#848584" cx="23.6523273" cy="98.1692647" rx="1" ry="1"></ellipse>
                            <ellipse id="Oval" fill="#15171B" cx="30.455293" cy="97.4285018" rx="1" ry="1"></ellipse>
                            <ellipse id="Oval" fill="#15171B" cx="202.876276" cy="97.4285018" rx="1" ry="1"></ellipse>
                            <ellipse id="Oval" fill="#848584" cx="209.27501" cy="98.4142716" rx="1" ry="1"></ellipse>
                            <ellipse id="Oval" fill="#FFFFFF" cx="210.269305" cy="109.424267" rx="2.19166227" ry="2.18974865"></ellipse>
                            <ellipse id="Oval" fill="#848584" cx="219.599196" cy="121.485111" rx="1" ry="1"></ellipse>
                            <ellipse id="Oval" fill="#848584" cx="78.3500105" cy="154.85198" rx="1" ry="1"></ellipse>
                            <ellipse id="Oval" fill="#848584" cx="20.8763495" cy="183.56372" rx="1" ry="1"></ellipse>
                            <ellipse id="Oval" fill="#FFD400" cx="30.455293" cy="183.56372" rx="2.19166227" ry="2.18974865"></ellipse>
                            <ellipse id="Oval" fill="#15171B" cx="49.61318" cy="183.56372" rx="1" ry="1"></ellipse>
                            <ellipse id="Oval" fill="#848584" cx="59.1921235" cy="183.56372" rx="1" ry="1"></ellipse>
                            <ellipse id="Oval" fill="#5E8516" cx="178.484454" cy="188.213107" rx="2.19166227" ry="2.18974865"></ellipse>
                            <ellipse id="Oval" fill="#848584" cx="211.719557" cy="185.753468" rx="1" ry="1"></ellipse>
                            <ellipse id="Oval" fill="#15171B" cx="1.0843364" cy="201.719109" rx="1" ry="1"></ellipse>
                            <ellipse id="Oval" fill="#848584" cx="16.5409196" cy="197.102262" rx="1" ry="1"></ellipse>
                            <ellipse id="Oval" fill="#848584" cx="49.61318" cy="193.134299" rx="1" ry="1"></ellipse>
                            <ellipse id="Oval" fill="#15171B" cx="145.402615" cy="193.134299" rx="1" ry="1"></ellipse>
                            <ellipse id="Oval" fill="#15171B" cx="193.297333" cy="193.134299" rx="1" ry="1"></ellipse>
                            <ellipse id="Oval" fill="#848584" cx="30.6602824" cy="209.944066" rx="1" ry="1"></ellipse>
                            <ellipse id="Oval" fill="#5E8516" cx="65.0946685" cy="209.944066" rx="2.19166227" ry="2.18974865"></ellipse>
                            <ellipse id="Oval" fill="#15171B" cx="59.1921235" cy="202.704879" rx="1" ry="1"></ellipse>
                            <ellipse id="Oval" fill="#5E8516" cx="126.244728" cy="202.704879" rx="2.19166227" ry="2.18974865"></ellipse>
                            <ellipse id="Oval" fill="#848584" cx="142.193669" cy="200.51513" rx="1" ry="1"></ellipse>
                            <ellipse id="Oval" fill="#848584" cx="193.297333" cy="202.704879" rx="1" ry="1"></ellipse>
                            <ellipse id="Oval" fill="#15171B" cx="202.876276" cy="202.704879" rx="1" ry="1"></ellipse>
                            <ellipse id="Oval" fill="#15171B" cx="28.2617149" cy="222.829894" rx="1" ry="1"></ellipse>
                            <ellipse id="Oval" fill="#848584" cx="69.5182246" cy="240.110533" rx="1" ry="1"></ellipse>
                            <ellipse id="Oval" fill="#15171B" cx="88.9213326" cy="221.606774" rx="1" ry="1"></ellipse>
                            <ellipse id="Oval" fill="#FFFFFF" cx="106.301368" cy="225.019643" rx="2.19166227" ry="2.18974865"></ellipse>
                            <ellipse id="Oval" fill="#15171B" cx="124.371087" cy="225.019643" rx="1" ry="1"></ellipse>
                            <ellipse id="Oval" fill="#848584" cx="134.522851" cy="220.866011" rx="1" ry="1"></ellipse>
                            <ellipse id="Oval" fill="#5E8516" cx="183.718389" cy="212.275459" rx="2.19166227" ry="2.18974865"></ellipse>
                            <ellipse id="Oval" fill="#848584" cx="193.552132" cy="229.23644" rx="1" ry="1"></ellipse>
                            <ellipse id="Oval" fill="#848584" cx="233.938874" cy="230.874924" rx="1" ry="1"></ellipse>
                            <g id="Group" transform="translate(12.261048, 17.418455)">
                                <rect id="Rectangle" fill="#D12149" x="0.0229894644" y="32.1724609" width="19.157887" height="19.1411595" rx="9.57057975"></rect>
                                <rect id="Rectangle" fill="#00B49C" x="180.099464" y="39.8289247" width="11.4947322" height="11.4846957" rx="5.74234785"></rect>
                                <path d="M71.6504974,170.781253 L67.4070255,178.123802 C67.0169376,178.798864 67.0168885,179.630563 67.4068966,180.305671 C67.7969048,180.980779 68.5177332,181.396756 69.2979089,181.39694 L76.5894007,181.39694 C77.3695764,181.396756 78.0904049,180.980779 78.480413,180.305671 C78.8704211,179.630563 78.870372,178.798864 78.4802842,178.123802 L74.2368122,170.781253 C73.9696293,170.320247 73.4768388,170.036403 72.9436548,170.036403 C72.4104708,170.036403 71.9176803,170.320247 71.6504974,170.781253 Z" id="Path" fill="#FFD400"></path>
                                <path d="M42.0726357,20.3393961 C40.4461721,20.3387401 38.980101,19.3596861 38.3575162,17.8584095 C37.7349314,16.3571329 38.0783216,14.6289985 39.2276894,13.4792045 C39.9011452,12.8047511 39.8998586,11.7125315 39.2248158,11.0396637 C38.5497729,10.366796 37.4565988,10.3680815 36.7831431,11.0425349 C35.7667417,12.0580488 34.2853044,12.4546522 32.8968743,12.0829483 C31.5084441,11.7112444 30.4239568,10.6277039 30.051928,9.2404861 C29.6798993,7.85326827 30.0768492,6.37312447 31.0932506,5.35761054 C31.5289001,4.92234145 31.6990406,4.2879229 31.5395819,3.69333423 C31.3801231,3.09874556 30.9152906,2.63431894 30.3201823,2.4749994 C29.7250741,2.31567985 29.0901011,2.48567181 28.6544516,2.92094094 C28.3647007,3.21483374 27.9394467,3.33088111 27.5403984,3.22495445 C27.1413501,3.11902779 26.8298197,2.80740232 26.7242708,2.40857788 C26.618722,2.00975345 26.7353719,1.58500788 27.0298628,1.2958565 C28.6010832,-0.273991939 31.1485348,-0.273991901 32.7197551,1.29585658 C34.2909755,2.86570507 34.2909756,5.41093234 32.7197552,6.98078087 C32.0462995,7.6536486 32.0462995,8.74458274 32.7197552,9.41745047 C33.393211,10.0903182 34.4850985,10.0903182 35.1585542,9.41745047 C36.7297747,7.84760196 39.2772263,7.84760196 40.8484467,9.41745047 C42.4196671,10.987299 42.4196671,13.5325263 40.8484467,15.1023748 C40.4127972,15.5393536 40.2435696,16.1753519 40.4045102,16.7707953 C40.5654509,17.3662388 41.0321091,17.8306654 41.6286992,17.9891301 C42.2252893,18.1475949 42.8611752,17.9760232 43.2968247,17.5390444 C43.5865756,17.2451516 44.0118295,17.1291043 44.4108778,17.2350309 C44.8099261,17.3409576 45.1214566,17.6525831 45.2270054,18.0514075 C45.3325543,18.4502319 45.2159044,18.8749775 44.9214135,19.1641289 C44.1663321,19.9192534 43.1409754,20.3422657 42.0726357,20.3393961 Z" id="Path" fill="#00B49C"></path>
                                <path d="M159.345725,30.7808986 C157.908346,30.7811188 156.529876,30.2102419 155.514148,29.1940965 C154.912773,28.5880511 154.914666,27.6103766 155.518383,27.0066602 C156.122099,26.4029438 157.100626,26.4001992 157.707726,27.0005196 C158.621136,27.8813654 160.072506,27.8685239 160.97016,26.971654 C161.867814,26.0747841 161.880666,24.624681 160.999051,23.7120684 C159.599178,22.3469722 159.042156,20.3352216 159.540786,18.4453771 C160.039415,16.5555326 161.516658,15.0795798 163.408154,14.5813855 C165.29965,14.0831911 167.313159,14.6397274 168.679448,16.0383775 C169.263797,16.6432719 170.129396,16.8859857 170.943424,16.673196 C171.757452,16.4604064 172.39317,15.8252435 172.606146,15.0119259 C172.819122,14.1986084 172.576196,13.3337651 171.970773,12.7499263 C169.893602,10.6235569 169.914258,7.22355323 172.017113,5.12253502 C174.119967,3.02151682 177.522942,3.00087823 179.65117,5.0762355 C180.044041,5.46910603 180.197293,6.04154493 180.053195,6.57791999 C179.909098,7.11429505 179.489544,7.53311812 178.952575,7.6766226 C178.415606,7.82012707 177.8428,7.66651121 177.449928,7.27364061 C176.536518,6.3927948 175.085148,6.40563634 174.187494,7.30250621 C173.289841,8.19937609 173.276988,9.64947919 174.158603,10.5620918 C175.616249,11.9138957 176.217836,13.9535925 175.726811,15.8791338 C175.235786,17.8046751 173.730682,19.3080897 171.803335,19.7982057 C169.875989,20.2883218 167.83466,19.6867501 166.482038,18.2300403 C165.897689,17.625146 165.03209,17.3824322 164.218062,17.5952218 C163.404033,17.8080115 162.768315,18.4431743 162.55534,19.2564919 C162.342364,20.0698095 162.58529,20.9346527 163.190713,21.5184915 C164.742608,23.0689358 165.207653,25.4003812 164.369219,27.4267837 C163.530784,29.4531862 161.553777,30.7759835 159.359136,30.7789845 L159.345725,30.7808986 Z" id="Path" fill="#FFD400"></path>
                                <path d="M142.936995,199.711202 C142.006596,199.711933 141.167485,199.152294 140.811338,198.293508 C140.45519,197.434723 140.652233,196.446129 141.31049,195.789178 L157.567873,179.544076 C158.467225,178.64551 159.925362,178.64551 160.824714,179.544076 C161.724066,180.442643 161.724066,181.899507 160.824714,182.798073 L144.569247,199.039347 C144.136334,199.471408 143.548887,199.713208 142.936995,199.711202 Z" id="Path" fill="#D12149"></path>
                            </g>
                        </g>
                    </g>
                </g>
            </g>
        </g>
    </g>
</svg>