<?xml version="1.0" encoding="UTF-8"?>
<svg width="588px" height="422px" viewBox="0 0 588 422" version="1.1" xmlns="http://www.w3.org/2000/svg" xmlns:xlink="http://www.w3.org/1999/xlink">
    <!-- Generator: sketchtool 52.4 (67378) - http://www.bohemiancoding.com/sketch -->
    <title>9E259746-BD38-4382-BBE0-D0A8973C6AA3</title>
    <desc>Created with sketchtool.</desc>
    <g id="Assets" stroke="none" stroke-width="1" fill="none" fill-rule="evenodd">
        <g id="01.-Illustrations" transform="translate(-120.000000, -1354.000000)">
            <g id="01.2-Wishlist_Desktop_Tablet" transform="translate(120.000000, 1354.000000)">
                <g id="Background" fill="#2D3040" fill-rule="nonzero">
                    <rect id="Rectangle" x="-1.13686838e-13" y="0" width="588" height="422"></rect>
                </g>
                <g id="Characters" transform="translate(28.000000, 22.000000)">
                    <ellipse id="Oval" fill="#FFD400" cx="174.990313" cy="32.8974698" rx="3.65544787" ry="3.64702058"></ellipse>
                    <ellipse id="Oval" fill="#5E8516" cx="338.969354" cy="14.6269933" rx="3.65544787" ry="3.64702058"></ellipse>
                    <ellipse id="Oval" fill="#5E8516" cx="416.168855" cy="66.3548631" rx="3.65544787" ry="3.64702058"></ellipse>
                    <ellipse id="Oval" fill="#5E8516" cx="113.909085" cy="123.273524" rx="3.65544787" ry="3.64702058"></ellipse>
                    <ellipse id="Oval" fill="#5E8516" cx="487.17785" cy="174.391964" rx="3.65544787" ry="3.64702058"></ellipse>
                    <ellipse id="Oval" fill="#FFFFFF" cx="30.300999" cy="177.058115" rx="3.65544787" ry="3.64702058"></ellipse>
                    <ellipse id="Oval" fill="#5E8516" cx="400.267125" cy="237.13921" rx="3.65544787" ry="3.64702058"></ellipse>
                    <ellipse id="Oval" fill="#5E8516" cx="33.3385185" cy="299.202233" rx="3.65544787" ry="3.64702058"></ellipse>
                    <ellipse id="Oval" fill="#FFFFFF" cx="277.901038" cy="298.199646" rx="3.65544787" ry="3.64702058"></ellipse>
                    <ellipse id="Oval" fill="#5E8516" cx="457.994806" cy="283.886457" rx="3.65544787" ry="3.64702058"></ellipse>
                    <ellipse id="Oval" fill="#FFD400" cx="463.455672" cy="328.700297" rx="3.65544787" ry="3.64702058"></ellipse>
                    <ellipse id="Oval" fill="#5E8516" cx="307.084081" cy="368.946893" rx="3.65544787" ry="3.64702058"></ellipse>
                    <ellipse id="Oval" fill="#15171B" cx="157.262632" cy="32.8974698" rx="1.82595117" ry="1.82174161"></ellipse>
                    <ellipse id="Oval" fill="#15171B" cx="224.717994" cy="40.8974698" rx="1.82595117" ry="1.82174161"></ellipse>
                    <ellipse id="Oval" fill="#15171B" cx="295.628719" cy="32.8974698" rx="1.82595117" ry="1.82174161"></ellipse>
                    <ellipse id="Oval" fill="#15171B" cx="366.539444" cy="32.8974698" rx="1.82595117" ry="1.82174161"></ellipse>
                    <ellipse id="Oval" fill="#15171B" cx="392.267125" cy="40.8974698" rx="1.82595117" ry="1.82174161"></ellipse>
                    <ellipse id="Oval" fill="#15171B" cx="206.990313" cy="50.5842815" rx="1.82595117" ry="1.82174161"></ellipse>
                    <ellipse id="Oval" fill="#15171B" cx="503.17785" cy="66.5842815" rx="1.82595117" ry="1.82174161"></ellipse>
                    <ellipse id="Oval" fill="#15171B" cx="503.17785" cy="84.2710932" rx="1.82595117" ry="1.82174161"></ellipse>
                    <ellipse id="Oval" fill="#15171B" cx="28.6242256" cy="53.957905" rx="1.82595117" ry="1.82174161"></ellipse>
                    <ellipse id="Oval" fill="#15171B" cx="137.807269" cy="121.331528" rx="1.82595117" ry="1.82174161"></ellipse>
                    <ellipse id="Oval" fill="#15171B" cx="366.539444" cy="121.331528" rx="1.82595117" ry="1.82174161"></ellipse>
                    <ellipse id="Oval" fill="#15171B" cx="384.267125" cy="121.331528" rx="1.82595117" ry="1.82174161"></ellipse>
                    <ellipse id="Oval" fill="#15171B" cx="489.614639" cy="116.789555" rx="1.82595117" ry="1.82174161"></ellipse>
                    <ellipse id="Oval" fill="#15171B" cx="137.807269" cy="139.01834" rx="1.82595117" ry="1.82174161"></ellipse>
                    <ellipse id="Oval" fill="#15171B" cx="155.53495" cy="139.01834" rx="1.82595117" ry="1.82174161"></ellipse>
                    <ellipse id="Oval" fill="#15171B" cx="153.807269" cy="209.765587" rx="1.82595117" ry="1.82174161"></ellipse>
                    <ellipse id="Oval" fill="#15171B" cx="348.811763" cy="227.452399" rx="1.82595117" ry="1.82174161"></ellipse>
                    <ellipse id="Oval" fill="#15171B" cx="433.994806" cy="219.452399" rx="1.82595117" ry="1.82174161"></ellipse>
                    <ellipse id="Oval" fill="#15171B" cx="84.6242256" cy="245.13921" rx="1.82595117" ry="1.82174161"></ellipse>
                    <ellipse id="Oval" fill="#15171B" cx="171.53495" cy="245.13921" rx="1.82595117" ry="1.82174161"></ellipse>
                    <ellipse id="Oval" fill="#15171B" cx="153.807269" cy="262.826022" rx="1.82595117" ry="1.82174161"></ellipse>
                    <ellipse id="Oval" fill="#15171B" cx="277.901038" cy="280.512834" rx="1.82595117" ry="1.82174161"></ellipse>
                    <ellipse id="Oval" fill="#15171B" cx="224.717994" cy="298.199646" rx="1.82595117" ry="1.82174161"></ellipse>
                    <ellipse id="Oval" fill="#15171B" cx="63.9144832" cy="331.61306" rx="1.82595117" ry="1.82174161"></ellipse>
                    <ellipse id="Oval" fill="#15171B" cx="120.079588" cy="323.886457" rx="1.82595117" ry="1.82174161"></ellipse>
                    <ellipse id="Oval" fill="#15171B" cx="206.990313" cy="315.886457" rx="1.82595117" ry="1.82174161"></ellipse>
                    <ellipse id="Oval" fill="#15171B" cx="137.807269" cy="341.573269" rx="1.82595117" ry="1.82174161"></ellipse>
                    <ellipse id="Oval" fill="#15171B" cx="366.539444" cy="333.573269" rx="1.82595117" ry="1.82174161"></ellipse>
                    <ellipse id="Oval" fill="#15171B" cx="393.994806" cy="277.573269" rx="1.82595117" ry="1.82174161"></ellipse>
                    <ellipse id="Oval" fill="#15171B" cx="427.722488" cy="269.573269" rx="1.82595117" ry="1.82174161"></ellipse>
                    <ellipse id="Oval" fill="#15171B" cx="419.722488" cy="351.260081" rx="1.82595117" ry="1.82174161"></ellipse>
                    <ellipse id="Oval" fill="#15171B" cx="471.17785" cy="343.260081" rx="1.82595117" ry="1.82174161"></ellipse>
                    <ellipse id="Oval" fill="#15171B" cx="58.3682594" cy="369.447684" rx="1.82595117" ry="1.82174161"></ellipse>
                    <ellipse id="Oval" fill="#15171B" cx="255.730535" cy="361.447684" rx="1.82595117" ry="1.82174161"></ellipse>
                    <ellipse id="Oval" fill="#15171B" cx="348.811763" cy="384.946893" rx="1.82595117" ry="1.82174161"></ellipse>
                    <ellipse id="Oval" fill="#15171B" cx="445.450169" cy="373.097063" rx="1.82595117" ry="1.82174161"></ellipse>
                    <ellipse id="Oval" fill="#848584" cx="262.768689" cy="1.78990535" rx="1.46076093" ry="1.45739329"></ellipse>
                    <ellipse id="Oval" fill="#848584" cx="455.17785" cy="32.8974698" rx="1.46076093" ry="1.45739329"></ellipse>
                    <ellipse id="Oval" fill="#848584" cx="43.8290204" cy="9.92077103" rx="1.46076093" ry="1.45739329"></ellipse>
                    <ellipse id="Oval" fill="#848584" cx="260.173357" cy="68.2710932" rx="1.46076093" ry="1.45739329"></ellipse>
                    <ellipse id="Oval" fill="#848584" cx="171.53495" cy="85.957905" rx="1.46076093" ry="1.45739329"></ellipse>
                    <ellipse id="Oval" fill="#848584" cx="46.3519068" cy="71.6447167" rx="1.46076093" ry="1.45739329"></ellipse>
                    <ellipse id="Oval" fill="#848584" cx="384.267125" cy="103.644717" rx="1.46076093" ry="1.45739329"></ellipse>
                    <ellipse id="Oval" fill="#848584" cx="458.91511" cy="109.584458" rx="1.46076093" ry="1.45739329"></ellipse>
                    <ellipse id="Oval" fill="#848584" cx="189.262632" cy="139.01834" rx="1.46076093" ry="1.45739329"></ellipse>
                    <ellipse id="Oval" fill="#848584" cx="366.539444" cy="139.01834" rx="1.46076093" ry="1.45739329"></ellipse>
                    <ellipse id="Oval" fill="#848584" cx="60.6277711" cy="140.475733" rx="1.46076093" ry="1.45739329"></ellipse>
                    <ellipse id="Oval" fill="#848584" cx="81.9564469" cy="171.244221" rx="1.46076093" ry="1.45739329"></ellipse>
                    <ellipse id="Oval" fill="#848584" cx="105.807269" cy="190.391964" rx="1.46076093" ry="1.45739329"></ellipse>
                    <ellipse id="Oval" fill="#848584" cx="2.36825943" cy="174.617845" rx="1.46076093" ry="1.45739329"></ellipse>
                    <ellipse id="Oval" fill="#848584" cx="384.267125" cy="192.078775" rx="1.46076093" ry="1.45739329"></ellipse>
                    <ellipse id="Oval" fill="#848584" cx="437.450169" cy="192.078775" rx="1.46076093" ry="1.45739329"></ellipse>
                    <ellipse id="Oval" fill="#848584" cx="455.17785" cy="144.078775" rx="1.46076093" ry="1.45739329"></ellipse>
                    <ellipse id="Oval" fill="#848584" cx="189.262632" cy="227.452399" rx="1.46076093" ry="1.45739329"></ellipse>
                    <ellipse id="Oval" fill="#848584" cx="206.990313" cy="227.452399" rx="1.46076093" ry="1.45739329"></ellipse>
                    <ellipse id="Oval" fill="#848584" cx="189.262632" cy="245.13921" rx="1.46076093" ry="1.45739329"></ellipse>
                    <ellipse id="Oval" fill="#848584" cx="366.539444" cy="245.13921" rx="1.46076093" ry="1.45739329"></ellipse>
                    <ellipse id="Oval" fill="#848584" cx="400.267125" cy="254.826022" rx="1.46076093" ry="1.45739329"></ellipse>
                    <ellipse id="Oval" fill="#848584" cx="72.5387627" cy="232.012042" rx="1.46076093" ry="1.45739329"></ellipse>
                    <ellipse id="Oval" fill="#848584" cx="102.351907" cy="280.512834" rx="1.46076093" ry="1.45739329"></ellipse>
                    <ellipse id="Oval" fill="#848584" cx="475.722488" cy="248.512834" rx="1.46076093" ry="1.45739329"></ellipse>
                    <ellipse id="Oval" fill="#848584" cx="68.6242256" cy="274.199646" rx="1.46076093" ry="1.45739329"></ellipse>
                    <ellipse id="Oval" fill="#848584" cx="136.079588" cy="298.199646" rx="1.46076093" ry="1.45739329"></ellipse>
                    <ellipse id="Oval" fill="#848584" cx="331.084081" cy="298.199646" rx="1.46076093" ry="1.45739329"></ellipse>
                    <ellipse id="Oval" fill="#848584" cx="384.267125" cy="298.199646" rx="1.46076093" ry="1.45739329"></ellipse>
                    <ellipse id="Oval" fill="#848584" cx="153.807269" cy="315.886457" rx="1.46076093" ry="1.45739329"></ellipse>
                    <ellipse id="Oval" fill="#848584" cx="260.173357" cy="315.886457" rx="1.46076093" ry="1.45739329"></ellipse>
                    <ellipse id="Oval" fill="#848584" cx="348.811763" cy="315.886457" rx="1.46076093" ry="1.45739329"></ellipse>
                    <ellipse id="Oval" fill="#848584" cx="384.267125" cy="315.886457" rx="1.46076093" ry="1.45739329"></ellipse>
                    <ellipse id="Oval" fill="#848584" cx="475.722488" cy="283.886457" rx="1.46076093" ry="1.45739329"></ellipse>
                    <ellipse id="Oval" fill="#848584" cx="471.17785" cy="307.886457" rx="1.46076093" ry="1.45739329"></ellipse>
                    <ellipse id="Oval" fill="#848584" cx="189.262632" cy="351.260081" rx="1.46076093" ry="1.45739329"></ellipse>
                    <ellipse id="Oval" fill="#848584" cx="171.53495" cy="358.680681" rx="1.46076093" ry="1.45739329"></ellipse>
                    <ellipse id="Oval" fill="#848584" cx="289.3564" cy="368.946893" rx="1.46076093" ry="1.45739329"></ellipse>
                    <ellipse id="Oval" fill="#848584" cx="496.535525" cy="325.601568" rx="1.46076093" ry="1.45739329"></ellipse>
                    <ellipse id="Oval" fill="#848584" cx="205.164362" cy="372.763706" rx="1.46076093" ry="1.45739329"></ellipse>
                    <ellipse id="Oval" fill="#848584" cx="387.824568" cy="382.192408" rx="1.46076093" ry="1.45739329"></ellipse>
                    <g id="Group" transform="translate(85.519023, 39.482525)">
                        <rect id="Rectangle" fill="#FFD400" x="422.396087" y="179.845028" width="27.873577" height="27.7885684" rx="13.8942842"></rect>
                        <path d="M35.5804638,323.79508 L26.8582378,338.656843 C26.0565058,340.023067 26.0564049,341.706301 26.857973,343.072618 C27.6595412,344.438935 29.1410311,345.280809 30.744495,345.281182 L45.7319818,345.281182 C47.3354458,345.280809 48.8169357,344.438935 49.6185039,343.072618 C50.420072,341.706301 50.4199711,340.023067 49.6182391,338.656843 L40.8960131,323.79508 C40.3468828,322.862073 39.3340703,322.287615 38.2382384,322.287615 C37.1424066,322.287615 36.1295941,322.862073 35.5804638,323.79508 Z" id="Path" fill="#00B49C"></path>
                        <path d="M34.9186638,219.512534 C33.6262878,219.512534 32.5786099,218.467271 32.5786099,217.177875 C32.5727482,212.022713 28.3854687,207.845086 23.2183942,207.839238 C21.9260181,207.839238 20.8783403,206.793976 20.8783403,205.504579 C20.8783403,204.215182 21.9260181,203.16992 23.2183942,203.16992 C28.3854687,203.164072 32.5727482,198.986446 32.5786099,193.831283 C32.57861,192.541887 33.6262878,191.496624 34.9186638,191.496624 C36.2110399,191.496624 37.2587177,192.541887 37.2587178,193.831283 C37.2587144,198.990589 41.447709,203.174676 46.6189335,203.180532 C47.9113096,203.180532 48.9589874,204.225794 48.9589874,205.515191 C48.9589874,206.804588 47.9113096,207.84985 46.6189335,207.84985 C41.451859,207.855698 37.2645795,212.033325 37.2587178,217.188487 C37.2528622,218.473737 36.2068975,219.512547 34.9186638,219.512534 Z" id="Path" fill="#FFD400"></path>
                        <path d="M103.747154,268.904724 C102.807244,268.904724 102.045297,268.144533 102.045297,267.20679 C102.041388,263.457435 98.9958863,260.418954 95.2378669,260.415055 C94.297957,260.415055 93.5360095,259.654864 93.5360095,258.717121 C93.5360095,257.779378 94.297957,257.019187 95.2378669,257.019187 C98.9958863,257.015287 102.041388,253.976807 102.045297,250.227451 C102.045297,249.289708 102.807244,248.529517 103.747154,248.529517 C104.687064,248.529517 105.449011,249.289708 105.449011,250.227451 C105.45292,253.976807 108.498421,257.015287 112.256441,257.019187 C113.196351,257.019187 113.958298,257.779378 113.958298,258.717121 C113.958298,259.654864 113.196351,260.415055 112.256441,260.415055 C108.498421,260.418954 105.45292,263.457435 105.449011,267.20679 C105.449011,268.144533 104.687064,268.904724 103.747154,268.904724 Z" id="Path" fill="#D12149"></path>
                        <path d="M192.172828,21.2893602 C191.232918,21.2893602 190.47097,20.5291693 190.47097,19.5914263 C190.467062,15.8420706 187.42156,12.8035901 183.663541,12.7996906 C182.723631,12.7996906 181.961683,12.0394997 181.961683,11.1017567 C181.961683,10.1640136 182.723631,9.40382273 183.663541,9.40382273 C187.42156,9.39992325 190.467062,6.36144268 190.47097,2.61208703 C190.47097,1.67434402 191.232918,0.914153108 192.172828,0.914153108 C193.112738,0.914153108 193.874685,1.67434402 193.874685,2.61208703 C193.878594,6.36144268 196.924095,9.39992325 200.682115,9.40382273 C201.622025,9.40382273 202.383972,10.1640136 202.383972,11.1017567 C202.383972,12.0394997 201.622025,12.7996906 200.682115,12.7996906 C196.924095,12.8035901 193.878594,15.8420706 193.874685,19.5914263 C193.874685,20.5291693 193.112738,21.2893602 192.172828,21.2893602 Z" id="Path" fill="#D12149"></path>
                        <path d="M334.20701,106.398298 C333.574529,106.398298 333.061802,105.886753 333.061802,105.25573 C333.050156,102.73256 331.002879,100.690002 328.473878,100.678383 C327.840418,100.678383 327.326897,100.166046 327.326897,99.5340466 C327.326897,98.9020469 327.840418,98.3897099 328.473878,98.3897099 C331.002879,98.3780911 333.050156,96.3355335 333.061802,93.812363 C333.061802,93.1803633 333.575323,92.6680263 334.208783,92.6680263 C334.842243,92.6680263 335.355764,93.1803633 335.355764,93.812363 C335.367409,96.3355335 337.414687,98.3780911 339.943687,98.3897099 C340.577148,98.3897099 341.090668,98.9020469 341.090668,99.5340466 C341.090668,100.166046 340.577148,100.678383 339.943687,100.678383 C337.414687,100.690002 335.367409,102.73256 335.355764,105.25573 C335.355765,105.559372 335.234623,105.850526 335.019087,106.064901 C334.803552,106.279276 334.511352,106.399238 334.20701,106.398298 Z" id="Path" fill="#00B49C"></path>
                        <g transform="translate(0.836429, 0.000000)" id="Path">
                            <path d="M374.599877,50.4251002 C371.939729,50.4255071 369.388605,49.370504 367.508804,47.4926268 C366.395844,46.372631 366.399347,44.5658497 367.516642,43.4501577 C368.633936,42.3344657 370.444888,42.3293937 371.568443,43.4388096 C373.258885,45.0666477 375.944925,45.042916 377.606207,43.3854648 C379.267488,41.7280136 379.291274,39.0481655 377.659675,37.3616211 C374.946204,34.8692191 373.81887,31.0943152 374.72257,27.5266593 C375.626271,23.9590034 378.415838,21.171696 381.99038,20.2647361 C385.564923,19.3577763 389.350234,20.4768561 391.852456,23.1803354 C392.933907,24.2982042 394.535865,24.7467489 396.042381,24.3535052 C397.548897,23.9602615 398.725416,22.7864553 399.119568,21.2834121 C399.513721,19.7803689 399.064139,18.1821042 397.943687,17.1031469 C394.099482,13.1735316 394.137711,6.89018979 398.029449,3.00742465 C401.921186,-0.875340486 408.219047,-0.913481406 412.157742,2.9218613 C413.270702,4.04185717 413.267199,5.84863846 412.149905,6.96433042 C411.032611,8.08002239 409.221658,8.08509443 408.098103,6.97567854 C407.016653,5.85780976 405.414695,5.40926504 403.908179,5.80250874 C402.401662,6.19575244 401.225144,7.36955871 400.830991,8.87260191 C400.436839,10.3756451 400.88642,11.9739098 402.006872,13.0528671 C404.631578,15.5673512 405.689216,19.3007742 404.772094,22.8139985 C403.854973,26.3272228 401.106317,29.0715951 397.585662,29.9892313 C394.065007,30.9068675 390.322166,29.8544621 387.799908,27.2376901 C386.718458,26.1198213 385.1165,25.6712765 383.609984,26.0645203 C382.103467,26.457764 380.926949,27.6315702 380.532796,29.1346134 C380.138644,30.6376566 380.588225,32.2359213 381.708677,33.3148786 C384.580758,36.1801612 385.441414,40.4887651 383.889729,44.2336374 C382.338044,47.9785096 378.679211,50.4230917 374.617605,50.4286376 L374.599877,50.4251002 Z" fill="#FFD400"></path>
                            <path d="M27.8111863,51.364525 C29.7317495,51.3646062 31.5730914,50.6007406 32.9273951,49.2421076 C33.7351301,48.4362347 33.73513,47.1296566 32.927395,46.3237837 C32.11966,45.5179109 30.8100628,45.5179108 30.0023277,46.3237836 C28.7765155,47.4197269 26.9062006,47.3697841 25.7409018,46.2099913 C24.5756029,45.0501985 24.5210034,43.1843222 25.6164994,41.9586785 C27.4449781,40.1344152 28.1590804,37.4754935 27.4898107,34.9835034 C26.8205411,32.4915133 24.8695775,30.5450475 22.3718291,29.8773208 C19.8740807,29.2095941 17.2090149,29.9220501 15.3805362,31.7463134 C14.5970835,32.528592 13.4548383,32.8344437 12.3840733,32.5486571 C11.3133084,32.2628706 10.4766984,31.4288635 10.1893863,30.3607984 C9.9020742,29.2927333 10.2077095,28.1528747 10.9911624,27.3705962 C13.8177454,24.5505294 13.8177453,19.978298 10.9911622,17.1582313 C8.1645791,14.3381646 3.58178242,14.3381645 0.75519922,17.1582311 C-0.052535839,17.964104 -0.052535839,19.2706821 0.75519922,20.076555 C1.56293428,20.8824279 2.87253156,20.8824279 3.68026662,20.076555 C4.90027232,18.9223909 6.81974524,18.9478367 8.00858335,20.1339341 C9.19742146,21.3200314 9.22292606,23.2350792 8.06609496,24.4522723 C6.23761616,26.2765356 5.52351387,28.9354573 6.19278352,31.4274474 C6.86205316,33.9194375 8.81301676,35.8659033 11.3107652,36.5336301 C13.8085136,37.2013568 16.4735794,36.4889008 18.3020581,34.6646374 C19.5131712,33.4553396 21.4775671,33.4545477 22.6896592,34.6628687 C23.9017513,35.8711896 23.902545,37.8310568 22.691432,39.0403546 C20.6187949,41.103906 19.9976653,44.2106326 21.1181212,46.9096407 C22.2385771,49.6086489 24.8795419,51.3673989 27.8076408,51.364525 L27.8111863,51.364525 Z" fill="#FFFFFF"></path>
                        </g>
                        <path d="M338.751647,297.965159 C337.811738,297.965159 337.04979,297.204969 337.04979,296.267226 C337.045881,292.51787 334.00038,289.479389 330.24236,289.47549 C329.302451,289.47549 328.540503,288.715299 328.540503,287.777556 C328.540503,286.839813 329.302451,286.079622 330.24236,286.079622 C334.00038,286.075723 337.045881,283.037242 337.04979,279.287886 C337.04979,278.350143 337.811738,277.589952 338.751647,277.589952 C339.691557,277.589952 340.453505,278.350143 340.453505,279.287886 C340.457413,283.037242 343.502915,286.075723 347.260934,286.079622 C348.200844,286.079622 348.962792,286.839813 348.962792,287.777556 C348.962792,288.715299 348.200844,289.47549 347.260934,289.47549 C343.502915,289.479389 340.457413,292.51787 340.453505,296.267226 C340.453505,296.717546 340.274202,297.149422 339.955042,297.467846 C339.635882,297.786271 339.203008,297.965159 338.751647,297.965159 Z" id="Path" fill="#FFFFFF"></path>
                    </g>
                    <g id="Group" transform="translate(175.793139, 50.339447)">
                        <g transform="translate(154.585380, 0.707472)">
                            <g transform="translate(30.846165, 0.000000)" fill="#8C522A">
                                <rect id="Rectangle" x="2.87542989" y="9.18653001" width="5.30766776" height="6.57949396"></rect>
                                <ellipse id="Oval" cx="5.52749101" cy="5.48998636" rx="5.21193828" ry="5.19992265"></ellipse>
                            </g>
                            <path d="M8.13346015,39.4663517 C7.89236368,39.4663517 7.63708507,39.4663517 7.39244307,39.4663517 C3.15907279,39.6396824 -0.0992750149,43.0886107 0.241096465,47.1105917 C0.563740263,50.9380178 4.16955062,53.7820571 8.2362807,53.6122637 L23.723183,52.9755385 L27.5949086,52.8163572 L28.56284,52.7774462 C28.9173936,52.7774462 29.0875794,52.7491473 29.8108687,52.7385352 L31.5836369,52.7031616 L32.4735665,52.7031616 L33.3493139,52.6465638 C33.9023272,52.5889508 34.4499983,52.4884211 34.9873517,52.345888 C35.2449998,52.288703 35.4984897,52.2142495 35.7460964,52.1230341 C35.9907384,52.0416748 36.2353804,51.9426287 36.4764769,51.8365078 C36.9651887,51.6234445 37.4328699,51.3652733 37.8734182,51.0653628 C38.3232276,50.7674197 38.7445638,50.4287596 39.1320835,50.0536772 C39.9067654,49.3058502 40.5439789,48.4282594 41.0147633,47.4607906 C41.2375607,46.9875362 41.4202043,46.4964819 41.5607759,45.9927852 C41.6343002,45.7418812 41.6923197,45.4867114 41.7345071,45.2287149 C41.7932561,44.966253 41.8358819,44.7004559 41.8621464,44.4328084 L41.9330572,43.7465601 L41.9330572,43.0390876 C41.9330572,42.5650811 41.9153295,42.0769251 41.9046929,41.5993812 L41.865692,40.1667494 L41.8479643,39.5229495 L41.8302366,39.1232275 L41.6777786,35.9113025 L41.376408,29.4874525 L40.7736668,16.6362151 L40.6743918,14.6588296 C40.6271187,13.7167117 39.8471003,12.9774026 38.9016237,12.9785824 L33.8208702,12.9785824 C32.8753936,12.9774026 32.0953752,13.7167117 32.0481021,14.6588296 L31.9488271,16.6362151 L31.3460859,29.4874525 L31.0447154,35.9113025 L30.8922573,39.1232275 L30.8745296,39.5229495 C30.8745296,39.5229495 30.9418948,40.7716384 29.3074026,40.6230692 L29.2719472,40.6230692 L29.052124,40.6230692 L28.5663855,40.5983076 L27.5949086,40.5487846 L23.6948187,40.3436175 L8.13346015,39.4663517 Z" id="Path" fill="#00B49C"></path>
                        </g>
                        <path d="M189.824465,106.76467 L143.424032,106.76467 C137.285413,106.758165 131.847825,102.812154 129.950994,96.9874008 L115.584482,52.961389 C111.329838,39.9262088 92.8540487,39.9262088 88.6100418,52.961389 L74.2860754,96.9874008 C72.3892444,102.812154 66.9516572,106.758165 60.8130377,106.76467 L14.3984227,106.76467 C0.659469742,106.76467 -5.05238915,124.302913 6.06286698,132.361024 L35.4553625,153.655946 L35.4553625,153.16779 L37.5259556,153.16779 L37.5259556,155.169937 L43.0038091,159.138857 L52.6193034,159.138857 L52.6193034,170.854601 L49.4566851,170.854601 C49.4677154,172.388764 49.2282107,173.914476 48.7475778,175.371813 L34.4129748,219.415512 C30.1583313,232.450692 45.1240398,243.292707 56.2357504,235.234596 L93.7723426,208.025205 C98.7412968,204.426041 105.467409,204.426041 110.436363,208.025205 L147.983592,235.234596 C159.098848,243.292707 174.05392,232.450692 169.806367,219.415512 L155.471764,175.3895 C155.041262,174.06771 154.808301,172.689852 154.780385,171.300309 L147.629038,171.300309 L147.629038,161.264812 L158.687566,161.264812 C159.276645,160.643105 159.921026,160.075984 160.612792,159.570415 L166.877754,155.028442 L166.877754,152.552288 L168.905801,152.552288 L168.905801,153.556899 L198.163566,132.332725 C209.275277,124.302913 203.563418,106.76467 189.824465,106.76467 Z" id="Path" fill="#FFFFFF"></path>
                        <path d="M115.584482,49.4240267 L129.92263,93.4500384 C131.819461,99.2747913 137.257048,103.220802 143.395668,103.227308 L189.824465,103.227308 C203.563418,103.227308 209.275277,120.76555 198.160021,128.823662 L160.612792,156.033053 C155.642449,159.636138 153.562673,166.022452 155.461128,171.852137 L169.799276,215.878149 C174.05392,228.913329 159.088211,239.755345 147.976501,231.697234 L110.447,204.487842 C105.478045,200.888678 98.7519334,200.888678 93.7829792,204.487842 L56.2392959,231.697234 C45.1240398,239.755345 30.1689679,228.913329 34.4165203,215.878149 L48.7511234,171.852137 C50.6518251,166.02475 48.5765198,159.638978 43.6100958,156.033053 L6.06286698,128.823662 C-5.05238915,120.76555 0.659469742,103.227308 14.3984227,103.227308 L60.7988555,103.227308 C66.937475,103.220802 72.3750622,99.2747913 74.2718933,93.4500384 L88.6384061,49.4240267 C92.8682309,36.3888464 111.354657,36.3888464 115.584482,49.4240267 Z" id="Path" fill="#BEE70C"></path>
                        <path d="M58.3169802,168.003487 C58.0971569,168.215729 57.8702426,168.424433 57.6575104,168.636675 L57.0831335,169.294624 C56.3588694,170.185559 55.8113688,171.206004 55.4699146,172.301382 C55.1218035,173.420676 55.0012614,174.598063 55.1153609,175.76446 C55.1643728,176.336772 55.2737065,176.902337 55.4415503,177.451782 L55.5691896,177.855041 L55.7216476,178.244151 C55.8237358,178.508267 55.9421478,178.76581 56.0762013,179.015296 C56.1683852,179.188627 56.2428415,179.369032 56.3492075,179.535288 L56.6718513,180.055281 L56.834946,180.313508 L57.026405,180.568198 L57.4093229,181.074041 L59.0402696,183.044352 C59.6820116,183.822572 59.8805616,184.038351 60.2173876,184.430998 L61.1640458,185.52758 L64.9577695,189.91391 L72.5416716,198.686568 L73.3996913,199.67703 C73.9968173,200.360214 75.0149792,200.482418 75.757473,199.960019 L77.0551392,201.611967 C76.4139008,203.243291 76.6417673,205.087367 77.660925,206.514466 C78.6800827,207.941565 80.3526735,208.758648 82.1075284,208.686692 L82.1075284,210.101636 C82.1066188,210.928183 82.3978866,211.728575 82.9300928,212.362011 L93.7794337,204.498454 C98.7483879,200.89929 105.4745,200.89929 110.443454,204.498454 L121.292795,212.362011 C121.825001,211.728575 122.116269,210.928183 122.115359,210.101636 L122.115359,208.686692 C123.870214,208.758648 125.542805,207.941565 126.561963,206.514466 C127.58112,205.087367 127.808987,203.243291 127.167749,201.611967 L128.465415,199.960019 C129.207392,200.477244 130.220762,200.353724 130.816105,199.673492 L131.674125,198.683031 L139.258027,189.910372 L143.051751,185.524043 L143.998409,184.427461 C144.352963,184.034813 144.533785,183.819034 145.175527,183.040815 L146.806474,181.070504 L147.189392,180.564661 L147.380851,180.309971 L147.543945,180.051743 L147.866589,179.531751 C147.972955,179.35842 148.047411,179.178015 148.139595,179.011759 C148.27384,178.761153 148.392255,178.502421 148.494149,178.237076 L148.646607,177.847967 L148.774246,177.44117 C148.94222,176.889343 149.051552,176.32142 149.100436,175.746773 C149.208431,174.572883 149.079431,173.389304 148.721063,172.266009 C148.373017,171.167304 147.816957,170.145408 147.083026,169.255713 L146.508649,168.597764 L145.842088,167.961039 C145.357531,167.55778 144.84461,167.16867 144.303325,166.793709 L142.700743,165.658216 L142.296552,165.37169 L142.005818,165.162985 L141.573262,164.841085 L139.843041,163.557023 L136.379052,160.988898 L122.530187,150.730547 C122.335183,150.585515 122.125996,150.444021 121.913264,150.316675 C121.504025,150.069734 121.073265,149.860178 120.626234,149.690562 C120.026105,149.25999 119.30547,149.028581 118.566278,149.029076 L107.000738,149.029076 L107.000738,143.868064 C111.770129,141.964028 114.995915,137.468556 115.265383,132.350412 L115.385932,132.350412 C115.924422,132.350412 116.360954,131.914886 116.360954,131.377637 C116.360954,130.840389 115.924422,130.404863 115.385932,130.404863 L115.229928,130.404863 C114.618013,123.631735 108.927745,118.443287 102.111444,118.443287 C95.2951431,118.443287 89.6048748,123.631735 88.9929598,130.404863 L88.8298651,130.404863 C88.291375,130.404863 87.8548426,130.840389 87.8548426,131.377637 C87.8548426,131.914886 88.291375,132.350412 88.8298651,132.350412 L88.9504133,132.350412 C89.2198814,137.468556 92.4456676,141.964028 97.2150583,143.868064 L97.2150583,149.025538 L85.6495191,149.025538 C84.8821208,149.023997 84.1351892,149.2724 83.5221973,149.733011 C82.8172966,150.001814 82.1527863,150.366036 81.5473336,150.815444 L67.7693798,161.027809 L64.3266641,163.581784 L62.6035335,164.858772 L62.1745236,165.177135 L61.4654163,165.69359 L59.869925,166.825546 C59.3319919,167.190836 58.8136317,167.584023 58.3169802,168.003487 Z M122.118905,167.005951 L129.447528,171.445341 L133.117158,173.666804 L134.950201,174.777536 L135.407575,175.056988 L135.50685,175.117123 L135.528123,175.117123 L135.570669,175.117123 L135.751492,175.180795 C136.042374,175.248818 136.310925,175.390091 136.53151,175.591129 C136.731038,175.826658 136.762177,176.161338 136.609512,176.429484 C136.522055,176.613427 136.423962,176.811519 136.315232,177.023761 C136.357778,177.006074 135.960678,177.547291 135.701854,177.911639 L134.861562,179.093118 L131.496848,183.815497 L124.760329,193.256717 L124.001585,194.317926 C123.478833,195.059576 123.602863,196.075502 124.288773,196.670272 L122.991107,198.32222 C122.69973,198.283389 122.405587,198.269189 122.111814,198.279771 L122.118905,167.005951 Z M67.6842869,175.598204 C67.7858839,175.478043 67.9182095,175.387584 68.0672048,175.336439 L68.471396,175.184333 L68.6557639,175.12066 L68.6983103,175.12066 L68.7302201,175.12066 L68.8436773,175.049913 L69.304597,174.770461 L71.1482758,173.652655 L74.8356335,171.420579 L82.0898007,167.027175 L82.0898007,198.329295 C81.7960279,198.318713 81.5018841,198.332913 81.2105077,198.371743 L79.9270236,196.677346 C80.6076802,196.082399 80.7299436,195.071477 80.2106665,194.332075 L79.4519217,193.270866 L72.7154029,183.829646 L69.350689,179.107268 L68.5139424,177.929326 C68.2551183,177.57559 67.8580182,177.020224 67.9005646,177.041448 C67.7894712,176.829206 67.691378,176.629935 67.6062851,176.443634 C67.4513431,176.173533 67.4825268,175.835546 67.6842869,175.598204 Z" id="Shape" fill="#5E8516" fill-rule="nonzero"></path>
                        <path d="M56.3421165,161.112705 L54.824627,154.11934 C54.7651656,153.843848 54.5983164,153.603266 54.3608704,153.450642 C54.1234244,153.298019 53.8348828,153.245888 53.5588705,153.305747 L53.0873142,153.40833 C53.0789279,153.257445 53.0599721,153.10733 53.0305856,152.959085 L53.0305856,152.920174 L52.5873936,150.886191 C53.7004024,150.100039 54.262846,148.746685 54.0339724,147.405426 L53.6510545,145.636745 L48.6873037,122.707562 C48.5655944,122.149567 48.7214072,121.567275 49.105677,121.144048 L66.422076,102.077665 C64.6537537,102.836833 62.7487628,103.228027 60.8236743,103.227308 L26.2936968,103.227308 L24.5209287,105.126872 L18.6495206,111.469362 L16.9122079,113.354776 C16.2819022,114.020936 15.7299467,114.756762 15.2670791,115.547941 C14.3540961,117.148036 13.8990859,118.967551 13.9516851,120.807999 C13.981,121.539743 14.0735269,122.2676 14.228237,122.983477 C14.2991477,123.344288 14.3747858,123.705099 14.4551513,124.06591 L14.6785201,125.088207 L15.4089005,128.459314 L16.873207,135.201526 L17.2525794,136.941908 L34.1683328,149.205944 C34.3825534,148.629865 34.4412427,148.007729 34.3385185,147.401889 L33.9556006,145.633208 L28.7826632,121.816147 L36.0510125,113.96674 C34.4149424,115.866967 33.5477235,118.307492 33.6187747,120.811536 C33.6479133,121.543295 33.7404421,122.271167 33.8953265,122.987014 C33.9662372,123.347825 34.0418753,123.708636 34.1222408,124.069447 L34.3456096,125.091745 L35.0759901,128.462851 L36.5402965,135.205064 L39.4689095,148.693026 L39.8518274,150.461707 C40.3170337,152.217503 42.0393429,153.336563 43.8370101,153.051057 L44.3227486,155.297282 L43.968195,155.375104 C43.6490967,155.443493 43.3347258,155.52721 43.0250823,155.626256 L43.6100958,156.033053 C46.2242801,157.932065 48.1094917,160.665373 48.9532189,163.779877 L55.5266431,162.364932 C56.0966459,162.241234 56.4604442,161.682592 56.3421165,161.112705 Z" id="Path" fill="#5E8516"></path>
                        <path d="M147.880771,161.112705 L149.398261,154.11934 C149.457722,153.843848 149.624571,153.603266 149.862017,153.450642 C150.099463,153.298019 150.388005,153.245888 150.664017,153.305747 L151.135574,153.40833 C151.14396,153.257445 151.162916,153.10733 151.192302,152.959085 L151.192302,152.920174 L151.635494,150.886191 C150.522485,150.100039 149.960042,148.746685 150.188915,147.405426 L150.571833,145.636745 L155.535584,122.707562 C155.657293,122.149567 155.501481,121.567275 155.117211,121.144048 L137.800812,102.077665 C139.569134,102.836833 141.474125,103.228027 143.399213,103.227308 L177.904372,103.227308 L179.67714,105.126872 L185.548548,111.469362 L187.285861,113.354776 C187.916167,114.020936 188.468122,114.756762 188.93099,115.547941 C189.843973,117.148036 190.298983,118.967551 190.246384,120.807999 C190.217069,121.539743 190.124542,122.2676 189.969832,122.983477 C189.898921,123.344288 189.823283,123.705099 189.742918,124.06591 L189.519549,125.088207 L188.789168,128.459314 L187.324862,135.201526 L186.94549,136.941908 L170.029736,149.205944 C169.815516,148.629865 169.756826,148.007729 169.85955,147.401889 L170.242468,145.633208 L175.415406,121.816147 L168.147056,113.96674 C169.783127,115.866967 170.650345,118.307492 170.579294,120.811536 C170.550156,121.543295 170.457627,122.271167 170.302742,122.987014 C170.231832,123.347825 170.156194,123.708636 170.075828,124.069447 L169.852459,125.091745 L169.122079,128.462851 L167.657772,135.205064 L164.729159,148.693026 L164.346242,150.461707 C163.881035,152.217503 162.158726,153.336563 160.361059,153.051057 L159.878866,155.290207 L160.23342,155.368029 C160.552518,155.436418 160.866889,155.520135 161.176532,155.619182 L160.612792,156.033053 C157.998608,157.932065 156.113396,160.665373 155.269669,163.779877 L148.696245,162.364932 C148.126242,162.241234 147.762444,161.682592 147.880771,161.112705 Z" id="Path" fill="#5E8516"></path>
                        <g transform="translate(132.957609, 0.000000)">
                            <g transform="translate(31.555273, 94.093838)" id="Path">
                                <path d="M26.51352,64.5356386 L29.8888705,66.7783263 C31.7096297,67.9872939 32.6028886,70.1851185 32.1402861,72.3178358 L31.9133717,73.3790445 C31.8539104,73.654536 31.6870612,73.8951184 31.4496152,74.0477422 C31.2121692,74.2003659 30.9236276,74.2524961 30.6476153,74.1926378 L11.3244428,70.0150129 C11.0483147,69.9556886 10.8071763,69.789224 10.6541999,69.5523255 C10.5012235,69.3154269 10.4489728,69.0275505 10.5089694,68.7521745 L12.0264589,61.7588092 C12.0859203,61.4833177 12.2527695,61.2427352 12.4902155,61.0901115 C12.7276615,60.9374877 13.0162031,60.8853575 13.2922154,60.9452158 L22.8651632,63.0145728 C24.1658821,63.2896348 25.4033794,63.8055697 26.51352,64.5356386 Z" fill="#00B49C"></path>
                                <path d="M26.8751647,64.7797166 L29.8888705,66.7783263 C31.7096297,67.9872939 32.6028886,70.1851185 32.1402861,72.3178358 L31.9133717,73.3790445 C31.8539104,73.654536 31.6870612,73.8951184 31.4496152,74.0477422 C31.2121692,74.2003659 30.9236276,74.2524961 30.6476153,74.1926378 L25.0953055,72.993472 L26.8751647,64.7797166 Z" fill="#00B49C"></path>
                                <path d="M32.1828325,72.0702204 C32.1828325,72.1515797 32.1580137,72.2364764 32.1402861,72.3178358 L31.9133717,73.3790445 C31.8539104,73.654536 31.6870612,73.8951184 31.4496152,74.0477422 C31.2121692,74.2003659 30.9236276,74.2524961 30.6476153,74.1926378 L11.3244428,70.0150129 C11.0483147,69.9556886 10.8071763,69.789224 10.6541999,69.5523255 C10.5012235,69.3154269 10.4489728,69.0275505 10.5089694,68.7521745 L10.7890668,67.4645746 L32.1828325,72.0702204 Z" fill="#FFD400"></path>
                                <path d="M16.483198,64.5462507 C14.6611886,64.1711373 13.4765582,62.4085179 13.8205003,60.5844049 L13.8205003,60.5454939 L15.1500764,54.4753801 L16.0010051,50.5489079 L24.7832984,52.4484715 L23.9323697,56.3749437 L22.2446944,64.1571408 L22.2446944,64.1748277 C22.0243981,65.0548232 21.1378004,65.5962582 20.252103,65.3916803 L16.483198,64.5462507 Z" fill="#FFFFFF"></path>
                                <path d="M10.909615,0.0707472469 L22.5212462,12.6142341 L28.3252891,18.8859776 L29.9916911,20.686495 C30.6224573,21.3390431 31.1899092,22.0496838 31.6864574,22.8089124 C32.6538844,24.3509803 33.1832903,26.12627 33.2181291,27.9451625 C33.2642211,29.4733031 32.8635755,30.96607 32.5409317,32.4729863 L31.7786414,35.9891245 L30.2540608,43.0107887 L27.2048996,57.0576546 L26.9815308,58.0834897 C26.4988736,59.9148688 24.6562589,61.0422133 22.8013436,60.6410027 L15.5719952,59.0739512 C13.7172516,58.6731731 12.5076768,56.8863811 12.8277501,55.0201339 L13.0511189,53.9942988 L18.1886009,30.3293447 C18.3111483,29.7662403 18.1510691,29.1788765 17.7595911,28.7552185 L0.273006291,9.86216622 L10.909615,0.0707472469 Z" fill="#D12149"></path>
                            </g>
                            <g transform="translate(22.336878, 144.324384)" id="Path">
                                <path d="M25.3576752,20.8103027 C25.3154272,17.9030798 23.8338906,15.2051115 21.4008568,13.6046956 L20.8690263,13.2509593 L19.7273637,18.5074798 C19.667367,18.7828557 19.7196177,19.0707321 19.8725941,19.3076307 C20.0255705,19.5445293 20.2667089,19.7109939 20.542837,19.7703181 L25.3576752,20.8103027 Z" fill="#232531"></path>
                                <path d="M16.0612792,14.3050933 L19.4366297,16.547781 C21.2573888,17.7567487 22.1506478,19.9545732 21.6880452,22.0872905 L21.4611309,23.1484992 C21.4016695,23.4239907 21.2348203,23.6645732 20.9973743,23.8171969 C20.7599283,23.9698206 20.4713867,24.0219508 20.1953745,23.9620925 L0.872201916,19.7844676 C0.596073825,19.7251433 0.354935434,19.5586787 0.20195903,19.3217802 C0.0489826263,19.0848816 -0.00326803944,18.7970052 0.0567285799,18.5216292 L1.57421809,11.5282639 C1.63367944,11.2527724 1.80052868,11.0121899 2.03797466,10.8595662 C2.27542064,10.7069424 2.56396225,10.6548122 2.83997453,10.7146705 L12.4129224,12.7840275 C13.7136413,13.0590895 14.9511386,13.5750245 16.0612792,14.3050933 Z" fill="#00B49C"></path>
                                <path d="M16.4264694,14.5491713 L19.4401752,16.547781 C21.2609344,17.7567487 22.1541933,19.9545732 21.6915907,22.0872905 L21.4646764,23.1484992 C21.4052151,23.4239907 21.2383658,23.6645732 21.0009199,23.8171969 C20.7634739,23.9698206 20.4749323,24.0219508 20.19892,23.9620925 L14.6466102,22.7629267 L16.4264694,14.5491713 Z" fill="#00B49C"></path>
                                <path d="M21.7341372,21.8396751 C21.7341372,21.9210344 21.7093184,22.0059311 21.6915907,22.0872905 L21.4646764,23.1484992 C21.4052151,23.4239907 21.2383658,23.6645732 21.0009199,23.8171969 C20.7634739,23.9698206 20.4749323,24.0219508 20.19892,23.9620925 L0.875747453,19.7844676 C0.599619361,19.7251433 0.35848097,19.5586787 0.205504566,19.3217802 C0.0525281626,19.0848816 0.000277496801,18.7970052 0.0602741162,18.5216292 L0.34037148,17.2340293 L21.7341372,21.8396751 Z" fill="#FFD400"></path>
                                <path d="M6.02741162,14.3157054 C4.20540217,13.9405921 3.02077179,12.1779726 3.3647139,10.3538596 L3.3647139,10.3149486 L4.70138106,4.24483481 L5.55230976,0.318362611 L14.334603,2.21792619 L13.4836743,6.14439839 L11.7959991,13.9265956 L11.7959991,13.9442824 C11.5757028,14.824278 10.6891051,15.3657129 9.80340772,15.161135 L6.02741162,14.3157054 Z" fill="#FFFFFF"></path>
                            </g>
                            <g>
                                <path d="M44.1064709,96.6761129 L44.2341102,96.2127184 L40.8552142,92.5621605 L30.2186054,102.364192 L35.2107205,107.755132 C39.5634966,105.423685 42.7758239,101.422962 44.1064709,96.6761129 Z" id="Path" fill="#D12149"></path>
                                <path d="M43.5710949,116.906288 C43.0745295,116.147072 42.5070788,115.436433 41.8763286,114.783871 L40.2099266,112.983353 L34.3917016,106.708072 L32.8103924,104.999526 C36.6533068,103.19309 39.5230534,99.8138476 40.6779373,95.7351745 L24.2479224,95.7351745 L22.7942525,94.1645856 L21.0888496,95.7351745 L6.44578489,95.7351745 C7.33962768,99.1325085 9.41264176,102.103246 12.2959197,104.118723 L29.6442285,122.866744 C30.0357066,123.290402 30.1957858,123.877765 30.0732384,124.44087 L24.9357564,148.105824 L24.7123876,149.131659 C24.4027542,150.99172 25.6098949,152.767136 27.4566327,153.16779 L34.6859811,154.731304 C36.5408964,155.132514 38.3835111,154.00517 38.8661683,152.173791 L39.0895371,151.147956 L42.1386983,137.10109 L43.6632789,130.079425 L44.4255692,126.563287 C44.7375763,125.056371 45.1346764,123.563604 45.1027666,122.035464 C45.0666495,120.218985 44.5372931,118.446306 43.5710949,116.906288 Z" id="Path" fill="#D12149"></path>
                                <g>
                                    <g>
                                        <path d="M2.04577441,9.77373216 L2.19823247,9.77373216 L2.04931995,9.72067172 C1.45967198,9.48940038 1.03848167,8.96184862 0.944407358,8.33674008 C0.850333041,7.71163154 1.09766684,7.08393509 1.5932405,6.6900979 C2.08881416,6.29626071 2.75733825,6.19611602 3.34698622,6.42738738 L3.48880767,6.4910599 C3.4469321,6.46015052 3.40669508,6.42709054 3.36825943,6.39201376 C2.64766185,5.73070957 2.60083383,4.61180357 3.26366611,3.89286726 C3.9264984,3.17393095 5.04798989,3.12721088 5.76858747,3.78851507 C5.80758837,3.82388869 5.84658927,3.86279968 5.88204463,3.90171067 C5.85247973,3.85659084 5.82640366,3.8092891 5.80404283,3.76021617 C5.52346911,3.19151613 5.56830726,2.5166764 5.92166719,1.98990262 C6.27502711,1.46312883 6.88322501,1.16445047 7.51715861,1.2063768 C8.1510922,1.24830313 8.71445187,1.62446454 8.99502545,2.19316465 C9.01931145,2.23891843 9.04062849,2.28618044 9.05884511,2.33465915 C9.04810445,2.28333974 9.04099582,2.23133004 9.03757189,2.1790152 C8.95141348,1.20219957 9.67526362,0.340649865 10.6543364,0.254690089 C11.6334092,0.168730313 12.4969497,0.890911679 12.5831081,1.86772732 C12.5865682,1.91955121 12.5865682,1.97154737 12.5831081,2.02337126 C12.5924251,1.97179928 12.6054592,1.92096513 12.622109,1.87126468 C12.7882242,1.25389522 13.2753049,0.773992454 13.896135,0.616013493 C14.516965,0.458034532 15.1749251,0.646565557 15.6171192,1.10914212 C16.0593134,1.57171868 16.2169233,2.23635025 16.0293694,2.84757669 C16.0147802,2.8981629 15.9970175,2.94778386 15.9761863,2.99614591 L16.0683703,2.86880086 C16.6558139,2.08734835 17.7669874,1.92897524 18.5502456,2.51506463 C19.3335039,3.10115401 19.4922429,4.20976576 18.9047993,4.99121827 C18.8728894,5.03366662 18.8374341,5.0725776 18.8055242,5.11148859 C18.8460212,5.07916996 18.8886652,5.04962436 18.9331635,5.02305453 C19.4721436,4.69068096 20.1479106,4.67043464 20.7059097,4.96994216 C21.2639088,5.26944969 21.6193667,5.84320874 21.6383858,6.47508984 C21.6574048,7.10697094 21.3370957,7.70097631 20.7981156,8.03334988 L20.6598397,8.11117186 L20.8122978,8.07579823 C21.7591596,7.9318027 22.6494472,8.56420829 22.8228912,9.50400016 C22.9963351,10.443792 22.3902099,11.3510972 21.4540398,11.5530254 L21.2980362,11.5742496 L21.4540398,11.5990111 C22.4164683,11.7797221 23.0498371,12.704621 22.8687086,13.6648307 C22.6875802,14.6250404 21.7605441,15.2569491 20.7981156,15.0762383 L20.6456576,15.0373273 C20.6917495,15.0620889 20.7378415,15.0868504 20.7803879,15.1151493 C21.5892894,15.6401486 21.8287164,16.7142247 21.3190917,17.5317889 C20.809467,18.3493531 19.7380099,18.6100592 18.9083448,18.1183699 L18.77716,18.0299359 C18.8126153,18.0688469 18.8445251,18.1077578 18.876435,18.1502062 C19.2564445,18.6557173 19.3372775,19.3250942 19.0884852,19.9061889 C18.8396928,20.4872836 18.2990724,20.8918141 17.6702706,20.9673976 C17.0414688,21.0429812 16.4200154,20.7781348 16.040006,20.2726236 C16.0080961,20.2301752 15.9797319,20.1877269 15.9513676,20.1417412 C15.9513676,20.1912643 15.9868229,20.2443247 16.0010051,20.2938478 C16.2406674,21.2239393 15.6926396,22.1748963 14.7663974,22.4361822 C13.8401552,22.6974682 12.8741665,22.1736038 12.5901992,21.2560103 C12.5901992,21.2064873 12.5618349,21.1534268 12.5511983,21.1039037 C12.5548451,21.1545407 12.5548451,21.2053734 12.5511983,21.2560103 C12.4684048,22.1701775 11.6984351,22.8692345 10.7784302,22.8655102 C10.7229393,22.8690241 10.6672809,22.8690241 10.61179,22.8655102 C9.63945495,22.7740104 8.92444563,21.9151302 9.01275314,20.9447224 C9.0164425,20.8912645 9.02354801,20.838096 9.03402635,20.7855411 C9.01275314,20.8350642 8.99147992,20.8845873 8.96666116,20.930573 C8.69557985,21.5160511 8.12657064,21.9079067 7.48174765,21.953178 C6.83692465,21.9984494 6.21851848,21.6899592 5.86792546,21.1481272 C5.51733243,20.6062953 5.49013577,19.917024 5.79695176,19.349372 C5.82177051,19.3033863 5.84658927,19.2574006 5.87495356,19.2114149 C5.8394982,19.2503259 5.8004973,19.2856995 5.7614964,19.3246105 C5.03698251,19.9820073 3.91549113,19.9289522 3.25657518,19.2061087 C2.59765924,18.4832652 2.65083676,17.3643593 3.37535051,16.7069624 C3.41380276,16.6719047 3.45403877,16.6388455 3.49589874,16.6079162 L3.35053175,16.6715887 C2.44339525,17.0042709 1.43632967,16.5507119 1.08640534,15.6518787 C0.736481018,14.7530455 1.17266298,13.7402042 2.06704763,13.374767 L2.22659676,13.3217066 L2.06350209,13.3217066 C1.0844293,13.3217066 0.290733972,12.5298411 0.290733972,11.5530254 L0.290733972,11.5070397 C0.309858663,10.5509034 1.08728399,9.78310506 2.04577441,9.77373216 Z" id="Path" fill="#15171B"></path>
                                        <g transform="translate(12.054823, 9.550878)">
                                            <rect id="Rectangle" fill="#8C522A" transform="translate(13.480129, 25.958934) rotate(180.000000) translate(-13.480129, -25.958934) " x="8.59083432" y="19.5085533" width="9.77858896" height="12.9007605"></rect>
                                            <path d="M3.33634961,20.5909862 C5.18357399,18.7480204 5.07366237,16.0313261 3.61290143,14.0610153 C3.61290143,14.0610153 3.61290143,14.0079549 3.53489964,13.8876846 L3.48880767,13.7426527 C3.37535051,13.3535429 3.29380317,12.9573583 3.19098262,12.564711 C3.16261833,12.4585902 3.14134511,12.3843056 3.12361743,12.320633 C3.10588975,12.2569605 3.12361743,12.2039001 3.12361743,12.1083913 C3.10588975,11.6060859 3.04916117,11.1037804 3.03497903,10.5979376 C3.03497903,10.2689629 3.03497903,9.94352555 3.03497903,9.61455085 C3.03497903,9.713597 3.06688885,9.50489262 3.10234421,9.26081462 C3.14489065,9.22190363 3.26189335,8.90707838 3.15198172,8.94952673 L3.15198172,8.9247652 C3.42981453,8.64384005 3.72591871,8.38150573 4.03836578,8.13947075 C4.81555335,7.4754289 5.30582197,6.53770251 5.40694277,5.52182262 L24.0741911,5.52182262 C26.8911545,9.31129004 27.4558625,14.3165375 25.5537712,18.6359717 C23.65168,22.9554059 19.5747228,25.9260791 14.8718171,26.4193735 C10.1689114,26.9126678 5.56185999,24.8528723 2.80097363,21.0225444 C2.99055831,20.8930004 3.16957527,20.7486976 3.33634961,20.5909862 Z" id="Path" fill="#8C522A"></path>
                                            <path d="M6.56633313,9.46244427 L6.56633313,18.2669391 C6.56633313,20.1033525 5.07418592,21.5920598 3.23352906,21.5920598 C0.190134901,17.8429348 -0.549483367,12.7314687 1.30681527,8.27663385 C3.16311391,3.821799 7.31682584,0.739958774 12.1272809,0.248405926 C16.9377359,-0.243146922 21.6313849,1.93463216 24.3542885,5.92154456 L10.1118694,5.92154456 C9.17092007,5.9215441 8.26856132,6.29471495 7.60354228,6.95886434 C6.93852324,7.62301373 6.56539218,8.52366471 6.56633313,9.46244427 Z" id="Path" fill="#15171B"></path>
                                        </g>
                                    </g>
                                    <path d="M40.6921195,95.7351745 L24.2479224,95.7351745 L22.7942525,94.1645856 L21.0888496,95.7351745 L6.44578489,95.7351745 C6.99448805,97.7410421 7.93957301,99.6172329 9.22548531,101.25346 L9.43467195,101.25346 L37.7245056,101.25346 C39.1089146,99.6544846 40.1222546,97.7701763 40.6921195,95.7351745 Z" id="Path" fill="#D12149"></path>
                                    <path d="M29.8640518,54.3161988 L43.9433762,53.7360714 C44.7929223,49.8384528 43.9323625,45.764401 41.5785035,42.5403196 C41.106671,41.8883232 40.5813026,41.2766093 40.007831,40.7115032 L29.7647768,40.1738241 C29.5236803,40.1738241 29.2684017,40.1738241 29.0237597,40.1738241 C24.7903894,40.3471549 21.5320416,43.7960832 21.8724131,47.8180642 C22.1915114,51.6454902 25.7973217,54.4753801 29.8640518,54.3161988 Z" id="Path" fill="#232531"></path>
                                    <path d="M9.43821748,97.7231721 L41.2984062,97.7231721 C43.2565518,97.7231721 44.8439424,96.1394411 44.8439424,94.1858098 L38.9618978,80.188467 C36.5174514,72.902064 36.5174514,65.0196938 38.9618978,57.7332908 L40.153198,54.1782417 C41.2388876,50.9412632 40.6976542,47.380852 38.6987813,44.6106116 C36.6999085,41.8403712 33.4874383,40.1985199 30.0661474,40.1985857 L16.3094667,40.1985857 C13.9017198,40.2027099 11.6426897,41.3611475 10.2379029,43.3121027 C8.8331161,45.2630578 8.45379031,47.7687446 9.21839424,50.0466024 L11.7959991,57.7332908 C14.2404455,65.0196938 14.2404455,72.902064 11.7959991,80.188467 L5.91395446,94.1858098 C5.91395446,96.1394411 7.5013451,97.7231721 9.4594907,97.7231721 L9.43821748,97.7231721 Z" id="Path" fill="#00B49C"></path>
                                </g>
                            </g>
                        </g>
                        <g transform="translate(7.445626, 0.707472)">
                            <g transform="translate(0.354554, 0.000000)" fill="#FFB380">
                                <rect id="Rectangle" x="2.89315758" y="9.18653001" width="5.30766776" height="6.57949396"></rect>
                                <ellipse id="Oval" cx="5.54521869" cy="5.48998636" rx="5.21193828" ry="5.19992265"></ellipse>
                            </g>
                            <path d="M34.2250614,53.6087263 C34.4661578,53.6087263 34.7214364,53.6087263 34.9660785,53.6087263 C39.1959032,53.3858725 42.4117046,49.9015706 42.0287867,45.8866643 C41.674233,42.0627756 38.0294218,39.2611847 33.9662372,39.4734264 L18.7204314,40.2728703 L14.8912522,40.4674252 L13.0014814,40.5664714 C12.7710216,40.5664714 12.5511983,40.5664714 12.3561938,40.5664714 C11.8723409,40.5497622 11.4746694,40.1801617 11.4237178,39.6998176 L11.4237178,39.5901594 L11.4237178,39.3885297 L11.2677142,36.0351102 L10.9521615,29.3141217 L10.2820551,15.9181305 L10.2182355,14.634068 C10.1709623,13.6919502 9.39094395,12.9526411 8.44546734,12.9538209 L3.34344068,12.9538209 C2.39796407,12.9526411 1.61794568,13.6919502 1.57067256,14.634068 L1.5068529,15.9181305 L0.875747453,29.3318086 L0.560194727,36.052797 L0.404191132,39.4062165 L0.326189335,42.2361064 C0.304916117,42.7419492 0.326189335,43.2336426 0.326189335,43.7324107 C0.360053732,44.2072307 0.421613974,44.6796793 0.510557219,45.1473556 C0.597483495,45.657402 0.731605659,46.1583125 0.911202815,46.6436599 C1.08683462,47.1351766 1.30883546,47.6089499 1.57421809,48.0586048 C2.11034524,48.9845725 2.80656063,49.8085241 3.63062912,50.4923101 C4.44592725,51.1669007 5.37193613,51.6958544 6.3677831,52.0558243 C6.86432708,52.2323004 7.37256301,52.3741365 7.88881815,52.4803077 L8.71492809,52.6147275 C8.99857099,52.6430264 9.28930496,52.6571759 9.58003893,52.6784 C10.1615069,52.7066989 10.7536114,52.7066989 11.3528071,52.7208484 L13.104302,52.756222 L15.0259826,52.834044 L18.8657984,52.9932253 L34.2250614,53.6087263 Z" id="Path" fill="#D12149"></path>
                        </g>
                        <g transform="translate(6.381965, 9.550878)">
                            <g transform="translate(0.000000, 84.542960)" id="Path">
                                <path d="M6.9847064,64.5356386 L3.6093559,66.7783263 C1.78859677,67.9872939 0.895337841,70.1851185 1.35794038,72.3178358 L1.5848547,73.3790445 C1.64431605,73.654536 1.81116529,73.8951184 2.04861127,74.0477422 C2.28605725,74.2003659 2.57459886,74.2524961 2.85061114,74.1926378 L22.1737837,70.0150129 C22.4499118,69.9556886 22.6910502,69.789224 22.8440266,69.5523255 C22.997003,69.3154269 23.0492536,69.0275505 22.989257,68.7521745 L21.4717675,61.7588092 C21.4123062,61.4833177 21.2454569,61.2427352 21.0080109,61.0901115 C20.770565,60.9374877 20.4820233,60.8853575 20.2060111,60.9452158 L10.6330632,63.0145728 C9.33234431,63.2896348 8.094847,63.8055697 6.9847064,64.5356386 Z" fill="#FFD400"></path>
                                <path d="M6.62306171,64.7797166 L3.6093559,66.7783263 C1.78859677,67.9872939 0.895337841,70.1851185 1.35794038,72.3178358 L1.5848547,73.3790445 C1.64431605,73.654536 1.81116529,73.8951184 2.04861127,74.0477422 C2.28605725,74.2003659 2.57459886,74.2524961 2.85061114,74.1926378 L8.4029209,72.993472 L6.62306171,64.7797166 Z" fill="#FFD400"></path>
                                <path d="M1.31539395,72.0702204 C1.31539395,72.1515797 1.3402127,72.2364764 1.35794038,72.3178358 L1.5848547,73.3790445 C1.64431605,73.654536 1.81116529,73.8951184 2.04861127,74.0477422 C2.28605725,74.2003659 2.57459886,74.2524961 2.85061114,74.1926378 L22.1737837,70.0150129 C22.4499118,69.9556886 22.6910502,69.789224 22.8440266,69.5523255 C22.997003,69.3154269 23.0492536,69.0275505 22.989257,68.7521745 L22.7091597,67.4645746 L1.31539395,72.0702204 Z" fill="#D12149"></path>
                                <path d="M17.018574,64.5462507 C18.8405834,64.1711373 20.0252138,62.4085179 19.6812717,60.5844049 L19.6812717,60.5454939 L18.1992375,53.7148472 L17.4901303,50.4710859 L8.69720041,52.3529627 L9.40630766,55.596724 L11.253532,64.1111551 L11.253532,64.1288419 C11.4738284,65.0088375 12.360426,65.5502725 13.2461234,65.3456946 L17.018574,64.5462507 Z" fill="#D12149"></path>
                                <path d="M22.5886114,0.0707472469 L10.8493409,12.7521913 L4.96375074,19.1017567 L3.22643798,20.9871708 C2.59613233,21.6533301 2.04417681,22.3891566 1.58130917,23.1803354 C0.668326179,24.78043 0.213316034,26.5999455 0.265915218,28.4403932 C0.295230105,29.1721371 0.387757017,29.8999943 0.542467046,30.6158711 C0.61337777,30.9766821 0.689015877,31.337493 0.769381365,31.698304 L0.992750149,32.7206017 L1.72313062,36.091708 L3.19098262,42.8303833 L6.11959556,56.3183459 L6.50251347,58.0870271 C6.98517067,59.9184062 8.82778544,61.0457507 10.6827007,60.64454 L17.9262313,59.0739512 C19.7809748,58.6731731 20.9905497,56.8863811 20.6704763,55.0201339 L20.2875584,53.2514527 L15.3238077,30.3328821 C15.2012603,29.7697776 15.3613395,29.1824139 15.7528175,28.7587559 L33.2394023,9.86570358 L22.5886114,0.0707472469 Z" fill="#15171B"></path>
                            </g>
                            <g transform="translate(17.373128, 134.773505)" id="Path">
                                <g transform="translate(0.000000, 10.612087)">
                                    <path d="M-5.68434189e-14,10.1982156 L4.81483822,9.15823111 C5.09096631,9.09890684 5.3321047,8.93244226 5.48508111,8.69554369 C5.63805751,8.45864512 5.69030818,8.17076872 5.63031156,7.89539275 L4.48864889,2.63887231 L3.95681845,2.99260854 C1.52378462,4.59302447 0.0422480358,7.29099272 -5.68434189e-14,10.1982156 Z" fill="#232531"></path>
                                    <path d="M9.28221389,3.69300629 L5.90686338,5.93569401 C4.08610426,7.14466163 3.19284533,9.34248617 3.65544787,11.4752034 L3.88236219,12.5364121 C3.94182354,12.8119037 4.10867277,13.0524861 4.34611876,13.2051099 C4.58356474,13.3577336 4.87210634,13.4098638 5.14811863,13.3500055 L24.4642001,9.15469375 C24.7403282,9.09536948 24.9814666,8.9289049 25.134443,8.69200633 C25.2874194,8.45510775 25.33967,8.16723135 25.2796734,7.89185539 L23.7550928,0.898490035 C23.6956315,0.622998531 23.5287823,0.382416062 23.2913363,0.229792331 C23.0538903,0.0771686002 22.7653487,0.0250383935 22.4893364,0.0848966963 L12.9163885,2.15425367 C11.6193671,2.43641918 10.3867481,2.95832469 9.28221389,3.69300629 Z" fill="#FFD400"></path>
                                </g>
                                <path d="M8.91702366,14.5491713 L5.90331785,16.547781 C4.08255873,17.7567487 3.18929979,19.9545732 3.65190233,22.0872905 L3.87881665,23.1484992 C3.938278,23.4239907 4.10512724,23.6645732 4.34257322,23.8171969 C4.5800192,23.9698206 4.86856081,24.0219508 5.14457309,23.9620925 L10.6968829,22.7629267 L8.91702366,14.5491713 Z" fill="#FFD400"></path>
                                <path d="M3.6093559,21.8396751 C3.6093559,21.9210344 3.63417465,22.0059311 3.65190233,22.0872905 L3.87881665,23.1484992 C3.938278,23.4239907 4.10512724,23.6645732 4.34257322,23.8171969 C4.5800192,23.9698206 4.86856081,24.0219508 5.14457309,23.9620925 L24.4642001,19.7667808 C24.7403282,19.7074565 24.9814666,19.5409919 25.134443,19.3040934 C25.2874194,19.0671948 25.33967,18.7793184 25.2796734,18.5039424 L24.9995761,17.2163425 L3.6093559,21.8396751 Z" fill="#D12149"></path>
                                <path d="M19.3089904,14.3157054 C21.1309998,13.9405921 22.3156302,12.1779726 21.9716881,10.3538596 L21.9716881,10.3149486 L20.489654,3.48430191 L19.7805467,0.240540639 L10.9911624,2.12241741 L11.7002696,5.36617868 L13.547494,13.8806098 L13.547494,13.8982967 C13.7677903,14.7782922 14.654388,15.3197272 15.5400854,15.1151493 L19.3089904,14.3157054 Z" fill="#D12149"></path>
                            </g>
                            <g transform="translate(19.855003, 82.774279)" fill="#15171B" id="Path">
                                <path d="M0.957294786,3.89109858 L1.08493409,4.35449305 C2.41641591,9.10197612 5.63010724,13.1028035 9.98423007,15.4335119 L14.9763451,10.0425717 L4.33973636,0.240540639 L0.957294786,3.89109858 Z"></path>
                                <path d="M32.8990308,11.7971034 C35.7823088,9.78162611 37.8553228,6.81088865 38.7491656,3.41355466 L24.1096465,3.41355466 L22.400698,1.83942842 L20.9434826,3.41355466 L4.50283103,3.41355466 C5.65771501,7.4922278 8.5274616,10.8714703 12.370376,12.6779066 L10.6614275,14.5244098 L4.793565,20.8704378 L3.05625224,22.755852 C2.42594659,23.4220113 1.87399107,24.1578378 1.41112343,24.9490166 C0.498140439,26.5491112 0.0431302941,28.3686267 0.0957294786,30.2090744 C0.125044366,30.9408183 0.217571277,31.6686755 0.372281306,32.3845523 C0.443192031,32.7453632 0.518830137,33.1061742 0.599195625,33.4669851 L0.822564409,34.4892829 L1.55294488,37.8603892 L3.01725134,44.6026018 L5.94586428,58.0905644 L6.3287822,59.8592456 C6.81143939,61.6906247 8.65405416,62.8179692 10.5089694,62.4167586 L17.7276812,60.8426323 C19.5824248,60.4418543 20.7919996,58.6550622 20.4719263,56.7888151 L20.0890084,55.0201339 L15.1252576,32.1015633 C15.0027103,31.5384588 15.1627895,30.951095 15.5542675,30.527437 L32.8990308,11.7971034 Z"></path>
                            </g>
                            <g transform="translate(20.209557, 0.000000)">
                                <g transform="translate(6.027412, 0.000000)">
                                    <rect id="Rectangle" fill="#FFD400" x="3.48171659" y="12.6920561" width="23.0211668" height="32.1263248"></rect>
                                    <g>
                                        <rect id="Rectangle" fill="#FFB380" x="8.43837626" y="19.4625676" width="9.77858896" height="12.9007605"></rect>
                                        <ellipse id="Oval" fill="#FFB380" cx="13.3276707" cy="13.3040198" rx="13.1752127" ry="13.1448385"></ellipse>
                                        <path d="M20.2627396,2.12241741 L20.2627396,24.4785474 C24.1405151,22.0829108 26.5000931,17.8562789 26.5000931,13.3057885 C26.5000931,8.75529799 24.1405151,4.52866612 20.2627396,2.13302949 L20.2627396,2.12241741 Z" id="Path" fill="#FFD400"></path>
                                        <path d="M13.3276707,0.159181305 C8.10692925,0.159522446 3.37884629,3.23540312 1.27284751,8.00151362 L16.4406516,8.00151362 C17.750651,8.00151362 18.8126153,9.06102971 18.8126153,10.368009 L18.8126153,12.027032 L22.8580722,12.027032 L22.8580722,16.5053327 L26.1022378,16.5053327 C27.0925341,12.5808647 26.2131732,8.42005625 23.7189758,5.22862253 C21.2247783,2.03718882 17.3945856,0.171919576 13.3383074,0.173330755 L13.3276707,0.159181305 Z" id="Path" fill="#FFD400"></path>
                                    </g>
                                </g>
                                <g transform="translate(0.000000, 30.421316)" id="Path">
                                    <path d="M22.0496899,54.1923911 L20.5924745,55.7665174 L4.14827741,55.7665174 C4.71508056,57.8034095 5.72602206,59.6901762 7.10880017,61.2918773 L35.4057249,61.2918773 L35.6149116,61.2918773 C36.8991431,59.6564085 37.8429936,57.781478 38.3910665,55.7771294 L23.7550928,55.7771294 L22.0496899,54.1923911 Z" fill="#15171B"></path>
                                    <path d="M3.26543888,2.56812506 C0.912592986,5.79130645 0.0520811134,9.86384427 0.900566206,13.7603395 L15.0827112,14.3440043 C15.3238077,14.3440043 15.5790863,14.3440043 15.8237283,14.3440043 C20.053553,14.1211505 23.2693544,10.6368486 22.8864365,6.62194231 C22.5318828,2.79805361 18.8870716,-0.00353736234 14.823887,0.208704378 L4.85383912,0.732234005 C4.2739257,1.29887958 3.74260175,1.91298985 3.26543888,2.56812506 Z" fill="#232531"></path>
                                    <path d="M35.4057249,57.7509776 L3.54553625,57.7509776 C1.58739065,57.7509776 5.68434189e-14,56.1672466 5.68434189e-14,54.2136153 L5.88204463,40.2162725 C8.32649104,32.9298695 8.32649104,25.0474993 5.88204463,17.7610963 L4.69074445,14.2060472 C3.60505479,10.9690687 4.14628822,7.40865753 6.14516108,4.63841714 C8.14403395,1.86817676 11.3565041,0.226325401 14.7777951,0.22639119 L28.5415668,0.22639119 C30.9493137,0.230515362 33.2083438,1.38895305 34.6131306,3.33990816 C36.0179174,5.29086327 36.3972432,7.79655007 35.6326393,10.074408 L33.0550344,17.7610963 C30.610588,25.0474993 30.610588,32.9298695 33.0550344,40.2162725 L38.937079,54.2136153 C38.937079,56.1672466 37.3496884,57.7509776 35.3915428,57.7509776 L35.4057249,57.7509776 Z" fill="#D12149"></path>
                                </g>
                                <path d="M28.119648,15.2637185 C28.4127456,15.2802262 28.7164799,15.2884801 29.0308508,15.2884801 L29.0308508,6.59010605 L24.3968349,3.18362611 L21.7376827,1.70500865 C21.6313166,1.23453946 21.5072229,0.771144991 21.3831291,0.328974698 C20.3202761,0.167083562 19.241718,0.133827486 18.1708733,0.229928552 C11.6774095,0.780969841 6.58253541,6.01950401 6.22596165,12.5116506 L10.1047783,12.5116506 L11.491083,10.1168563 L12.8773876,12.5116506 L21.032121,12.5116506 C23.7657295,12.5116506 24.258559,14.4430505 24.258559,16.049013 L24.258559,31.2066106 C24.258559,34.1370575 26.639645,36.5126541 29.5768634,36.5126541 L32.523204,36.5126541 L32.523204,20.2513994 L28.119648,15.2637185 Z" id="Path" fill="#FFD400"></path>
                            </g>
                            <g transform="translate(46.091971, 30.421316)">
                                <g transform="translate(36.519023, 43.863293)" fill="#FFB380">
                                    <polygon id="Rectangle" transform="translate(4.362976, 4.461167) rotate(-39.270000) translate(-4.362976, -4.461167) " points="1.70786794 1.16537624 7.01063312 1.17137243 7.01808329 7.75695778 1.71531812 7.75096159"></polygon>
                                    <ellipse id="Oval" transform="translate(8.791873, 9.865569) rotate(-39.270000) translate(-8.791873, -9.865569) " cx="8.79187261" cy="9.86556892" rx="5.20712752" ry="5.20474021"></ellipse>
                                </g>
                                <path d="M12.7107474,2.78390417 C12.5846825,2.61197168 12.4497712,2.44667308 12.3065563,2.28867344 C9.82468094,-0.40679667 5.38212402,-0.371423046 2.46060215,2.41248112 C-0.319098262,5.06550288 -0.531830437,9.26435198 1.83658778,11.8537012 L35.3029044,48.4618641 L36.1680152,49.416952 C36.8012962,50.115633 37.8723239,50.1965137 38.6037986,49.6008948 L42.5641626,46.3677456 C43.295913,45.7712102 43.430041,44.7068845 42.8690787,43.9481898 L42.1032429,42.91528 L12.7107474,2.78390417 Z" id="Path" fill="#D12149"></path>
                            </g>
                            <g transform="translate(92.183942, 30.421316)">
                                <g transform="translate(0.000000, 43.863293)" fill="#8C522A">
                                    <polygon id="Rectangle" transform="translate(11.950228, 4.476691) rotate(-50.730000) translate(-11.950228, -4.476691) " points="8.65443708 1.82158361 15.2400224 1.82903378 15.2460186 7.13179896 8.66043327 7.12434878"></polygon>
                                    <ellipse id="Oval" transform="translate(7.515124, 9.886089) rotate(-50.730000) translate(-7.515124, -9.886089) " cx="7.51512365" cy="9.88608905" rx="5.20474021" ry="5.20712752"></ellipse>
                                </g>
                                <path d="M51.0947228,11.7263562 C51.2379716,11.5683855 51.3728844,11.4030852 51.498914,11.2311254 C53.6546,8.28803997 52.7327606,3.93708429 49.4176842,1.6342614 C46.2586114,-0.55890325 42.0961518,0.0672098845 40.0255587,2.8935624 L11.1294383,42.3422273 L9.95232024,43.9340403 C9.39135798,44.6927351 9.52548593,45.7570608 10.2572364,46.3535962 L14.2176003,49.5867453 C14.9490751,50.1823643 16.0201028,50.1014836 16.6533837,49.4028025 L17.9829598,47.9347971 L51.0947228,11.7263562 Z" id="Path" fill="#00B49C"></path>
                            </g>
                        </g>
                        <path d="M109.695346,82.3144218 L108.518228,83.9062348 C107.957266,84.6649295 108.091394,85.7292553 108.823144,86.3257907 L112.783508,89.5589398 C113.514983,90.1545588 114.58601,90.073678 115.219291,89.374997 L116.548867,87.9069916 L127.837855,75.561597 L123.77467,63.0888574 L109.695346,82.3144218 Z" id="Path" fill="#232531"></path>
                        <path d="M76.2857579,75.8622728 L87.7768408,88.4340586 L88.6419517,89.3891464 C89.2752326,90.0878275 90.3462603,90.1687082 91.0777351,89.5730893 L95.0380991,86.3399401 C95.7698495,85.7434047 95.9039774,84.679079 95.3430152,83.9203843 L94.5771793,82.8874745 L80.3312147,63.4319816 L76.2857579,75.8622728 Z" id="Path" fill="#232531"></path>
                        <g transform="translate(32.973487, 111.426914)">
                            <rect id="Rectangle" fill="#15171B" opacity="0.5" transform="translate(69.137957, 175.835207) rotate(-180.000000) translate(-69.137957, -175.835207) " x="0.34037148" y="167.851381" width="137.595171" height="15.9676536" rx="7.98382681"></rect>
                            <g transform="translate(11.345716, 153.875262)" id="Path">
                                <g transform="translate(0.000000, 12.380768)" fill="#D12149">
                                    <path d="M7.38889754,0.923251572 L3.61290143,2.40186903 C1.57232722,3.20086205 0.232168492,5.16714017 0.237550928,7.35417631 L0.237550928,8.41538502 C0.237550928,9.0014744 0.713768123,9.47659372 1.3012118,9.47659372 L21.0746674,9.47659372 C21.6621111,9.47659372 22.1383283,9.0014744 22.1383283,8.41538502 L22.1383283,1.25222627 C22.1383283,0.666136887 21.6621111,0.191017567 21.0746674,0.191017567 L11.2748053,0.191017567 C9.94501305,0.190600935 8.62693408,0.438970765 7.38889754,0.923251572 Z"></path>
                                    <path d="M108.195584,0.923251572 L111.97158,2.40186903 C114.012154,3.20086205 115.352313,5.16714017 115.346931,7.35417631 L115.346931,8.41538502 C115.346931,9.0014744 114.870713,9.47659372 114.28327,9.47659372 L94.5098142,9.47659372 C93.9223705,9.47659372 93.4461533,9.0014744 93.4461533,8.41538502 L93.4461533,1.25222627 C93.4461533,0.666136887 93.9223705,0.191017567 94.5098142,0.191017567 L104.309676,0.191017567 C105.639469,0.190600935 106.957548,0.438970765 108.195584,0.923251572 Z"></path>
                                </g>
                                <path d="M12.5831081,14.4501252 C14.1211016,15.1826268 15.8036092,15.5633094 17.507858,15.5643943 L19.1458957,15.5643943 C19.7835165,15.5642937 20.3654293,15.2019514 20.6456576,14.6305307 L20.6456576,14.595157 L23.6593634,8.28450261 L25.3683118,4.70822928 L17.2561249,0.852504325 L15.5471764,4.42877766 L11.788908,12.2923341 C11.4141491,13.1071246 11.768891,14.0709358 12.5831081,14.4501252 Z" fill="#CC804B"></path>
                                <path d="M94.9210964,14.5810076 L94.9210964,14.6163812 C95.2000432,15.1990816 95.791357,15.5684899 96.4385859,15.5643943 L98.0695325,15.5643943 C99.7735108,15.5644142 101.456005,15.1849431 102.994282,14.4536625 C103.809778,14.067755 104.157391,13.0954144 103.770755,12.2817221 L100.012486,4.41816557 L99.3671988,0.134419769 L90.191351,4.69761719 L91.9002995,8.27389052 L94.9210964,14.5810076 Z" fill="#CC804B"></path>
                            </g>
                            <g transform="translate(55.664919, 0.000000)" fill="#CC804B">
                                <rect id="Rectangle" x="8.58374325" y="19.5403896" width="9.77858896" height="12.9007605"></rect>
                                <ellipse id="Oval" cx="13.4730377" cy="13.3818417" rx="13.1752127" ry="13.1448385"></ellipse>
                            </g>
                            <g transform="translate(22.691432, 30.421316)">
                                <path d="M92.4746763,128.116189 L91.6946584,126.481928 L62.7559915,64.2066639 C62.9050589,63.4898759 62.9799082,62.759703 62.9793603,62.0276487 C62.9540842,56.1060963 58.1468177,51.3130709 52.2115667,51.291754 L40.5751168,51.291754 C34.6315861,51.3092376 29.8177562,56.1119698 29.8002321,62.0417982 C29.8004333,62.8259643 29.8872317,63.6077214 30.0590563,64.3729199 L1.19839125,126.496077 L0.418373277,128.130339 C-0.32202282,129.874067 0.445364283,131.890246 2.15923157,132.704148 L8.83902186,135.887774 C10.5516078,136.702015 12.6031713,136.027012 13.4943109,134.356097 L14.2743289,132.721835 L41.6352321,73.8247521 C41.9254981,73.1989994 42.553796,72.7985889 43.2449056,72.798917 L49.6375074,72.798917 C50.328617,72.7985889 50.9569149,73.1989994 51.2471809,73.8247521 L78.6080841,132.721835 L79.3881021,134.356097 C80.2792418,136.027012 82.3308052,136.702015 84.0433912,135.887774 L90.7231814,132.704148 C92.4488431,131.893768 93.2227382,129.866586 92.4746763,128.116189 Z" id="Path" fill="#5E8516"></path>
                                <path d="M29.9846,68.4621108 L62.9084496,68.4621108 C63.4908728,68.4603519 64.0708393,68.3866866 64.6351258,68.2427943 L62.7559915,64.2066639 C63.4091409,61.0435767 62.6018619,57.7551317 60.5575187,55.251201 C58.5131754,52.7472703 55.4485428,51.2933618 52.2115667,51.291754 L40.5751168,51.291754 C37.3040158,51.2866451 34.2081861,52.7662961 32.1622203,55.3126957 C30.1162545,57.8590954 29.3423192,61.1957361 30.0590563,64.3799947 L28.2543783,68.2710932 C28.821011,68.4057415 29.4021692,68.4699018 29.9846,68.4621108 Z" id="Path" fill="#232531"></path>
                                <rect id="Rectangle" fill="#15171B" x="26.4390638" y="0.321899973" width="40.0149221" height="64.6028485" rx="10"></rect>
                            </g>
                            <g transform="translate(58.501348, 9.550878)" fill="#D12149">
                                <path d="M7.05916266,2.23207564 L7.05916266,4.85326114 L2.09541192,4.85326114 L2.09541192,2.23207564 L7.05916266,2.23207564 Z M7.05916266,0.28652635 L2.09541192,0.28652635 C1.02004694,0.290406626 0.149256228,1.15918981 0.145366986,2.23207564 L0.145366986,4.85326114 C0.149256228,5.92614697 1.02004694,6.79493015 2.09541192,6.79881043 L7.05916266,6.79881043 C8.13452765,6.79493015 9.00531836,5.92614697 9.0092076,4.85326114 L9.0092076,2.23207564 C9.00531836,1.15918981 8.13452765,0.290406626 7.05916266,0.28652635 Z" id="Shape" fill-rule="nonzero"></path>
                                <path d="M19.1848966,2.23207564 L19.1848966,4.85326114 L14.2211459,4.85326114 L14.2211459,2.23207564 L19.1848966,2.23207564 Z M19.1848966,0.28652635 L14.2211459,0.28652635 C13.1457809,0.290406626 12.2749902,1.15918981 12.2711009,2.23207564 L12.2711009,4.85326114 C12.2749902,5.92614697 13.1457809,6.79493015 14.2211459,6.79881043 L19.1848966,6.79881043 C20.2602616,6.79493015 21.1310523,5.92614697 21.1349416,4.85326114 L21.1349416,2.23207564 C21.1310523,1.15918981 20.2602616,0.290406626 19.1848966,0.28652635 Z" id="Shape" fill-rule="nonzero"></path>
                                <rect id="Rectangle" x="8.0306396" y="2.56812506" width="4.78292839" height="1.94554929"></rect>
                            </g>
                            <g transform="translate(21.982325, 30.775052)">
                                <g transform="translate(55.664919, 0.000000)">
                                    <g transform="translate(4.254643, 44.570766)" fill="#CC804B">
                                        <polygon id="Path" points="11.8208178 8.58871577 7.64417614 5.32019297 11.2641687 0.714547194 11.742816 0.109658233 15.9159122 3.37464368 15.4408103 3.98307"></polygon>
                                        <ellipse id="Oval" transform="translate(7.443882, 9.863688) rotate(-51.900000) translate(-7.443882, -9.863688) " cx="7.44388229" cy="9.86368827" rx="5.20450074" ry="5.20736687"></ellipse>
                                    </g>
                                    <path d="M11.9165473,1.66963503 C11.7215428,1.52460317 11.5123562,1.38310868 11.299624,1.25576363 C7.67608597,-0.940938384 3.04561563,0.130882407 1.0955707,3.66824475 C-0.758744756,7.0358137 0.666560814,11.3938441 4.15182294,13.5021121 L18.8232519,22.3879663 L22.4928819,24.6094298 L24.3259242,25.7201616 L24.7832984,25.9996132 L24.8825734,26.0597484 L24.9038466,26.0597484 L24.946393,26.0597484 L25.1272154,26.1234209 C25.4180975,26.1914432 25.686649,26.3327167 25.9072333,26.5337549 C26.1067617,26.7692835 26.1379008,27.1039635 25.9852351,27.3721098 C25.8977786,27.5560527 25.7996854,27.754145 25.6909556,27.9663867 C25.7335021,27.9486999 25.336402,28.4899163 25.0775779,28.8542646 L24.2372858,30.0357437 L20.8725719,34.7581224 L14.1466896,44.2170293 L13.3879449,45.278238 C12.8429007,46.0481807 12.9988494,47.1092988 13.7424985,47.6907191 L17.7702277,50.842509 C18.5138479,51.4235843 19.5835264,51.3209078 20.2024655,50.6090431 L21.0604853,49.6185816 L28.6443873,40.845923 L32.4381111,36.4595937 L33.3847693,35.3630114 C33.7393229,34.9703641 33.9201453,34.754585 34.5618873,33.9763653 L36.192834,32.0060545 L36.5757519,31.5002117 L36.7672109,31.2455216 L36.9303055,30.9872941 L37.2529493,30.4673019 C37.3593154,30.2939711 37.4337717,30.1135656 37.5259556,29.9473096 C37.6602003,29.6967034 37.7786157,29.4379716 37.8805092,29.1726273 L38.0329673,28.7835174 L38.1606066,28.3767207 C38.3285806,27.8248943 38.4379118,27.2569711 38.4867959,26.6823242 C38.5947913,25.5084336 38.4657917,24.3248548 38.1074236,23.2015596 C37.7593772,22.1028548 37.2033173,21.0809587 36.4693858,20.1912643 L35.8950089,19.5333149 L35.2284481,18.8965896 C34.7438915,18.4933303 34.2309706,18.1042205 33.6896854,17.7292601 L32.087103,16.5937668 L31.6829119,16.3072404 L31.3921779,16.098536 L30.9596225,15.7766361 L29.2294008,14.5031856 L25.7654119,11.9350606 L11.9165473,1.66963503 Z" id="Path" fill="#15171B"></path>
                                </g>
                                <g>
                                    <g transform="translate(18.436788, 44.570766)" fill="#CC804B">
                                        <polygon id="Path" points="8.31073696 5.32019297 4.13409526 8.58871577 0.517648292 3.98307 0.0390008987 3.37464368 4.2156426 0.109658233 4.69074445 0.714547194"></polygon>
                                        <ellipse id="Oval" transform="translate(8.508436, 9.860937) rotate(-38.100000) translate(-8.508436, -9.860937) " cx="8.50843608" cy="9.86093688" rx="5.20736687" ry="5.20450074"></ellipse>
                                    </g>
                                    <path d="M34.6398891,13.4030659 C34.8455302,13.2792582 35.0582624,13.1377637 35.2568124,12.9891945 C38.6605272,10.4670552 39.4121809,5.78358743 36.8629403,2.65302176 C34.434248,-0.328974698 29.8498696,-0.650874671 26.5808852,1.77221853 L12.8029314,11.9845836 L9.36021569,14.5385592 L7.63708507,15.815547 L7.20807519,16.1339097 L6.49896794,16.6503646 L4.90347663,17.7823205 C4.37668143,18.1450746 3.86899501,18.5347023 3.38244158,18.9496501 C3.16261833,19.1618918 2.93570401,19.3705962 2.72297184,19.5828379 L2.12732175,20.23725 C1.40305759,21.1281846 0.855557039,22.1486299 0.514102756,23.244008 C0.165991748,24.3633017 0.0454496426,25.5406883 0.159549131,26.7070857 C0.208561005,27.2793976 0.317894685,27.8449621 0.485738466,28.3944075 L0.61337777,28.7976668 L0.765835829,29.1867767 C0.867924036,29.4508923 0.986335978,29.7084352 1.12038945,29.9579217 C1.2125734,30.1312524 1.28702966,30.3116579 1.39339574,30.477914 L1.71603954,30.9979062 L1.87913421,31.2561337 L2.07059317,31.5108238 L2.45351108,32.0166666 L4.08445775,33.9869774 C4.72619981,34.7651971 4.92474984,34.9809762 5.26157579,35.3736234 L6.20823397,36.4702058 L10.0019577,40.8565351 L17.5858598,49.6291937 L18.4438795,50.6196551 C19.0628187,51.3315199 20.1324972,51.4341963 20.8761174,50.8531211 L24.9038466,47.7013312 C25.6474957,47.1199109 25.8034443,46.0587928 25.2584002,45.2888501 L24.4996555,44.2276414 L17.7631366,34.7864213 L14.3984227,30.0675799 L13.5581306,28.8861009 C13.2993065,28.5323647 12.9022064,27.9769988 12.9447528,27.998223 C12.8336594,27.7859812 12.7355662,27.5867098 12.6504733,27.4004087 C12.4955313,27.1303081 12.526715,26.792321 12.7284751,26.5549791 C12.8300721,26.4348178 12.9623977,26.3443592 13.111393,26.2932143 L13.5155842,26.1411077 L13.6999521,26.0774352 L13.7424985,26.0774352 L13.7744083,26.0774352 L13.8878655,26.006688 L14.3487852,25.7272363 L16.192464,24.6094298 L19.8798217,22.3773542 L34.6398891,13.4030659 Z" id="Path" fill="#15171B"></path>
                                </g>
                            </g>
                            <g transform="translate(54.601258, 12.027032)" fill="#D12149" id="Path">
                                <path d="M5.07011683,2.03752071 L1.2622109,2.03752071 C0.723720864,2.03752071 0.287188436,1.60199467 0.287188436,1.06474607 C0.287188436,0.527497464 0.723720864,0.091971421 1.2622109,0.091971421 L5.07011683,0.091971421 L5.07011683,2.03752071 Z"></path>
                                <path d="M24.0032804,2.03752071 L27.8111863,2.03752071 C28.3496763,2.03752071 28.7862088,1.60199467 28.7862088,1.06474607 C28.7862088,0.527497464 28.3496763,0.091971421 27.8111863,0.091971421 L24.0032804,0.091971421 L24.0032804,2.03752071 Z"></path>
                            </g>
                        </g>
                    </g>
                    <path d="M311.99846,147.592906 C309.026579,145.839727 306.797765,143.065163 305.729952,139.789485 L291.377621,95.7634734 C287.122978,82.7282931 268.647188,82.7282931 264.403181,95.7634734 L250.079215,139.789485 C249.011402,143.065163 246.782588,145.839727 243.810707,147.592906 L311.99846,147.592906 Z" id="Path" fill="#BEE70C"></path>
                </g>
            </g>
        </g>
    </g>
</svg>