<?xml version="1.0" encoding="UTF-8"?>
<svg width="24px" height="24px" viewBox="0 0 24 24" version="1.1" xmlns="http://www.w3.org/2000/svg" xmlns:xlink="http://www.w3.org/1999/xlink">
    <!-- Generator: sketchtool 52.4 (67378) - http://www.bohemiancoding.com/sketch -->
    <title>C95615BC-21F4-4B27-B866-034CF4988128</title>
    <desc>Created with sketchtool.</desc>
    <g id="Assets" stroke="none" stroke-width="1" fill="none" fill-rule="evenodd">
        <g id="02.-Icons" transform="translate(-120.000000, -1438.000000)" fill="#D1D2D1">
            <g id="02.4-Footer" transform="translate(120.000000, 1216.000000)">
                <path d="M12,222.585366 C5.70585366,222.585366 0.585365854,227.705854 0.585365854,234 C0.585365854,240.294146 5.70585366,245.414634 12,245.414634 C18.2941463,245.414634 23.4146341,240.294146 23.4146341,234 C23.4146341,227.705854 18.2941463,222.585366 12,222.585366 M12,246 C5.38331707,246 0,240.616683 0,234 C0,227.383317 5.38331707,222 12,222 C18.6166829,222 24,227.383317 24,234 C24,240.616683 18.6166829,246 12,246 M16.2430537,237.229815 C16.2430537,237.786498 15.7902732,238.2384 15.2332976,238.2384 L8.76939512,238.2384 C8.21241951,238.2384 7.75993171,237.786498 7.75993171,237.229815 L7.75993171,232.918888 L9.33280976,232.918888 C9.19729756,233.253424 9.12032195,233.617815 9.12032195,234.000059 C9.12032195,235.588156 10.4128098,236.87918 12.0014927,236.87918 C13.5901756,236.87918 14.8823707,235.588156 14.8823707,234.000059 C14.8823707,233.617815 14.8051024,233.253424 14.6701756,232.918888 L16.2430537,232.918888 L16.2430537,237.229815 Z M10.4979805,232.918888 C10.8345659,232.452351 11.3824683,232.146205 12.0014927,232.146205 C12.6205171,232.146205 13.1678341,232.452351 13.5047122,232.918888 C13.7245171,233.223571 13.8568098,233.595863 13.8568098,234.000059 C13.8568098,235.022107 13.0241268,235.852741 12.0014927,235.852741 C10.9785659,235.852741 10.146761,235.022107 10.146761,234.000059 C10.146761,233.595863 10.2784683,233.223571 10.4979805,232.918888 Z M15.8172,229.949327 L16.0498829,229.948156 L16.0498829,230.180254 L16.0498829,231.732644 L14.270078,231.739083 L14.263639,229.954302 L15.8172,229.949327 Z M15.2332976,228.735571 L8.76939512,228.735571 C7.6469561,228.735571 6.7332,229.648156 6.7332,230.770302 L6.7332,232.918888 L6.7332,237.229815 C6.7332,238.351961 7.6469561,239.264546 8.76939512,239.264546 L15.2332976,239.264546 C16.3557366,239.264546 17.2697854,238.351961 17.2697854,237.229815 L17.2697854,232.918888 L17.2697854,230.770302 C17.2697854,229.648156 16.3557366,228.735571 15.2332976,228.735571 Z" id="02.4-Footer_Instagram_Default_All"></path>
            </g>
        </g>
    </g>
</svg>