<?xml version="1.0" encoding="UTF-8"?>
<svg width="24px" height="24px" viewBox="0 0 24 24" version="1.1" xmlns="http://www.w3.org/2000/svg" xmlns:xlink="http://www.w3.org/1999/xlink">
    <!-- Generator: sketchtool 52.4 (67378) - http://www.bohemiancoding.com/sketch -->
    <title>04F0BC86-2BD3-441C-BD66-FE04AED778B9</title>
    <desc>Created with sketchtool.</desc>
    <g id="Assets" stroke="none" stroke-width="1" fill="none" fill-rule="evenodd">
        <g id="02.-Icons" transform="translate(-120.000000, -1246.000000)" fill="#D1D2D1">
            <g id="02.4-Footer" transform="translate(120.000000, 1216.000000)">
                <path d="M11.9997073,30.585373 C5.70585366,30.585373 0.585365854,35.7059232 0.585365854,42.0001463 C0.585365854,48.2940768 5.70585366,53.414627 11.9997073,53.414627 C18.2938537,53.414627 23.4146341,48.2940768 23.4146341,42.0001463 C23.4146341,35.7059232 18.2938537,30.585373 11.9997073,30.585373 M11.9997073,54 C5.38302439,54 0,48.61691 0,42.0001463 C0,35.38309 5.38302439,30 11.9997073,30 C18.6166829,30 24,35.38309 24,42.0001463 C24,48.61691 18.6166829,54 11.9997073,54 Z M9.45816585,40.2158709 L9.45816585,41.7922804 L10.547239,41.7922804 L10.547239,47.2681521 L12.5889951,47.2681521 L12.5889951,41.7922804 L14.2051902,41.7922804 L14.326361,40.2158709 L12.5889951,40.2158709 L12.5889951,38.9851242 C12.5889951,38.5618995 12.9683122,38.4099952 13.3921171,38.4099952 C13.8156293,38.4099952 14.2692878,38.5414115 14.2692878,38.5414115 L14.5417756,36.9275381 C14.5417756,36.9275381 13.9634341,36.7314382 12.5889951,36.7314382 C11.7454829,36.7314382 11.255239,37.0522226 10.8978732,37.5246186 C10.5589463,37.9703801 10.547239,38.6903889 10.547239,39.1575166 L10.547239,40.2158709 L9.45816585,40.2158709 Z" id="02.4-Footer_Facebook_Default_All"></path>
            </g>
        </g>
    </g>
</svg>