<?xml version="1.0" encoding="UTF-8"?>
<svg width="24px" height="24px" viewBox="0 0 24 24" version="1.1" xmlns="http://www.w3.org/2000/svg" xmlns:xlink="http://www.w3.org/1999/xlink">
    <!-- Generator: sketchtool 52.4 (67378) - http://www.bohemiancoding.com/sketch -->
    <title>F664A55D-3204-4A74-97BE-52F6681101E4</title>
    <desc>Created with sketchtool.</desc>
    <g id="Assets" stroke="none" stroke-width="1" fill="none" fill-rule="evenodd">
        <g id="02.-Icons" transform="translate(-224.000000, -1374.000000)" fill="#FFFFFF">
            <g id="02.4-Footer" transform="translate(120.000000, 1216.000000)">
                <path d="M115.999707,158.58538 C109.705854,158.58538 104.585366,163.705993 104.585366,169.999707 C104.585366,176.294007 109.705854,181.41462 115.999707,181.41462 C122.293854,181.41462 127.414634,176.294007 127.414634,169.999707 C127.414634,163.705993 122.293854,158.58538 115.999707,158.58538 M115.999707,182 C109.383024,182 104,176.616552 104,169.999707 C104,163.383156 109.383024,158 115.999707,158 C122.616683,158 128,163.383156 128,169.999707 C128,176.616552 122.616683,182 115.999707,182 Z M121.268,171.883607 L121.268,168.1161 C121.268,168.1161 121.268,166.300251 119.452195,166.300251 L112.546341,166.300251 C112.546341,166.300251 110.731415,166.300251 110.731415,168.1161 L110.731415,171.883607 C110.731415,171.883607 110.731415,173.699456 112.546341,173.699456 L119.452195,173.699456 C119.452195,173.699456 121.268,173.699456 121.268,171.883607 Z M118.045854,170.005122 L114.596293,172.031123 L114.596293,167.978536 L118.045854,170.005122 Z" id="02.4-Footer_Youtube_OnSelect_All"></path>
            </g>
        </g>
    </g>
</svg>