<?xml version="1.0" encoding="UTF-8"?>
<svg width="24px" height="24px" viewBox="0 0 24 24" version="1.1" xmlns="http://www.w3.org/2000/svg" xmlns:xlink="http://www.w3.org/1999/xlink">
    <!-- Generator: sketchtool 52.4 (67378) - http://www.bohemiancoding.com/sketch -->
    <title>7FFCA364-6DA8-4BAB-8007-020546542748</title>
    <desc>Created with sketchtool.</desc>
    <g id="Assets" stroke="none" stroke-width="1" fill="none" fill-rule="evenodd">
        <g id="02.-Icons" transform="translate(-120.000000, -1310.000000)" fill="#D1D2D1">
            <g id="02.4-Footer" transform="translate(120.000000, 1216.000000)">
                <path d="M12.0002927,94.585373 C5.70599283,94.585373 0.585380131,99.7059232 0.585380131,106.000146 C0.585380131,112.294077 5.70599283,117.414627 12.0002927,117.414627 C18.2942999,117.414627 23.4146199,112.294077 23.4146199,106.000146 C23.4146199,99.7059232 18.2942999,94.585373 12.0002927,94.585373 M12.0002927,118 C5.38344838,118 0,112.61691 0,106.000146 C0,99.38309 5.38344838,94 12.0002927,94 C18.6168443,94 24,99.38309 24,106.000146 C24,112.61691 18.6168443,118 12.0002927,118 Z M17.2684212,103.302367 C16.8806068,103.474174 16.4638162,103.590371 16.0268299,103.642761 C16.4737677,103.375246 16.8165077,102.951729 16.9771946,102.447137 C16.5592332,102.69475 16.0973682,102.874459 15.6038928,102.971046 C15.21081,102.551041 14.6482597,102.288501 14.0262933,102.288501 C12.8329959,102.288501 11.8650699,103.256708 11.8650699,104.449991 C11.8650699,104.619749 11.8835094,104.784239 11.920681,104.942582 C10.1247347,104.851849 8.53191541,103.992229 7.46476743,102.683628 C7.27861655,103.003827 7.17266275,103.375246 7.17266275,103.771251 C7.17266275,104.520528 7.55433059,105.182292 8.13385692,105.570687 C7.78028732,105.559565 7.44632796,105.461515 7.15422327,105.300538 L7.15422327,105.32688 C7.15422327,106.37499 7.89970487,107.248659 8.88899729,107.446515 C8.70782214,107.497443 8.51728091,107.522614 8.31942242,107.522614 C8.18010195,107.522614 8.04458645,107.509735 7.91287592,107.484564 C8.18800459,108.343014 8.98558501,108.968192 9.93214469,108.984875 C9.19193151,109.56498 8.25942096,109.910643 7.24729871,109.910643 C7.07285544,109.910643 6.90046099,109.900691 6.73157882,109.880789 C7.68838264,110.493382 8.82460548,110.851337 10.0448304,110.851337 C14.0221957,110.851337 16.1957121,107.558321 16.1957121,104.701116 C16.1957121,104.607164 16.193956,104.513504 16.1895656,104.4216 C16.6125027,104.116328 16.9798288,103.735543 17.2684212,103.302367 Z" id="02.4-Footer_Twitter_Default_All"></path>
            </g>
        </g>
    </g>
</svg>