<?xml version="1.0" encoding="UTF-8"?>
<svg width="24px" height="24px" viewBox="0 0 24 24" version="1.1" xmlns="http://www.w3.org/2000/svg" xmlns:xlink="http://www.w3.org/1999/xlink">
    <!-- Generator: sketchtool 52.4 (67378) - http://www.bohemiancoding.com/sketch -->
    <title>5B8FA422-0EDD-4F75-92C8-FF84B36FC4F4</title>
    <desc>Created with sketchtool.</desc>
    <g id="Assets" stroke="none" stroke-width="1" fill="none" fill-rule="evenodd">
        <g id="02.-Icons" transform="translate(-224.000000, -1438.000000)" fill="#FFFFFF">
            <g id="02.4-Footer" transform="translate(120.000000, 1216.000000)">
                <path d="M116,222.585366 C109.705854,222.585366 104.585366,227.705854 104.585366,234 C104.585366,240.294146 109.705854,245.414634 116,245.414634 C122.294146,245.414634 127.414634,240.294146 127.414634,234 C127.414634,227.705854 122.294146,222.585366 116,222.585366 M116,246 C109.383317,246 104,240.616683 104,234 C104,227.383317 109.383317,222 116,222 C122.616683,222 128,227.383317 128,234 C128,240.616683 122.616683,246 116,246 M120.243054,237.229815 C120.243054,237.786498 119.790273,238.2384 119.233298,238.2384 L112.769395,238.2384 C112.21242,238.2384 111.759932,237.786498 111.759932,237.229815 L111.759932,232.918888 L113.33281,232.918888 C113.197298,233.253424 113.120322,233.617815 113.120322,234.000059 C113.120322,235.588156 114.41281,236.87918 116.001493,236.87918 C117.590176,236.87918 118.882371,235.588156 118.882371,234.000059 C118.882371,233.617815 118.805102,233.253424 118.670176,232.918888 L120.243054,232.918888 L120.243054,237.229815 Z M114.49798,232.918888 C114.834566,232.452351 115.382468,232.146205 116.001493,232.146205 C116.620517,232.146205 117.167834,232.452351 117.504712,232.918888 C117.724517,233.223571 117.85681,233.595863 117.85681,234.000059 C117.85681,235.022107 117.024127,235.852741 116.001493,235.852741 C114.978566,235.852741 114.146761,235.022107 114.146761,234.000059 C114.146761,233.595863 114.278468,233.223571 114.49798,232.918888 Z M119.8172,229.949327 L120.049883,229.948156 L120.049883,230.180254 L120.049883,231.732644 L118.270078,231.739083 L118.263639,229.954302 L119.8172,229.949327 Z M119.233298,228.735571 L112.769395,228.735571 C111.646956,228.735571 110.7332,229.648156 110.7332,230.770302 L110.7332,232.918888 L110.7332,237.229815 C110.7332,238.351961 111.646956,239.264546 112.769395,239.264546 L119.233298,239.264546 C120.355737,239.264546 121.269785,238.351961 121.269785,237.229815 L121.269785,232.918888 L121.269785,230.770302 C121.269785,229.648156 120.355737,228.735571 119.233298,228.735571 Z" id="02.4-Footer_Instagram_OnSelect_All"></path>
            </g>
        </g>
    </g>
</svg>