<?xml version="1.0" encoding="UTF-8"?>
<svg width="24px" height="24px" viewBox="0 0 24 24" version="1.1" xmlns="http://www.w3.org/2000/svg" xmlns:xlink="http://www.w3.org/1999/xlink">
    <!-- Generator: sketchtool 52.4 (67378) - http://www.bohemiancoding.com/sketch -->
    <title>993B9E9D-5621-4B37-A494-6B6457792397</title>
    <desc>Created with sketchtool.</desc>
    <g id="Assets" stroke="none" stroke-width="1" fill="none" fill-rule="evenodd">
        <g id="02.-Icons" transform="translate(-224.000000, -1502.000000)" fill="#FFFFFF">
            <g id="02.4-Footer" transform="translate(120.000000, 1216.000000)">
                <path d="M116,286.585366 C109.705854,286.585366 104.585366,291.705854 104.585366,298 C104.585366,304.294146 109.705854,309.414634 116,309.414634 C122.294146,309.414634 127.414634,304.294146 127.414634,298 C127.414634,291.705854 122.294146,286.585366 116,286.585366 M116,310 C109.383317,310 104,304.616683 104,298 C104,291.383317 109.383317,286 116,286 C122.616683,286 128,291.383317 128,298 C128,304.616683 122.616683,310 116,310 Z M121.268293,302.363083 L121.268293,298.705424 C121.268293,296.667766 120.121268,295.722107 118.661659,295.722107 C117.485366,295.722107 116.74839,296.36601 116.612,296.816741 L116.612,295.785034 L114.30478,295.785034 C114.335512,296.333229 114.30478,302.363083 114.30478,302.363083 L116.612,302.363083 L116.612,298.803473 C116.612,298.605034 116.602049,298.408059 116.662341,298.2664 C116.821268,297.869815 117.161659,297.460059 117.774244,297.460059 C118.575317,297.460059 118.938829,298.067668 118.938829,298.958595 L118.938829,302.363083 L121.268293,302.363083 Z M111.971512,294.962302 C112.743317,294.962302 113.224488,294.457424 113.224488,293.820254 C113.209268,293.171961 112.743317,292.679961 111.986439,292.679961 C111.227512,292.679961 110.731707,293.173132 110.731707,293.821424 C110.731707,294.458595 111.213463,294.962302 111.956585,294.962302 L111.971512,294.962302 Z M110.996585,302.363083 L113.051512,302.363083 L113.051512,295.785034 L110.996585,295.785034 L110.996585,302.363083 Z" id="02.4-Footer_Linkedin_OnSelect_All"></path>
            </g>
        </g>
    </g>
</svg>