<?xml version="1.0" encoding="UTF-8"?>
<svg width="24px" height="24px" viewBox="0 0 24 24" version="1.1" xmlns="http://www.w3.org/2000/svg" xmlns:xlink="http://www.w3.org/1999/xlink">
    <!-- Generator: sketchtool 52.4 (67378) - http://www.bohemiancoding.com/sketch -->
    <title>2E05521B-A101-4A06-8242-9E78157C065A</title>
    <desc>Created with sketchtool.</desc>
    <g id="Assets" stroke="none" stroke-width="1" fill="none" fill-rule="evenodd">
        <g id="02.-Icons" transform="translate(-224.000000, -1246.000000)" fill="#FFFFFF">
            <g id="02.4-Footer" transform="translate(120.000000, 1216.000000)">
                <path d="M115.999707,30.585373 C109.705854,30.585373 104.585366,35.7059232 104.585366,42.0001463 C104.585366,48.2940768 109.705854,53.414627 115.999707,53.414627 C122.293854,53.414627 127.414634,48.2940768 127.414634,42.0001463 C127.414634,35.7059232 122.293854,30.585373 115.999707,30.585373 M115.999707,54 C109.383024,54 104,48.61691 104,42.0001463 C104,35.38309 109.383024,30 115.999707,30 C122.616683,30 128,35.38309 128,42.0001463 C128,48.61691 122.616683,54 115.999707,54 Z M113.458166,40.2158709 L113.458166,41.7922804 L114.547239,41.7922804 L114.547239,47.2681521 L116.588995,47.2681521 L116.588995,41.7922804 L118.20519,41.7922804 L118.326361,40.2158709 L116.588995,40.2158709 L116.588995,38.9851242 C116.588995,38.5618995 116.968312,38.4099952 117.392117,38.4099952 C117.815629,38.4099952 118.269288,38.5414115 118.269288,38.5414115 L118.541776,36.9275381 C118.541776,36.9275381 117.963434,36.7314382 116.588995,36.7314382 C115.745483,36.7314382 115.255239,37.0522226 114.897873,37.5246186 C114.558946,37.9703801 114.547239,38.6903889 114.547239,39.1575166 L114.547239,40.2158709 L113.458166,40.2158709 Z" id="02.4-Footer_Facebook_OnSelect_All"></path>
            </g>
        </g>
    </g>
</svg>