<?xml version="1.0" encoding="UTF-8"?>
<svg width="24px" height="24px" viewBox="0 0 24 24" version="1.1" xmlns="http://www.w3.org/2000/svg" xmlns:xlink="http://www.w3.org/1999/xlink">
    <!-- Generator: sketchtool 52.4 (67378) - http://www.bohemiancoding.com/sketch -->
    <title>3D0EEFC0-C1A4-47BF-B820-610F2D2F7C86</title>
    <desc>Created with sketchtool.</desc>
    <g id="Assets" stroke="none" stroke-width="1" fill="none" fill-rule="evenodd">
        <g id="02.-Icons" transform="translate(-120.000000, -1502.000000)" fill="#D1D2D1">
            <g id="02.4-Footer" transform="translate(120.000000, 1216.000000)">
                <path d="M12,286.585366 C5.70585366,286.585366 0.585365854,291.705854 0.585365854,298 C0.585365854,304.294146 5.70585366,309.414634 12,309.414634 C18.2941463,309.414634 23.4146341,304.294146 23.4146341,298 C23.4146341,291.705854 18.2941463,286.585366 12,286.585366 M12,310 C5.38331707,310 0,304.616683 0,298 C0,291.383317 5.38331707,286 12,286 C18.6166829,286 24,291.383317 24,298 C24,304.616683 18.6166829,310 12,310 Z M17.2682927,302.363083 L17.2682927,298.705424 C17.2682927,296.667766 16.1212683,295.722107 14.6616585,295.722107 C13.4853659,295.722107 12.7483902,296.36601 12.612,296.816741 L12.612,295.785034 L10.3047805,295.785034 C10.3355122,296.333229 10.3047805,302.363083 10.3047805,302.363083 L12.612,302.363083 L12.612,298.803473 C12.612,298.605034 12.6020488,298.408059 12.6623415,298.2664 C12.8212683,297.869815 13.1616585,297.460059 13.7742439,297.460059 C14.5753171,297.460059 14.9388293,298.067668 14.9388293,298.958595 L14.9388293,302.363083 L17.2682927,302.363083 Z M7.9715122,294.962302 C8.74331707,294.962302 9.2244878,294.457424 9.2244878,293.820254 C9.20926829,293.171961 8.74331707,292.679961 7.98643902,292.679961 C7.2275122,292.679961 6.73170732,293.173132 6.73170732,293.821424 C6.73170732,294.458595 7.21346341,294.962302 7.95658537,294.962302 L7.9715122,294.962302 Z M6.99658537,302.363083 L9.0515122,302.363083 L9.0515122,295.785034 L6.99658537,295.785034 L6.99658537,302.363083 Z" id="02.4-Footer_Linkedin_Default_All"></path>
            </g>
        </g>
    </g>
</svg>