<?xml version="1.0" encoding="UTF-8"?>
<svg width="24px" height="24px" viewBox="0 0 24 24" version="1.1" xmlns="http://www.w3.org/2000/svg" xmlns:xlink="http://www.w3.org/1999/xlink">
    <!-- Generator: sketchtool 52.4 (67378) - http://www.bohemiancoding.com/sketch -->
    <title>FCB82D5C-6C65-4BE4-9DA8-D0CC18617B1C</title>
    <desc>Created with sketchtool.</desc>
    <g id="Assets" stroke="none" stroke-width="1" fill="none" fill-rule="evenodd">
        <g id="02.-Icons" transform="translate(-120.000000, -1374.000000)" fill="#D1D2D1">
            <g id="02.4-Footer" transform="translate(120.000000, 1216.000000)">
                <path d="M11.9997073,158.58538 C5.70585366,158.58538 0.585365854,163.705993 0.585365854,169.999707 C0.585365854,176.294007 5.70585366,181.41462 11.9997073,181.41462 C18.2938537,181.41462 23.4146341,176.294007 23.4146341,169.999707 C23.4146341,163.705993 18.2938537,158.58538 11.9997073,158.58538 M11.9997073,182 C5.38302439,182 0,176.616552 0,169.999707 C0,163.383156 5.38302439,158 11.9997073,158 C18.6166829,158 24,163.383156 24,169.999707 C24,176.616552 18.6166829,182 11.9997073,182 Z M17.268,171.883607 L17.268,168.1161 C17.268,168.1161 17.268,166.300251 15.4521951,166.300251 L8.54634146,166.300251 C8.54634146,166.300251 6.73141463,166.300251 6.73141463,168.1161 L6.73141463,171.883607 C6.73141463,171.883607 6.73141463,173.699456 8.54634146,173.699456 L15.4521951,173.699456 C15.4521951,173.699456 17.268,173.699456 17.268,171.883607 Z M14.0458537,170.005122 L10.5962927,172.031123 L10.5962927,167.978536 L14.0458537,170.005122 Z" id="02.4-Footer_Youtube_Default_All"></path>
            </g>
        </g>
    </g>
</svg>