<?xml version="1.0" encoding="UTF-8"?>
<svg width="24px" height="24px" viewBox="0 0 24 24" version="1.1" xmlns="http://www.w3.org/2000/svg" xmlns:xlink="http://www.w3.org/1999/xlink">
    <!-- Generator: sketchtool 52.4 (67378) - http://www.bohemiancoding.com/sketch -->
    <title>5E6E4432-A0F9-43A0-96A0-E85DE975E08B</title>
    <desc>Created with sketchtool.</desc>
    <g id="Assets" stroke="none" stroke-width="1" fill="none" fill-rule="evenodd">
        <g id="02.-Icons" transform="translate(-224.000000, -1310.000000)" fill="#FFFFFF">
            <g id="02.4-Footer" transform="translate(120.000000, 1216.000000)">
                <path d="M116.000293,94.585373 C109.705993,94.585373 104.58538,99.7059232 104.58538,106.000146 C104.58538,112.294077 109.705993,117.414627 116.000293,117.414627 C122.2943,117.414627 127.41462,112.294077 127.41462,106.000146 C127.41462,99.7059232 122.2943,94.585373 116.000293,94.585373 M116.000293,118 C109.383448,118 104,112.61691 104,106.000146 C104,99.38309 109.383448,94 116.000293,94 C122.616844,94 128,99.38309 128,106.000146 C128,112.61691 122.616844,118 116.000293,118 Z M121.268421,103.302367 C120.880607,103.474174 120.463816,103.590371 120.02683,103.642761 C120.473768,103.375246 120.816508,102.951729 120.977195,102.447137 C120.559233,102.69475 120.097368,102.874459 119.603893,102.971046 C119.21081,102.551041 118.64826,102.288501 118.026293,102.288501 C116.832996,102.288501 115.86507,103.256708 115.86507,104.449991 C115.86507,104.619749 115.883509,104.784239 115.920681,104.942582 C114.124735,104.851849 112.531915,103.992229 111.464767,102.683628 C111.278617,103.003827 111.172663,103.375246 111.172663,103.771251 C111.172663,104.520528 111.554331,105.182292 112.133857,105.570687 C111.780287,105.559565 111.446328,105.461515 111.154223,105.300538 L111.154223,105.32688 C111.154223,106.37499 111.899705,107.248659 112.888997,107.446515 C112.707822,107.497443 112.517281,107.522614 112.319422,107.522614 C112.180102,107.522614 112.044586,107.509735 111.912876,107.484564 C112.188005,108.343014 112.985585,108.968192 113.932145,108.984875 C113.191932,109.56498 112.259421,109.910643 111.247299,109.910643 C111.072855,109.910643 110.900461,109.900691 110.731579,109.880789 C111.688383,110.493382 112.824605,110.851337 114.04483,110.851337 C118.022196,110.851337 120.195712,107.558321 120.195712,104.701116 C120.195712,104.607164 120.193956,104.513504 120.189566,104.4216 C120.612503,104.116328 120.979829,103.735543 121.268421,103.302367 Z" id="02.4-Footer_Twitter_OnSelect_All"></path>
            </g>
        </g>
    </g>
</svg>