<?xml version="1.0" encoding="UTF-8"?>
<svg width="64px" height="64px" viewBox="0 0 64 64" version="1.1" xmlns="http://www.w3.org/2000/svg" xmlns:xlink="http://www.w3.org/1999/xlink">
    <!-- Generator: Sketch 53 (72520) - https://sketchapp.com -->
    <title>02. Icon / Filled / Category / Video / b. Selected</title>
    <desc>Created with Sketch.</desc>
    <g id="02.-Icon-/-Filled-/-Category-/-Video-/-b.-Selected" stroke="none" stroke-width="1" fill="none" fill-rule="evenodd">
        <path d="M8,16 L56,16 C58.209139,16 60,17.790861 60,20 L60,44 C60,46.209139 58.209139,48 56,48 L8,48 C5.790861,48 4,46.209139 4,44 L4,20 C4,17.790861 5.790861,16 8,16 Z M39.6922661,29.8850485 L28.4234528,24.2527399 C26.8508759,23.4665357 25,24.6097642 25,26.3677752 L25,37.6323924 C25,39.3904034 26.8508759,40.5332148 28.4234528,39.7474277 L39.6922661,34.1151191 C41.4359113,33.2434126 41.4359113,30.7563379 39.6922661,29.8850485" id="Combined-Shape" fill="#FFFFFF" fill-rule="nonzero"></path>
    </g>
</svg>