<?xml version="1.0" encoding="UTF-8"?>
<svg width="80px" height="80px" viewBox="0 0 80 80" version="1.1" xmlns="http://www.w3.org/2000/svg" xmlns:xlink="http://www.w3.org/1999/xlink">
    <!-- Generator: sketchtool 52.4 (67378) - http://www.bohemiancoding.com/sketch -->
    <title>B421B12D-7CC9-4303-ABD8-8C02D4808797</title>
    <desc>Created with sketchtool.</desc>
    <g id="Assets" stroke="none" stroke-width="1" fill="none" fill-rule="evenodd">
        <g id="02.-Icons" transform="translate(-120.000000, -4441.000000)">
            <g id="05.-Profile-/-Avatar-3" transform="translate(120.000000, 4441.000000)">
                <circle id="Bg---oval" stroke="#719E19" cx="40" cy="40" r="39.5"></circle>
                <g id="avatar_3" fill-rule="evenodd">
                    <circle id="Oval" fill="#D12149" cx="40" cy="40" r="40"></circle>
                    <circle id="Oval" fill="#FFFFFF" cx="39.992" cy="58.647" r="1"></circle>
                    <path d="M33.536,62.668 L46.507,62.668 L46.507,68.974 C46.507,69.891345 45.763345,70.635 44.846,70.635 L35.2,70.635 C34.282655,70.635 33.539,69.891345 33.539,68.974 L33.539,62.668 L33.536,62.668 Z" id="Path" fill="#FFD400"></path>
                    <path d="M44.792,71.177 L35.252,71.177 C34.0061785,71.1753473 32.9966527,70.1658215 32.995,68.92 L32.995,62.668 C32.995,62.3686617 33.2376617,62.126 33.537,62.126 L46.507,62.126 C46.8063383,62.126 47.049,62.3686617 47.049,62.668 L47.049,68.919 C47.0478983,70.165212 46.0382114,71.1753462 44.792,71.177 Z M34.078,63.209 L34.078,68.919 C34.0785514,69.5671538 34.6038462,70.0924486 35.252,70.093 L44.792,70.093 C45.4401538,70.0924486 45.9654486,69.5671538 45.966,68.919 L45.966,63.209 L34.078,63.209 Z" id="Shape" fill="#FFD400" fill-rule="nonzero"></path>
                    <path d="M33.536,66.7 C33.748497,66.7618091 33.9686963,66.7931218 34.19,66.793 L45.853,66.793 C46.0743037,66.7931218 46.294503,66.7618091 46.507,66.7 L46.507,63.526 L33.536,63.526 L33.536,66.7 Z" id="Path" fill="#D12149"></path>
                    <path d="M45.853,67.336 L34.19,67.336 C33.9175792,67.335919 33.6465467,67.2972 33.385,67.221 C33.1539555,67.1534964 32.995111,66.9417037 32.995,66.701 L32.995,63.526 C32.995,63.2266617 33.2376617,62.984 33.537,62.984 L46.507,62.984 C46.8063383,62.984 47.049,63.2266617 47.049,63.526 L47.049,66.7 C47.048889,66.9407037 46.8900445,67.1524964 46.659,67.22 C46.3971776,67.2966188 46.1258027,67.3356752 45.853,67.336 Z M34.078,66.249 C34.115,66.249 34.153,66.249 34.19,66.249 L45.853,66.249 C45.8903333,66.249 45.9276667,66.249 45.965,66.249 L45.965,64.067 L34.078,64.067 L34.078,66.249 Z" id="Shape" fill="#D12149" fill-rule="nonzero"></path>
                    <path d="M47.341,63.591 C47.3388022,64.4118876 46.6738876,65.0768022 45.853,65.079 L34.19,65.079 C33.3683314,65.0779015 32.7022021,64.4126663 32.7,63.591" id="Path" fill="#D12149"></path>
                    <path d="M45.853,65.62 L34.19,65.62 C33.0698712,65.6188975 32.1621025,64.7111288 32.161,63.591 C32.173466,63.300982 32.4122142,63.0722755 32.7025,63.0722755 C32.9927858,63.0722755 33.231534,63.300982 33.244,63.591 C33.2445512,64.1132329 33.6677671,64.5364488 34.19,64.537 L45.853,64.537 C46.3752329,64.5364488 46.7984488,64.1132329 46.799,63.591 C46.7904459,63.3919897 46.8917435,63.204324 47.0628069,63.1022671 C47.2338703,63.0002103 47.4471297,63.0002103 47.6181931,63.1022671 C47.7892565,63.204324 47.8905541,63.3919897 47.882,63.591 C47.8808975,64.7111288 46.9731288,65.6188975 45.853,65.62 Z" id="Path" fill="#FFD400"></path>
                    <path d="M32.7,63.591 C32.7005508,62.768162 33.3671626,62.1011028 34.19,62.1 L45.853,62.1 C46.6738876,62.1021978 47.3388022,62.7671124 47.341,63.588" id="Path" fill="#D12149"></path>
                    <path d="M47.341,64.132 C47.0416617,64.132 46.799,63.8893383 46.799,63.59 C46.7984488,63.0677671 46.3752329,62.6445512 45.853,62.644 L34.19,62.644 C33.6677671,62.6445512 33.2445512,63.0677671 33.244,63.59 C33.231534,63.880018 32.9927858,64.1087245 32.7025,64.1087245 C32.4122142,64.1087245 32.173466,63.880018 32.161,63.59 C32.1621025,62.4698712 33.0698712,61.5621025 34.19,61.561 L45.853,61.561 C46.9731288,61.5621025 47.8808975,62.4698712 47.882,63.59 C47.8820005,63.8889482 47.6399477,64.1314484 47.341,64.132 Z" id="Path" fill="#00B49C"></path>
                    <path d="M32.7,63.837 C32.4006617,63.837 32.158,63.5943383 32.158,63.295 L32.158,56.611 C32.170466,56.320982 32.4092142,56.0922755 32.6995,56.0922755 C32.9897858,56.0922755 33.228534,56.320982 33.241,56.611 L33.241,63.3 C33.2382606,63.5969945 32.9970067,63.8364647 32.7,63.837 Z" id="Path" fill="#00B49C"></path>
                    <path d="M47.341,63.837 C47.0439933,63.8364647 46.8027394,63.5969945 46.8,63.3 L46.8,56.611 C46.7914459,56.4119897 46.8927435,56.224324 47.0638069,56.1222671 C47.2348703,56.0202103 47.4481297,56.0202103 47.6191931,56.1222671 C47.7902565,56.224324 47.8915541,56.4119897 47.883,56.611 L47.883,63.3 C47.8802565,63.5973839 47.6383965,63.8370127 47.341,63.837 Z" id="Path" fill="#00B49C"></path>
                    <path d="M61.315,30.68 C61.315,18.908 51.772,9.365 40,9.365 C28.228,9.365 18.685,18.908 18.685,30.68 C18.685,35.491 21.252,40.529 22.968,43.418 C24.61,46.183 29.345,53.306 30.911,55.654 C31.2292383,56.1308583 31.764703,56.4171649 32.338,56.417 L47.672,56.417 C48.2396618,56.4170845 48.7705868,56.1362708 49.09,55.667 C50.677,53.336 55.509,46.206 57.148,43.418 C58.847,40.529 61.315,35.42 61.315,30.68 Z" id="Path" fill="#BEE70C"></path>
                    <path d="M47.672,56.958 L32.338,56.958 C31.584075,56.9600412 30.8791436,56.5846784 30.46,55.958 C29.013,53.789 24.16,46.493 22.502,43.698 C18.902,37.633 18.143,33.273 18.143,30.684 C18.143,18.632 27.943,8.828 39.999,8.828 C52.055,8.828 61.855,18.628 61.855,30.684 C61.855,35.731 59.198,41.003 57.614,43.696 C55.956,46.516 51.014,53.808 49.536,55.976 C49.1151746,56.5913106 48.4174532,56.958887 47.672,56.958 Z M40,9.907 C28.546,9.907 19.227,19.226 19.227,30.68 C19.227,35.125 21.515,39.91 23.434,43.141 C25.081,45.914 29.918,53.189 31.362,55.353 C31.5793811,55.6794741 31.945776,55.8754353 32.338,55.875 L47.672,55.875 C48.0603144,55.8750974 48.4235111,55.6830151 48.642,55.362 C50.113,53.201 55.042,45.934 56.681,43.143 C60.374,36.863 60.772,32.335 60.772,30.68 C60.773,19.225 51.454,9.907 40,9.907 Z" id="Shape" fill="#BEE70C" fill-rule="nonzero"></path>
                    <path d="M61.315,30.68 C61.315,18.908 51.772,9.365 40,9.365 C28.228,9.365 18.685,18.908 18.685,30.68 C18.685,35.491 21.252,40.529 22.968,43.418 C24.61,46.183 29.345,53.306 30.911,55.654 C31.2292383,56.1308583 31.764703,56.4171649 32.338,56.417 L47.672,56.417 C48.2396618,56.4170845 48.7705868,56.1362708 49.09,55.667 C50.677,53.336 55.509,46.206 57.148,43.418 C58.847,40.529 61.315,35.42 61.315,30.68 Z" id="Path" fill="#FFD400"></path>
                    <path d="M47.672,56.958 L32.338,56.958 C31.584075,56.9600412 30.8791436,56.5846784 30.46,55.958 C29.013,53.789 24.16,46.493 22.502,43.698 C18.902,37.633 18.143,33.273 18.143,30.684 C18.143,18.632 27.943,8.828 39.999,8.828 C52.055,8.828 61.855,18.628 61.855,30.684 C61.855,35.731 59.198,41.003 57.614,43.696 C55.956,46.516 51.014,53.808 49.536,55.976 C49.1151746,56.5913106 48.4174532,56.958887 47.672,56.958 Z M40,9.907 C28.546,9.907 19.227,19.226 19.227,30.68 C19.227,35.125 21.515,39.91 23.434,43.141 C25.081,45.914 29.918,53.189 31.362,55.353 C31.5793811,55.6794741 31.945776,55.8754353 32.338,55.875 L47.672,55.875 C48.0603144,55.8750974 48.4235111,55.6830151 48.642,55.362 C50.113,53.201 55.042,45.934 56.681,43.143 C60.374,36.863 60.772,32.335 60.772,30.68 C60.773,19.225 51.454,9.907 40,9.907 Z" id="Shape" fill="#FFD400" fill-rule="nonzero"></path>
                    <path d="M51.678,30.68 C51.678,18.908 46.45,9.365 40,9.365 C33.55,9.365 28.322,18.908 28.322,30.68 C28.322,35.491 29.729,40.529 30.668,43.418 C31.568,46.183 34.162,53.306 35.02,55.654 C35.194,56.131 35.488,56.417 35.802,56.417 L44.202,56.417 C44.513,56.417 44.802,56.136 44.979,55.667 C45.85,53.336 48.5,46.205 49.4,43.417 C50.326,40.529 51.678,35.42 51.678,30.68 Z" id="Path" fill="#D12149"></path>
                    <path d="M45.011,56.893 L34.989,56.893 L30.2,43.485 C28.7,39.749 27.908,35.322 27.908,30.679 C27.908,24.907 29.137,19.474 31.369,15.379 C33.65,11.193 36.716,8.888 40.002,8.888 C43.288,8.888 46.353,11.193 48.635,15.379 C50.866,19.474 52.096,24.907 52.096,30.679 C52.096,35.321 51.304,39.748 49.804,43.479 L45.011,56.893 Z M35.66,55.94 L44.34,55.94 L48.675,43.8 L48.646,43.8 L48.909,43.145 C50.369,39.517 51.141,35.206 51.141,30.675 C51.141,25.06 49.953,19.788 47.797,15.831 C45.69,11.965 42.922,9.837 39.997,9.837 C37.072,9.837 34.308,11.966 32.197,15.831 C30.04,19.788 28.853,25.06 28.853,30.675 C28.853,35.205 29.625,39.517 31.085,43.145 L31.348,43.799 L31.318,43.799 L35.66,55.94 Z" id="Shape" fill="#FFFFFF" fill-rule="nonzero"></path>
                    <path d="M29.521,53.564 C30.09,54.421 30.574,55.148 30.911,55.654 C31.2292383,56.1308583 31.764703,56.4171649 32.338,56.417 L47.672,56.417 C48.2396618,56.4170845 48.7705868,56.1362708 49.09,55.667 C49.435,55.161 49.932,54.429 50.516,53.567 L29.521,53.564 Z" id="Path" fill="#FFFFFF"></path>
                    <path d="M47.672,56.958 L32.338,56.958 C31.584075,56.9600412 30.8791436,56.5846784 30.46,55.958 C30.123,55.452 29.638,54.725 29.069,53.867 L28.511,53.026 L51.536,53.026 L50.965,53.871 C50.38,54.736 49.882,55.471 49.537,55.971 C49.1171024,56.588503 48.4187422,56.9580909 47.672,56.958 Z M30.531,54.105 L31.362,55.353 C31.5793811,55.6794741 31.945776,55.8754353 32.338,55.875 L47.672,55.875 C48.0603579,55.8752728 48.4236316,55.6831497 48.642,55.362 L49.5,54.105 L30.531,54.105 Z" id="Shape" fill="#FFFFFF" fill-rule="nonzero"></path>
                    <rect id="Rectangle" fill="#FFFFFF" x="39.643" y="59.247" width="1" height="1"></rect>
                    <path d="M41.492,63.752 L41.492,60.595 C41.4909017,60.227082 41.192918,59.9290983 40.825,59.928 L39.16,59.928 C38.792082,59.9290983 38.4940983,60.227082 38.493,60.595 L38.493,63.752 L41.492,63.752 Z" id="Path" fill="#FFD400"></path>
                    <path d="M41.272,60.816 C41.0671201,60.8157238 40.8910295,60.6706153 40.8515984,60.4695654 C40.8121674,60.2685156 40.9204022,60.0676435 41.11,59.99 L44.042,58.8 C44.2615332,58.7105299 44.5120299,58.8159668 44.6015,59.0355 C44.6909701,59.2550332 44.5855332,59.5055299 44.366,59.595 L41.433,60.789 C41.3815562,60.8082221 41.3269002,60.817388 41.272,60.816 Z" id="Path" fill="#FFD400"></path>
                    <path d="M44.2,59.623 C44.1721174,59.6225276 44.1443358,59.6195151 44.117,59.614 C44.0892599,59.608287 44.0621346,59.599915 44.036,59.589 C44.0100712,59.5785505 43.9852761,59.5654828 43.962,59.55 C43.9398343,59.5352828 43.9190791,59.5185446 43.9,59.5 C43.8802903,59.4800827 43.8625419,59.4583158 43.847,59.435 C43.8315172,59.4117239 43.8184495,59.3869288 43.808,59.361 C43.7970908,59.3348633 43.788719,59.3077386 43.783,59.28 C43.771656,59.2249113 43.771656,59.1680887 43.783,59.113 C43.788713,59.0852599 43.797085,59.0581346 43.808,59.032 C43.8184304,59.0060623 43.8314991,58.9812654 43.847,58.958 C43.8779809,58.9111177 43.9181177,58.8709809 43.965,58.84 C43.9882761,58.8245172 44.0130712,58.8114495 44.039,58.801 C44.0651346,58.790085 44.0922599,58.781713 44.12,58.776 C44.1751109,58.7648754 44.2318891,58.7648754 44.287,58.776 C44.3147063,58.7818443 44.3418194,58.7902126 44.368,58.801 C44.3939288,58.8114495 44.4187239,58.8245172 44.442,58.84 C44.4888823,58.8709809 44.5290191,58.9111177 44.56,58.958 C44.5755009,58.9812654 44.5885696,59.0060623 44.599,59.032 C44.609915,59.0581346 44.618287,59.0852599 44.624,59.113 C44.6342346,59.1681962 44.6342346,59.2248038 44.624,59.28 C44.618281,59.3077386 44.6099092,59.3348633 44.599,59.361 C44.5885505,59.3869288 44.5754828,59.4117239 44.56,59.435 C44.5444581,59.4583158 44.5267097,59.4800827 44.507,59.5 C44.4871078,59.5197377 44.4653381,59.5374884 44.442,59.553 C44.4187239,59.5684828 44.3939288,59.5815505 44.368,59.592 C44.3157255,59.6138097 44.2596418,59.6250265 44.203,59.625 L44.2,59.623 Z" id="Path" fill="#FFFFFF"></path>
                    <path d="M38.8,60.816 C38.7444348,60.8159503 38.6894108,60.8050814 38.638,60.784 L35.7,59.591 C35.4804668,59.501806 35.374806,59.2515332 35.464,59.032 C35.553194,58.8124668 35.8034668,58.706806 36.023,58.796 L38.96,59.99 C39.1495978,60.0676435 39.2578326,60.2685156 39.2184016,60.4695654 C39.1789705,60.6706153 39.0028799,60.8157238 38.798,60.816 L38.8,60.816 Z" id="Path" fill="#FFD400"></path>
                    <path d="M35.865,59.623 C35.7218604,59.622869 35.5882619,59.5511911 35.509,59.432 C35.4935051,59.408731 35.4804368,59.3839347 35.47,59.358 C35.4590732,59.3318697 35.4507009,59.3047432 35.445,59.277 C35.4335997,59.221917 35.4335997,59.165083 35.445,59.11 C35.4506948,59.0822552 35.4590673,59.0551282 35.47,59.029 C35.480411,59.0030534 35.4934807,58.9782545 35.509,58.955 C35.6048237,58.8102208 35.7787686,58.7378755 35.949,58.772 C35.9767063,58.7778443 36.0038194,58.7862126 36.03,58.797 C36.0559406,58.807424 36.0807382,58.820493 36.104,58.836 C36.1273158,58.8515419 36.1490827,58.8692903 36.169,58.889 C36.188733,58.9088964 36.2064833,58.9306656 36.222,58.954 C36.2371828,58.9774531 36.2502349,59.0022187 36.261,59.028 C36.2715366,59.0542701 36.279898,59.0813612 36.286,59.109 C36.2962346,59.1641962 36.2962346,59.2208038 36.286,59.276 C36.2798893,59.3036365 36.2715281,59.3307269 36.261,59.357 C36.2502156,59.3827723 36.2371644,59.4075361 36.222,59.431 C36.2064884,59.4543381 36.1887377,59.4761078 36.169,59.496 C36.149125,59.5157568 36.1273534,59.5335091 36.104,59.549 C36.0807382,59.564507 36.0559406,59.577576 36.03,59.588 C35.9777333,59.6098353 35.9216444,59.6210531 35.865,59.621 L35.865,59.623 Z" id="Path" fill="#FFFFFF"></path>
                </g>
            </g>
        </g>
    </g>
</svg>