<?xml version="1.0" encoding="UTF-8"?>
<svg width="80px" height="80px" viewBox="0 0 80 80" version="1.1" xmlns="http://www.w3.org/2000/svg" xmlns:xlink="http://www.w3.org/1999/xlink">
    <!-- Generator: sketchtool 52.4 (67378) - http://www.bohemiancoding.com/sketch -->
    <title>0CC455DC-C17B-4B99-B524-DE1CB73EDDC0</title>
    <desc>Created with sketchtool.</desc>
    <g id="Assets" stroke="none" stroke-width="1" fill="none" fill-rule="evenodd">
        <g id="02.-Icons" transform="translate(-120.000000, -4233.000000)">
            <g id="05.-Profile-/-Avatar-4" transform="translate(120.000000, 4233.000000)">
                <circle id="Bg---oval" stroke="#719E19" cx="40" cy="40" r="39.5"></circle>
                <g id="avatar_4" fill-rule="evenodd">
                    <circle id="Oval" fill="#53565D" cx="40" cy="40" r="40"></circle>
                    <path d="M79,48.928 C74.9739491,48.2804374 70.8663922,49.4304157 67.7618385,52.0743086 C64.6572848,54.7182015 62.867852,58.590204 62.866,62.668 C62.8610364,65.5947005 63.7831241,68.4477812 65.5,70.818 C72.2873139,65.2066619 77.0327756,57.5119836 79,48.928 Z" id="Path" fill="#D12149"></path>
                    <path d="M3.218,48.751 C2.475144,48.7511207 1.73347356,48.8103072 1,48.928 C2.96722436,57.5119836 7.71268606,65.2066619 14.5,70.818 C16.2176496,68.4480553 17.1404507,65.5949333 17.136,62.668 C17.136,58.9768088 15.6696116,55.4368139 13.0594515,52.8268414 C10.4492915,50.2168688 6.90919115,48.7507348 3.218,48.751 Z" id="Path" fill="#D12149"></path>
                    <path d="M11.651,68.218 C19.1577347,75.7597461 29.3600883,79.9996106 40.001,79.9996106 C50.6419117,79.9996106 60.8442653,75.7597461 68.351,68.218 L68.351,67.456 C68.351,57.232 59.986,48.867 49.762,48.867 L30.24,48.867 C20.016,48.867 11.651,57.232 11.651,67.456 L11.651,68.218 Z" id="Path" fill="#00B49C"></path>
                    <rect id="Rectangle" fill="#D12149" x="14.91" y="36.53" width="7.647" height="11.709" rx="3.8235"></rect>
                    <rect id="Rectangle" fill="#D12149" x="57.444" y="36.53" width="7.647" height="11.709" rx="3.8235"></rect>
                    <path d="M62.856,54.3 C59.3817225,50.8253571 54.6696287,48.8728956 49.756,48.872 L30.24,48.872 C25.3263713,48.8728956 20.6142775,50.8253571 17.14,54.3 C18.7959211,58.6841498 22.9905501,61.5873888 27.677,61.593 L52.319,61.593 C57.0054499,61.5873888 61.2000789,58.6841498 62.856,54.3 Z" id="Path" fill="#53565D"></path>
                    <path d="M32.521,21.51 L47.479,21.51 C54.6587017,21.51 60.479,27.3302983 60.479,34.51 L60.479,50.59 C60.479,54.9530495 56.9420495,58.49 52.579,58.49 L27.421,58.49 C23.0579505,58.49 19.521,54.9530495 19.521,50.59 L19.521,34.51 C19.521,27.3302983 25.3412983,21.51 32.521,21.51 Z" id="Path" fill="#00B49C"></path>
                    <path d="M30,42.294 C26.6001351,42.294 23.844,39.5378649 23.844,36.138 C23.844,32.7381351 26.6001351,29.982 30,29.982 C33.3998649,29.982 36.156,32.7381351 36.156,36.138 C36.1521424,39.5362658 33.3982658,42.2901424 30,42.294 Z" id="Path" fill="#D12149"></path>
                    <circle id="Oval" fill="#FFD400" cx="29.997" cy="36.138" r="4.606"></circle>
                    <path d="M30,38.679 C28.5971967,38.679 27.46,37.5418033 27.46,36.139 C27.46,34.7361967 28.5971967,33.599 30,33.599 C31.4028033,33.599 32.54,34.7361967 32.54,36.139 C32.5383469,37.5411179 31.4021179,38.6773469 30,38.679 Z" id="Path" fill="#232531"></path>
                    <path d="M50,42.294 C46.6001351,42.294 43.844,39.5378649 43.844,36.138 C43.844,32.7381351 46.6001351,29.982 50,29.982 C53.3998649,29.982 56.156,32.7381351 56.156,36.138 C56.1521424,39.5362658 53.3982658,42.2901424 50,42.294 Z" id="Path" fill="#D12149"></path>
                    <circle id="Oval" fill="#FFD400" cx="50.003" cy="36.138" r="4.606"></circle>
                    <path d="M50,38.679 C48.5971967,38.679 47.46,37.5418033 47.46,36.139 C47.46,34.7361967 48.5971967,33.599 50,33.599 C51.4028033,33.599 52.54,34.7361967 52.54,36.139 C52.5383469,37.5411179 51.4021179,38.6773469 50,38.679 Z" id="Path" fill="#232531"></path>
                    <rect id="Rectangle" fill="#232531" x="38.487" y="36.138" width="3.027" height="8.357" rx="1.5135"></rect>
                    <path d="M38.921,55.924 C34.667,55.924 30.841,53.07 29.621,48.983 C29.3862019,48.2009066 29.5348993,47.3538503 30.0220368,46.6984899 C30.5091742,46.0431295 31.2774219,45.6565925 32.094,45.656 L47.909,45.656 C48.7255781,45.6565925 49.4938258,46.0431295 49.9809632,46.6984899 C50.4681007,47.3538503 50.6167981,48.2009066 50.382,48.983 C49.159,53.07 45.333,55.924 41.082,55.924 L38.921,55.924 Z" id="Path" fill="#D12149"></path>
                    <path d="M32.091,47.206 C31.7635938,47.2056281 31.4553566,47.3603402 31.2600183,47.6230909 C31.06468,47.8858416 31.0053242,48.225581 31.1,48.539 C32.1366543,51.993589 35.3112422,54.3633633 38.918,54.375 L41.077,54.375 C44.6856088,54.3655623 47.8628091,51.9953538 48.9,48.539 C48.9945738,48.2259181 48.935452,47.8865506 48.7405777,47.623894 C48.5457034,47.3612373 48.2380542,47.2062612 47.911,47.206 L32.091,47.206 Z" id="Path" fill="#FFD400"></path>
                    <path d="M35.976,54.737 L35.976,46.485 L34.421,46.485 L34.421,54.163 C34.9296667,54.3776667 35.448,54.569 35.976,54.737 Z" id="Path" fill="#D12149"></path>
                    <rect id="Rectangle" fill="#D12149" x="39.222" y="46.485" width="1.555" height="8.61"></rect>
                    <path d="M44.131,54.977 C44.631,54.712 45.105,54.408 45.579,54.1 L45.579,46.485 L44.024,46.485 L44.024,55.033 L44.131,54.977 Z" id="Path" fill="#D12149"></path>
                    <rect id="Rectangle" fill="#D12149" x="31.006" y="18.665" width="17.987" height="5.708" rx="2.854"></rect>
                    <path d="M48.994,21.519 L31.006,21.519 L31.006,18.665 C31.0103947,17.0906033 32.2856033,15.8153947 33.86,15.811 L46.14,15.811 C47.7143967,15.8153947 48.9896053,17.0906033 48.994,18.665 L48.994,21.519 Z" id="Path" fill="#D12149"></path>
                    <rect id="Rectangle" fill="#FFFFFF" x="31.006" y="15.233" width="17.987" height="5.708" rx="2.854"></rect>
                    <path d="M35.74,15.233 C35.8501786,15.4563338 35.9076528,15.7019674 35.908,15.951 L35.908,15.985 C35.908,18.2449492 37.7400508,20.077 40,20.077 C42.2599492,20.077 44.092,18.2449492 44.092,15.985 L44.092,15.952 C44.093658,15.7018708 44.1539377,15.4556144 44.268,15.233 L35.74,15.233 Z" id="Path" fill="#232531"></path>
                    <path d="M45.988,9.468 C45.9885908,6.70912203 44.1041342,4.3069081 41.4244542,3.65061299 C38.7447742,2.99431788 35.9635059,4.25382355 34.6891196,6.70072929 C33.4147334,9.14763504 33.9771041,12.1485595 36.051,13.968 C36.6190632,14.4702317 36.943345,15.1927607 36.941,15.951 L36.941,15.985 C36.9453938,17.672778 38.3122236,19.0400546 40,19.045 C41.6873875,19.0400573 43.0540573,17.6733875 43.059,15.986 L43.059,15.953 C43.0647126,15.1813972 43.4002847,14.4491075 43.981,13.941 C45.2593808,12.8059859 45.9900539,11.1775351 45.988,9.468 Z" id="Path" fill="#FFD400"></path>
                    <path d="M39.447,19.152 L39.447,11.352 C39.447,11.0463104 39.6948104,10.7985 40.0005,10.7985 C40.3061896,10.7985 40.554,11.0463104 40.554,11.352 L40.554,19.152 L41.587,19.152 L41.587,11.352 C41.587,10.4760764 40.8769236,9.766 40.001,9.766 C39.1250764,9.766 38.415,10.4760764 38.415,11.352 L38.415,19.152 L39.447,19.152 Z" id="Path" fill="#232531"></path>
                </g>
            </g>
        </g>
    </g>
</svg>