<?xml version="1.0" encoding="UTF-8"?>
<svg width="80px" height="80px" viewBox="0 0 80 80" version="1.1" xmlns="http://www.w3.org/2000/svg" xmlns:xlink="http://www.w3.org/1999/xlink">
    <!-- Generator: sketchtool 52.4 (67378) - http://www.bohemiancoding.com/sketch -->
    <title>F42F988D-8E17-46C0-9050-CCF35439DB58</title>
    <desc>Created with sketchtool.</desc>
    <g id="Assets" stroke="none" stroke-width="1" fill="none" fill-rule="evenodd">
        <g id="02.-Icons" transform="translate(-120.000000, -4129.000000)">
            <g id="05.-Profile-/-Avatar-1" transform="translate(120.000000, 4129.000000)">
                <circle id="Bg---oval" stroke="#719E19" cx="40" cy="40" r="39.5"></circle>
                <g id="avatar_1" fill-rule="evenodd">
                    <circle id="Oval" fill="#00B49C" cx="40" cy="40" r="40"></circle>
                    <polygon id="Path" fill="#D12149" points="42.009 42.873 40 41.413 37.991 42.873 38.758 40.511 36.749 39.051 39.232 39.051 40 36.69 40.767 39.052 43.25 39.052 41.241 40.512"></polygon>
                    <path d="M52.4,71.062 C49.5459048,71.0637519 46.7654651,70.1562035 44.462,68.471 L39.667,64.988 L34.873,68.471 C32.5697535,70.1567476 29.7892401,71.0646704 26.935,71.063 C22.5977046,71.0508106 18.5263432,68.970553 15.975,65.463 C13.412,61.935 12.718,57.522 14.075,53.356 L15.9,47.721 L11.106,44.238 C6.35521732,40.8019123 4.36326809,34.6936056 6.17510221,29.1174159 C7.98693633,23.5412262 13.1888545,19.7703748 19.052,19.783 L24.978,19.783 L26.809,14.147 C28.6085961,8.566556 33.8025623,4.7841587 39.666,4.7841587 C45.5294377,4.7841587 50.7234039,8.566556 52.523,14.147 L54.354,19.783 L60.28,19.783 C66.1431455,19.7703748 71.3450637,23.5412262 73.1568978,29.1174159 C74.9687319,34.6936056 72.9767827,40.8019123 68.226,44.238 L63.432,47.721 L65.263,53.357 C66.617,57.524 65.923,61.937 63.363,65.466 C60.8126218,68.9741549 56.7412169,71.0546246 52.404,71.066 L52.4,71.062 Z" id="Path" fill="#FFD400"></path>
                    <path d="M52.4,69 C49.9818192,68.9998953 47.6265709,68.2292906 45.676,66.8 L39.667,62.434 L33.66,66.8 C31.7094934,68.2294159 29.3542029,69.0000344 26.936,69 C23.2598443,68.9904442 19.8089139,67.2272709 17.647,64.254 C15.482116,61.2981335 14.8821685,57.4771013 16.037,54 L18.337,46.936 L12.328,42.571 C8.30087274,39.6610897 6.6116455,34.48497 8.14704062,29.75973 C9.68243574,25.0344899 14.0915836,21.8399447 19.06,21.853 L26.487,21.853 L28.782,14.79 C30.3051162,10.0609718 34.7057416,6.85507426 39.674,6.85507426 C44.6422584,6.85507426 49.0428838,10.0609718 50.566,14.79 L52.866,21.854 L60.293,21.854 C65.2614164,21.8409447 69.6705643,25.0354899 71.2059594,29.76073 C72.7413545,34.48597 71.0521273,39.6620897 67.025,42.572 L61.016,46.937 L63.3,54 C64.4539636,57.4761919 63.8540442,61.2959273 61.69,64.251 C59.5286285,67.2258153 56.0770854,68.9902263 52.4,69 Z" id="Path" fill="#D12149"></path>
                    <path d="M52.4,64.865 C50.8533876,64.8650036 49.3470759,64.3717741 48.1,63.457 L39.663,57.327 L31.226,63.457 C29.9789563,64.3718368 28.4726235,64.8650732 26.926,64.865 C24.5720506,64.8572866 22.3630757,63.7267937 20.98,61.822 C19.5983131,59.933233 19.2167157,57.4923509 19.956,55.272 L23.179,45.353 L14.742,39.223 C12.1636746,37.3656169 11.0803714,34.0554571 12.0617267,31.033111 C13.043082,28.010765 15.8643437,25.9684168 19.042,25.98 L29.484,25.98 L32.707,16.062 C33.6777206,13.0360943 36.4917014,10.983593 39.6695,10.983593 C42.8472986,10.983593 45.6612794,13.0360943 46.632,16.062 L49.855,25.981 L60.283,25.981 C63.4606563,25.9694168 66.281918,28.011765 67.2632733,31.034111 C68.2446286,34.0564571 67.1613254,37.3666169 64.583,39.224 L56.146,45.354 L59.369,55.272 C60.1082843,57.4923509 59.7266869,59.933233 58.345,61.822 C56.9621321,63.7265098 54.7535966,64.856968 52.4,64.865 Z" id="Path" fill="#00B49C"></path>
                    <path d="M52.4,61.766 C51.5095889,61.7637175 50.6430449,61.4779051 49.926,60.95 L39.722,53.535 C39.6904143,53.5119857 39.6475857,53.5119857 39.616,53.535 L29.41,60.95 C28.6930197,61.4780302 27.8264336,61.7638565 26.936,61.766 C25.5746312,61.7587358 24.2983216,61.1027513 23.5,60 C22.7066327,58.9115083 22.4893797,57.5062575 22.917,56.229 L26.817,44.229 C26.8286836,44.1920383 26.8153879,44.1517481 26.784,44.129 L16.573,36.717 C15.0937842,35.6416769 14.475039,33.7362746 15.0402812,31.9970505 C15.6055233,30.2578263 17.2262301,29.0802386 19.055,29.08 L31.67,29.08 C31.709089,29.0802024 31.7438393,29.0551498 31.756,29.018 L35.656,17.018 C36.2215648,15.2790053 37.8423486,14.1017791 39.671,14.1017791 C41.4996514,14.1017791 43.1204352,15.2790053 43.686,17.018 L47.586,29.018 C47.5981607,29.0551498 47.632911,29.0802024 47.672,29.08 L60.283,29.08 C62.1117699,29.0802386 63.7324767,30.2578263 64.2977188,31.9970505 C64.862961,33.7362746 64.2442158,35.6416769 62.765,36.717 L52.559,44.132 C52.5276121,44.1547481 52.5143164,44.1950383 52.526,44.232 L56.426,56.232 C56.8520111,57.508682 56.6340488,58.9125828 55.841,60 C55.04164,61.1041696 53.7631342,61.7603281 52.4,61.766 Z" id="Path" fill="#FFD400"></path>
                    <path d="M60.283,31.145 L47.668,31.145 C46.7340759,31.1447591 45.9064942,30.5432485 45.618,29.655 L41.718,17.655 C41.073,15.669 38.263,15.669 37.618,17.655 L33.718,29.655 C33.4295058,30.5432485 32.6019241,31.1447591 31.668,31.145 L19.055,31.145 C16.967,31.145 16.098,33.818 17.788,35.045 L27.993,42.46 C28.7483639,43.0090017 29.0644448,43.9818687 28.776,44.87 L24.876,56.87 C24.231,58.856 26.504,60.508 28.194,59.28 L38.4,51.864 C39.1555389,51.3152442 40.1784611,51.3152442 40.934,51.864 L51.14,59.279 C52.83,60.507 55.103,58.855 54.458,56.869 L50.558,44.869 C50.2695552,43.9808687 50.5856361,43.0080017 51.341,42.459 L61.55,35.045 C63.24,33.818 62.371,31.145 60.283,31.145 Z" id="Path" fill="#FFFFFF"></path>
                    <circle id="Oval" fill="#00B49C" cx="35.394" cy="36.445" r="1.817"></circle>
                    <circle id="Oval" fill="#00B49C" cx="44.606" cy="36.445" r="1.817"></circle>
                    <path d="M44.11,41.546 C43.8332272,41.5490606 43.5739833,41.6820157 43.41,41.905 C42.6079948,42.9798728 41.3456055,43.6130217 40.0045,43.6130217 C38.6633945,43.6130217 37.4010052,42.9798728 36.599,41.905 C36.4350167,41.6820157 36.1757728,41.5490606 35.899,41.546 L35.878,41.546 C35.5487855,41.5462756 35.24779,41.7319379 35.0998002,42.0260148 C34.9518103,42.3200918 34.9820568,42.6724466 35.178,42.937 C36.3111098,44.4688694 38.1035967,45.3725535 40.009,45.3725535 C41.9144033,45.3725535 43.7068902,44.4688694 44.84,42.937 C45.0359432,42.6724466 45.0661897,42.3200918 44.9181998,42.0260148 C44.77021,41.7319379 44.4692145,41.5462756 44.14,41.546 L44.11,41.546 Z" id="Path" fill="#D12149"></path>
                </g>
            </g>
        </g>
    </g>
</svg>