<?xml version="1.0" encoding="UTF-8"?>
<svg width="25px" height="25px" viewBox="0 0 25 25" version="1.1" xmlns="http://www.w3.org/2000/svg" xmlns:xlink="http://www.w3.org/1999/xlink">
    <!-- Generator: sketchtool 52.4 (67378) - http://www.bohemiancoding.com/sketch -->
    <title>0FC53034-58C0-401F-A142-896981815A37</title>
    <desc>Created with sketchtool.</desc>
    <g id="Assets" stroke="none" stroke-width="1" fill="none" fill-rule="evenodd">
        <g id="02.-Icons" transform="translate(-406.000000, -6709.000000)" fill="#848789" fill-rule="nonzero">
            <path d="M411,6730.21885 L408.682373,6731.5 L409.125,6728.78647 L407.25,6726.86475 L409.841186,6726.46885 L411,6724 L412.158814,6726.46885 L414.75,6726.86475 L412.875,6728.78647 L413.317627,6731.5 L411,6730.21885 Z M424.75,6731.86475 L420.887288,6734 L421.625,6729.47746 L418.5,6726.27458 L422.818644,6725.61475 L424.75,6721.5 L426.681356,6725.61475 L431,6726.27458 L427.875,6729.47746 L428.612712,6734 L424.75,6731.86475 Z M409.125,6714.18237 L407.193644,6715.25 L407.5625,6712.98873 L406,6711.38729 L408.159322,6711.05737 L409.125,6709 L410.090678,6711.05737 L412.25,6711.38729 L410.6875,6712.98873 L411.056356,6715.25 L409.125,6714.18237 Z M424.125,6717.50532 L421.421101,6719 L421.9375,6715.83422 L419.75,6713.5922 L422.773051,6713.13032 L424.125,6710.25 L425.476949,6713.13032 L428.5,6713.5922 L426.3125,6715.83422 L426.828899,6719 L424.125,6717.50532 Z" id="02.16-Billing_All_Disabled_All"></path>
        </g>
    </g>
</svg>