<?xml version="1.0" encoding="UTF-8"?>
<svg width="35px" height="20px" viewBox="0 0 35 20" version="1.1" xmlns="http://www.w3.org/2000/svg" xmlns:xlink="http://www.w3.org/1999/xlink">
    <!-- Generator: sketchtool 52.4 (67378) - http://www.bohemiancoding.com/sketch -->
    <title>566E7218-07C0-4795-A53B-7062604290DC</title>
    <desc>Created with sketchtool.</desc>
    <g id="Assets" stroke="none" stroke-width="1" fill="none" fill-rule="evenodd">
        <g id="02.-Icons" transform="translate(-401.000000, -6471.000000)" fill="#848789" fill-rule="nonzero">
            <path d="M405,6471 L432,6471 C434.209139,6471 436,6472.79086 436,6475 L436,6487 C436,6489.20914 434.209139,6491 432,6491 L405,6491 C402.790861,6491 401,6489.20914 401,6487 L401,6475 C401,6472.79086 402.790861,6471 405,6471 Z M423.307666,6479.67816 L416.264658,6476.15796 C415.281797,6475.66658 414.125,6476.3811 414.125,6477.47986 L414.125,6484.52025 C414.125,6485.619 415.281797,6486.33326 416.264658,6485.84214 L423.307666,6482.32195 C424.397445,6481.77713 424.397445,6480.22271 423.307666,6479.67816" id="02.16-Billing_Video_Disabled_All"></path>
        </g>
    </g>
</svg>