<?xml version="1.0" encoding="UTF-8"?>
<svg width="24px" height="21px" viewBox="0 0 24 21" version="1.1" xmlns="http://www.w3.org/2000/svg" xmlns:xlink="http://www.w3.org/1999/xlink">
    <!-- Generator: sketchtool 52.4 (67378) - http://www.bohemiancoding.com/sketch -->
    <title>7565248D-95F2-4536-AEB2-1E13423E1B4A</title>
    <desc>Created with sketchtool.</desc>
    <g id="Assets" stroke="none" stroke-width="1" fill="none" fill-rule="evenodd">
        <g id="02.-Icons" transform="translate(-407.000000, -6390.000000)" fill="#848789" fill-rule="nonzero">
            <path d="M430.99988,6407.44719 L430.99988,6408.43336 C430.99988,6408.55003 430.879881,6408.6667 430.759881,6408.6667 L428.839891,6408.6667 C428.719891,6408.6667 428.599892,6408.55003 428.599892,6408.43336 L428.599892,6410.53334 C428.599892,6410.76667 428.359893,6411 428.119894,6411 L424.279914,6411 C424.039915,6411 423.799916,6410.76667 423.799916,6410.53334 L423.799916,6402.13344 C423.799916,6401.90011 424.039915,6401.66678 424.279914,6401.66678 L428.119894,6401.66678 C428.359893,6401.66678 428.599892,6401.90011 428.599892,6402.13344 L428.599892,6404.23342 C428.599892,6404.23128 428.599932,6404.22914 428.600012,6404.22701 L428.600012,6401.66643 C428.600012,6396.049 423.424438,6391.54805 417.480868,6392.44871 C412.763691,6393.16387 409.400108,6397.30898 409.400108,6401.94993 L409.400108,6402.12439 C409.406198,6401.89411 409.643092,6401.66678 409.879986,6401.66678 L413.719966,6401.66678 C413.959965,6401.66678 414.199964,6401.90011 414.199964,6402.13344 L414.199964,6410.53334 C414.199964,6410.76667 413.959965,6411 413.719966,6411 L409.879986,6411 C409.639987,6411 409.399988,6410.76667 409.399988,6410.53334 L409.399988,6408.43336 C409.399988,6408.55003 409.279989,6408.6667 409.159989,6408.6667 L407.239999,6408.6667 C407.119999,6408.6667 407,6408.55003 407,6408.43336 L407,6404.23342 C407,6404.23128 407.00004,6404.22914 407.00012,6404.22701 L407.00012,6401.66643 C407.00012,6394.86718 413.06489,6389.37691 420.194054,6390.05707 C426.399223,6390.64856 431,6395.9685 431,6402.03043 L431,6407.44719 Z" id="02.16-Billing_Music_Disabled_All"></path>
        </g>
    </g>
</svg>