<?xml version="1.0" encoding="UTF-8"?>
<svg width="36px" height="21px" viewBox="0 0 36 21" version="1.1" xmlns="http://www.w3.org/2000/svg" xmlns:xlink="http://www.w3.org/1999/xlink">
    <!-- Generator: sketchtool 52.4 (67378) - http://www.bohemiancoding.com/sketch -->
    <title>44FCEA52-B7C7-4560-B927-1E950C290E1B</title>
    <desc>Created with sketchtool.</desc>
    <g id="Assets" stroke="none" stroke-width="1" fill="none" fill-rule="evenodd">
        <g id="02.-Icons" transform="translate(-122.000000, -6552.000000)" fill="#FFFFFF" fill-rule="nonzero">
            <g id="02.-Icon-/-Filled-/-Category-/-Games-/-b.-Selected" transform="translate(120.000000, 6541.000000)">
                <path d="M29.9139449,11.25 L10.0860551,11.25 C5.20594252,11.25 2.5,15.727046 2.5,21.25 C2.5,26.772954 5.20594252,31.25 10.0860551,31.25 L29.9139449,31.25 C34.7940575,31.25 37.5,26.772954 37.5,21.25 C37.5,15.727046 34.7940575,11.25 29.9139449,11.25 Z M17.5,21.5260818 C17.5,21.8808213 17.2129997,22.1678216 16.8582602,22.1678216 L13.4182673,22.1678216 L13.4182673,25.6078145 C13.4182673,25.962554 13.131267,26.2495543 12.7765275,26.2495543 L12.2239182,26.2495543 C11.8696243,26.2495543 11.5821784,25.9621084 11.5821784,25.6078145 L11.5821784,22.1678216 L8.14173983,22.1678216 C7.78744596,22.1678216 7.5,21.8803757 7.5,21.5260818 L7.5,20.9734725 C7.5,20.6191787 7.78744596,20.3321784 8.14173983,20.3321784 L11.5821784,20.3321784 L11.5821784,16.8921855 C11.5821784,16.537446 11.8696243,16.25 12.2239182,16.25 L12.7765275,16.25 C13.131267,16.25 13.4182673,16.5378916 13.4182673,16.8921855 L13.4182673,20.3321784 L16.8582602,20.3321784 C17.2129997,20.3321784 17.5,20.6191787 17.5,20.9734725 L17.5,21.5260818 Z M23.4372769,23.125 C22.5742539,23.125 21.875,22.4252999 21.875,21.5622769 C21.875,20.6992539 22.5742539,20 23.4372769,20 C24.3002999,20 25,20.6992539 25,21.5622769 C25,22.4248536 24.3002999,23.125 23.4372769,23.125 Z M27.1875,26.8745538 C26.3246002,26.8745538 25.625,26.1749536 25.625,25.3120538 C25.625,24.4496002 26.3246002,23.75 27.1875,23.75 C28.0503998,23.75 28.75,24.4496002 28.75,25.3120538 C28.75,26.1749536 28.0503998,26.8745538 27.1875,26.8745538 Z M30.9372769,23.125 C30.0742539,23.125 29.375,22.4252999 29.375,21.5622769 C29.375,20.6992539 30.0742539,20 30.9372769,20 C31.8002999,20 32.5,20.6992539 32.5,21.5622769 C32.5,22.4248536 31.8002999,23.125 30.9372769,23.125 Z M27.1875,19.375 C26.3246002,19.375 25.625,18.6753998 25.625,17.8125 C25.625,16.9496002 26.3246002,16.25 27.1875,16.25 C28.0503998,16.25 28.75,16.9496002 28.75,17.8125 C28.75,18.6753998 28.0503998,19.375 27.1875,19.375 Z" id="Shape"></path>
            </g>
        </g>
    </g>
</svg>