<?xml version="1.0" encoding="UTF-8"?>
<svg width="35px" height="20px" viewBox="0 0 35 20" version="1.1" xmlns="http://www.w3.org/2000/svg" xmlns:xlink="http://www.w3.org/1999/xlink">
    <!-- Generator: sketchtool 52.4 (67378) - http://www.bohemiancoding.com/sketch -->
    <title>D37B0D36-CD02-41D3-A237-00BDF954D1A1</title>
    <desc>Created with sketchtool.</desc>
    <g id="Assets" stroke="none" stroke-width="1" fill="none" fill-rule="evenodd">
        <g id="02.-Icons" transform="translate(-256.000000, -6552.000000)" fill="#D1D2D1" fill-rule="nonzero">
            <path d="M283.413945,6552 L263.586055,6552 C258.705943,6552 256,6556.47705 256,6562 C256,6567.52295 258.705943,6572 263.586055,6572 L283.413945,6572 C288.294057,6572 291,6567.52295 291,6562 C291,6556.47705 288.294057,6552 283.413945,6552 Z M271,6562.27608 C271,6562.63082 270.713,6562.91782 270.35826,6562.91782 L266.918267,6562.91782 L266.918267,6566.35781 C266.918267,6566.71255 266.631267,6566.99955 266.276527,6566.99955 L265.723918,6566.99955 C265.369624,6566.99955 265.082178,6566.71211 265.082178,6566.35781 L265.082178,6562.91782 L261.64174,6562.91782 C261.287446,6562.91782 261,6562.63038 261,6562.27608 L261,6561.72347 C261,6561.36918 261.287446,6561.08218 261.64174,6561.08218 L265.082178,6561.08218 L265.082178,6557.64219 C265.082178,6557.28745 265.369624,6557 265.723918,6557 L266.276527,6557 C266.631267,6557 266.918267,6557.28789 266.918267,6557.64219 L266.918267,6561.08218 L270.35826,6561.08218 C270.713,6561.08218 271,6561.36918 271,6561.72347 L271,6562.27608 Z M276.937277,6563.875 C276.074254,6563.875 275.375,6563.1753 275.375,6562.31228 C275.375,6561.44925 276.074254,6560.75 276.937277,6560.75 C277.8003,6560.75 278.5,6561.44925 278.5,6562.31228 C278.5,6563.17485 277.8003,6563.875 276.937277,6563.875 Z M280.6875,6567.62455 C279.8246,6567.62455 279.125,6566.92495 279.125,6566.06205 C279.125,6565.1996 279.8246,6564.5 280.6875,6564.5 C281.5504,6564.5 282.25,6565.1996 282.25,6566.06205 C282.25,6566.92495 281.5504,6567.62455 280.6875,6567.62455 Z M284.437277,6563.875 C283.574254,6563.875 282.875,6563.1753 282.875,6562.31228 C282.875,6561.44925 283.574254,6560.75 284.437277,6560.75 C285.3003,6560.75 286,6561.44925 286,6562.31228 C286,6563.17485 285.3003,6563.875 284.437277,6563.875 Z M280.6875,6560.125 C279.8246,6560.125 279.125,6559.4254 279.125,6558.5625 C279.125,6557.6996 279.8246,6557 280.6875,6557 C281.5504,6557 282.25,6557.6996 282.25,6558.5625 C282.25,6559.4254 281.5504,6560.125 280.6875,6560.125 Z" id="02.16-Billing_Games_Billing-History_All"></path>
        </g>
    </g>
</svg>