<?xml version="1.0" encoding="UTF-8"?>
<svg width="24px" height="22px" viewBox="0 0 24 22" version="1.1" xmlns="http://www.w3.org/2000/svg" xmlns:xlink="http://www.w3.org/1999/xlink">
    <!-- Generator: sketchtool 52.4 (67378) - http://www.bohemiancoding.com/sketch -->
    <title>38B0525F-69EC-40A1-9975-857B0FCFB74E</title>
    <desc>Created with sketchtool.</desc>
    <g id="Assets" stroke="none" stroke-width="1" fill="none" fill-rule="evenodd">
        <g id="02.-Icons" transform="translate(-128.000000, -6390.000000)" fill="#FFFFFF">
            <g id="02.-Icon-/-Filled-/-Category-/-Music-/-b.-Selected" transform="translate(120.000000, 6381.000000)">
                <path d="M31.735824,27.0298979 L31.735824,28.0278094 C31.735824,28.1458635 31.6177698,28.2639176 31.4997157,28.2639176 L29.6108498,28.2639176 C29.4927957,28.2639176 29.3747416,28.1458635 29.3747416,28.0278094 L29.3747416,30.1527835 C29.3747416,30.3888918 29.1386333,30.625 28.9025251,30.625 L25.1247933,30.625 C24.888685,30.625 24.6525768,30.3888918 24.6525768,30.1527835 L24.6525768,21.6528869 C24.6525768,21.4167787 24.888685,21.1806704 25.1247933,21.1806704 L28.9025251,21.1806704 C29.1386333,21.1806704 29.3747416,21.4167787 29.3747416,21.6528869 L29.3747416,23.7778611 C29.3747416,23.7756991 29.3747812,23.7735371 29.3748596,23.7713759 L29.3748596,21.1803163 C29.3748596,15.4960104 24.2831854,10.9414824 18.4359649,11.8528602 C13.7952574,12.576532 10.4862005,16.7709949 10.4862005,21.4671878 L10.4862005,21.6437232 C10.4921919,21.4107087 10.7252454,21.1806704 10.9582989,21.1806704 L14.7360307,21.1806704 C14.9721389,21.1806704 15.2082472,21.4167787 15.2082472,21.6528869 L15.2082472,30.1527835 C15.2082472,30.3888918 14.9721389,30.625 14.7360307,30.625 L10.9582989,30.625 C10.7221906,30.625 10.4860824,30.3888918 10.4860824,30.1527835 L10.4860824,28.0278094 C10.4860824,28.1458635 10.3680283,28.2639176 10.2499742,28.2639176 L8.36110824,28.2639176 C8.24305412,28.2639176 8.125,28.1458635 8.125,28.0278094 L8.125,23.7778611 C8.125,23.7756991 8.12503959,23.7735371 8.12511805,23.7713759 L8.12511805,21.1803163 C8.12511805,14.3001221 14.0915733,8.74449527 21.1051685,9.43275079 C27.2097471,10.0312852 31.735942,15.414553 31.735942,21.5486451 L31.735942,27.0298979 Z" id="Combined-Shape"></path>
            </g>
        </g>
    </g>
</svg>