<?xml version="1.0" encoding="UTF-8"?>
<svg width="24px" height="24px" viewBox="0 0 24 24" version="1.1" xmlns="http://www.w3.org/2000/svg" xmlns:xlink="http://www.w3.org/1999/xlink">
    <!-- Generator: sketchtool 52.4 (67378) - http://www.bohemiancoding.com/sketch -->
    <title>23BEAB92-6A5B-4D32-9DB6-CD52C0070D0B</title>
    <desc>Created with sketchtool.</desc>
    <g id="Assets" stroke="none" stroke-width="1" fill="none" fill-rule="evenodd">
        <g id="02.-Icons" transform="translate(-408.000000, -6628.000000)" fill="#848789" fill-rule="nonzero">
            <path d="M409,6631.09282 L414.993923,6631.09282 C415.546208,6631.09282 415.993923,6631.54053 415.993923,6632.09282 L415.993923,6638.08674 C415.993923,6638.63902 415.546208,6639.08674 414.993923,6639.08674 L409,6639.08674 C408.447715,6639.08674 408,6638.63902 408,6638.08674 L408,6632.09282 C408,6631.54053 408.447715,6631.09282 409,6631.09282 Z M409,6644.00608 L414.993923,6644.00608 C415.546208,6644.00608 415.993923,6644.45379 415.993923,6645.00608 L415.993923,6651 C415.993923,6651.55228 415.546208,6652 414.993923,6652 L409,6652 C408.447715,6652 408,6651.55228 408,6651 L408,6645.00608 C408,6644.45379 408.447715,6644.00608 409,6644.00608 Z M421.913261,6644.00608 L427.907184,6644.00608 C428.459469,6644.00608 428.907184,6644.45379 428.907184,6645.00608 L428.907184,6651 C428.907184,6651.55228 428.459469,6652 427.907184,6652 L421.913261,6652 C421.360976,6652 420.913261,6651.55228 420.913261,6651 L420.913261,6645.00608 C420.913261,6644.45379 421.360976,6644.00608 421.913261,6644.00608 Z M427.462081,6628.29958 L431.700424,6632.53792 C432.090949,6632.92844 432.090949,6633.56161 431.700424,6633.95213 L427.462081,6638.19048 C427.071556,6638.581 426.438391,6638.581 426.047867,6638.19048 L421.809523,6633.95213 C421.418999,6633.56161 421.418999,6632.92844 421.809523,6632.53792 L426.047867,6628.29958 C426.438391,6627.90905 427.071556,6627.90905 427.462081,6628.29958 Z" id="02.16-Billing_Apps_Disabled_All"></path>
        </g>
    </g>
</svg>