<?xml version="1.0" encoding="UTF-8"?>
<svg width="26px" height="26px" viewBox="0 0 26 26" version="1.1" xmlns="http://www.w3.org/2000/svg" xmlns:xlink="http://www.w3.org/1999/xlink">
    <!-- Generator: sketchtool 52.4 (67378) - http://www.bohemiancoding.com/sketch -->
    <title>55F2A77F-74E1-4785-BC30-5208B6A4D655</title>
    <desc>Created with sketchtool.</desc>
    <g id="Assets" stroke="none" stroke-width="1" fill="none" fill-rule="evenodd">
        <g id="02.-Icons" transform="translate(-127.000000, -6708.000000)" fill="#FFFFFF">
            <g id="02.-Icon-/-Filled-/-Category-/-Stars-/-b.-Selected" transform="translate(120.000000, 6701.000000)">
                <g id="Group" transform="translate(7.500000, 7.500000)">
                    <polygon id="Star" points="5 21.2188471 2.68237254 22.5 3.125 19.7864745 1.25 17.8647451 3.84118627 17.4688471 5 15 6.15881373 17.4688471 8.75 17.8647451 6.875 19.7864745 7.31762746 22.5"></polygon>
                    <polygon id="Star-Copy" points="18.75 22.8647451 14.8872876 25 15.625 20.4774575 12.5 17.2745751 16.8186438 16.6147451 18.75 12.5 20.6813562 16.6147451 25 17.2745751 21.875 20.4774575 22.6127124 25"></polygon>
                    <polygon id="Star-Copy-2" points="3.125 5.18237254 1.19364379 6.25 1.5625 3.98872876 4.33680869e-17 2.38728757 2.15932189 2.05737254 3.125 0 4.09067811 2.05737254 6.25 2.38728757 4.6875 3.98872876 5.05635621 6.25"></polygon>
                    <polygon id="Star-Copy-3" points="18.125 8.50532156 15.4211013 10 15.9375 6.83422026 13.75 4.5922026 16.7730506 4.13032156 18.125 1.25 19.4769494 4.13032156 22.5 4.5922026 20.3125 6.83422026 20.8288987 10"></polygon>
                </g>
            </g>
        </g>
    </g>
</svg>