<?xml version="1.0" encoding="UTF-8"?>
<svg width="25px" height="25px" viewBox="0 0 25 25" version="1.1" xmlns="http://www.w3.org/2000/svg" xmlns:xlink="http://www.w3.org/1999/xlink">
    <!-- Generator: sketchtool 52.4 (67378) - http://www.bohemiancoding.com/sketch -->
    <title>1608841E-B0E3-4D1D-985A-EEC7C31B9F7D</title>
    <desc>Created with sketchtool.</desc>
    <g id="Assets" stroke="none" stroke-width="1" fill="none" fill-rule="evenodd">
        <g id="02.-Icons" transform="translate(-128.000000, -6628.000000)" fill="#FFFFFF">
            <g id="02.-Icon-/-Filled-/-Category-/-Apps-/-b.-Selected" transform="translate(120.000000, 6621.000000)">
                <g id="Group-2" transform="translate(8.125000, 6.875000)">
                    <rect id="Rectangle" fill-rule="nonzero" x="0" y="3.75" width="8.125" height="8.125" rx="1"></rect>
                    <rect id="Rectangle-Copy" fill-rule="nonzero" x="0" y="16.875" width="8.125" height="8.125" rx="1"></rect>
                    <rect id="Rectangle-Copy-2" fill-rule="nonzero" x="13.125" y="16.875" width="8.125" height="8.125" rx="1"></rect>
                    <path d="M16,1.875 L22.125,1.875 C22.6772847,1.875 23.125,2.32271525 23.125,2.875 L23.125,9 C23.125,9.55228475 22.6772847,10 22.125,10 L16,10 C15.4477153,10 15,9.55228475 15,9 L15,2.875 C15,2.32271525 15.4477153,1.875 16,1.875 Z" id="Rectangle-Copy-3" fill-rule="nonzero" transform="translate(19.062500, 5.937500) rotate(45.000000) translate(-19.062500, -5.937500) "></path>
                </g>
            </g>
        </g>
    </g>
</svg>