<?xml version="1.0" encoding="UTF-8"?>
<svg width="36px" height="20px" viewBox="0 0 36 20" version="1.1" xmlns="http://www.w3.org/2000/svg" xmlns:xlink="http://www.w3.org/1999/xlink">
    <!-- Generator: sketchtool 52.4 (67378) - http://www.bohemiancoding.com/sketch -->
    <title>E963DFE8-6D1C-4A81-9391-5B3D2B46EEC1</title>
    <desc>Created with sketchtool.</desc>
    <g id="Assets" stroke="none" stroke-width="1" fill="none" fill-rule="evenodd">
        <g id="02.-Icons" transform="translate(-122.000000, -6471.000000)" fill="#FFFFFF" fill-rule="nonzero">
            <g id="02.-Icon-/-Filled-/-Category-/-Video-/-b.-Selected" transform="translate(120.000000, 6461.000000)">
                <path d="M6.5,10 L33.5,10 C35.709139,10 37.5,11.790861 37.5,14 L37.5,26 C37.5,28.209139 35.709139,30 33.5,30 L6.5,30 C4.290861,30 2.5,28.209139 2.5,26 L2.5,14 C2.5,11.790861 4.290861,10 6.5,10 Z M24.8076663,18.6781553 L17.764658,15.1579624 C16.7817974,14.6665848 15.625,15.3811026 15.625,16.4798595 L15.625,23.5202452 C15.625,24.6190021 16.7817974,25.3332592 17.764658,24.8421423 L24.8076663,21.3219494 C25.8974446,20.7771329 25.8974446,19.2227112 24.8076663,18.6781553" id="Combined-Shape"></path>
            </g>
        </g>
    </g>
</svg>