<?xml version="1.0" encoding="UTF-8"?>
<svg width="24px" height="24px" viewBox="0 0 24 24" version="1.1" xmlns="http://www.w3.org/2000/svg" xmlns:xlink="http://www.w3.org/1999/xlink">
    <!-- Generator: sketchtool 52.4 (67378) - http://www.bohemiancoding.com/sketch -->
    <title>A49C0479-A7CF-4A1E-9BF5-F1AAD17A83BD</title>
    <desc>Created with sketchtool.</desc>
    <g id="Assets" stroke="none" stroke-width="1" fill="none" fill-rule="evenodd">
        <g id="02.-Icons" transform="translate(-261.000000, -6628.000000)" fill="#D1D2D1" fill-rule="nonzero">
            <path d="M262,6631.09282 L267.993923,6631.09282 C268.546208,6631.09282 268.993923,6631.54053 268.993923,6632.09282 L268.993923,6638.08674 C268.993923,6638.63902 268.546208,6639.08674 267.993923,6639.08674 L262,6639.08674 C261.447715,6639.08674 261,6638.63902 261,6638.08674 L261,6632.09282 C261,6631.54053 261.447715,6631.09282 262,6631.09282 Z M262,6644.00608 L267.993923,6644.00608 C268.546208,6644.00608 268.993923,6644.45379 268.993923,6645.00608 L268.993923,6651 C268.993923,6651.55228 268.546208,6652 267.993923,6652 L262,6652 C261.447715,6652 261,6651.55228 261,6651 L261,6645.00608 C261,6644.45379 261.447715,6644.00608 262,6644.00608 Z M274.913261,6644.00608 L280.907184,6644.00608 C281.459469,6644.00608 281.907184,6644.45379 281.907184,6645.00608 L281.907184,6651 C281.907184,6651.55228 281.459469,6652 280.907184,6652 L274.913261,6652 C274.360976,6652 273.913261,6651.55228 273.913261,6651 L273.913261,6645.00608 C273.913261,6644.45379 274.360976,6644.00608 274.913261,6644.00608 Z M280.462081,6628.29958 L284.700424,6632.53792 C285.090949,6632.92844 285.090949,6633.56161 284.700424,6633.95213 L280.462081,6638.19048 C280.071556,6638.581 279.438391,6638.581 279.047867,6638.19048 L274.809523,6633.95213 C274.418999,6633.56161 274.418999,6632.92844 274.809523,6632.53792 L279.047867,6628.29958 C279.438391,6627.90905 280.071556,6627.90905 280.462081,6628.29958 Z" id="02.16-Billing_Apps_Billing-History_All"></path>
        </g>
    </g>
</svg>