<?xml version="1.0" encoding="UTF-8"?>
<svg width="25px" height="25px" viewBox="0 0 25 25" version="1.1" xmlns="http://www.w3.org/2000/svg" xmlns:xlink="http://www.w3.org/1999/xlink">
    <!-- Generator: sketchtool 52.4 (67378) - http://www.bohemiancoding.com/sketch -->
    <title>BF0EFF22-1ACB-4C5D-A8E1-6264B26240E1</title>
    <desc>Created with sketchtool.</desc>
    <g id="Assets" stroke="none" stroke-width="1" fill="none" fill-rule="evenodd">
        <g id="02.-Icons" transform="translate(-261.000000, -6709.000000)" fill="#D1D2D1" fill-rule="nonzero">
            <path d="M266,6730.21885 L263.682373,6731.5 L264.125,6728.78647 L262.25,6726.86475 L264.841186,6726.46885 L266,6724 L267.158814,6726.46885 L269.75,6726.86475 L267.875,6728.78647 L268.317627,6731.5 L266,6730.21885 Z M279.75,6731.86475 L275.887288,6734 L276.625,6729.47746 L273.5,6726.27458 L277.818644,6725.61475 L279.75,6721.5 L281.681356,6725.61475 L286,6726.27458 L282.875,6729.47746 L283.612712,6734 L279.75,6731.86475 Z M264.125,6714.18237 L262.193644,6715.25 L262.5625,6712.98873 L261,6711.38729 L263.159322,6711.05737 L264.125,6709 L265.090678,6711.05737 L267.25,6711.38729 L265.6875,6712.98873 L266.056356,6715.25 L264.125,6714.18237 Z M279.125,6717.50532 L276.421101,6719 L276.9375,6715.83422 L274.75,6713.5922 L277.773051,6713.13032 L279.125,6710.25 L280.476949,6713.13032 L283.5,6713.5922 L281.3125,6715.83422 L281.828899,6719 L279.125,6717.50532 Z" id="02.16-Billing_All_Billing-History_All"></path>
        </g>
    </g>
</svg>