<?xml version="1.0" encoding="UTF-8"?>
<svg width="35px" height="20px" viewBox="0 0 35 20" version="1.1" xmlns="http://www.w3.org/2000/svg" xmlns:xlink="http://www.w3.org/1999/xlink">
    <!-- Generator: sketchtool 52.4 (67378) - http://www.bohemiancoding.com/sketch -->
    <title>32A0A861-C01F-45C6-9974-8E631F2F1B21</title>
    <desc>Created with sketchtool.</desc>
    <g id="Assets" stroke="none" stroke-width="1" fill="none" fill-rule="evenodd">
        <g id="02.-Icons" transform="translate(-401.000000, -6552.000000)" fill="#848789" fill-rule="nonzero">
            <path d="M428.413945,6552 L408.586055,6552 C403.705943,6552 401,6556.47705 401,6562 C401,6567.52295 403.705943,6572 408.586055,6572 L428.413945,6572 C433.294057,6572 436,6567.52295 436,6562 C436,6556.47705 433.294057,6552 428.413945,6552 Z M416,6562.27608 C416,6562.63082 415.713,6562.91782 415.35826,6562.91782 L411.918267,6562.91782 L411.918267,6566.35781 C411.918267,6566.71255 411.631267,6566.99955 411.276527,6566.99955 L410.723918,6566.99955 C410.369624,6566.99955 410.082178,6566.71211 410.082178,6566.35781 L410.082178,6562.91782 L406.64174,6562.91782 C406.287446,6562.91782 406,6562.63038 406,6562.27608 L406,6561.72347 C406,6561.36918 406.287446,6561.08218 406.64174,6561.08218 L410.082178,6561.08218 L410.082178,6557.64219 C410.082178,6557.28745 410.369624,6557 410.723918,6557 L411.276527,6557 C411.631267,6557 411.918267,6557.28789 411.918267,6557.64219 L411.918267,6561.08218 L415.35826,6561.08218 C415.713,6561.08218 416,6561.36918 416,6561.72347 L416,6562.27608 Z M421.937277,6563.875 C421.074254,6563.875 420.375,6563.1753 420.375,6562.31228 C420.375,6561.44925 421.074254,6560.75 421.937277,6560.75 C422.8003,6560.75 423.5,6561.44925 423.5,6562.31228 C423.5,6563.17485 422.8003,6563.875 421.937277,6563.875 Z M425.6875,6567.62455 C424.8246,6567.62455 424.125,6566.92495 424.125,6566.06205 C424.125,6565.1996 424.8246,6564.5 425.6875,6564.5 C426.5504,6564.5 427.25,6565.1996 427.25,6566.06205 C427.25,6566.92495 426.5504,6567.62455 425.6875,6567.62455 Z M429.437277,6563.875 C428.574254,6563.875 427.875,6563.1753 427.875,6562.31228 C427.875,6561.44925 428.574254,6560.75 429.437277,6560.75 C430.3003,6560.75 431,6561.44925 431,6562.31228 C431,6563.17485 430.3003,6563.875 429.437277,6563.875 Z M425.6875,6560.125 C424.8246,6560.125 424.125,6559.4254 424.125,6558.5625 C424.125,6557.6996 424.8246,6557 425.6875,6557 C426.5504,6557 427.25,6557.6996 427.25,6558.5625 C427.25,6559.4254 426.5504,6560.125 425.6875,6560.125 Z" id="02.16-Billing_Games_Disabled_All"></path>
        </g>
    </g>
</svg>