<?xml version="1.0" encoding="UTF-8"?>
<svg width="64px" height="64px" viewBox="0 0 64 64" version="1.1" xmlns="http://www.w3.org/2000/svg" xmlns:xlink="http://www.w3.org/1999/xlink">
    <!-- Generator: Sketch 53 (72520) - https://sketchapp.com -->
    <title>02. Icon / Filled / Category / Games / b. Selected</title>
    <desc>Created with Sketch.</desc>
    <g id="02.-Icon-/-Filled-/-Category-/-Games-/-b.-Selected" stroke="none" stroke-width="1" fill="none" fill-rule="evenodd">
        <path d="M47.8623118,18 L16.1376882,18 C8.32950803,18 4,25.1632736 4,34 C4,42.8367264 8.32950803,50 16.1376882,50 L47.8623118,50 C55.670492,50 60,42.8367264 60,34 C60,25.1632736 55.670492,18 47.8623118,18 Z M28,34.4417309 C28,35.0093141 27.5407995,35.4685146 26.9732163,35.4685146 L21.4692277,35.4685146 L21.4692277,40.9725032 C21.4692277,41.5400865 21.0100272,41.999287 20.442444,41.999287 L19.5582691,41.999287 C18.9913989,41.999287 18.5314854,41.5393734 18.5314854,40.9725032 L18.5314854,35.4685146 L13.0267837,35.4685146 C12.4599135,35.4685146 12,35.0086011 12,34.4417309 L12,33.557556 C12,32.9906859 12.4599135,32.5314854 13.0267837,32.5314854 L18.5314854,32.5314854 L18.5314854,27.0274968 C18.5314854,26.4599135 18.9913989,26 19.5582691,26 L20.442444,26 C21.0100272,26 21.4692277,26.4606266 21.4692277,27.0274968 L21.4692277,32.5314854 L26.9732163,32.5314854 C27.5407995,32.5314854 28,32.9906859 28,33.557556 L28,34.4417309 Z M37.499643,37 C36.1188062,37 35,35.8804798 35,34.499643 C35,33.1188062 36.1188062,32 37.499643,32 C38.8804798,32 40,33.1188062 40,34.499643 C40,35.8797658 38.8804798,37 37.499643,37 Z M43.5,42.9992861 C42.1193604,42.9992861 41,41.8799258 41,40.4992861 C41,39.1193604 42.1193604,38 43.5,38 C44.8806396,38 46,39.1193604 46,40.4992861 C46,41.8799258 44.8806396,42.9992861 43.5,42.9992861 Z M49.499643,37 C48.1188062,37 47,35.8804798 47,34.499643 C47,33.1188062 48.1188062,32 49.499643,32 C50.8804798,32 52,33.1188062 52,34.499643 C52,35.8797658 50.8804798,37 49.499643,37 Z M43.5,31 C42.1193604,31 41,29.8806396 41,28.5 C41,27.1193604 42.1193604,26 43.5,26 C44.8806396,26 46,27.1193604 46,28.5 C46,29.8806396 44.8806396,31 43.5,31 Z" id="Shape" fill="#FFFFFF" fill-rule="nonzero"></path>
    </g>
</svg>