<?xml version="1.0" encoding="UTF-8"?>
<svg width="14px" height="14px" viewBox="0 0 14 14" version="1.1" xmlns="http://www.w3.org/2000/svg" xmlns:xlink="http://www.w3.org/1999/xlink">
    <!-- Generator: sketchtool 52.4 (67378) - http://www.bohemiancoding.com/sketch -->
    <title>7FE128D4-E8C0-4063-A306-73C613C9FC48</title>
    <desc>Created with sketchtool.</desc>
    <g id="Assets" stroke="none" stroke-width="1" fill="none" fill-rule="evenodd">
        <g id="02.-Icons" transform="translate(-121.000000, -3302.000000)" fill="#FFFFFF">
            <g id="02.9-Music" transform="translate(120.000000, 2929.000000)">
                <g id="02.-Icon-/-Outline-/-Next-Without-Circle-/-b.-White" transform="translate(0.000000, 372.000000)">
                    <g id="Next" transform="translate(1.000000, 1.000000)">
                        <path d="M0,1.76619038 L6.66133815e-16,12.2338096 C7.3376919e-16,12.7860944 0.44771525,13.2338096 1,13.2338096 C1.18124395,13.2338096 1.35908035,13.1845518 1.51449576,13.0913025 L10.2375118,7.85749293 C10.7110921,7.57334477 10.8646571,6.95908451 10.580509,6.48550424 C10.4960592,6.34475464 10.3782614,6.22695684 10.2375118,6.14250707 L1.51449576,0.908697453 C1.04091549,0.624549294 0.426655234,0.778114358 0.142507074,1.25169462 C0.0492578333,1.40711003 -6.88329797e-16,1.58494643 -6.66133815e-16,1.76619038 Z" id="Path-2" fill-rule="nonzero"></path>
                        <rect id="Rectangle-Copy" fill-rule="nonzero" x="12" y="0" width="2" height="14" rx="1"></rect>
                    </g>
                </g>
            </g>
        </g>
    </g>
</svg>