<?xml version="1.0" encoding="UTF-8"?>
<svg width="18px" height="16px" viewBox="0 0 18 16" version="1.1" xmlns="http://www.w3.org/2000/svg" xmlns:xlink="http://www.w3.org/1999/xlink">
    <!-- Generator: sketchtool 52.4 (67378) - http://www.bohemiancoding.com/sketch -->
    <title>707C5F80-6C56-4ECB-AD20-66542671AE19</title>
    <desc>Created with sketchtool.</desc>
    <g id="Assets" stroke="none" stroke-width="1" fill="none" fill-rule="evenodd" stroke-linecap="round" stroke-linejoin="round">
        <g id="02.-Icons" transform="translate(-239.000000, -401.000000)" stroke="#FFFFFF">
            <g id="02.1-Login-Overlays" transform="translate(120.000000, 218.000000)">
                <g id="Icon/Outline-1pt/eye-hide/eye_hide_white" transform="translate(119.000000, 182.000000)">
                    <path d="M14.1594828,6.56058673 C15.8297974,7.83683036 16.875,9.1434949 16.875,9.1434949 C16.875,9.1434949 13.349444,13.7293048 9,13.7293048 C8.28880603,13.7293048 7.48256897,13.6587054 6.82758621,13.4483418" id="Line"></path>
                    <path d="M3.84184784,11.7035587 C2.16963233,10.4235842 2.18511078,10.5584694 1.12497284,9.14360969 C1.12497284,9.14360969 4.65080043,4.26478316 8.99997284,4.26478316 C9.58896853,4.26478316 10.0772185,4.40253827 10.6292832,4.55177296" id="Line"></path>
                    <path d="M6.1875,9.1434949 C6.1875,7.54496173 7.4334375,6.27359694 9,6.27359694" id="Line"></path>
                    <path d="M11.8125,8.8565051 C11.8125,10.4553253 10.5665625,11.7264031 9,11.7264031" id="Line"></path>
                    <path d="M15.75,1.96875 L2.25,16.03125" id="Line"></path>
                </g>
            </g>
        </g>
    </g>
</svg>