<?xml version="1.0" encoding="UTF-8"?>
<svg width="18px" height="10px" viewBox="0 0 18 10" version="1.1" xmlns="http://www.w3.org/2000/svg" xmlns:xlink="http://www.w3.org/1999/xlink">
    <!-- Generator: sketchtool 52.4 (67378) - http://www.bohemiancoding.com/sketch -->
    <title>8799645F-4D54-4E0B-9D35-904928E843B2</title>
    <desc>Created with sketchtool.</desc>
    <g id="Assets" stroke="none" stroke-width="1" fill="none" fill-rule="evenodd" stroke-linecap="round" stroke-linejoin="round">
        <g id="02.-Icons" transform="translate(-239.000000, -346.000000)" stroke="#FFFFFF">
            <g id="02.1-Login-Overlays" transform="translate(120.000000, 218.000000)">
                <g id="Icon/Outline-1pt/eye-show/eye_show_white" transform="translate(119.000000, 124.000000)">
                    <path d="M16.875,9.28125 C16.875,9.28125 13.349444,13.5 9,13.5 C4.65055603,13.5 1.125,9.28125 1.125,9.28125 C1.125,9.28125 4.65055603,4.5 9,4.5 C13.349444,4.5 16.875,9.28125 16.875,9.28125 L16.875,9.28125 Z" id="Line"></path>
                    <path d="M11.8125,9 C11.8125,10.5533437 10.5533437,11.8125 9,11.8125 C7.44665625,11.8125 6.1875,10.5533437 6.1875,9 C6.1875,7.44665625 7.44665625,6.1875 9,6.1875 C10.5533437,6.1875 11.8125,7.44665625 11.8125,9 L11.8125,9 Z" id="Line"></path>
                </g>
            </g>
        </g>
    </g>
</svg>