<?xml version="1.0" encoding="UTF-8"?>
<svg width="40px" height="40px" viewBox="0 0 40 40" version="1.1" xmlns="http://www.w3.org/2000/svg" xmlns:xlink="http://www.w3.org/1999/xlink">
    <!-- Generator: sketchtool 52.4 (67378) - http://www.bohemiancoding.com/sketch -->
    <title>AAB4CEC8-0C6C-4AFB-92AE-5D926AAB296F</title>
    <desc>Created with sketchtool.</desc>
    <g id="Assets" stroke="none" stroke-width="1" fill="none" fill-rule="evenodd">
        <g id="02.-Icons" transform="translate(-248.000000, -782.000000)">
            <g id="02.2-Top-Nav" transform="translate(120.000000, 554.000000)">
                <g id="05.-Profile-/-Avatar-3" transform="translate(128.000000, 228.000000)">
                    <circle id="Bg---oval" stroke="#719E19" cx="20" cy="20" r="19.5"></circle>
                    <g id="avatar_3" fill-rule="evenodd">
                        <circle id="Oval" fill="#D12149" cx="20" cy="20" r="20"></circle>
                        <circle id="Oval" fill="#FFFFFF" cx="19.996" cy="29.3235" r="1"></circle>
                        <path d="M16.768,31.334 L23.2535,31.334 L23.2535,34.487 C23.2535,34.9456725 22.8816725,35.3175 22.423,35.3175 L17.6,35.3175 C17.1413275,35.3175 16.7695,34.9456725 16.7695,34.487 L16.7695,31.334 L16.768,31.334 Z" id="Path" fill="#FFD400"></path>
                        <path d="M22.396,35.5885 L17.626,35.5885 C17.0030893,35.5876737 16.4983263,35.0829107 16.4975,34.46 L16.4975,31.334 C16.4975,31.1843308 16.6188308,31.063 16.7685,31.063 L23.2535,31.063 C23.4031692,31.063 23.5245,31.1843308 23.5245,31.334 L23.5245,34.4595 C23.5239491,35.082606 23.0191057,35.5876731 22.396,35.5885 Z M17.039,31.6045 L17.039,34.4595 C17.0392757,34.7835769 17.3019231,35.0462243 17.626,35.0465 L22.396,35.0465 C22.7200769,35.0462243 22.9827243,34.7835769 22.983,34.4595 L22.983,31.6045 L17.039,31.6045 Z" id="Shape" fill="#FFD400" fill-rule="nonzero"></path>
                        <path d="M16.768,33.35 C16.8742485,33.3809046 16.9843481,33.3965609 17.095,33.3965 L22.9265,33.3965 C23.0371519,33.3965609 23.1472515,33.3809046 23.2535,33.35 L23.2535,31.763 L16.768,31.763 L16.768,33.35 Z" id="Path" fill="#D12149"></path>
                        <path d="M22.9265,33.668 L17.095,33.668 C16.9587896,33.6679595 16.8232734,33.6486 16.6925,33.6105 C16.5769778,33.5767482 16.4975555,33.4708519 16.4975,33.3505 L16.4975,31.763 C16.4975,31.6133308 16.6188308,31.492 16.7685,31.492 L23.2535,31.492 C23.4031692,31.492 23.5245,31.6133308 23.5245,31.763 L23.5245,33.35 C23.5244445,33.4703519 23.4450222,33.5762482 23.3295,33.61 C23.1985888,33.6483094 23.0629014,33.6678376 22.9265,33.668 Z M17.039,33.1245 C17.0575,33.1245 17.0765,33.1245 17.095,33.1245 L22.9265,33.1245 C22.9451667,33.1245 22.9638333,33.1245 22.9825,33.1245 L22.9825,32.0335 L17.039,32.0335 L17.039,33.1245 Z" id="Shape" fill="#D12149" fill-rule="nonzero"></path>
                        <path d="M23.6705,31.7955 C23.6694011,32.2059438 23.3369438,32.5384011 22.9265,32.5395 L17.095,32.5395 C16.6841657,32.5389508 16.3511011,32.2063332 16.35,31.7955" id="Path" fill="#D12149"></path>
                        <path d="M22.9265,32.81 L17.095,32.81 C16.5349356,32.8094488 16.0810512,32.3555644 16.0805,31.7955 C16.086733,31.650491 16.2061071,31.5361378 16.35125,31.5361378 C16.4963929,31.5361378 16.615767,31.650491 16.622,31.7955 C16.6222756,32.0566165 16.8338835,32.2682244 17.095,32.2685 L22.9265,32.2685 C23.1876165,32.2682244 23.3992244,32.0566165 23.3995,31.7955 C23.3952229,31.6959948 23.4458717,31.602162 23.5314034,31.5511336 C23.6169351,31.5001051 23.7235649,31.5001051 23.8090966,31.5511336 C23.8946283,31.602162 23.9452771,31.6959948 23.941,31.7955 C23.9404488,32.3555644 23.4865644,32.8094488 22.9265,32.81 Z" id="Path" fill="#FFD400"></path>
                        <path d="M16.35,31.7955 C16.3502754,31.384081 16.6835813,31.0505514 17.095,31.05 L22.9265,31.05 C23.3369438,31.0510989 23.6694011,31.3835562 23.6705,31.794" id="Path" fill="#D12149"></path>
                        <path d="M23.6705,32.066 C23.5208308,32.066 23.3995,31.9446692 23.3995,31.795 C23.3992244,31.5338835 23.1876165,31.3222756 22.9265,31.322 L17.095,31.322 C16.8338835,31.3222756 16.6222756,31.5338835 16.622,31.795 C16.615767,31.940009 16.4963929,32.0543622 16.35125,32.0543622 C16.2061071,32.0543622 16.086733,31.940009 16.0805,31.795 C16.0810512,31.2349356 16.5349356,30.7810512 17.095,30.7805 L22.9265,30.7805 C23.4865644,30.7810512 23.9404488,31.2349356 23.941,31.795 C23.9410003,31.9444741 23.8199739,32.0657242 23.6705,32.066 Z" id="Path" fill="#00B49C"></path>
                        <path d="M16.35,31.9185 C16.2003308,31.9185 16.079,31.7971692 16.079,31.6475 L16.079,28.3055 C16.085233,28.160491 16.2046071,28.0461378 16.34975,28.0461378 C16.4948929,28.0461378 16.614267,28.160491 16.6205,28.3055 L16.6205,31.65 C16.6191303,31.7984973 16.4985033,31.9182323 16.35,31.9185 Z" id="Path" fill="#00B49C"></path>
                        <path d="M23.6705,31.9185 C23.5219967,31.9182323 23.4013697,31.7984973 23.4,31.65 L23.4,28.3055 C23.3957229,28.2059948 23.4463717,28.112162 23.5319034,28.0611336 C23.6174351,28.0101051 23.7240649,28.0101051 23.8095966,28.0611336 C23.8951283,28.112162 23.9457771,28.2059948 23.9415,28.3055 L23.9415,31.65 C23.9401282,31.7986919 23.8191983,31.9185063 23.6705,31.9185 Z" id="Path" fill="#00B49C"></path>
                        <path d="M30.6575,15.34 C30.6575,9.454 25.886,4.6825 20,4.6825 C14.114,4.6825 9.3425,9.454 9.3425,15.34 C9.3425,17.7455 10.626,20.2645 11.484,21.709 C12.305,23.0915 14.6725,26.653 15.4555,27.827 C15.6146192,28.0654292 15.8823515,28.2085825 16.169,28.2085 L23.836,28.2085 C24.1198309,28.2085423 24.3852934,28.0681354 24.545,27.8335 C25.3385,26.668 27.7545,23.103 28.574,21.709 C29.4235,20.2645 30.6575,17.71 30.6575,15.34 Z" id="Path" fill="#BEE70C"></path>
                        <path d="M23.836,28.479 L16.169,28.479 C15.7920375,28.4800206 15.4395718,28.2923392 15.23,27.979 C14.5065,26.8945 12.08,23.2465 11.251,21.849 C9.451,18.8165 9.0715,16.6365 9.0715,15.342 C9.0715,9.316 13.9715,4.414 19.9995,4.414 C26.0275,4.414 30.9275,9.314 30.9275,15.342 C30.9275,17.8655 29.599,20.5015 28.807,21.848 C27.978,23.258 25.507,26.904 24.768,27.988 C24.5575873,28.2956553 24.2087266,28.4794435 23.836,28.479 Z M20,4.9535 C14.273,4.9535 9.6135,9.613 9.6135,15.34 C9.6135,17.5625 10.7575,19.955 11.717,21.5705 C12.5405,22.957 14.959,26.5945 15.681,27.6765 C15.7896905,27.839737 15.972888,27.9377176 16.169,27.9375 L23.836,27.9375 C24.0301572,27.9375487 24.2117555,27.8415075 24.321,27.681 C25.0565,26.6005 27.521,22.967 28.3405,21.5715 C30.187,18.4315 30.386,16.1675 30.386,15.34 C30.3865,9.6125 25.727,4.9535 20,4.9535 Z" id="Shape" fill="#BEE70C" fill-rule="nonzero"></path>
                        <path d="M30.6575,15.34 C30.6575,9.454 25.886,4.6825 20,4.6825 C14.114,4.6825 9.3425,9.454 9.3425,15.34 C9.3425,17.7455 10.626,20.2645 11.484,21.709 C12.305,23.0915 14.6725,26.653 15.4555,27.827 C15.6146192,28.0654292 15.8823515,28.2085825 16.169,28.2085 L23.836,28.2085 C24.1198309,28.2085423 24.3852934,28.0681354 24.545,27.8335 C25.3385,26.668 27.7545,23.103 28.574,21.709 C29.4235,20.2645 30.6575,17.71 30.6575,15.34 Z" id="Path" fill="#FFD400"></path>
                        <path d="M23.836,28.479 L16.169,28.479 C15.7920375,28.4800206 15.4395718,28.2923392 15.23,27.979 C14.5065,26.8945 12.08,23.2465 11.251,21.849 C9.451,18.8165 9.0715,16.6365 9.0715,15.342 C9.0715,9.316 13.9715,4.414 19.9995,4.414 C26.0275,4.414 30.9275,9.314 30.9275,15.342 C30.9275,17.8655 29.599,20.5015 28.807,21.848 C27.978,23.258 25.507,26.904 24.768,27.988 C24.5575873,28.2956553 24.2087266,28.4794435 23.836,28.479 Z M20,4.9535 C14.273,4.9535 9.6135,9.613 9.6135,15.34 C9.6135,17.5625 10.7575,19.955 11.717,21.5705 C12.5405,22.957 14.959,26.5945 15.681,27.6765 C15.7896905,27.839737 15.972888,27.9377176 16.169,27.9375 L23.836,27.9375 C24.0301572,27.9375487 24.2117555,27.8415075 24.321,27.681 C25.0565,26.6005 27.521,22.967 28.3405,21.5715 C30.187,18.4315 30.386,16.1675 30.386,15.34 C30.3865,9.6125 25.727,4.9535 20,4.9535 Z" id="Shape" fill="#FFD400" fill-rule="nonzero"></path>
                        <path d="M25.839,15.34 C25.839,9.454 23.225,4.6825 20,4.6825 C16.775,4.6825 14.161,9.454 14.161,15.34 C14.161,17.7455 14.8645,20.2645 15.334,21.709 C15.784,23.0915 17.081,26.653 17.51,27.827 C17.597,28.0655 17.744,28.2085 17.901,28.2085 L22.101,28.2085 C22.2565,28.2085 22.401,28.068 22.4895,27.8335 C22.925,26.668 24.25,23.1025 24.7,21.7085 C25.163,20.2645 25.839,17.71 25.839,15.34 Z" id="Path" fill="#D12149"></path>
                        <path d="M22.5055,28.4465 L17.4945,28.4465 L15.1,21.7425 C14.35,19.8745 13.954,17.661 13.954,15.3395 C13.954,12.4535 14.5685,9.737 15.6845,7.6895 C16.825,5.5965 18.358,4.444 20.001,4.444 C21.644,4.444 23.1765,5.5965 24.3175,7.6895 C25.433,9.737 26.048,12.4535 26.048,15.3395 C26.048,17.6605 25.652,19.874 24.902,21.7395 L22.5055,28.4465 Z M17.83,27.97 L22.17,27.97 L24.3375,21.9 L24.323,21.9 L24.4545,21.5725 C25.1845,19.7585 25.5705,17.603 25.5705,15.3375 C25.5705,12.53 24.9765,9.894 23.8985,7.9155 C22.845,5.9825 21.461,4.9185 19.9985,4.9185 C18.536,4.9185 17.154,5.983 16.0985,7.9155 C15.02,9.894 14.4265,12.53 14.4265,15.3375 C14.4265,17.6025 14.8125,19.7585 15.5425,21.5725 L15.674,21.8995 L15.659,21.8995 L17.83,27.97 Z" id="Shape" fill="#FFFFFF" fill-rule="nonzero"></path>
                        <path d="M14.7605,26.782 C15.045,27.2105 15.287,27.574 15.4555,27.827 C15.6146192,28.0654292 15.8823515,28.2085825 16.169,28.2085 L23.836,28.2085 C24.1198309,28.2085423 24.3852934,28.0681354 24.545,27.8335 C24.7175,27.5805 24.966,27.2145 25.258,26.7835 L14.7605,26.782 Z" id="Path" fill="#FFFFFF"></path>
                        <path d="M23.836,28.479 L16.169,28.479 C15.7920375,28.4800206 15.4395718,28.2923392 15.23,27.979 C15.0615,27.726 14.819,27.3625 14.5345,26.9335 L14.2555,26.513 L25.768,26.513 L25.4825,26.9355 C25.19,27.368 24.941,27.7355 24.7685,27.9855 C24.5585512,28.2942515 24.2093711,28.4790455 23.836,28.479 Z M15.2655,27.0525 L15.681,27.6765 C15.7896905,27.839737 15.972888,27.9377176 16.169,27.9375 L23.836,27.9375 C24.0301789,27.9376364 24.2118158,27.8415749 24.321,27.681 L24.75,27.0525 L15.2655,27.0525 Z" id="Shape" fill="#FFFFFF" fill-rule="nonzero"></path>
                        <rect id="Rectangle" fill="#FFFFFF" x="19.8215" y="29.6235" width="1" height="1"></rect>
                        <path d="M20.746,31.876 L20.746,30.2975 C20.7454509,30.113541 20.596459,29.9645491 20.4125,29.964 L19.58,29.964 C19.396041,29.9645491 19.2470491,30.113541 19.2465,30.2975 L19.2465,31.876 L20.746,31.876 Z" id="Path" fill="#FFD400"></path>
                        <path d="M20.636,30.408 C20.5335601,30.4078619 20.4455148,30.3353076 20.4257992,30.2347827 C20.4060837,30.1342578 20.4602011,30.0338217 20.555,29.995 L22.021,29.4 C22.1307666,29.3552649 22.2560149,29.4079834 22.30075,29.51775 C22.3454851,29.6275166 22.2927666,29.7527649 22.183,29.7975 L20.7165,30.3945 C20.6907781,30.4041111 20.6634501,30.408694 20.636,30.408 Z" id="Path" fill="#FFD400"></path>
                        <path d="M22.1,29.8115 C22.0860587,29.8112638 22.0721679,29.8097576 22.0585,29.807 C22.0446299,29.8041435 22.0310673,29.7999575 22.018,29.7945 C22.0050356,29.7892752 21.9926381,29.7827414 21.981,29.775 C21.9699172,29.7676414 21.9595395,29.7592723 21.95,29.75 C21.9401451,29.7400413 21.9312709,29.7291579 21.9235,29.7175 C21.9157586,29.7058619 21.9092248,29.6934644 21.904,29.6805 C21.8985454,29.6674317 21.8943595,29.6538693 21.8915,29.64 C21.885828,29.6124556 21.885828,29.5840444 21.8915,29.5565 C21.8943565,29.5426299 21.8985425,29.5290673 21.904,29.516 C21.9092152,29.5030312 21.9157495,29.4906327 21.9235,29.479 C21.9389904,29.4555589 21.9590589,29.4354904 21.9825,29.42 C21.9941381,29.4122586 22.0065356,29.4057248 22.0195,29.4005 C22.0325673,29.3950425 22.0461299,29.3908565 22.06,29.388 C22.0875554,29.3824377 22.1159446,29.3824377 22.1435,29.388 C22.1573531,29.3909222 22.1709097,29.3951063 22.184,29.4005 C22.1969644,29.4057248 22.2093619,29.4122586 22.221,29.42 C22.2444411,29.4354904 22.2645096,29.4555589 22.28,29.479 C22.2877505,29.4906327 22.2942848,29.5030312 22.2995,29.516 C22.3049575,29.5290673 22.3091435,29.5426299 22.312,29.5565 C22.3171173,29.5840981 22.3171173,29.6124019 22.312,29.64 C22.3091405,29.6538693 22.3049546,29.6674317 22.2995,29.6805 C22.2942752,29.6934644 22.2877414,29.7058619 22.28,29.7175 C22.2722291,29.7291579 22.2633549,29.7400413 22.2535,29.75 C22.2435539,29.7598689 22.2326691,29.7687442 22.221,29.7765 C22.2093619,29.7842414 22.1969644,29.7907752 22.184,29.796 C22.1578627,29.8069049 22.1298209,29.8125132 22.1015,29.8125 L22.1,29.8115 Z" id="Path" fill="#FFFFFF"></path>
                        <path d="M19.4,30.408 C19.3722174,30.4079752 19.3447054,30.4025407 19.319,30.392 L17.85,29.7955 C17.7402334,29.750903 17.687403,29.6257666 17.732,29.516 C17.776597,29.4062334 17.9017334,29.353403 18.0115,29.398 L19.48,29.995 C19.5747989,30.0338217 19.6289163,30.1342578 19.6092008,30.2347827 C19.5894852,30.3353076 19.5014399,30.4078619 19.399,30.408 L19.4,30.408 Z" id="Path" fill="#FFD400"></path>
                        <path d="M17.9325,29.8115 C17.8609302,29.8114345 17.7941309,29.7755956 17.7545,29.716 C17.7467526,29.7043655 17.7402184,29.6919674 17.735,29.679 C17.7295366,29.6659348 17.7253504,29.6523716 17.7225,29.6385 C17.7167999,29.6109585 17.7167999,29.5825415 17.7225,29.555 C17.7253474,29.5411276 17.7295337,29.5275641 17.735,29.5145 C17.7402055,29.5015267 17.7467404,29.4891272 17.7545,29.4775 C17.8024118,29.4051104 17.8893843,29.3689377 17.9745,29.386 C17.9883531,29.3889222 18.0019097,29.3931063 18.015,29.3985 C18.0279703,29.403712 18.0403691,29.4102465 18.052,29.418 C18.0636579,29.4257709 18.0745413,29.4346451 18.0845,29.4445 C18.0943665,29.4544482 18.1032417,29.4653328 18.111,29.477 C18.1185914,29.4887266 18.1251174,29.5011093 18.1305,29.514 C18.1357683,29.5271351 18.139949,29.5406806 18.143,29.5545 C18.1481173,29.5820981 18.1481173,29.6104019 18.143,29.638 C18.1399447,29.6518183 18.135764,29.6653634 18.1305,29.6785 C18.1251078,29.6913861 18.1185822,29.7037681 18.111,29.7155 C18.1032442,29.7271691 18.0943689,29.7380539 18.0845,29.748 C18.0745625,29.7578784 18.0636767,29.7667546 18.052,29.7745 C18.0403691,29.7822535 18.0279703,29.788788 18.015,29.794 C17.9888666,29.8049176 17.9608222,29.8105265 17.9325,29.8105 L17.9325,29.8115 Z" id="Path" fill="#FFFFFF"></path>
                    </g>
                </g>
            </g>
        </g>
    </g>
</svg>