<?xml version="1.0" encoding="UTF-8"?>
<svg width="40px" height="40px" viewBox="0 0 40 40" version="1.1" xmlns="http://www.w3.org/2000/svg" xmlns:xlink="http://www.w3.org/1999/xlink">
    <!-- Generator: sketchtool 52.4 (67378) - http://www.bohemiancoding.com/sketch -->
    <title>27EC3CB3-8A85-4B2D-B53F-24483BAFFFA5</title>
    <desc>Created with sketchtool.</desc>
    <g id="Assets" stroke="none" stroke-width="1" fill="none" fill-rule="evenodd">
        <g id="02.-Icons" transform="translate(-120.000000, -782.000000)">
            <g id="02.2-Top-Nav" transform="translate(120.000000, 554.000000)">
                <g id="05.-Profile-/-Avatar-1" transform="translate(0.000000, 228.000000)">
                    <circle id="Bg---oval" stroke="#719E19" cx="20" cy="20" r="19.5"></circle>
                    <g id="avatar_1" fill-rule="evenodd">
                        <circle id="Oval" fill="#00B49C" cx="20" cy="20" r="20"></circle>
                        <polygon id="Path" fill="#D12149" points="21.0045 21.4365 20 20.7065 18.9955 21.4365 19.379 20.2555 18.3745 19.5255 19.616 19.5255 20 18.345 20.3835 19.526 21.625 19.526 20.6205 20.256"></polygon>
                        <path d="M26.2,35.531 C24.7729524,35.531876 23.3827326,35.0781018 22.231,34.2355 L19.8335,32.494 L17.4365,34.2355 C16.2848768,35.0783738 14.8946201,35.5323352 13.4675,35.5315 C11.2988523,35.5254053 9.26317159,34.4852765 7.9875,32.7315 C6.706,30.9675 6.359,28.761 7.0375,26.678 L7.95,23.8605 L5.553,22.119 C3.17760866,20.4009562 2.18163404,17.3468028 3.08755111,14.5587079 C3.99346817,11.7706131 6.59442724,9.88518741 9.526,9.8915 L12.489,9.8915 L13.4045,7.0735 C14.304298,4.283278 16.9012812,2.39207935 19.833,2.39207935 C22.7647188,2.39207935 25.361702,4.283278 26.2615,7.0735 L27.177,9.8915 L30.14,9.8915 C33.0715728,9.88518741 35.6725318,11.7706131 36.5784489,14.5587079 C37.484366,17.3468028 36.4883913,20.4009562 34.113,22.119 L31.716,23.8605 L32.6315,26.6785 C33.3085,28.762 32.9615,30.9685 31.6815,32.733 C30.4063109,34.4870774 28.3706084,35.5273123 26.202,35.533 L26.2,35.531 Z" id="Path" fill="#FFD400"></path>
                        <path d="M26.2,34.5 C24.9909096,34.4999477 23.8132854,34.1146453 22.838,33.4 L19.8335,31.217 L16.83,33.4 C15.8547467,34.1147079 14.6771015,34.5000172 13.468,34.5 C11.6299222,34.4952221 9.90445694,33.6136355 8.8235,32.127 C7.74105802,30.6490667 7.44108426,28.7385507 8.0185,27 L9.1685,23.468 L6.164,21.2855 C4.15043637,19.8305449 3.30582275,17.242485 4.07352031,14.879865 C4.84121787,12.517245 7.04579181,10.9199724 9.53,10.9265 L13.2435,10.9265 L14.391,7.395 C15.1525581,5.03048589 17.3528708,3.42753713 19.837,3.42753713 C22.3211292,3.42753713 24.5214419,5.03048589 25.283,7.395 L26.433,10.927 L30.1465,10.927 C32.6307082,10.9204724 34.8352821,12.517745 35.6029797,14.880365 C36.3706772,17.242985 35.5260636,19.8310449 33.5125,21.286 L30.508,23.4685 L31.65,27 C32.2269818,28.7380959 31.9270221,30.6479637 30.845,32.1255 C29.7643143,33.6129077 28.0385427,34.4951131 26.2,34.5 Z" id="Path" fill="#D12149"></path>
                        <path d="M26.2,32.4325 C25.4266938,32.4325018 24.673538,32.185887 24.05,31.7285 L19.8315,28.6635 L15.613,31.7285 C14.9894782,32.1859184 14.2363118,32.4325366 13.463,32.4325 C12.2860253,32.4286433 11.1815378,31.8633969 10.49,30.911 C9.79915657,29.9666165 9.60835784,28.7461754 9.978,27.636 L11.5895,22.6765 L7.371,19.6115 C6.08183731,18.6828084 5.54018571,17.0277285 6.03086335,15.5165555 C6.521541,14.0053825 7.93217184,12.9842084 9.521,12.99 L14.742,12.99 L16.3535,8.031 C16.8388603,6.51804713 18.2458507,5.49179651 19.83475,5.49179651 C21.4236493,5.49179651 22.8306397,6.51804713 23.316,8.031 L24.9275,12.9905 L30.1415,12.9905 C31.7303282,12.9847084 33.140959,14.0058825 33.6316366,15.5170555 C34.1223143,17.0282285 33.5806627,18.6833084 32.2915,19.612 L28.073,22.677 L29.6845,27.636 C30.0541422,28.7461754 29.8633434,29.9666165 29.1725,30.911 C28.4810661,31.8632549 27.3767983,32.428484 26.2,32.4325 Z" id="Path" fill="#00B49C"></path>
                        <path d="M26.2,30.883 C25.7547945,30.8818588 25.3215224,30.7389525 24.963,30.475 L19.861,26.7675 C19.8452071,26.7559928 19.8237929,26.7559928 19.808,26.7675 L14.705,30.475 C14.3465099,30.7390151 13.9132168,30.8819282 13.468,30.883 C12.7873156,30.8793679 12.1491608,30.5513756 11.75,30 C11.3533164,29.4557542 11.2446898,28.7531287 11.4585,28.1145 L13.4085,22.1145 C13.4143418,22.0960191 13.4076939,22.0758741 13.392,22.0645 L8.2865,18.3585 C7.54689209,17.8208384 7.2375195,16.8681373 7.52014058,15.9985252 C7.80276165,15.1289132 8.61311507,14.5401193 9.5275,14.54 L15.835,14.54 C15.8545445,14.5401012 15.8719197,14.5275749 15.878,14.509 L17.828,8.509 C18.1107824,7.63950267 18.9211743,7.05088954 19.8355,7.05088954 C20.7498257,7.05088954 21.5602176,7.63950267 21.843,8.509 L23.793,14.509 C23.7990803,14.5275749 23.8164555,14.5401012 23.836,14.54 L30.1415,14.54 C31.0558849,14.5401193 31.8662383,15.1289132 32.1488594,15.9985252 C32.4314805,16.8681373 32.1221079,17.8208384 31.3825,18.3585 L26.2795,22.066 C26.2638061,22.0773741 26.2571582,22.0975191 26.263,22.116 L28.213,28.116 C28.4260056,28.754341 28.3170244,29.4562914 27.9205,30 C27.52082,30.5520848 26.8815671,30.8801641 26.2,30.883 Z" id="Path" fill="#FFD400"></path>
                        <path d="M30.1415,15.5725 L23.834,15.5725 C23.3670379,15.5723796 22.9532471,15.2716243 22.809,14.8275 L20.859,8.8275 C20.5365,7.8345 19.1315,7.8345 18.809,8.8275 L16.859,14.8275 C16.7147529,15.2716243 16.3009621,15.5723796 15.834,15.5725 L9.5275,15.5725 C8.4835,15.5725 8.049,16.909 8.894,17.5225 L13.9965,21.23 C14.374182,21.5045008 14.5322224,21.9909344 14.388,22.435 L12.438,28.435 C12.1155,29.428 13.252,30.254 14.097,29.64 L19.2,25.932 C19.5777695,25.6576221 20.0892305,25.6576221 20.467,25.932 L25.57,29.6395 C26.415,30.2535 27.5515,29.4275 27.229,28.4345 L25.279,22.4345 C25.1347776,21.9904344 25.292818,21.5040008 25.6705,21.2295 L30.775,17.5225 C31.62,16.909 31.1855,15.5725 30.1415,15.5725 Z" id="Path" fill="#FFFFFF"></path>
                        <circle id="Oval" fill="#00B49C" cx="17.697" cy="18.2225" r="1"></circle>
                        <circle id="Oval" fill="#00B49C" cx="22.303" cy="18.2225" r="1"></circle>
                        <path d="M22.055,20.773 C21.9166136,20.7745303 21.7869917,20.8410079 21.705,20.9525 C21.3039974,21.4899364 20.6728027,21.8065108 20.00225,21.8065108 C19.3316973,21.8065108 18.7005026,21.4899364 18.2995,20.9525 C18.2175083,20.8410079 18.0878864,20.7745303 17.9495,20.773 L17.939,20.773 C17.7743928,20.7731378 17.623895,20.8659689 17.5499001,21.0130074 C17.4759052,21.1600459 17.4910284,21.3362233 17.589,21.4685 C18.1555549,22.2344347 19.0517984,22.6862767 20.0045,22.6862767 C20.9572016,22.6862767 21.8534451,22.2344347 22.42,21.4685 C22.5179716,21.3362233 22.5330948,21.1600459 22.4590999,21.0130074 C22.385105,20.8659689 22.2346072,20.7731378 22.07,20.773 L22.055,20.773 Z" id="Path" fill="#D12149"></path>
                    </g>
                </g>
            </g>
        </g>
    </g>
</svg>