<?xml version="1.0" encoding="UTF-8"?>
<svg width="20px" height="19px" viewBox="0 0 20 19" version="1.1" xmlns="http://www.w3.org/2000/svg" xmlns:xlink="http://www.w3.org/1999/xlink">
    <!-- Generator: sketchtool 52.4 (67378) - http://www.bohemiancoding.com/sketch -->
    <title>A0E4F8F7-1E1C-4BCF-8B1A-CE5133CD7FD4</title>
    <desc>Created with sketchtool.</desc>
    <g id="Assets" stroke="none" stroke-width="1" fill="none" fill-rule="evenodd">
        <g id="02.-Icons" transform="translate(-224.000000, -584.000000)" stroke="#FFFFFF" stroke-width="0.5103">
            <g id="02.2-Top-Nav" transform="translate(120.000000, 554.000000)">
                <g id="02.2-Top-Nav_Etisalat-Apps_OnSelect_All" transform="translate(104.000000, 30.000000)">
                    <rect id="Rectangle-2" x="0.25515" y="0.25515" width="4.75285789" height="4.62483514" rx="1.0206"></rect>
                    <rect id="Rectangle-2" x="7.62357105" y="0.25515" width="4.75285789" height="4.62483514" rx="1.0206"></rect>
                    <path d="M15.7574421,0.25515 C15.3346957,0.25515 14.9919921,0.597853638 14.9919921,1.0206 L14.9919921,4.11453514 C14.9919921,4.5372815 15.3346957,4.87998514 15.7574421,4.87998514 L18.9794,4.87998514 C19.4021464,4.87998514 19.74485,4.5372815 19.74485,4.11453514 L19.74485,1.0206 C19.74485,0.597853638 19.4021464,0.25515 18.9794,0.25515 L15.7574421,0.25515 Z" id="Rectangle-2"></path>
                    <path d="M1.0206,7.44433919 C0.597853638,7.44433919 0.25515,7.78704283 0.25515,8.20978919 L0.25515,11.3037243 C0.25515,11.7264707 0.597853638,12.0691743 1.0206,12.0691743 L4.24255789,12.0691743 C4.66530426,12.0691743 5.00800789,11.7264707 5.00800789,11.3037243 L5.00800789,8.20978919 C5.00800789,7.78704283 4.66530426,7.44433919 4.24255789,7.44433919 L1.0206,7.44433919 Z" id="Rectangle-2"></path>
                    <path d="M8.38902105,7.44433919 C7.96627469,7.44433919 7.62357105,7.78704283 7.62357105,8.20978919 L7.62357105,11.3037243 C7.62357105,11.7264707 7.96627469,12.0691743 8.38902105,12.0691743 L11.6109789,12.0691743 C12.0337253,12.0691743 12.3764289,11.7264707 12.3764289,11.3037243 L12.3764289,8.20978919 C12.3764289,7.78704283 12.0337253,7.44433919 11.6109789,7.44433919 L8.38902105,7.44433919 Z" id="Rectangle-2"></path>
                    <path d="M15.7574421,7.44433919 C15.3346957,7.44433919 14.9919921,7.78704283 14.9919921,8.20978919 L14.9919921,11.3037243 C14.9919921,11.7264707 15.3346957,12.0691743 15.7574421,12.0691743 L18.9794,12.0691743 C19.4021464,12.0691743 19.74485,11.7264707 19.74485,11.3037243 L19.74485,8.20978919 C19.74485,7.78704283 19.4021464,7.44433919 18.9794,7.44433919 L15.7574421,7.44433919 Z" id="Rectangle-2"></path>
                    <path d="M1.0206,14.1200149 C0.597853638,14.1200149 0.25515,14.4627185 0.25515,14.8854649 L0.25515,17.9794 C0.25515,18.4021464 0.597853638,18.74485 1.0206,18.74485 L4.24255789,18.74485 C4.66530426,18.74485 5.00800789,18.4021464 5.00800789,17.9794 L5.00800789,14.8854649 C5.00800789,14.4627185 4.66530426,14.1200149 4.24255789,14.1200149 L1.0206,14.1200149 Z" id="Rectangle-2"></path>
                    <path d="M8.38902105,14.1200149 C7.96627469,14.1200149 7.62357105,14.4627185 7.62357105,14.8854649 L7.62357105,17.9794 C7.62357105,18.4021464 7.96627469,18.74485 8.38902105,18.74485 L11.6109789,18.74485 C12.0337253,18.74485 12.3764289,18.4021464 12.3764289,17.9794 L12.3764289,14.8854649 C12.3764289,14.4627185 12.0337253,14.1200149 11.6109789,14.1200149 L8.38902105,14.1200149 Z" id="Rectangle-2"></path>
                    <path d="M15.7574421,14.1200149 C15.3346957,14.1200149 14.9919921,14.4627185 14.9919921,14.8854649 L14.9919921,17.9794 C14.9919921,18.4021464 15.3346957,18.74485 15.7574421,18.74485 L18.9794,18.74485 C19.4021464,18.74485 19.74485,18.4021464 19.74485,17.9794 L19.74485,14.8854649 C19.74485,14.4627185 19.4021464,14.1200149 18.9794,14.1200149 L15.7574421,14.1200149 Z" id="Rectangle-2"></path>
                </g>
            </g>
        </g>
    </g>
</svg>