<?xml version="1.0" encoding="UTF-8"?>
<svg width="40px" height="40px" viewBox="0 0 40 40" version="1.1" xmlns="http://www.w3.org/2000/svg" xmlns:xlink="http://www.w3.org/1999/xlink">
    <!-- Generator: sketchtool 52.4 (67378) - http://www.bohemiancoding.com/sketch -->
    <title>3EB0C5DE-094C-4531-9D80-721392B08BC1</title>
    <desc>Created with sketchtool.</desc>
    <g id="Assets" stroke="none" stroke-width="1" fill="none" fill-rule="evenodd">
        <g id="02.-Icons" transform="translate(-376.000000, -782.000000)">
            <g id="02.2-Top-Nav" transform="translate(120.000000, 554.000000)">
                <g id="05.-Profile-/-Avatar-5" transform="translate(256.000000, 228.000000)">
                    <circle id="Bg---oval" stroke="#719E19" cx="20" cy="20" r="19.5"></circle>
                    <g id="avatar_5" fill-rule="evenodd">
                        <path d="M14.5597015,37.1781095 C14.9766169,36.4950249 15.5970149,36.0462687 16.3472637,35.8034826 C17.1169154,35.5547264 17.958209,35.7383085 18.6522388,36.1049751 C19.0363184,36.3079602 19.380597,36.6557214 19.6378109,37.0502488 C20.4279966,37.3514661 21.2439692,37.5801049 22.0756219,37.7333333 C22.3276147,37.7474668 22.58028,37.7443085 22.8318408,37.7238806 C23.1119444,37.6686738 23.3880222,37.5947096 23.658209,37.5024876 C23.9840219,37.3371363 24.2971492,37.1478963 24.5950249,36.9363184 C25.0497512,36.5572139 25.4800995,36.1497512 25.9129353,35.7457711 C26.4970149,35.1985075 27.1069652,34.6915423 27.7238806,34.1870647 C29.3288557,32.878607 30.9975124,31.6497512 32.6402985,30.3900498 C33.4701493,29.7432836 34.2900498,29.0865672 35.0855721,28.4 C35.8810945,27.7134328 36.6776119,27.0144279 37.3542289,26.2109453 C37.7130058,25.7162327 38.0282792,25.1913875 38.2965174,24.6422886 C38.4273933,24.2828462 38.5306776,23.9139499 38.6054726,23.538806 C38.6301696,23.1859603 38.6290056,22.8317802 38.60199,22.4791045 C38.4869627,21.8880383 38.3187836,21.3085698 38.0995025,20.7477612 C37.0248756,18.379602 35.4243781,16.2666667 34.0089552,14.1 C33.5676617,13.4243781 33.5338308,12.5577114 33.7074627,11.7950249 C33.8810945,11.0323383 34.4432836,10.4189055 35.0820896,10.0074627 C35.6114428,9.66616915 36.3616915,9.54825871 37.0114428,9.63233831 C36.19358,8.30756507 35.2241961,7.08256167 34.1228856,5.98208955 C29.1140169,0.867238384 21.7438507,-1.16308141 14.8223006,0.66519999 C7.90075051,2.49348139 2.49460064,7.89858006 0.664973276,14.8197745 C-1.16465409,21.7409689 0.86423243,29.1115298 5.97810945,34.121393 C8.25283146,36.4058581 11.0509394,38.1003666 14.1293532,39.0577114 C14.0700765,38.4014093 14.2207693,37.7432388 14.5597015,37.1781095 Z" id="Path" fill="#D12149"></path>
                        <path d="M34.121393,5.97810945 C30.3975622,2.23380009 25.3305242,0.134895492 20.0497512,0.149253731 C19.8129353,0.149253731 19.5771144,0.154726368 19.341791,0.16318408 C15.4348259,3.10845771 12.8970149,7.78507463 12.8970149,13.0263682 L12.8970149,28.9636816 L33.2641791,28.9636816 L33.2641791,34.9288557 C33.5563847,34.6688226 33.8422886,34.3996683 34.1218905,34.121393 C37.8540274,30.3893165 39.9507251,25.3274984 39.9507251,20.0495025 C39.9507251,14.7715066 37.8540274,9.70968843 34.1218905,5.97761194 L34.121393,5.97810945 Z" id="Path" fill="#00B49C"></path>
                        <path d="M24.4243781,7.23432836 L13.9800995,7.23432836 C13.2624301,9.08098723 12.8949707,11.0451574 12.8965174,13.0263682 L12.8965174,38.6318408 C15.1796441,39.5071777 17.604579,39.9541159 20.0497512,39.9502488 C25.1288557,39.9502488 29.9164179,38.0597015 33.6109453,34.6124378 L33.6109453,16.3975124 C33.6109453,16.3218905 33.6109453,16.2464345 33.6109453,16.1711443 C33.518408,11.1940299 29.4029851,7.23432836 24.4243781,7.23432836 Z" id="Path" fill="#FFFFFF"></path>
                        <path d="M9.8358209,22.6587065 L15.4880597,25.920398 C15.9500004,26.1870998 16.5191564,26.1870086 16.9810116,25.9201589 C17.4428669,25.6533092 17.7272078,25.1602689 17.7268657,24.6268657 L17.7268657,18.1029851 C17.7272078,17.5695819 17.4428669,17.0765416 16.9810116,16.8096919 C16.5191564,16.5428421 15.9500004,16.542751 15.4880597,16.8094527 L9.8358209,20.0736318 C9.37406525,20.3402579 9.08961791,20.832964 9.08961791,21.3661692 C9.08961791,21.8993743 9.37406525,22.3920804 9.8358209,22.6587065 Z" id="Path" fill="#FFD400"></path>
                        <circle id="Oval" fill="#232531" cx="24.6" cy="16.0840796" r="2.56268657"></circle>
                        <path d="M23.2212664,21.4005748 L23.2212664,21.4005748 C23.5459054,21.4005748 23.8090773,21.6637468 23.8090773,21.9883858 L23.8090773,25.2043062 C23.8090773,25.5289452 23.5459054,25.7921171 23.2212664,25.7921171 L23.2212664,25.7921171 C22.8966274,25.7921171 22.6334555,25.5289452 22.6334555,25.2043062 L22.6334555,21.9883858 C22.6334555,21.6637468 22.8966274,21.4005748 23.2212664,21.4005748 Z" id="Rectangle" fill="#D12149" transform="translate(23.221266, 23.596346) rotate(36.880000) translate(-23.221266, -23.596346) "></path>
                        <path d="M25.812236,21.4008408 L25.812236,21.4008408 C26.1368751,21.4008408 26.400047,21.6640127 26.400047,21.9886517 L26.400047,25.2045721 C26.400047,25.5292111 26.1368751,25.7923831 25.812236,25.7923831 L25.812236,25.7923831 C25.487597,25.7923831 25.2244251,25.5292111 25.2244251,25.2045721 L25.2244251,21.9886517 C25.2244251,21.6640127 25.487597,21.4008408 25.812236,21.4008408 Z" id="Rectangle" fill="#D12149" transform="translate(25.812236, 23.596612) rotate(36.880000) translate(-25.812236, -23.596612) "></path>
                        <path d="M28.4032057,21.4011067 L28.4032057,21.4011067 C28.7278447,21.4011067 28.9910166,21.6642787 28.9910166,21.9889177 L28.9910166,25.2048381 C28.9910166,25.5294771 28.7278447,25.792649 28.4032057,25.792649 L28.4032057,25.792649 C28.0785667,25.792649 27.8153947,25.5294771 27.8153947,25.2048381 L27.8153947,21.9889177 C27.8153947,21.6642787 28.0785667,21.4011067 28.4032057,21.4011067 Z" id="Rectangle" fill="#D12149" transform="translate(28.403206, 23.596878) rotate(36.880000) translate(-28.403206, -23.596878) "></path>
                    </g>
                </g>
            </g>
        </g>
    </g>
</svg>