<?xml version="1.0" encoding="UTF-8"?>
<svg width="40px" height="40px" viewBox="0 0 40 40" version="1.1" xmlns="http://www.w3.org/2000/svg" xmlns:xlink="http://www.w3.org/1999/xlink">
    <!-- Generator: sketchtool 52.4 (67378) - http://www.bohemiancoding.com/sketch -->
    <title>8772AE3A-687E-4D04-B852-A9837E09FE18</title>
    <desc>Created with sketchtool.</desc>
    <g id="Assets" stroke="none" stroke-width="1" fill="none" fill-rule="evenodd">
        <g id="02.-Icons" transform="translate(-184.000000, -782.000000)">
            <g id="02.2-Top-Nav" transform="translate(120.000000, 554.000000)">
                <g id="05.-Profile-/-Avatar-2" transform="translate(64.000000, 228.000000)">
                    <circle id="Bg---oval" stroke="#719E19" cx="20" cy="20" r="19.5"></circle>
                    <g id="avatar_2" fill-rule="evenodd">
                        <circle id="Oval" fill="#00B49C" cx="20" cy="20" r="20"></circle>
                        <path d="M25.8715,24.2385 C25.4738959,24.2404226 25.1005657,24.4300536 24.8645,24.75 C23.7188834,26.2855249 21.9155459,27.190032 19.99975,27.190032 C18.0839541,27.190032 16.2806166,26.2855249 15.135,24.75 C14.8992504,24.4298168 14.526105,24.2398148 14.1285,24.2375 L14.1,24.2375 C13.0775,24.2375 12.4905,25.402 13.1,26.224 C14.7186322,28.4127492 17.2795095,29.7039915 20.00175,29.7039915 C22.7239905,29.7039915 25.2848678,28.4127492 26.9035,26.224 C27.512,25.402 26.9255,24.2375 25.9035,24.2375 L25.8715,24.2385 Z" id="Path" fill="#FFFFFF"></path>
                        <circle id="Oval" fill="#FFFFFF" cx="13.1885" cy="15.1715" r="2.2935"></circle>
                        <circle id="Oval" fill="#FFFFFF" cx="26.8115" cy="15.1715" r="2.2935"></circle>
                    </g>
                </g>
            </g>
        </g>
    </g>
</svg>