<?xml version="1.0" encoding="UTF-8"?>
<svg width="40px" height="40px" viewBox="0 0 40 40" version="1.1" xmlns="http://www.w3.org/2000/svg" xmlns:xlink="http://www.w3.org/1999/xlink">
    <!-- Generator: sketchtool 52.4 (67378) - http://www.bohemiancoding.com/sketch -->
    <title>BD8E0C78-B44E-4E4C-A4C7-2EDE719DB067</title>
    <desc>Created with sketchtool.</desc>
    <g id="Assets" stroke="none" stroke-width="1" fill="none" fill-rule="evenodd">
        <g id="02.-Icons" transform="translate(-312.000000, -782.000000)">
            <g id="02.2-Top-Nav" transform="translate(120.000000, 554.000000)">
                <g id="05.-Profile-/-Avatar-4" transform="translate(192.000000, 228.000000)">
                    <circle id="Bg---oval" stroke="#719E19" cx="20" cy="20" r="19.5"></circle>
                    <g id="avatar_4" fill-rule="evenodd">
                        <circle id="Oval" fill="#53565D" cx="20" cy="20" r="20"></circle>
                        <path d="M39.5,24.464 C37.4869745,24.1402187 35.4331961,24.7152078 33.8809192,26.0371543 C32.3286424,27.3591007 31.433926,29.295102 31.433,31.334 C31.4305182,32.7973502 31.891562,34.2238906 32.75,35.409 C36.143657,32.6033309 38.5163878,28.7559918 39.5,24.464 Z" id="Path" fill="#D12149"></path>
                        <path d="M1.609,24.3755 C1.237572,24.3755604 0.866736781,24.4051536 0.5,24.464 C1.48361218,28.7559918 3.85634303,32.6033309 7.25,35.409 C8.10882478,34.2240276 8.57022537,32.7974666 8.568,31.334 C8.568,29.4884044 7.8348058,27.7184069 6.52972576,26.4134207 C5.22464573,25.1084344 3.45459557,24.3753674 1.609,24.3755 Z" id="Path" fill="#D12149"></path>
                        <path d="M5.8255,34.109 C9.57886736,37.8798731 14.6800442,39.9998053 20.0005,39.9998053 C25.3209558,39.9998053 30.4221326,37.8798731 34.1755,34.109 L34.1755,33.728 C34.1755,28.616 29.993,24.4335 24.881,24.4335 L15.12,24.4335 C10.008,24.4335 5.8255,28.616 5.8255,33.728 L5.8255,34.109 Z" id="Path" fill="#00B49C"></path>
                        <rect id="Rectangle" fill="#D12149" x="7.455" y="18.265" width="3.8235" height="5.8545" rx="1.91175"></rect>
                        <rect id="Rectangle" fill="#D12149" x="28.722" y="18.265" width="3.8235" height="5.8545" rx="1.91175"></rect>
                        <path d="M31.428,27.15 C29.6908612,25.4126785 27.3348143,24.4364478 24.878,24.436 L15.12,24.436 C12.6631857,24.4364478 10.3071388,25.4126785 8.57,27.15 C9.39796055,29.3420749 11.4952751,30.7936944 13.8385,30.7965 L26.1595,30.7965 C28.5027249,30.7936944 30.6000394,29.3420749 31.428,27.15 Z" id="Path" fill="#53565D"></path>
                        <path d="M16.2605,10.755 L23.7395,10.755 C27.3293509,10.755 30.2395,13.6651491 30.2395,17.255 L30.2395,25.295 C30.2395,27.4765248 28.4710248,29.245 26.2895,29.245 L13.7105,29.245 C11.5289752,29.245 9.7605,27.4765248 9.7605,25.295 L9.7605,17.255 C9.7605,13.6651491 12.6706491,10.755 16.2605,10.755 Z" id="Path" fill="#00B49C"></path>
                        <path d="M15,21.147 C13.3000675,21.147 11.922,19.7689325 11.922,18.069 C11.922,16.3690675 13.3000675,14.991 15,14.991 C16.6999325,14.991 18.078,16.3690675 18.078,18.069 C18.0760712,19.7681329 16.6991329,21.1450712 15,21.147 Z" id="Path" fill="#D12149"></path>
                        <circle id="Oval" fill="#FFD400" cx="14.9985" cy="18.069" r="2.303"></circle>
                        <path d="M15,19.3395 C14.2985984,19.3395 13.73,18.7709016 13.73,18.0695 C13.73,17.3680984 14.2985984,16.7995 15,16.7995 C15.7014016,16.7995 16.27,17.3680984 16.27,18.0695 C16.2691734,18.770559 15.701059,19.3386734 15,19.3395 Z" id="Path" fill="#232531"></path>
                        <path d="M25,21.147 C23.3000675,21.147 21.922,19.7689325 21.922,18.069 C21.922,16.3690675 23.3000675,14.991 25,14.991 C26.6999325,14.991 28.078,16.3690675 28.078,18.069 C28.0760712,19.7681329 26.6991329,21.1450712 25,21.147 Z" id="Path" fill="#D12149"></path>
                        <circle id="Oval" fill="#FFD400" cx="25.0015" cy="18.069" r="2.303"></circle>
                        <path d="M25,19.3395 C24.2985984,19.3395 23.73,18.7709016 23.73,18.0695 C23.73,17.3680984 24.2985984,16.7995 25,16.7995 C25.7014016,16.7995 26.27,17.3680984 26.27,18.0695 C26.2691734,18.770559 25.701059,19.3386734 25,19.3395 Z" id="Path" fill="#232531"></path>
                        <rect id="Rectangle" fill="#232531" x="19.2435" y="18.069" width="1.5135" height="4.1785" rx="0.75675"></rect>
                        <path d="M19.4605,27.962 C17.3335,27.962 15.4205,26.535 14.8105,24.4915 C14.693101,24.1004533 14.7674497,23.6769252 15.0110184,23.349245 C15.2545871,23.0215648 15.6387109,22.8282963 16.047,22.828 L23.9545,22.828 C24.3627891,22.8282963 24.7469129,23.0215648 24.9904816,23.349245 C25.2340503,23.6769252 25.308399,24.1004533 25.191,24.4915 C24.5795,26.535 22.6665,27.962 20.541,27.962 L19.4605,27.962 Z" id="Path" fill="#D12149"></path>
                        <path d="M16.0455,23.603 C15.8817969,23.6028141 15.7276783,23.6801701 15.6300092,23.8115455 C15.53234,23.9429208 15.5026621,24.1127905 15.55,24.2695 C16.0683271,25.9967945 17.6556211,27.1816816 19.459,27.1875 L20.5385,27.1875 C22.3428044,27.1827812 23.9314046,25.9976769 24.45,24.2695 C24.4972869,24.112959 24.467726,23.9432753 24.3702889,23.811947 C24.2728517,23.6806187 24.1190271,23.6031306 23.9555,23.603 L16.0455,23.603 Z" id="Path" fill="#FFD400"></path>
                        <path d="M17.988,27.3685 L17.988,23.2425 L17.2105,23.2425 L17.2105,27.0815 C17.4648333,27.1888333 17.724,27.2845 17.988,27.3685 Z" id="Path" fill="#D12149"></path>
                        <rect id="Rectangle" fill="#D12149" x="19.611" y="23.2425" width="1" height="4.305"></rect>
                        <path d="M22.0655,27.4885 C22.3155,27.356 22.5525,27.204 22.7895,27.05 L22.7895,23.2425 L22.012,23.2425 L22.012,27.5165 L22.0655,27.4885 Z" id="Path" fill="#D12149"></path>
                        <rect id="Rectangle" fill="#D12149" x="15.503" y="9.3325" width="8.9935" height="2.854" rx="1.427"></rect>
                        <path d="M24.497,10.7595 L15.503,10.7595 L15.503,9.3325 C15.5051974,8.54530163 16.1428016,7.90769736 16.93,7.9055 L23.07,7.9055 C23.8571984,7.90769736 24.4948026,8.54530163 24.497,9.3325 L24.497,10.7595 Z" id="Path" fill="#D12149"></path>
                        <rect id="Rectangle" fill="#FFFFFF" x="15.503" y="7.6165" width="8.9935" height="2.854" rx="1.427"></rect>
                        <path d="M17.87,7.6165 C17.9250893,7.72816692 17.9538264,7.85098372 17.954,7.9755 L17.954,7.9925 C17.954,9.1224746 18.8700254,10.0385 20,10.0385 C21.1299746,10.0385 22.046,9.1224746 22.046,7.9925 L22.046,7.976 C22.046829,7.8509354 22.0769689,7.72780719 22.134,7.6165 L17.87,7.6165 Z" id="Path" fill="#232531"></path>
                        <path d="M22.994,4.734 C22.9942954,3.35456101 22.0520671,2.15345405 20.7122271,1.82530649 C19.3723871,1.49715894 17.9817529,2.12691177 17.3445598,3.35036465 C16.7073667,4.57381752 16.988552,6.07427975 18.0255,6.984 C18.3095316,7.23511583 18.4716725,7.59638033 18.4705,7.9755 L18.4705,7.9925 C18.4726969,8.83638898 19.1561118,9.5200273 20,9.5225 C20.8436937,9.52002863 21.5270286,8.83669373 21.5295,7.993 L21.5295,7.9765 C21.5323563,7.5906986 21.7001423,7.22455375 21.9905,6.9705 C22.6296904,6.40299295 22.9950269,5.58876755 22.994,4.734 Z" id="Path" fill="#FFD400"></path>
                        <path d="M19.7235,9.576 L19.7235,5.676 C19.7235,5.5231552 19.8474052,5.39925 20.00025,5.39925 C20.1530948,5.39925 20.277,5.5231552 20.277,5.676 L20.277,9.576 L20.7935,9.576 L20.7935,5.676 C20.7935,5.23803819 20.4384618,4.883 20.0005,4.883 C19.5625382,4.883 19.2075,5.23803819 19.2075,5.676 L19.2075,9.576 L19.7235,9.576 Z" id="Path" fill="#232531"></path>
                    </g>
                </g>
            </g>
        </g>
    </g>
</svg>